<svg xmlns="http://www.w3.org/2000/svg" viewBox="0 0 38.81016 17.89211">
  <defs>
    <style>
      .cls-1 {
        fill: #dcf0ff;
      }

      .cls-10, .cls-11, .cls-16, .cls-2, .cls-25, .cls-28, .cls-29, .cls-7, .cls-8 {
        fill: none;
      }

      .cls-10, .cls-11, .cls-16, .cls-2, .cls-25, .cls-7 {
        stroke: #000201;
      }

      .cls-10, .cls-11, .cls-16, .cls-2, .cls-25, .cls-29, .cls-7, .cls-8 {
        stroke-linecap: round;
        stroke-linejoin: round;
      }

      .cls-2 {
        stroke-width: 0.14497px;
      }

      .cls-3 {
        fill: #ffc68d;
      }

      .cls-4 {
        fill: #f7a65c;
      }

      .cls-5 {
        fill: #ffdcbd;
      }

      .cls-6 {
        fill: #e28c37;
      }

      .cls-7 {
        stroke-width: 0.22488px;
      }

      .cls-29, .cls-8 {
        stroke: #fff;
      }

      .cls-8 {
        stroke-width: 0.13158px;
      }

      .cls-26, .cls-27, .cls-30, .cls-9 {
        fill: #fff;
      }

      .cls-10 {
        stroke-width: 0.145px;
      }

      .cls-11 {
        stroke-width: 0.245px;
      }

      .cls-12 {
        fill: #ff4500;
      }

      .cls-13 {
        fill: #bc2800;
      }

      .cls-14 {
        fill: #f4ad5e;
      }

      .cls-15 {
        fill: #000201;
      }

      .cls-16 {
        stroke-width: 0.21075px;
      }

      .cls-17 {
        fill: #536b77;
      }

      .cls-18 {
        fill: #263f47;
      }

      .cls-19 {
        fill: #8bd2fc;
      }

      .cls-20 {
        fill: #cfabf4;
      }

      .cls-21 {
        fill: #e0e3e8;
      }

      .cls-22 {
        fill: #abbcd3;
      }

      .cls-23 {
        fill: #b6c1d1;
      }

      .cls-24 {
        fill: #d83300;
      }

      .cls-25 {
        stroke-width: 0.165px;
      }

      .cls-26 {
        opacity: 0.6;
      }

      .cls-27 {
        opacity: 0.8;
      }

      .cls-28 {
        stroke: #ffdcc0;
        stroke-miterlimit: 10;
        stroke-width: 0.15px;
      }

      .cls-29 {
        stroke-width: 0.25px;
      }

      .cls-30 {
        font-size: 1.98012px;
        font-family: Jost-Medium, Jost;
        font-weight: 500;
      }
    </style>
  </defs>
  <g id="Layer_2" data-name="Layer 2">
    <g id="Layer_1-2" data-name="Layer 1">
      <g>
        <path class="cls-1" d="M35.00994,13.74115l-.68435,1.22052-3.09-2.02L33.50406,9.4588C34.51583,10.32939,33.97465,12.56468,35.00994,13.74115Z"/>
        <path class="cls-2" d="M34.08821,15.5842l-3.18269-2.07785L33.95,8.84315a.97215.97215,0,0,1,1.34547-.28258l3.06731,2.00254"/>
        <g>
          <path class="cls-1" d="M37.76787,10.33253h0a.86655.86655,0,0,1,.86655.86655V12.3645a0,0,0,0,1,0,0h-1.7331a0,0,0,0,1,0,0V11.19908a.86655.86655,0,0,1,.86655-.86655Z" transform="translate(12.34697 -18.80076) rotate(33.13898)"/>
          <path class="cls-2" d="M36.67873,11.88028l1.24774.8146.68486-1.049a.77621.77621,0,0,0-.22562-1.07429"/>
        </g>
        <path class="cls-2" d="M33.99878,15.52582l3.04442-4.6632A.97215.97215,0,0,1,38.38867,10.58"/>
        <g>
          <line class="cls-2" x1="33.82667" y1="10.48543" x2="34.77014" y2="11.10139"/>
          <line class="cls-2" x1="34.05337" y1="10.13818" x2="35.75687" y2="11.25033"/>
          <line class="cls-2" x1="34.50679" y1="9.44368" x2="36.21029" y2="10.55583"/>
          <line class="cls-2" x1="34.28008" y1="9.79093" x2="34.92217" y2="10.21013"/>
          <line class="cls-2" x1="35.17114" y1="10.37267" x2="35.81323" y2="10.79187"/>
        </g>
        <g>
          <polyline class="cls-3" points="28.258 9.471 33.398 9.471 34.672 17.659 25.21 17.659"/>
          <path class="cls-4" d="M28.2578,9.47057l.17411.49173a14.81482,14.81482,0,0,0,6.24,7.69649H25.21"/>
          <polyline class="cls-5" points="28.258 9.471 33.398 9.471 33.444 10.016 26.734 10.016"/>
          <circle class="cls-6" cx="31.27721" cy="10.60498" r="0.34131"/>
          <path class="cls-2" d="M31.30564,11.00586v.69941a1.04059,1.04059,0,0,1-1.04059,1.04059h0a1.04058,1.04058,0,0,1-1.04058-1.04059V10.6988"/>
          <polyline class="cls-7" points="28.258 9.471 33.398 9.471 34.672 17.659 25.21 17.659"/>
          <g>
            <line class="cls-8" x1="30.15043" y1="9.99939" x2="29.67458" y2="9.99939"/>
            <circle class="cls-9" cx="30.40631" cy="9.99939" r="0.08529"/>
          </g>
          <circle class="cls-10" cx="31.28574" cy="10.60498" r="0.34131"/>
        </g>
        <path class="cls-1" d="M4.34024,11.29047a1.495,1.495,0,1,0,1.49,1.5A1.48951,1.48951,0,0,0,4.34024,11.29047Zm0,2.33a.83652.83652,0,0,1-.84-.83.84.84,0,0,1,1.68006,0A.83663.83663,0,0,1,4.34024,13.62049Z"/>
        <g>
          <circle class="cls-11" cx="4.36295" cy="12.76468" r="1.49411"/>
          <circle class="cls-2" cx="4.36295" cy="12.76468" r="0.83727"/>
        </g>
        <g>
          <circle class="cls-11" cx="4.36295" cy="12.76468" r="1.49411"/>
          <circle class="cls-2" cx="4.36295" cy="12.76468" r="0.83727"/>
        </g>
        <path class="cls-9" d="M4.4453,10.21174h6.02352a0,0,0,0,1,0,0v5.50587a0,0,0,0,1,0,0H6.35412A1.90882,1.90882,0,0,1,4.4453,13.8088V10.21174A0,0,0,0,1,4.4453,10.21174Z"/>
        <path class="cls-12" d="M4.81,10.21174h6.02352a0,0,0,0,1,0,0v5.50587a0,0,0,0,1,0,0H6.71882A1.90882,1.90882,0,0,1,4.81,13.8088V10.21174A0,0,0,0,1,4.81,10.21174Z"/>
        <path class="cls-13" d="M10.83352,15.71762l-4.0294-.01177A1.46853,1.46853,0,0,1,5.4453,13.88233H7.69235l.02353-3.57647,1.17647-.14117Z"/>
        <path class="cls-11" d="M6.73941,10.21174h3.72941v5.50588H6.35412A1.90882,1.90882,0,0,1,4.4453,13.8088V10.21174H5.76294"/>
        <rect class="cls-14" x="3.11589" y="15.6235" width="30.32935" height="2.11764"/>
        <rect class="cls-3" x="3.11589" y="15.6235" width="30.32935" height="0.5079"/>
        <rect class="cls-6" x="3.11589" y="17.21173" width="30.32935" height="0.5079"/>
        <g>
          <circle class="cls-15" cx="0.15251" cy="17.7396" r="0.15251"/>
          <line class="cls-16" x1="2.56295" y1="17.74114" x2="0.71434" y2="17.74114"/>
        </g>
        <g>
          <circle class="cls-15" cx="36.3681" cy="17.66534" r="0.15251"/>
          <line class="cls-16" x1="33.95766" y1="17.66688" x2="35.80627" y2="17.66688"/>
        </g>
        <line class="cls-7" x1="8.79277" y1="8.55984" x2="8.79277" y2="0.66254"/>
        <rect class="cls-17" x="8.00962" y="0.094" width="21.25451" height="14.25087" rx="0.53809"/>
        <path class="cls-18" d="M29.26644,13.43527v.58427c0,.17874-.23831.33-.54478.33H8.55249c-.30647,0-.54478-.15125-.54478-.33v-.58427c0,.18557.23831.32994.54478.32994H28.72166C29.02813,13.76521,29.26644,13.62084,29.26644,13.43527Z"/>
        <path class="cls-7" d="M13.3628.12445H28.77171a.53809.53809,0,0,1,.53809.53809V13.83723a.53809.53809,0,0,1-.53809.53809H8.59338a.53809.53809,0,0,1-.53809-.53809V11.7779"/>
        <path class="cls-7" d="M8.05529,8.55984V.66254A.53809.53809,0,0,1,8.59338.12445h1.64743"/>
        <line class="cls-7" x1="8.05529" y1="10.73638" x2="8.05529" y2="9.49454"/>
        <rect class="cls-1" x="9.1648" y="1.20032" width="19.18387" height="12.30203"/>
        <rect class="cls-19" x="9.1648" y="1.20032" width="19.18387" height="0.37081"/>
        <rect class="cls-20" x="9.23983" y="13.33" width="19.06814" height="0.07698"/>
        <line class="cls-7" x1="9.15151" y1="7.0263" x2="9.15151" y2="5.14572"/>
        <line class="cls-7" x1="10.95985" y1="0.11244" x2="12.60074" y2="0.11244"/>
        <g>
          <path class="cls-15" d="M8.42981,1.41789a.06078.06078,0,0,1-.02444-.00031.0615.0615,0,0,1-.04874-.07205l.00059-.0027L8.53679.49347A.06206.06206,0,0,1,8.65824.5191l-.18.849A.06152.06152,0,0,1,8.42981,1.41789Z"/>
          <path class="cls-15" d="M8.79788.95274a.06065.06065,0,0,1-.02445-.0003.06151.06151,0,0,1-.04873-.072L8.72528.87768,8.82123.423a.06206.06206,0,1,1,.12145.02563L8.84625.903A.06151.06151,0,0,1,8.79788.95274Z"/>
        </g>
        <g>
          <path class="cls-15" d="M9.84158,12.53551a.06065.06065,0,0,1-.02445-.0003.0615.0615,0,0,1-.04873-.072l.00058-.00271.17957-.84935a.06206.06206,0,0,1,.12145.02563l-.18.849A.06152.06152,0,0,1,9.84158,12.53551Z"/>
          <path class="cls-15" d="M10.20964,12.07037a.06083.06083,0,0,1-.02445-.00031.0615.0615,0,0,1-.04873-.072l.00058-.0027.09595-.45468a.06207.06207,0,0,1,.12146.02563l-.09644.45435A.06151.06151,0,0,1,10.20964,12.07037Z"/>
        </g>
        <g>
          <line class="cls-2" x1="12.83702" y1="0.57336" x2="13.43929" y2="0.57336"/>
          <line class="cls-2" x1="11.34882" y1="0.57336" x2="12.51743" y2="0.57336"/>
        </g>
        <g>
          <line class="cls-2" x1="26.6374" y1="0.70242" x2="27.23968" y2="0.70242"/>
          <line class="cls-2" x1="25.1492" y1="0.70242" x2="26.31782" y2="0.70242"/>
        </g>
        <g>
          <path class="cls-21" d="M5.7973,14.23582H31.20336a0,0,0,0,1,0,0v0A1.41121,1.41121,0,0,1,29.79215,15.647H7.2085A1.41121,1.41121,0,0,1,5.7973,14.23582v0a0,0,0,0,1,0,0Z"/>
          <path class="cls-22" d="M30.9098,14.94115a1.00237,1.00237,0,0,1-1.07258.70756H7.25714a1.20028,1.20028,0,0,1-1.24141-.684Z"/>
          <path class="cls-11" d="M5.75691,14.17846H31.163a0,0,0,0,1,0,0v0a1.41121,1.41121,0,0,1-1.41121,1.41121H7.16811a1.41121,1.41121,0,0,1-1.41121-1.41121v0A0,0,0,0,1,5.75691,14.17846Z"/>
        </g>
        <line class="cls-2" x1="17.00394" y1="14.94115" x2="19.33335" y2="14.94115"/>
        <line class="cls-2" x1="4.7922" y1="16.17056" x2="7.12161" y2="16.17056"/>
        <g>
          <circle class="cls-19" cx="18.41064" cy="9.76469" r="1.52941"/>
          <circle class="cls-19" cx="18.41064" cy="9.76469" r="0.81555"/>
        </g>
        <g>
          <circle class="cls-19" cx="18.41064" cy="9.95292" r="1.52941"/>
          <circle class="cls-19" cx="18.41064" cy="9.95292" r="0.81555"/>
        </g>
        <g>
          <circle class="cls-21" cx="18.41064" cy="9.36469" r="1.52941"/>
          <circle class="cls-21" cx="18.41064" cy="9.36469" r="0.81555"/>
        </g>
        <circle class="cls-7" cx="18.41064" cy="9.36469" r="1.52941"/>
        <circle class="cls-23" cx="18.41064" cy="9.59998" r="0.68897"/>
        <g>
          <path class="cls-12" d="M14.91309,8.26092a3.81274,3.81274,0,0,0-.39966,1.70786H12.69656A5.58422,5.58422,0,0,1,13.169,7.6977Z"/>
          <path class="cls-12" d="M16.27574,6.71663a3.86245,3.86245,0,0,0-1.36265,1.54429L13.169,7.6977A5.64858,5.64858,0,0,1,15.18566,5.245Z"/>
          <path class="cls-12" d="M18.41951,4.24572V6.06258a3.78354,3.78354,0,0,0-2.14377.65405L15.18566,5.245A5.63525,5.63525,0,0,1,18.41951,4.24572Z"/>
          <path class="cls-12" d="M21.6354,5.245,20.54555,6.71663a3.72637,3.72637,0,0,0-2.126-.65405V4.24572A5.61992,5.61992,0,0,1,21.6354,5.245Z"/>
          <path class="cls-12" d="M23.65232,7.6977l-1.74412.56322a3.86919,3.86919,0,0,0-1.36265-1.54429L21.6354,5.245A5.6491,5.6491,0,0,1,23.65232,7.6977Z"/>
          <path class="cls-12" d="M24.12472,9.96878H22.30786a3.81579,3.81579,0,0,0-.39966-1.70786l1.74412-.56322A5.588,5.588,0,0,1,24.12472,9.96878Z"/>
        </g>
        <path class="cls-24" d="M24.05853,10.04105h-.02991a5.46856,5.46856,0,0,0-.45007-1.71c-.06995-.17-.15-.33-.23-.49005a5.75382,5.75382,0,0,0-1.78-1.96c-.09-.06-.18006-.13-.27991-.19a5.759,5.759,0,0,0-5.89014,0c-.1.06-.18994.13-.28.19a5.6943,5.6943,0,0,0-1.77991,1.97,5.36287,5.36287,0,0,0-.24.48,5.19454,5.19454,0,0,0-.44007,1.71h-.03a5.55782,5.55782,0,0,1,.47009-2.27,5.70222,5.70222,0,0,1,2.0199-2.46,5.68874,5.68874,0,0,1,8.46008,2.46A5.56458,5.56458,0,0,1,24.05853,10.04105Z"/>
        <g>
          <path class="cls-7" d="M14.91309,8.26092a3.81274,3.81274,0,0,0-.39966,1.70786H12.69656A5.58422,5.58422,0,0,1,13.169,7.6977Z"/>
          <path class="cls-7" d="M16.27574,6.71663a3.86245,3.86245,0,0,0-1.36265,1.54429L13.169,7.6977A5.64858,5.64858,0,0,1,15.18566,5.245Z"/>
          <path class="cls-7" d="M18.41951,4.24572V6.06258a3.78354,3.78354,0,0,0-2.14377.65405L15.18566,5.245A5.63525,5.63525,0,0,1,18.41951,4.24572Z"/>
          <path class="cls-7" d="M21.6354,5.245,20.54555,6.71663a3.72637,3.72637,0,0,0-2.126-.65405V4.24572A5.61992,5.61992,0,0,1,21.6354,5.245Z"/>
          <path class="cls-7" d="M23.65232,7.6977l-1.74412.56322a3.86919,3.86919,0,0,0-1.36265-1.54429L21.6354,5.245A5.6491,5.6491,0,0,1,23.65232,7.6977Z"/>
          <path class="cls-7" d="M24.12472,9.96878H22.30786a3.81579,3.81579,0,0,0-.39966-1.70786l1.74412-.56322A5.588,5.588,0,0,1,24.12472,9.96878Z"/>
        </g>
        <g>
          <polygon class="cls-12" points="19.193 5.492 19.036 7.547 18.88 9.602 18.317 9.479 17.754 9.355 18.473 7.423 19.193 5.492"/>
          <polygon class="cls-25" points="19.195 5.495 19.038 7.55 18.882 9.605 18.319 9.482 17.756 9.358 18.475 7.426 19.195 5.495"/>
        </g>
        <circle class="cls-9" cx="18.41064" cy="9.36469" r="0.68897"/>
        <circle class="cls-2" cx="18.41064" cy="9.36469" r="0.68897"/>
        <g>
          <line class="cls-2" x1="12.81881" y1="9.12939" x2="13.38352" y2="9.16469"/>
          <line class="cls-2" x1="12.98058" y1="8.39116" x2="13.48646" y2="8.5441"/>
        </g>
        <g>
          <line class="cls-2" x1="13.92545" y1="6.55049" x2="14.34496" y2="6.93015"/>
          <line class="cls-2" x1="14.42763" y1="6.01764" x2="14.74528" y2="6.37058"/>
        </g>
        <g>
          <line class="cls-2" x1="20.44527" y1="4.71743" x2="20.26326" y2="5.25317"/>
          <line class="cls-2" x1="19.74736" y1="4.49596" x2="19.64138" y2="4.95881"/>
        </g>
        <g>
          <line class="cls-2" x1="22.96478" y1="6.55049" x2="22.54526" y2="6.93015"/>
          <line class="cls-2" x1="22.4626" y1="6.01764" x2="22.14495" y2="6.37058"/>
        </g>
        <g>
          <line class="cls-2" x1="24.00408" y1="9.12939" x2="23.43938" y2="9.16469"/>
          <line class="cls-2" x1="23.84232" y1="8.39116" x2="23.33644" y2="8.5441"/>
        </g>
        <g>
          <polygon class="cls-26" points="21.575 13.365 21.104 13.365 24.104 1.082 24.575 1.082 21.575 13.365"/>
          <polygon class="cls-27" points="23.657 13.365 22.186 13.365 25.186 1.082 26.657 1.082 23.657 13.365"/>
        </g>
        <polygon class="cls-26" points="19.669 13.365 19.198 13.365 22.198 1.082 22.669 1.082 19.669 13.365"/>
        <polyline class="cls-7" points="9.152 4.421 9.152 1.099 28.335 1.099 28.335 13.401 9.152 13.401 9.152 7.887"/>
        <g>
          <line class="cls-2" x1="16.45773" y1="4.70235" x2="16.63973" y2="5.23808"/>
          <line class="cls-2" x1="17.15563" y1="4.48087" x2="17.26161" y2="4.94373"/>
        </g>
        <circle class="cls-9" cx="10.13941" cy="2.75294" r="0.38823"/>
        <circle class="cls-9" cx="10.8042" cy="3.41773" r="0.26071"/>
        <circle class="cls-9" cx="10.10889" cy="3.43529" r="0.15772"/>
        <path class="cls-28" d="M3.13942,16.41173a39.60433,39.60433,0,0,0,7.6.45882c3.6-.21176,5.99982-.6,9.63528-.6,4.27058,0,7.35293.6,13.03527.67058"/>
        <path class="cls-28" d="M33.33936,16.41765c-5.68234.07059-8.76469.67059-13.03527.67059A35.24093,35.24093,0,0,1,15.633,16.72a48.10339,48.10339,0,0,0-12.47.15057h0"/>
        <polyline class="cls-7" points="4.622 15.623 33.445 15.623 33.445 17.741 3.116 17.741 3.116 15.623 3.61 15.623"/>
        <circle class="cls-15" cx="7.61588" cy="16.17056" r="0.1531"/>
        <circle class="cls-15" cx="4.09388" cy="15.63083" r="0.1531"/>
        <circle class="cls-15" cx="6.26883" cy="10.23527" r="0.1531"/>
        <g>
          <line class="cls-29" x1="7.66294" y1="14.90585" x2="8.59823" y2="14.90585"/>
          <circle class="cls-9" cx="7.16" cy="14.90585" r="0.16765"/>
        </g>
        <g>
          <path class="cls-12" d="M32.82367,7.46589,30.49374,8.69294a.12787.12787,0,0,1-.17272-.05355L28.51459,5.20931a.34073.34073,0,0,1-.0226-.264l.56233-1.73164,1.80558.48365a.34071.34071,0,0,1,.2133.17034l1.804,3.42551A.12785.12785,0,0,1,32.82367,7.46589Z"/>
          <circle class="cls-12" cx="29.84713" cy="4.63957" r="0.42452"/>
        </g>
        <path class="cls-24" d="M29.01285,3.41577l-.06128,1.70314a.36273.36273,0,0,0,.09985.264l2.63,2.75677-.25784.1354L28.75084,5.45539a.3633.3633,0,0,1-.09986-.264l.14079-1.09484Z"/>
        <g>
          <path class="cls-7" d="M32.82367,7.46589,30.49374,8.69294a.12787.12787,0,0,1-.17272-.05355L28.51459,5.20931a.34073.34073,0,0,1-.0226-.264l.56233-1.73164,1.80558.48365a.34071.34071,0,0,1,.2133.17034l1.804,3.42551A.12785.12785,0,0,1,32.82367,7.46589Z"/>
          <circle class="cls-7" cx="29.84713" cy="4.63957" r="0.42452"/>
        </g>
        <g>
          <path class="cls-12" d="M34.06876,6.34836,32.06229,8.26255a.13464.13464,0,0,1-.19037-.00448l-2.818-2.95388a.35876.35876,0,0,1-.09894-.26088l.07066-1.916L30.99384,3.097a.35881.35881,0,0,1,.26513.11109L34.07324,6.158A.13464.13464,0,0,1,34.06876,6.34836Z"/>
          <circle class="cls-12" cx="30.23948" cy="4.34317" r="0.44706"/>
        </g>
        <path class="cls-24" d="M34.14435,6.36166l-2.01,1.92a.13054.13054,0,0,1-.18994-.01l-1.6-1.68a2.99949,2.99949,0,0,0,2.34-1.96l1.47,1.54A.13889.13889,0,0,1,34.14435,6.36166Z"/>
        <path class="cls-7" d="M32.36972,4.37235,34.07324,6.158a.13464.13464,0,0,1-.00448.19037L32.06229,8.26255a.13464.13464,0,0,1-.19037-.00448l-2.818-2.95388a.35876.35876,0,0,1-.09894-.26088l.07066-1.916L30.99384,3.097a.35881.35881,0,0,1,.26513.11109l.45686.46253"/>
        <circle class="cls-9" cx="30.22323" cy="4.32614" r="0.44706"/>
        <circle class="cls-2" cx="30.23948" cy="4.34317" r="0.44706"/>
        <path class="cls-2" d="M29.98482,4.65912l.22644-.18344a1.07415,1.07415,0,0,0-.07189-1.72274h0a1.07415,1.07415,0,0,0-.83657-.16065"/>
        <text class="cls-30" transform="matrix(0.72355, -0.69027, 0.69027, 0.72355, 31.65926, 7.13487)">%</text>
        <circle class="cls-15" cx="32.00995" cy="4.02352" r="0.1531"/>
        <circle class="cls-2" cx="18.68057" cy="0.60809" r="0.16186"/>
      </g>
    </g>
  </g>
</svg>
