<svg xmlns="http://www.w3.org/2000/svg" viewBox="0 0 130.33 112.39"><defs><style>.cls-1{fill:#abbcd3;}.cls-2{fill:#193649;}.cls-3{fill:#325f77;}.cls-4{fill:#febc2e;}.cls-5{fill:#ff5f57;}.cls-6{fill:#29c940;}.cls-7{fill:#000201;}.cls-8,.cls-9{fill:#fff;}.cls-8{opacity:0.45;isolation:isolate;}</style></defs><g id="Layer_2" data-name="Layer 2"><g id="Layer_1-2" data-name="Layer 1"><rect class="cls-1" x="5.58" y="32.42" width="124.75" height="79.97" rx="8.99"/><rect class="cls-2" x="1.21" y="16.76" width="121.37" height="89.17" rx="5.09"/><polygon class="cls-3" points="62 16.74 44.6 105.96 37.48 105.96 54.87 16.74 62 16.74"/><polygon class="cls-3" points="95.08 16.68 77.79 105.9 61.2 105.9 78.6 16.68 95.08 16.68"/><polygon class="cls-3" points="107.5 16.68 90.1 105.9 82.97 105.9 100.37 16.68 107.5 16.68"/><path class="cls-3" d="M10.91,91.53a1.28,1.28,0,0,1-1.28-1.28V42.62a1.28,1.28,0,0,1,2.55,0V90.25A1.27,1.27,0,0,1,10.91,91.53Z"/><path class="cls-4" d="M57.94,41.67H17a1.21,1.21,0,1,1,0-2.42H57.94a1.21,1.21,0,1,1,0,2.42Z"/><path class="cls-4" d="M43.22,46.88H17a1.21,1.21,0,0,1,0-2.42H43.22a1.21,1.21,0,0,1,0,2.42Z"/><path class="cls-4" d="M32.81,52.35H17a1.21,1.21,0,1,1,0-2.41h15.8a1.21,1.21,0,1,1,0,2.41Z"/><path class="cls-4" d="M41.61,52.35H37.48a1.21,1.21,0,1,1,0-2.41h4.13a1.21,1.21,0,1,1,0,2.41Z"/><path class="cls-4" d="M53,52.35H47.41a1.21,1.21,0,1,1,0-2.41H53a1.21,1.21,0,1,1,0,2.41Z"/><path class="cls-4" d="M57.94,62.5H17a1.21,1.21,0,1,1,0-2.42H57.94a1.21,1.21,0,1,1,0,2.42Z"/><path class="cls-4" d="M43.22,67.71H17a1.21,1.21,0,0,1,0-2.42H43.22a1.21,1.21,0,1,1,0,2.42Z"/><path class="cls-4" d="M32.81,73.18H17a1.21,1.21,0,1,1,0-2.42h15.8a1.21,1.21,0,1,1,0,2.42Z"/><path class="cls-4" d="M41.61,73.18H37.48a1.21,1.21,0,0,1,0-2.42h4.13a1.21,1.21,0,1,1,0,2.42Z"/><path class="cls-4" d="M53,73.18H47.41a1.21,1.21,0,0,1,0-2.42H53a1.21,1.21,0,1,1,0,2.42Z"/><path class="cls-3" d="M37.48,57.49H17A1.27,1.27,0,1,1,17,55H37.48a1.27,1.27,0,1,1,0,2.54Z"/><path class="cls-4" d="M57.94,78.31H17a1.27,1.27,0,0,1,0-2.54H57.94a1.27,1.27,0,0,1,0,2.54Z"/><path class="cls-4" d="M57.94,83.33H17a1.21,1.21,0,1,1,0-2.42H57.94a1.21,1.21,0,0,1,0,2.42Z"/><path class="cls-4" d="M43.22,88.53H17a1.21,1.21,0,1,1,0-2.42H43.22a1.21,1.21,0,1,1,0,2.42Z"/><path class="cls-4" d="M32.81,94H17a1.21,1.21,0,0,1,0-2.42h15.8a1.21,1.21,0,1,1,0,2.42Z"/><path class="cls-4" d="M41.61,94H37.48a1.21,1.21,0,1,1,0-2.42h4.13a1.21,1.21,0,1,1,0,2.42Z"/><path class="cls-4" d="M53,94H47.41a1.21,1.21,0,1,1,0-2.42H53A1.21,1.21,0,1,1,53,94Z"/><path class="cls-4" d="M112.62,88h-21a.65.65,0,0,1,0-1.3h21a.65.65,0,0,1,0,1.3Z"/><path class="cls-4" d="M105.07,90.64H91.63a.65.65,0,0,1,0-1.3h13.44a.65.65,0,0,1,0,1.3Z"/><path class="cls-4" d="M99.73,93.45h-8.1a.65.65,0,0,1,0-1.3h8.1a.65.65,0,1,1,0,1.3Z"/><path class="cls-4" d="M104.24,93.45h-2.11a.65.65,0,1,1,0-1.3h2.11a.65.65,0,1,1,0,1.3Z"/><path class="cls-4" d="M110.1,93.45h-2.88a.65.65,0,0,1,0-1.3h2.88a.65.65,0,0,1,0,1.3Z"/><path class="cls-4" d="M112.62,76.11h-21a.65.65,0,0,1-.65-.65.66.66,0,0,1,.65-.66h21a.66.66,0,0,1,.65.66A.65.65,0,0,1,112.62,76.11Z"/><path class="cls-4" d="M105.07,78.78H91.63a.66.66,0,0,1-.65-.66.65.65,0,0,1,.65-.65h13.44a.65.65,0,0,1,.65.65A.66.66,0,0,1,105.07,78.78Z"/><path class="cls-4" d="M99.73,81.58h-8.1a.65.65,0,1,1,0-1.3h8.1a.65.65,0,1,1,0,1.3Z"/><path class="cls-4" d="M104.24,81.58h-2.11a.65.65,0,1,1,0-1.3h2.11a.65.65,0,1,1,0,1.3Z"/><path class="cls-4" d="M110.1,81.58h-2.88a.65.65,0,1,1,0-1.3h2.88a.65.65,0,1,1,0,1.3Z"/><path class="cls-4" d="M112.62,52.38h-21a.66.66,0,0,1-.65-.66.65.65,0,0,1,.65-.65h21a.65.65,0,0,1,.65.65A.66.66,0,0,1,112.62,52.38Z"/><path class="cls-4" d="M105.07,55H91.63a.65.65,0,1,1,0-1.3h13.44a.65.65,0,1,1,0,1.3Z"/><path class="cls-4" d="M99.73,57.85h-8.1a.65.65,0,1,1,0-1.3h8.1a.65.65,0,1,1,0,1.3Z"/><path class="cls-4" d="M104.24,57.85h-2.11a.65.65,0,1,1,0-1.3h2.11a.65.65,0,1,1,0,1.3Z"/><path class="cls-4" d="M110.1,57.85h-2.88a.65.65,0,0,1,0-1.3h2.88a.65.65,0,0,1,0,1.3Z"/><path class="cls-4" d="M112.62,64.24h-21a.65.65,0,1,1,0-1.3h21a.65.65,0,1,1,0,1.3Z"/><path class="cls-4" d="M105.07,66.91H91.63a.65.65,0,1,1,0-1.3h13.44a.65.65,0,1,1,0,1.3Z"/><path class="cls-4" d="M99.73,69.72h-8.1a.66.66,0,0,1,0-1.31h8.1a.66.66,0,1,1,0,1.31Z"/><path class="cls-4" d="M104.24,69.72h-2.11a.66.66,0,1,1,0-1.31h2.11a.66.66,0,1,1,0,1.31Z"/><path class="cls-4" d="M110.1,69.72h-2.88a.66.66,0,0,1,0-1.31h2.88a.66.66,0,0,1,0,1.31Z"/><path class="cls-4" d="M112.62,40.51h-21a.65.65,0,1,1,0-1.3h21a.65.65,0,0,1,0,1.3Z"/><path class="cls-4" d="M105.07,43.18H91.63a.65.65,0,0,1-.65-.65.66.66,0,0,1,.65-.66h13.44a.66.66,0,0,1,.65.66A.65.65,0,0,1,105.07,43.18Z"/><path class="cls-4" d="M99.73,46h-8.1a.65.65,0,1,1,0-1.3h8.1a.65.65,0,1,1,0,1.3Z"/><path class="cls-4" d="M104.24,46h-2.11a.65.65,0,1,1,0-1.3h2.11a.65.65,0,1,1,0,1.3Z"/><path class="cls-4" d="M110.1,46h-2.88a.65.65,0,0,1,0-1.3h2.88a.65.65,0,1,1,0,1.3Z"/><circle class="cls-5" cx="10.9" cy="22.63" r="2.03"/><circle class="cls-4" cx="17.25" cy="22.63" r="2.03"/><circle class="cls-6" cx="23.59" cy="22.63" r="2.03"/><path class="cls-7" d="M117.49,107.14H6.3A6.3,6.3,0,0,1,0,100.85v-79a6.31,6.31,0,0,1,6.3-6.3H117.49a6.31,6.31,0,0,1,6.3,6.3v79A6.3,6.3,0,0,1,117.49,107.14ZM6.3,18a3.88,3.88,0,0,0-3.88,3.88v79a3.88,3.88,0,0,0,3.88,3.87H117.49a3.88,3.88,0,0,0,3.88-3.87v-79A3.88,3.88,0,0,0,117.49,18Z"/><path class="cls-7" d="M28.86,29.72H1.93a.75.75,0,0,1,0-1.5H28.86a.75.75,0,0,1,0,1.5Z"/><path class="cls-7" d="M121.65,29.72H35.8a.75.75,0,0,1,0-1.5h85.85a.75.75,0,0,1,0,1.5Z"/><rect class="cls-8" x="49.74" y="0.9" width="53.6" height="39.38" rx="2.25"/><path class="cls-7" d="M102.92,9.63H63.21a.91.91,0,0,1,0-1.81h39.71a.91.91,0,1,1,0,1.81Z"/><circle class="cls-5" cx="54.02" cy="4.84" r="0.9"/><circle class="cls-4" cx="56.82" cy="4.84" r="0.9"/><circle class="cls-6" cx="59.62" cy="4.84" r="0.9"/><polygon class="cls-9" points="93.28 0.91 85.64 40.28 78.33 40.28 86 0.91 93.28 0.91"/><polygon class="cls-9" points="98.76 0.91 91.08 40.28 87.94 40.28 95.61 0.91 98.76 0.91"/><path class="cls-7" d="M57.82,9.63H50.05a.91.91,0,0,1,0-1.81h7.77a.91.91,0,1,1,0,1.81Z"/><path class="cls-7" d="M101.09,41.19H52A3.16,3.16,0,0,1,48.83,38V3.15A3.16,3.16,0,0,1,52,0h49.11a3.16,3.16,0,0,1,3.15,3.15V38A3.16,3.16,0,0,1,101.09,41.19ZM52,1.81a1.34,1.34,0,0,0-1.34,1.34V38A1.34,1.34,0,0,0,52,39.38h49.11A1.34,1.34,0,0,0,102.43,38V3.15a1.34,1.34,0,0,0-1.34-1.34Z"/></g></g></svg>