<svg xmlns="http://www.w3.org/2000/svg" viewBox="0 0 253.05 268.99"><defs><style>.cls-1,.cls-12,.cls-13,.cls-14,.cls-16,.cls-18,.cls-22,.cls-27,.cls-3,.cls-30,.cls-31,.cls-32,.cls-4{fill:none;}.cls-1,.cls-12,.cls-13,.cls-30,.cls-31,.cls-4{stroke:#181828;}.cls-1,.cls-12,.cls-13,.cls-14,.cls-27,.cls-3,.cls-30{stroke-linecap:round;stroke-linejoin:round;}.cls-1,.cls-18,.cls-4{stroke-width:2px;}.cls-2{fill:#86ff33;}.cls-3{stroke:#eeffe1;}.cls-16,.cls-22,.cls-3,.cls-30{stroke-width:3px;}.cls-16,.cls-18,.cls-22,.cls-31,.cls-32,.cls-4{stroke-miterlimit:10;}.cls-5{fill:#54ca01;}.cls-6{fill:#fbb63a;}.cls-7{fill:#ed7d00;}.cls-8{fill:#ffdb9c;}.cls-9{fill:#889faa;}.cls-10{fill:#c5d5dc;}.cls-11,.cls-17,.cls-34{fill:#fff;}.cls-12{stroke-width:1.5px;}.cls-14{stroke:#fff;}.cls-15{fill:#c8eefd;}.cls-16,.cls-32{stroke:#4fcdff;}.cls-17,.cls-24{opacity:0.8;}.cls-18{stroke:#202020;}.cls-19{fill:#fbdb9e;}.cls-20{fill:#181828;}.cls-21{fill:#f68e2a;}.cls-22{stroke:#de761b;}.cls-23{fill:#ae5601;}.cls-24{fill:#ffc38c;}.cls-25{fill:#d6e6ff;}.cls-26{fill:#d15f39;}.cls-27{stroke:#f7a387;}.cls-28{fill:#f7a387;}.cls-29{fill:#a72e08;}.cls-31,.cls-32{stroke-width:4px;}.cls-33{fill:#fa4040;}.cls-34{opacity:0.7;}</style></defs><title>Asset 1</title><g id="Layer_2" data-name="Layer 2"><g id="Layer_1-2" data-name="Layer 1"><line class="cls-1" x1="246.19" y1="210.8" x2="246.19" y2="259.69"/><line class="cls-1" x1="237.74" y1="210.8" x2="237.74" y2="259.69"/><circle class="cls-2" cx="229.07" cy="243.05" r="22.98"/><path class="cls-3" d="M241.13,225.23s11,7.65,9.32,18.84"/><circle class="cls-4" cx="229.07" cy="243.05" r="22.98"/><path class="cls-5" d="M225.86,225.62h0a6.82,6.82,0,0,1,6.82,6.82v28.72a0,0,0,0,1,0,0h-6.82a0,0,0,0,1,0,0V225.62A0,0,0,0,1,225.86,225.62Z"/><path class="cls-1" d="M191.07,159.51s-47-19.37-42.55-64.27"/><path class="cls-1" d="M209.4,155.53s-63-43.89-56.86-97.18"/><path class="cls-1" d="M232.86,145.17H158.8"/><polyline class="cls-6" points="226.87 180.81 226.87 159.68 155.98 159.68 155.98 264.85 226.87 264.85 226.87 189.53"/><rect class="cls-7" x="155.98" y="159.68" width="70.89" height="6.97" transform="translate(382.85 326.34) rotate(-180)"/><rect class="cls-7" x="190.11" y="235.83" width="36.76" height="6.97" transform="translate(416.97 478.63) rotate(-180)"/><rect class="cls-7" x="220.54" y="164.23" width="6.33" height="99.25" transform="translate(447.41 427.71) rotate(-180)"/><path class="cls-8" d="M157.54,177.9h7.23a0,0,0,0,1,0,0v78.36a7.23,7.23,0,0,1-7.23,7.23h0a0,0,0,0,1,0,0V177.9A0,0,0,0,1,157.54,177.9Z" transform="translate(322.3 441.38) rotate(-180)"/><polyline class="cls-1" points="226.87 180.81 226.87 159.68 155.98 159.68 155.98 264.85 226.87 264.85 226.87 189.53"/><rect class="cls-9" x="138.55" y="152.36" width="96" height="8" transform="translate(373.1 312.72) rotate(-180)"/><path class="cls-10" d="M145,152.8h84.41a5,5,0,0,1,5,5v0a0,0,0,0,1,0,0H145a0,0,0,0,1,0,0v-5A0,0,0,0,1,145,152.8Z" transform="translate(379.48 310.57) rotate(-180)"/><path class="cls-11" d="M220.82,152.87h6.84a2.24,2.24,0,0,1,2.24,2.24v0a0,0,0,0,1,0,0H218.58a0,0,0,0,1,0,0v0A2.24,2.24,0,0,1,220.82,152.87Z" transform="translate(448.49 307.97) rotate(-180)"/><path class="cls-11" d="M208.48,152.87h6.84a2.24,2.24,0,0,1,2.24,2.24v0a0,0,0,0,1,0,0H206.24a0,0,0,0,1,0,0v0A2.24,2.24,0,0,1,208.48,152.87Z" transform="translate(423.8 307.97) rotate(180)"/><polyline class="cls-4" points="162.48 152.36 138.13 152.36 138.13 160.36 234.13 160.36 234.13 152.36 161.52 152.36"/><line class="cls-12" x1="224.97" y1="145.32" x2="224.97" y2="152.04"/><line class="cls-12" x1="212.03" y1="145.32" x2="212.03" y2="152.04"/><line class="cls-12" x1="199.08" y1="145.32" x2="199.08" y2="152.04"/><circle class="cls-9" cx="187.13" cy="156.8" r="1.64"/><circle class="cls-9" cx="192.2" cy="157.34" r="1.24"/><circle class="cls-9" cx="184.42" cy="155.57" r="0.68"/><line class="cls-13" x1="233.88" y1="156.34" x2="220.95" y2="156.34"/><rect class="cls-9" x="186.41" y="199.73" width="48" height="8" transform="translate(420.82 407.46) rotate(-180)"/><path class="cls-10" d="M185.46,200.07h36.41a5,5,0,0,1,5,5v0a0,0,0,0,1,0,0H185.46a0,0,0,0,1,0,0v-5a0,0,0,0,1,0,0Z" transform="translate(412.3 405.11) rotate(-180)"/><path class="cls-11" d="M187.59,200.24h6.84a2.24,2.24,0,0,1,2.24,2.24v0a0,0,0,0,1,0,0H185.35a0,0,0,0,1,0,0v0A2.24,2.24,0,0,1,187.59,200.24Z" transform="translate(382.02 402.71) rotate(-180)"/><polyline class="cls-4" points="228.34 199.73 186 199.73 186 207.73 234 207.73 234 199.73 201.38 199.73"/><line class="cls-14" x1="167.19" y1="162.77" x2="167.19" y2="167.77"/><line class="cls-14" x1="163.49" y1="169.03" x2="163.49" y2="173.03"/><line class="cls-14" x1="170.55" y1="173.67" x2="170.55" y2="177.67"/><line class="cls-14" x1="178.94" y1="173.54" x2="178.94" y2="178.54"/><line class="cls-14" x1="173.8" y1="169.03" x2="173.8" y2="173.03"/><path class="cls-11" d="M158.19,168.87h32.55a.75.75,0,0,0,0-1.5H158.19a.75.75,0,0,0,0,1.5Z"/><path class="cls-11" d="M158.19,174.2h42.55a.75.75,0,0,0,0-1.5H158.19a.75.75,0,0,0,0,1.5Z"/><path class="cls-11" d="M161.19,179.53h29.55a.75.75,0,0,0,0-1.5H161.19a.75.75,0,0,0,0,1.5Z"/><rect class="cls-15" x="190.51" y="208.11" width="36.22" height="27.75"/><rect class="cls-16" x="191.77" y="209.08" width="33.7" height="25.82"/><polygon class="cls-17" points="227 216.85 201.67 236.09 189.83 236.1 226.74 207.24 227 216.85"/><polygon class="cls-17" points="220.09 208.41 190.37 231.56 189.83 224.96 211.48 208.33 220.09 208.41"/><rect class="cls-18" x="190.51" y="208.11" width="36.22" height="27.75"/><line class="cls-18" x1="199.79" y1="207.68" x2="199.79" y2="236.16"/><rect class="cls-11" x="210.65" y="221.07" width="1.66" height="10.64" rx="0.83" transform="translate(258.52 -79.82) rotate(51.78)"/><rect class="cls-11" x="215.26" y="213.48" width="1.66" height="10.64" rx="0.83" transform="translate(254.31 -86.33) rotate(51.78)"/><rect class="cls-11" x="204.67" y="208.73" width="1.66" height="10.64" rx="0.83" transform="translate(246.54 -79.83) rotate(51.78)"/><rect class="cls-19" x="161.89" y="234.79" width="7.01" height="24.34" rx="3.51"/><rect class="cls-19" x="161.89" y="197.01" width="7.01" height="24.34" rx="3.51"/><line class="cls-1" x1="156.75" y1="251.64" x2="163.75" y2="251.64"/><circle class="cls-20" cx="167.86" cy="251.71" r="1.39"/><line class="cls-1" x1="156.75" y1="190.29" x2="163.75" y2="190.29"/><circle class="cls-20" cx="167.86" cy="190.37" r="1.39"/><line class="cls-13" x1="226.2" y1="179.37" x2="219.2" y2="179.37"/><circle class="cls-20" cx="216.66" cy="179.3" r="0.81"/><line class="cls-1" x1="226.5" y1="255" x2="219.5" y2="255"/><circle class="cls-20" cx="215.4" cy="254.92" r="1.39"/><line class="cls-1" x1="251.25" y1="249.16" x2="244.25" y2="249.16"/><circle class="cls-20" cx="240.15" cy="249.09" r="1.39"/><path class="cls-1" d="M30.43,174s23-6.28,23-26.34"/><path class="cls-1" d="M8.87,174.07H82.92"/><polyline class="cls-11" points="14.85 209.71 14.85 188.57 85.74 188.57 85.74 263.75 14.85 263.75 14.85 218.42"/><rect class="cls-10" x="14.85" y="188.58" width="70.89" height="6.97"/><polyline class="cls-1" points="14.85 209.71 14.85 188.57 85.74 188.57 85.74 263.75 14.85 263.75 14.85 218.42"/><rect class="cls-9" x="7.17" y="181.25" width="96" height="8"/><path class="cls-10" d="M7.29,181.69H96.67a0,0,0,0,1,0,0v0a5,5,0,0,1-5,5H7.29a0,0,0,0,1,0,0v-5A0,0,0,0,1,7.29,181.69Z"/><path class="cls-11" d="M11.82,181.76H23.14a0,0,0,0,1,0,0v0A2.24,2.24,0,0,1,20.9,184H14.06a2.24,2.24,0,0,1-2.24-2.24v0A0,0,0,0,1,11.82,181.76Z"/><path class="cls-11" d="M24.16,181.76H35.48a0,0,0,0,1,0,0v0A2.24,2.24,0,0,1,33.24,184H26.4a2.24,2.24,0,0,1-2.24-2.24v0a0,0,0,0,1,0,0Z"/><polyline class="cls-4" points="79.24 181.25 103.59 181.25 103.59 189.25 7.59 189.25 7.59 181.25 80.2 181.25"/><line class="cls-12" x1="16.75" y1="174.21" x2="16.75" y2="180.93"/><line class="cls-12" x1="29.7" y1="174.21" x2="29.7" y2="180.93"/><rect class="cls-21" x="22.16" y="200.87" width="67.48" height="54.04"/><rect class="cls-22" x="24.1" y="202.42" width="63.6" height="50.93"/><line class="cls-12" x1="42.64" y1="174.21" x2="42.64" y2="180.93"/><circle class="cls-9" cx="54.59" cy="185.69" r="1.64"/><circle class="cls-9" cx="49.52" cy="186.24" r="1.24"/><circle class="cls-9" cx="57.31" cy="184.46" r="0.68"/><path class="cls-23" d="M23.18,233h26.1a1,1,0,0,1,1,1v0a1,1,0,0,1-1,1H23.18a0,0,0,0,1,0,0V233a0,0,0,0,1,0,0Z"/><path class="cls-23" d="M22.37,242.55H41.75a.84.84,0,0,1,.84.84v.26a.84.84,0,0,1-.84.84H22.37a0,0,0,0,1,0,0v-1.95a0,0,0,0,1,0,0Z" transform="translate(-211.04 276) rotate(-90)"/><path class="cls-23" d="M32.06,242.55H51.44a.84.84,0,0,1,.84.84v.26a.84.84,0,0,1-.84.84H32.06a0,0,0,0,1,0,0v-1.95A0,0,0,0,1,32.06,242.55Z" transform="translate(-201.35 285.69) rotate(-90)"/><polygon class="cls-24" points="34.32 254.84 25.27 254.84 40.27 200.36 49.32 200.36 34.32 254.84"/><polygon class="cls-24" points="47.96 254.84 38.9 254.84 53.9 200.36 62.96 200.36 47.96 254.84"/><rect class="cls-1" x="22.16" y="200.65" width="67.48" height="54.04"/><polyline class="cls-11" points="51.17 137.1 51.17 122 73.17 122 73.17 192 51.17 192 51.17 170.53"/><polygon class="cls-25" points="72.97 121.22 72.97 191.22 50.97 191.22 50.97 187.33 69.46 187.33 69.46 121.22 72.97 121.22"/><rect class="cls-26" x="80.67" y="62.5" width="78" height="198"/><line class="cls-27" x1="152.94" y1="71.71" x2="152.94" y2="75.71"/><line class="cls-27" x1="151.14" y1="76.38" x2="151.14" y2="80.38"/><path class="cls-28" d="M148.49,81.26H158a.75.75,0,0,0,0-1.5h-9.55a.75.75,0,0,0,0,1.5Z"/><path class="cls-28" d="M138.17,71.82h19.55a.75.75,0,0,0,0-1.5H138.17a.75.75,0,0,0,0,1.5Z"/><path class="cls-28" d="M144.17,76.64h13.55a.75.75,0,0,0,0-1.5H144.17a.75.75,0,0,0,0,1.5Z"/><rect class="cls-29" x="80.81" y="62.16" width="78" height="7.52"/><rect class="cls-29" x="80.67" y="92.5" width="78" height="8.5"/><rect class="cls-29" x="152.61" y="101.28" width="5.96" height="160.5"/><path class="cls-28" d="M80.66,106h0a7,7,0,0,1,7,7V261a0,0,0,0,1,0,0h-7a0,0,0,0,1,0,0V106A0,0,0,0,1,80.66,106Z"/><polyline class="cls-30" points="81.08 70.95 81.08 63 158.08 63 158.08 112.96"/><line class="cls-30" x1="81.08" y1="121.53" x2="81.08" y2="78.44"/><line class="cls-31" x1="74.17" y1="139" x2="80.17" y2="139"/><polyline class="cls-1" points="51.17 137.1 51.17 122 73.17 122 73.17 192 51.17 192 51.17 169.53"/><line class="cls-1" x1="51.17" y1="164.26" x2="51.17" y2="150.79"/><line class="cls-1" x1="51.17" y1="145.55" x2="51.17" y2="143.08"/><path class="cls-15" d="M119.58,105h0a24,24,0,0,1,24,24v54a0,0,0,0,1,0,0h-48a0,0,0,0,1,0,0V129a24,24,0,0,1,24-24Z"/><path class="cls-32" d="M119.58,107.68h0A22.35,22.35,0,0,1,141.93,130v50.28a0,0,0,0,1,0,0H97.24a0,0,0,0,1,0,0V130a22.35,22.35,0,0,1,22.35-22.35Z"/><path class="cls-15" d="M119.9,199.17h0a24.5,24.5,0,0,1,24.5,24.5v37.5a0,0,0,0,1,0,0h-49a0,0,0,0,1,0,0v-37.5A24.5,24.5,0,0,1,119.9,199.17Z"/><path class="cls-16" d="M119.58,200.89h0a22.35,22.35,0,0,1,22.35,22.35v35a0,0,0,0,1,0,0H97.24a0,0,0,0,1,0,0v-35A22.35,22.35,0,0,1,119.58,200.89Z"/><line class="cls-1" x1="82.17" y1="109" x2="89.17" y2="109"/><circle class="cls-20" cx="93.27" cy="109.07" r="1.39"/><line class="cls-27" x1="95.67" y1="63.5" x2="95.67" y2="69.5"/><line class="cls-27" x1="91.97" y1="70.76" x2="91.97" y2="74.76"/><line class="cls-27" x1="99.03" y1="75.41" x2="99.03" y2="79.41"/><line class="cls-27" x1="107.42" y1="75.27" x2="107.42" y2="80.27"/><line class="cls-27" x1="102.27" y1="70.76" x2="102.27" y2="74.76"/><line class="cls-18" x1="88.17" y1="222" x2="81.17" y2="222"/><line class="cls-18" x1="158.17" y1="222" x2="151.17" y2="222"/><line class="cls-18" x1="158.17" y1="173" x2="151.17" y2="173"/><line class="cls-18" x1="158.17" y1="101" x2="151.17" y2="101"/><circle class="cls-33" cx="62.17" cy="137" r="5"/><circle class="cls-33" cx="62.17" cy="175" r="5"/><rect class="cls-9" x="71.17" y="85" width="96" height="8"/><path class="cls-10" d="M71.17,85h89.38a0,0,0,0,1,0,0v0a5,5,0,0,1-5,5H71.17a0,0,0,0,1,0,0V85A0,0,0,0,1,71.17,85Z"/><path class="cls-25" d="M165.17,4.52v41A2.52,2.52,0,0,1,162.65,48h-86a2.52,2.52,0,0,1-2.52-2.52v-4.8a46.81,46.81,0,0,1,34.2-10.44c10.56,1.08,20.47,5.75,31,7,4.1.5,8.69.33,11.76-2.45,2.29-2.07,3.28-5.24,3.61-8.31.35-3.27,0-6.75-1.79-9.5-.74-1.12-1.7-2.08-2.45-3.2a14.53,14.53,0,0,1-2.16-7.17,9.94,9.94,0,0,1,.54-4.54l.05-.11h13.71A2.52,2.52,0,0,1,165.17,4.52Z"/><rect class="cls-10" x="71.58" y="56" width="96" height="8"/><path class="cls-11" d="M72.17,55.85h52.58a0,0,0,0,1,0,0v0a4,4,0,0,1-4,4H72.17a0,0,0,0,1,0,0v-4A0,0,0,0,1,72.17,55.85Z"/><polyline class="cls-4" points="111.56 56 167.58 56 167.58 64 71.58 64 71.58 56 92.67 56"/><line class="cls-4" x1="96.76" y1="56" x2="108.07" y2="56"/><path class="cls-4" d="M115.63,1h46.93a2.52,2.52,0,0,1,2.52,2.52v41A2.52,2.52,0,0,1,162.56,47H76.61a2.52,2.52,0,0,1-2.53-2.52v-41A2.52,2.52,0,0,1,76.61,1H94.75"/><line class="cls-4" x1="99.13" y1="1" x2="111.47" y2="1"/><rect class="cls-20" x="81.13" y="47" width="4.07" height="8"/><rect class="cls-20" x="154.31" y="47" width="4.07" height="8"/><rect class="cls-20" x="117.72" y="47" width="4.07" height="8"/><circle class="cls-33" cx="84.17" cy="10" r="3"/><circle class="cls-33" cx="84.17" cy="37" r="3"/><circle class="cls-33" cx="155.17" cy="10" r="3"/><circle class="cls-33" cx="155.17" cy="37" r="3"/><rect class="cls-29" x="143.75" y="112.04" width="12.49" height="3.21" rx="1.61"/><rect class="cls-29" x="133.22" y="191.54" width="21.49" height="3.21" rx="1.61"/><circle class="cls-29" cx="129.38" cy="193.04" r="1.75"/><polygon class="cls-17" points="142.89 213.58 95.38 253.58 95.38 241.59 137.89 206.59 142.89 213.58"/><polygon class="cls-17" points="142.89 235.39 111.38 261.39 95.38 261.4 143.89 222.4 142.89 235.39"/><polygon class="cls-34" points="142.89 135.58 95.38 175.58 95.38 163.59 143 124.16 142.89 135.58"/><polygon class="cls-34" points="142.89 157.4 111.38 183.4 95.38 183.41 143.89 144.41 142.89 157.4"/><polyline class="cls-30" points="158.08 126.79 158.08 261 81.08 261 81.08 242.48"/><path class="cls-4" d="M119.58,199h0a24.5,24.5,0,0,1,24.5,24.5V261a0,0,0,0,1,0,0h-49a0,0,0,0,1,0,0V223.5A24.5,24.5,0,0,1,119.58,199Z"/><line class="cls-18" x1="119.17" y1="199" x2="119.17" y2="260"/><line class="cls-18" x1="144.17" y1="219" x2="95.17" y2="219"/><line class="cls-18" x1="108.17" y1="214.23" x2="108.17" y2="219"/><line class="cls-18" x1="108.17" y1="201" x2="108.17" y2="210.33"/><line class="cls-18" x1="130.17" y1="201" x2="130.17" y2="219"/><path class="cls-11" d="M81.65,136.33h0A4.38,4.38,0,0,1,86,140.71v9.54a4.38,4.38,0,0,1-4.38,4.38h0a0,0,0,0,1,0,0V136.33a0,0,0,0,1,0,0Z"/><rect class="cls-11" x="107.76" y="144.88" width="2.86" height="18.31" rx="1.43" transform="translate(157.58 -28.47) rotate(50.18)"/><rect class="cls-11" x="127.82" y="131.83" width="2.86" height="18.31" rx="1.43" transform="translate(154.77 -48.57) rotate(50.18)"/><rect class="cls-11" x="131.52" y="152.47" width="2.86" height="18.31" rx="1.43" transform="translate(171.96 -43.99) rotate(50.18)"/><rect class="cls-11" x="111.67" y="161.84" width="2.86" height="18.31" rx="1.43" transform="translate(172.02 -25.37) rotate(50.18)"/><path class="cls-11" d="M81.65,198.45h0A4.38,4.38,0,0,1,86,202.84v9.54a4.38,4.38,0,0,1-4.38,4.38h0a0,0,0,0,1,0,0V198.45A0,0,0,0,1,81.65,198.45Z"/><line class="cls-30" x1="81.08" y1="234.43" x2="81.08" y2="128.03"/><path class="cls-4" d="M119.58,105h0a24,24,0,0,1,24,24v54a0,0,0,0,1,0,0h-48a0,0,0,0,1,0,0V129a24,24,0,0,1,24-24Z"/><line class="cls-18" x1="119.17" y1="128" x2="119.17" y2="184"/><line class="cls-18" x1="144.17" y1="128" x2="95.17" y2="128"/><rect class="cls-11" x="100.35" y="131.37" width="3.41" height="16.85" rx="1.7"/><rect class="cls-11" x="27.63" y="214.07" width="3.41" height="16.85" rx="1.7"/><path class="cls-28" d="M86.67,70.6h32.55a.75.75,0,0,0,0-1.5H86.67a.75.75,0,0,0,0,1.5Z"/><path class="cls-28" d="M86.67,75.93h42.55a.75.75,0,0,0,0-1.5H86.67a.75.75,0,0,0,0,1.5Z"/><path class="cls-28" d="M89.67,81.26h29.55a.75.75,0,0,0,0-1.5H89.67a.75.75,0,0,0,0,1.5Z"/><circle class="cls-9" cx="118.59" cy="89.44" r="1.64"/><circle class="cls-9" cx="113.52" cy="89.99" r="1.24"/><circle class="cls-9" cx="121.3" cy="88.21" r="0.68"/><path class="cls-11" d="M71.82,85.31H83.14a0,0,0,0,1,0,0v0a2.26,2.26,0,0,1-2.26,2.26H71.82a0,0,0,0,1,0,0V85.31A0,0,0,0,1,71.82,85.31Z"/><path class="cls-11" d="M84.16,85.31H95.48a0,0,0,0,1,0,0v0a2.26,2.26,0,0,1-2.26,2.26H86.42a2.26,2.26,0,0,1-2.26-2.26v0a0,0,0,0,1,0,0Z"/><polyline class="cls-4" points="143.24 85 167.58 85 167.58 93 71.58 93 71.58 85 138.2 85"/><line class="cls-1" x1="63.64" y1="196.8" x2="63.64" y2="259.69"/><circle class="cls-11" cx="29.34" cy="209.4" r="1.9"/><path class="cls-1" d="M59.06,122.11s21.64-3.5,21.64-23.56"/><line class="cls-13" x1="7.84" y1="185.23" x2="20.77" y2="185.23"/><line class="cls-1" x1="82.17" y1="190.47" x2="89.17" y2="190.47"/><circle class="cls-20" cx="93.27" cy="190.54" r="1.39"/><rect class="cls-9" x="0.58" y="259.99" width="246" height="8"/><rect class="cls-10" x="0.58" y="259.99" width="230" height="4"/><polyline class="cls-4" points="222.66 259.99 247 259.99 247 267.99 1 267.99 1 259.99 223.62 259.99"/><rect class="cls-11" x="204.53" y="160.8" width="21.91" height="14.07"/><rect class="cls-10" x="204.53" y="160.58" width="21.91" height="3.18"/><rect class="cls-1" x="204.53" y="160.58" width="21.91" height="14.07"/><circle class="cls-12" cx="215.61" cy="168.17" r="2.35"/></g></g></svg>