<svg xmlns="http://www.w3.org/2000/svg" viewBox="0 0 57.91 86.46"><defs><style>.cls-1{fill:#f2949f;}.cls-2,.cls-3{fill:#ef6277;}.cls-2{opacity:0.35;}.cls-17,.cls-2,.cls-20,.cls-21,.cls-23,.cls-25,.cls-9{isolation:isolate;}.cls-4{fill:#000201;}.cls-5,.cls-9{fill:#fff;}.cls-6{fill:#ffd2d9;}.cls-25,.cls-7{fill:#fcdaae;}.cls-8{fill:#fcefdc;}.cls-9{opacity:0.55;}.cls-10{fill:#f8c5a6;}.cls-11{fill:#e89176;}.cls-12{fill:#1e1e30;}.cls-13{fill:#fcc6a6;}.cls-14,.cls-17,.cls-20,.cls-21{fill:#ff9976;}.cls-15{fill:#181828;}.cls-16{fill:#fdc6a2;}.cls-17{opacity:0.25;}.cls-18{fill:#fc5454;}.cls-19{fill:#ce1313;}.cls-20{opacity:0.6;}.cls-21,.cls-23{opacity:0.3;}.cls-22{fill:#e8e2dd;}.cls-23{fill:#c6bdb6;}.cls-24{fill:#303030;}.cls-25{opacity:0.45;}</style></defs><g id="Layer_2" data-name="Layer 2"><g id="Layer_1-2" data-name="Layer 1"><path class="cls-1" d="M23.76,59.4h0A18.31,18.31,0,0,1,42.07,77.71h0a8.48,8.48,0,0,1-8.48,8.48H13.93a8.48,8.48,0,0,1-8.48-8.48h0A18.31,18.31,0,0,1,23.76,59.4Z"/><path class="cls-2" d="M23.51,73.94A8.89,8.89,0,0,0,31,70.48c1.59-2.18,2.12-5.06,1.32-9.19,0,.61,2.21,1.33,2.23,1.33a14.12,14.12,0,0,1,2.44,2,18.26,18.26,0,0,1,5.37,12.94A8.45,8.45,0,0,1,33.91,86H14.19A21.45,21.45,0,0,1,10,84.89c-.47-1.61-1-3.43-.49-5a7.63,7.63,0,0,1,3.68-3.79l.87-.47a17,17,0,0,1,8.24-1.7Z"/><path class="cls-3" d="M42,77.23a8.48,8.48,0,0,1-8.48,8.48H13.82a8.66,8.66,0,0,1-2.94-.51,5.33,5.33,0,0,1,0-2.25A5.63,5.63,0,0,1,14,79.06c3.06-1.39,6.57.18,9.93.33a13.5,13.5,0,0,0,11.7-6.57,16.44,16.44,0,0,0,2.28-7A18.21,18.21,0,0,1,42,77.23Z"/><path class="cls-4" d="M33.73,86.46H14.1a8.92,8.92,0,0,1-8.91-8.91,14,14,0,0,1,0-1.44.44.44,0,0,1,.48-.39.43.43,0,0,1,.38.48,11.92,11.92,0,0,0,0,1.35,8.06,8.06,0,0,0,8.05,8H33.73a8.06,8.06,0,0,0,8.05-8A17.9,17.9,0,0,0,23.9,59.67h0A18,18,0,0,0,6.76,72.46a.42.42,0,0,1-.54.29.43.43,0,0,1-.3-.54,18.88,18.88,0,0,1,18-13.41h0A18.76,18.76,0,0,1,42.64,77.55,8.92,8.92,0,0,1,33.73,86.46Z"/><circle class="cls-3" cx="33.09" cy="74.79" r="2.04"/><circle class="cls-3" cx="30.32" cy="76.61" r="0.6"/><path class="cls-5" d="M10,69.11a.37.37,0,0,1-.31-.55,15.81,15.81,0,0,1,1.42-1.94.36.36,0,0,1,.5,0,.35.35,0,0,1,0,.51,14.27,14.27,0,0,0-1.34,1.85A.37.37,0,0,1,10,69.11Z"/><circle class="cls-5" cx="12.43" cy="65.9" r="0.5"/><path class="cls-6" d="M7.46,72H7.34a.38.38,0,0,1-.22-.46c.11-.33,2.84-7.92,9.71-10.24a.35.35,0,0,1,.45.21v0a.36.36,0,0,1-.22.46h0c-6.53,2.2-9.23,9.71-9.26,9.78A.36.36,0,0,1,7.46,72Z"/><circle class="cls-6" cx="15.31" cy="62.98" r="0.55"/><circle class="cls-6" cx="14.77" cy="64.08" r="0.37"/><path class="cls-4" d="M33,81.72h7.36a.37.37,0,0,1,.31.43.38.38,0,0,1-.31.32h-7.4a.39.39,0,0,1-.44-.32.38.38,0,0,1,.32-.43.24.24,0,0,1,.12,0Z"/><path class="cls-4" d="M29.6,81.72h1A.38.38,0,0,1,31,82a.39.39,0,0,1-.32.44H29.6a.39.39,0,0,1-.44-.32.38.38,0,0,1,.32-.43A.24.24,0,0,1,29.6,81.72Z"/><path class="cls-4" d="M9.49,78.2H9.36a.32.32,0,0,1-.17-.42h0L11,73.61a.32.32,0,0,1,.42-.17h0a.32.32,0,0,1,.17.42h0L9.79,78A.36.36,0,0,1,9.49,78.2Z"/><path class="cls-4" d="M11.84,76.18h-.13a.33.33,0,0,1-.18-.41h0l.94-2.23a.33.33,0,0,1,.6.25h0l-1,2.23A.3.3,0,0,1,11.84,76.18Z"/><path class="cls-7" d="M36.87,6.68s9.4,6.61,18.47,3.41a.31.31,0,0,1,.39.17.31.31,0,0,1-.09.34c-2.41,1.92-7.81,5.24-14.44,3.08"/><path class="cls-4" d="M45.59,14.77A14.63,14.63,0,0,1,41.08,14a.38.38,0,0,1-.24-.48.37.37,0,0,1,.48-.24c6.06,2,11.06-.72,13.7-2.73C46,13.46,36.75,7.05,36.65,7a.38.38,0,0,1,.44-.62c.09.06,9.34,6.46,18.12,3.36a.65.65,0,0,1,.51,0,.63.63,0,0,1,.36.37.68.68,0,0,1-.2.77A16.85,16.85,0,0,1,45.59,14.77Z"/><path class="cls-7" d="M31.14,2.25a30.36,30.36,0,0,0-3.44,1.3,32,32,0,0,1-6.29,2.3c-1,.22-2.13.3-3.19.49a12.58,12.58,0,0,0-2.09.54A11,11,0,0,0,17.56,6,42.57,42.57,0,0,0,21,2.55C22.6,1,25,0,27.06.86a23.4,23.4,0,0,0,2.48,1.3A4.31,4.31,0,0,0,31.14,2.25Z"/><path class="cls-4" d="M18,6.43a.41.41,0,0,1-.18,0,.38.38,0,0,1-.16-.51,14.22,14.22,0,0,1,3.9-4.58A6.42,6.42,0,0,1,27.52.35a8.25,8.25,0,0,1,2.59,1.82.38.38,0,1,1-.54.53,7.66,7.66,0,0,0-2.33-1.65,5.68,5.68,0,0,0-5.2.84,13.65,13.65,0,0,0-3.69,4.34A.36.36,0,0,1,18,6.43Z"/><path class="cls-8" d="M6.34,18.25a8.25,8.25,0,0,1,.71-8.59,14.15,14.15,0,0,1,7.36-5.08,21.37,21.37,0,0,0,3.13-.87c1.43-.75,3,.59,4.6.4A17.62,17.62,0,0,0,28,2.64a3.7,3.7,0,0,1,2.87-.37c.68.32.63-.35,1.38-.32,2.13.08,4.37.17,6.16,1.32a12.23,12.23,0,0,1,3.32,3.8c3.23,4.82,7.32,9.6,12.94,11.06,4,1.33-.58,2.06-1.8,2a18.38,18.38,0,0,1-5-1.66A35.6,35.6,0,0,0,51.57,29c1.33,2.61,3,5.1,3.67,8s-.15,6.33-2.73,7.73c-1.08.58-2.34.74-3.43,1.29a2.37,2.37,0,0,1-1.15.4,3.28,3.28,0,0,1-1-.38c-1.33-.58-2.84.07-4.23.49a13,13,0,0,1-7.06.09,20,20,0,0,1-8.42-5.35c-2.41-2.34-4.55-5-7.08-7.19"/><path class="cls-7" d="M52.54,44.81c-1.07.58-2.34.74-3.43,1.3a2.48,2.48,0,0,1-1.15.4,3.28,3.28,0,0,1-1-.38c-1.34-.59-2.84.06-4.24.48a12.62,12.62,0,0,1-4,.53,5.76,5.76,0,0,1,0-2.19c.46-2.4,2.53-4.12,4.59-5.42s4.35-2.45,5.74-4.45c.45-.66.79-1.38,1.23-2a7.77,7.77,0,0,1,2.23-2.23,24.38,24.38,0,0,1,2.76,6.27C55.91,40,55.13,43.46,52.54,44.81Z"/><ellipse class="cls-8" cx="8.69" cy="27.19" rx="6.51" ry="10.02"/><path class="cls-4" d="M8.69,37.51c-3.8,0-6.89-4.66-6.89-10.38a13.7,13.7,0,0,1,1.73-6.91A.38.38,0,0,1,4,20.07a.38.38,0,0,1,.15.52,13,13,0,0,0-1.63,6.53c0,5.31,2.75,9.63,6.13,9.63s6.13-4.32,6.13-9.62-2.75-9.62-6.13-9.62a4.28,4.28,0,0,0-2.56.92.38.38,0,0,1-.46-.6,5,5,0,0,1,3-1.08c3.81,0,6.9,4.65,6.9,10.38S12.49,37.51,8.69,37.51Z"/><ellipse class="cls-7" cx="15.86" cy="47.4" rx="6.51" ry="10.02"/><path class="cls-4" d="M15.86,57.72C12.06,57.72,9,53.06,9,47.34a13.8,13.8,0,0,1,1.73-6.91.38.38,0,1,1,.66.37,13.19,13.19,0,0,0-1.63,6.53c0,5.31,2.75,9.63,6.13,9.63S22,52.64,22,47.34s-2.75-9.62-6.14-9.62a4.34,4.34,0,0,0-2.55.92.38.38,0,1,1-.46-.6,5.11,5.11,0,0,1,3-1.08c3.81,0,6.91,4.65,6.91,10.38S19.66,57.72,15.86,57.72Z"/><circle class="cls-9" cx="23.85" cy="54.32" r="0.22"/><circle class="cls-9" cx="23.85" cy="55.37" r="0.29"/><circle class="cls-10" cx="4.31" cy="34.68" r="4"/><circle class="cls-11" cx="4.67" cy="34.46" r="1.69"/><path d="M4.34,39a4.34,4.34,0,1,1,4.34-4.34h0A4.36,4.36,0,0,1,4.34,39Zm0-8A3.67,3.67,0,1,0,8,34.69H8A3.66,3.66,0,0,0,4.35,31h0Z"/><path d="M6.34,33.86a.26.26,0,0,1-.2-.1c-.73-1.11-2.65-1-2.67-1a.26.26,0,0,1-.25-.22.25.25,0,0,1,.23-.25c.09,0,2.21-.07,3.08,1.26a.23.23,0,0,1-.06.32.28.28,0,0,1-.13,0Z"/><path d="M3.91,35.27a.24.24,0,0,1-.24-.22h0a4,4,0,0,1,1.16-2.35.25.25,0,0,1,.34,0,.24.24,0,0,1,0,.33,3.54,3.54,0,0,0-1,2,.23.23,0,0,1-.21.25Z"/><circle class="cls-10" cx="43.39" cy="34.68" r="4"/><circle class="cls-11" cx="43.03" cy="34.46" r="1.69"/><path d="M43.39,39a4.34,4.34,0,1,1,4.34-4.34h0A4.34,4.34,0,0,1,43.39,39Zm0-8a3.67,3.67,0,1,0,3.67,3.67h0A3.66,3.66,0,0,0,43.4,31h0Z"/><path d="M41.34,33.86h-.13a.23.23,0,0,1-.07-.32h0c.88-1.33,3-1.25,3.09-1.26a.24.24,0,0,1,.22.25.22.22,0,0,1-.22.22h-.09a3.32,3.32,0,0,0-2.61,1A.27.27,0,0,1,41.34,33.86Z"/><path d="M43.8,35.27a.24.24,0,0,1-.24-.22h0a3.54,3.54,0,0,0-1-2,.23.23,0,0,1,.33-.33,4,4,0,0,1,1.16,2.35.23.23,0,0,1-.25.21Z"/><path class="cls-12" d="M29.57,50.45a.42.42,0,0,1-.42-.42h0V11a.42.42,0,0,1,.36-.49.43.43,0,0,1,.49.36A.28.28,0,0,1,30,11V50a.43.43,0,0,1-.43.43Z"/><path class="cls-12" d="M16.61,52.72a.43.43,0,0,1-.43-.43v-40a.43.43,0,0,1,.86,0v40A.43.43,0,0,1,16.61,52.72Z"/><path class="cls-13" d="M21.16,49.48H26.1V59.3a2.49,2.49,0,0,1-2.47,2.47h0a2.48,2.48,0,0,1-2.47-2.47h0V49.48Z"/><path class="cls-14" d="M25.87,53.81V56c-.92-.21-.58,1.61-2.55,1.52-2,.09-1.8-1.84-2.39-3v-.72Z"/><path class="cls-15" d="M23.57,62.18a2.85,2.85,0,0,1-2.83-2.84V49.53a.35.35,0,0,1,.33-.37h5a.36.36,0,0,1,.37.33v9.85a2.84,2.84,0,0,1-2.84,2.84Zm-2.1-12.29v9.45a2.11,2.11,0,1,0,4.2.4,1.77,1.77,0,0,0,0-.23V49.89Z"/><path class="cls-16" d="M23.84,7.55h0A18.27,18.27,0,0,1,42.1,25.81V37.15A18.26,18.26,0,0,1,23.84,55.4h0A18.26,18.26,0,0,1,5.58,37.15V21.81C5.58,11.71,13.76,7.55,23.84,7.55Z"/><path class="cls-17" d="M23.84,7.55h0A18.27,18.27,0,0,1,42.1,25.81V37.15A18.26,18.26,0,0,1,23.84,55.4h0Z"/><path class="cls-14" d="M42.34,20.81V37A18.27,18.27,0,0,1,24.08,55.22a11.13,11.13,0,0,1-1.29,0A18.26,18.26,0,0,0,39.79,37V22.45c0-9.58-7.4-14.32-17-15h1.29c10.08,0,18.26,5,18.26,15Z"/><path class="cls-5" d="M25,55.36H23.71A18.25,18.25,0,0,1,5.46,37.11h0V22.6c0-10.09,8.17-15,18.25-15H25C15.36,8.25,7.1,12.71,7.1,22.32V36.81C7.1,46.46,15.34,54.72,25,55.36Z"/><circle class="cls-5" cx="10.43" cy="18.95" r="1.21"/><circle class="cls-5" cx="13.22" cy="17.59" r="0.54"/><circle class="cls-5" cx="9.73" cy="20.82" r="0.22"/><circle class="cls-5" cx="12.36" cy="18.79" r="0.18"/><circle class="cls-5" cx="12.16" cy="17.46" r="0.29"/><path class="cls-18" d="M29.09,43.24l-3.26.14L24,43.56h-.23l-1.88-.18-3.26-.14c1.48,0,3.4-2.42,4.07-2.25a7.3,7.3,0,0,1,1.18.44A7.07,7.07,0,0,1,25,41C25.69,40.81,27.61,43.24,29.09,43.24Z"/><path class="cls-18" d="M28.66,43.36s-1.31,3.8-4.75,3.8h-.14c-3.45,0-4.74-3.8-4.74-3.8Z"/><path class="cls-19" d="M28.66,43.13s-1.31,3.8-4.75,3.8h-.14c-3.45,0-4.74-3.8-4.74-3.8h.31a5.17,5.17,0,0,0,4.41,3.06h.15a5.13,5.13,0,0,0,4.41-3.06Z"/><path class="cls-15" d="M24,44.26h-.33l-1.83-.62-3.22-.14a.3.3,0,0,1-.3-.3h0a.28.28,0,0,1,.28-.3h0A5.12,5.12,0,0,0,21,41.55c.74-.6,1.27-1,1.71-.88a7.31,7.31,0,0,1,1.11.39,7.31,7.31,0,0,1,1.11-.39c.44-.12,1,.3,1.71.88a5.18,5.18,0,0,0,2.43,1.35.29.29,0,0,1,.3.28v0a.3.3,0,0,1-.3.3h0l-3.22.14L24,44.26Zm-.19-.6h.14L25.74,43h.08L27.57,43c-.44-.29-.87-.61-1.28-.94a4.09,4.09,0,0,0-1.19-.78,7.28,7.28,0,0,0-1.13.42.28.28,0,0,1-.25,0,7.79,7.79,0,0,0-1.14-.42h0a4.35,4.35,0,0,0-1.17.78,13.29,13.29,0,0,1-1.29.94l1.75.07H22Z"/><path class="cls-15" d="M23.91,47.4h-.14a4.92,4.92,0,0,1-3.9-2,8.05,8.05,0,0,1-1.13-2,.3.3,0,0,1,.19-.38h0a.29.29,0,0,1,.38.16v0h0s1.28,3.59,4.46,3.59h.14c3.19,0,4.45-3.55,4.46-3.59a.3.3,0,0,1,.37-.2.32.32,0,0,1,.21.38h0a8.05,8.05,0,0,1-1.13,2A5,5,0,0,1,23.91,47.4Z"/><circle class="cls-20" cx="38.29" cy="39.28" r="0.36"/><circle class="cls-21" cx="37.79" cy="38.22" r="0.36"/><circle class="cls-14" cx="38.73" cy="40.29" r="0.36"/><circle class="cls-20" cx="38.18" cy="41.46" r="0.36"/><circle class="cls-21" cx="37.68" cy="40.39" r="0.36"/><circle class="cls-14" cx="38.62" cy="42.47" r="0.36"/><path class="cls-4" d="M23.91,55.88h-.05A18.76,18.76,0,0,1,5.12,37.15V21.81c0-9.23,7-14.73,18.74-14.73S42.6,12.58,42.6,21.81V37.16A18.79,18.79,0,0,1,34.77,52.4a.48.48,0,1,1-.56-.78,17.83,17.83,0,0,0,7.43-14.46V21.81C41.64,9.38,29.21,8,23.86,8S6.08,9.38,6.08,21.81V37.15A17.8,17.8,0,0,0,23.86,54.92h.05a17.66,17.66,0,0,0,6.26-1.15.48.48,0,0,1,.34.9A18.63,18.63,0,0,1,23.91,55.88Z"/><circle class="cls-22" cx="43.91" cy="38.37" r="2.4"/><path class="cls-23" d="M45,36.24a2.4,2.4,0,0,1-1,3.24,2.44,2.44,0,0,1-2.23,0,2.4,2.4,0,0,0,4.27-2.21A2.44,2.44,0,0,0,45,36.24Z"/><ellipse class="cls-5" cx="42.58" cy="37.67" rx="0.72" ry="0.44" transform="translate(-9.42 60.64) rotate(-65.33)"/><path class="cls-15" d="M43.78,41.14a2.76,2.76,0,1,1,2.76-2.76h0a2.75,2.75,0,0,1-2.74,2.76Zm0-4.8a2,2,0,1,0,2,2h0A2,2,0,0,0,43.78,36.34Z"/><circle class="cls-22" cx="4.58" cy="38.16" r="2.4"/><path class="cls-23" d="M5.68,36a2.4,2.4,0,0,1-1,3.24,2.44,2.44,0,0,1-2.23,0,2.41,2.41,0,0,0,4.28-2.22A2.38,2.38,0,0,0,5.68,36Z"/><ellipse class="cls-5" cx="3.26" cy="37.45" rx="0.72" ry="0.44" transform="translate(-32.14 24.78) rotate(-65.33)"/><path class="cls-15" d="M4.45,40.94a2.76,2.76,0,1,1,2.76-2.76h0A2.78,2.78,0,0,1,4.45,40.94Zm0-4.8a2,2,0,1,0,2,2h0a2,2,0,0,0-1.95-2h0Z"/><path class="cls-5" d="M2,33.26a1.74,1.74,0,0,1,.88-1c.35-.14.2-.71-.16-.57a2.35,2.35,0,0,0-1.24,1.24c-.15.35.36.65.51.3Z"/><ellipse class="cls-5" cx="1.31" cy="34.36" rx="0.47" ry="0.38" transform="matrix(0.15, -0.99, 0.99, 0.15, -32.87, 30.63)"/><path class="cls-24" d="M23.84,38.71a.34.34,0,0,1-.34-.34V31.89a.35.35,0,1,1,.69,0h0v6.48A.35.35,0,0,1,23.84,38.71Z"/><path class="cls-5" d="M4.62,16.27H4.5a.54.54,0,0,1-.4-.65A40.12,40.12,0,0,1,6.27,9a.53.53,0,1,1,1,.42,40,40,0,0,0-2.11,6.4A.53.53,0,0,1,4.62,16.27Z"/><circle class="cls-4" cx="47.95" cy="19.98" r="0.52"/><circle class="cls-4" cx="53.87" cy="33.05" r="0.52"/><circle class="cls-4" cx="54.9" cy="42.27" r="0.52"/><circle class="cls-4" cx="32.45" cy="53.24" r="0.52"/><path class="cls-8" d="M28,26.45l5.13-.31a1.45,1.45,0,0,0,1.36-1.41h0c0-.75-.56-.64-1.31-.71l-5.11-.49a1.43,1.43,0,0,0-1.57,1.29.49.49,0,0,0,0,.12h0a1.46,1.46,0,0,0,1.39,1.51Z"/><path class="cls-7" d="M28,26.45l5.13-.31a1.45,1.45,0,0,0,1.36-1.41h0c0-.75.21.48-.54.41l-6.9.42c-.84-.08-.55-1.46-.56-.62h0a1.46,1.46,0,0,0,1.39,1.51Z"/><path class="cls-4" d="M28,26.66h0a1.69,1.69,0,0,1-1.67-1.73v-.14a1.7,1.7,0,0,1,1.85-1.52l2,.2a.25.25,0,0,1,.22.28.24.24,0,0,1-.28.23l-2-.2a1.18,1.18,0,0,0-1.29,1.06.31.31,0,0,1,0,.1,1.22,1.22,0,0,0,.34.85,1.16,1.16,0,0,0,.84.36H28l5.12-.31a1.2,1.2,0,0,0,1.13-1.16c0-.34-.08-.39-.73-.42l-.35,0-.87-.08a.26.26,0,0,1,0-.51l.87.08.34,0c.56,0,1.21.07,1.21.94a1.71,1.71,0,0,1-1.6,1.66l-5.13.31Z"/><circle class="cls-7" cx="29.11" cy="25.35" r="0.38"/><circle class="cls-7" cx="30.11" cy="24.91" r="0.2"/><circle class="cls-7" cx="27.74" cy="25.39" r="0.49"/><path class="cls-8" d="M19.61,26.54l-5.45-.33a1.53,1.53,0,0,1-1.44-1.5h0c0-.8.59-.67,1.39-.75l5.43-.52a1.52,1.52,0,0,1,1.67,1.39.41.41,0,0,1,0,.11h0a1.53,1.53,0,0,1-1.46,1.6Z"/><path class="cls-7" d="M19.61,26.54l-5.45-.33a1.53,1.53,0,0,1-1.44-1.5h0c0-.8-.22.51.57.44l7.33.45c.89-.09.58-1.56.6-.66h0a1.53,1.53,0,0,1-1.46,1.6Z"/><path class="cls-4" d="M19.69,26.77h-.1l-5.46-.33a1.81,1.81,0,0,1-1.69-1.77c0-.92.67-1,1.25-1l.38,0,.93-.09a.27.27,0,0,1,.3.24.28.28,0,0,1-.24.3l-.93.09-.4,0c-.66,0-.75.06-.75.45a1.26,1.26,0,0,0,1.19,1.23l5.45.33h.1a1.28,1.28,0,0,0,.88-.39,1.24,1.24,0,0,0,.35-.9v-.09a1.25,1.25,0,0,0-1.38-1.14l-2.14.21a.29.29,0,0,1-.3-.25.28.28,0,0,1,.24-.29l2.15-.21a1.8,1.8,0,0,1,2,1.64v.12a1.79,1.79,0,0,1-1.76,1.84Z"/><circle class="cls-7" cx="18.43" cy="25.37" r="0.4"/><circle class="cls-7" cx="17.37" cy="24.91" r="0.22"/><circle class="cls-7" cx="19.89" cy="25.42" r="0.52"/><path class="cls-4" d="M51.82,17.55a.49.49,0,0,1-.2-.05,17.39,17.39,0,0,1-5.75-4.2,47.61,47.61,0,0,1-4.3-5.63A.49.49,0,0,1,41.71,7a.47.47,0,0,1,.66.15,47.59,47.59,0,0,0,4.22,5.51,16.39,16.39,0,0,0,5.43,4,.48.48,0,0,1,.24.64A.5.5,0,0,1,51.82,17.55Z"/><path class="cls-8" d="M53.87,19.94a3.67,3.67,0,0,1-2-.17,22.3,22.3,0,0,1-11-7.61c-1.15-1.48-2.35-3.26-4.21-3.46a5.43,5.43,0,0,0-1.75.17A32.38,32.38,0,0,0,28.29,11a20,20,0,0,1-3.57,1.42c-2.18.51-4.47,0-6.67.38-3,.48-5.6,2.43-8,4.33l-4.51,4-.39-2.89.14-4.38,1.06-2.8L8.56,8.2,22.17,5.86H35.54l6.15,5Z"/><path class="cls-7" d="M37.92,9a3.34,3.34,0,0,0-1.23-.39A5.37,5.37,0,0,0,35,8.74a31.8,31.8,0,0,0-6.57,2.16,20.71,20.71,0,0,1-3.57,1.41c-2.18.51-4.47,0-6.68.39-3,.47-5.59,2.43-8,4.32L5.62,21l-.38-2.9,0-1.68A14.45,14.45,0,0,0,9.22,14.2c1.87-1.41,3.67-3,5.88-3.79,2.77-1,5.85-.53,8.67-1.33,1.57-.44,3-1.27,4.57-1.77a12,12,0,0,1,7-.11,4.9,4.9,0,0,1,2,1A3.33,3.33,0,0,1,37.92,9Z"/><path class="cls-4" d="M52.89,31.49a.49.49,0,0,1-.41-.23c-.21-.33-.42-.66-.64-1-.44-.67-.89-1.37-1.3-2.09A27.83,27.83,0,0,1,48,21.86a.48.48,0,1,1,.92-.25,27.39,27.39,0,0,0,2.45,6.11c.39.68.83,1.36,1.26,2l.66,1a.48.48,0,0,1-.15.66A.5.5,0,0,1,52.89,31.49Z"/><path class="cls-4" d="M55.52,40.08a.48.48,0,0,1-.48-.47A16.56,16.56,0,0,0,54.22,35a.48.48,0,0,1,.3-.61.49.49,0,0,1,.61.31,17.34,17.34,0,0,1,.87,4.9.48.48,0,0,1-.46.5Z"/><path class="cls-4" d="M38.25,49a.48.48,0,0,1-.26-.88A14.57,14.57,0,0,1,43.32,46a17.51,17.51,0,0,1,3.29-.3,19.19,19.19,0,0,0,2.77-.21,8.93,8.93,0,0,0,3.9-1.76.49.49,0,0,1,.68.08.48.48,0,0,1-.08.67,9.93,9.93,0,0,1-4.32,2,19.48,19.48,0,0,1-2.93.23,16,16,0,0,0-3.12.28,13.64,13.64,0,0,0-5,2A.5.5,0,0,1,38.25,49Z"/><path class="cls-4" d="M5.59,23.08a.49.49,0,0,1-.48-.48c0-1.85,3.07-4.42,3.41-4.71a.48.48,0,1,1,.62.74c-1.19,1-3.07,2.92-3.07,4A.49.49,0,0,1,5.59,23.08Z"/><path class="cls-4" d="M5.58,22.29a.48.48,0,0,1-.47-.39s-.24-1.2-.4-2.72a2.81,2.81,0,0,0,0-.68,15.63,15.63,0,0,1,.14-4.69.48.48,0,1,1,.94.17,14.7,14.7,0,0,0-.14,4.34,3.13,3.13,0,0,1,.07.81c.15,1.43.38,2.57.38,2.58a.49.49,0,0,1-.38.57Z"/><circle class="cls-4" cx="5.82" cy="12.24" r="0.52"/><circle class="cls-4" cx="13.06" cy="4.96" r="0.52"/><path class="cls-4" d="M40.28,5.53a.52.52,0,0,1-.4-.21,6.9,6.9,0,0,0-5.26-3,18.34,18.34,0,0,0-6.46.77,32.31,32.31,0,0,1-6.68,1.28H18.21a14.21,14.21,0,0,0-3.1.38.47.47,0,0,1-.58-.35.48.48,0,0,1,.36-.58,15.45,15.45,0,0,1,3.31-.41h3.24a31.18,31.18,0,0,0,6.44-1.24,19.11,19.11,0,0,1,6.8-.81,7.86,7.86,0,0,1,6,3.41.47.47,0,0,1-.13.66A.46.46,0,0,1,40.28,5.53Z"/><path class="cls-8" d="M30.05,10.53s12.52,6.53,12.52,14h2l1-4L43.9,17.39l-4.67-6.34L37,8.81"/><path class="cls-7" d="M39.34,11a6.73,6.73,0,0,0-2.08-.4,5.48,5.48,0,0,0-2.91.73c-.23.14-.45.3-.68.45s-.4.23-.61.33c-1.68-1.11-2.91-1.75-2.91-1.75l7-1.72,2.17,2.31Z"/><path class="cls-4" d="M42.1,25a.49.49,0,0,1-.48-.48c0-7.12-12.06-13.44-12.18-13.51a.47.47,0,0,1-.21-.64.49.49,0,0,1,.65-.21c.52.27,12.7,6.65,12.7,14.36A.49.49,0,0,1,42.1,25Z"/><path class="cls-4" d="M51.82,20.36l-.14,0a22.59,22.59,0,0,1-11.24-7.78l-.31-.4c-1-1.33-2.08-2.71-3.57-2.88A5.34,5.34,0,0,0,35,9.44a32.45,32.45,0,0,0-6.49,2.13A20.13,20.13,0,0,1,24.85,13a14.9,14.9,0,0,1-3.69.25,16.79,16.79,0,0,0-3,.14c-2.79.45-5.18,2.18-7.78,4.23a.48.48,0,0,1-.68-.08.49.49,0,0,1,.08-.67C12.37,14.82,15,12.94,18,12.45a18.15,18.15,0,0,1,3.2-.15,13.94,13.94,0,0,0,3.44-.22,19.35,19.35,0,0,0,3.46-1.38,33.35,33.35,0,0,1,6.69-2.19,5.9,5.9,0,0,1,1.88-.18c1.92.2,3.16,1.82,4.26,3.25l.3.39A21.58,21.58,0,0,0,52,19.42a.48.48,0,0,1,.32.6A.47.47,0,0,1,51.82,20.36Z"/><path class="cls-4" d="M54.43,20.61a.48.48,0,0,1,0-1,4.71,4.71,0,0,0,1.86-.41l-2.23-.76a.47.47,0,0,1-.3-.61.48.48,0,0,1,.61-.3l3.23,1.1a.48.48,0,0,1,.31.38.46.46,0,0,1-.19.46,5.6,5.6,0,0,1-3.28,1.1Z"/><circle class="cls-7" cx="50.32" cy="32.45" r="1.12"/><circle class="cls-7" cx="49.74" cy="29.94" r="0.54"/><circle class="cls-7" cx="49.17" cy="35.27" r="0.7"/><circle class="cls-25" cx="47.8" cy="30.31" r="0.37"/><circle class="cls-25" cx="48.08" cy="31.89" r="0.35"/><circle class="cls-7" cx="24.69" cy="8.91" r="1.19"/><circle class="cls-7" cx="11.04" cy="12.67" r="0.6"/><circle class="cls-7" cx="19.3" cy="8.16" r="1.03"/><circle class="cls-25" cx="15.66" cy="9.37" r="0.46"/><circle class="cls-25" cx="15.79" cy="7.34" r="0.33"/><circle class="cls-25" cx="22.83" cy="7.34" r="0.33"/><circle class="cls-25" cx="12.43" cy="9.6" r="0.79"/><path class="cls-5" d="M7.53,10.89a.59.59,0,0,1-.26-.07.51.51,0,0,1-.17-.69,12,12,0,0,1,4-4.06.5.5,0,0,1,.69.17.49.49,0,0,1-.17.68A11,11,0,0,0,8,10.64.5.5,0,0,1,7.53,10.89Z"/><path class="cls-4" d="M6.56,11.12a.46.46,0,0,1-.22-.06.47.47,0,0,1-.21-.64,12.45,12.45,0,0,1,4.34-4.77c.21-.13.42-.27.65-.39a.48.48,0,0,1,.64.2.47.47,0,0,1-.2.65L11,6.46a11.44,11.44,0,0,0-4,4.4A.51.51,0,0,1,6.56,11.12Z"/><circle class="cls-5" cx="8.5" cy="10.24" r="0.53"/><circle class="cls-5" cx="10.37" cy="7.9" r="0.42"/><circle class="cls-5" cx="9.97" cy="9.61" r="0.24"/><path class="cls-5" d="M7.5,12.24a.47.47,0,0,1,.48.48.48.48,0,0,1-1,0A.47.47,0,0,1,7.5,12.24Z"/><circle class="cls-5" cx="6.99" cy="13.98" r="0.23"/><circle class="cls-5" cx="3.74" cy="23.31" r="0.23"/><circle class="cls-5" cx="3.9" cy="25.82" r="0.16"/><path class="cls-4" d="M29.63,27.78h0A1.39,1.39,0,0,1,31,29.17v3.5a1.39,1.39,0,0,1-1.39,1.39h0a1.39,1.39,0,0,1-1.39-1.39v-3.5A1.39,1.39,0,0,1,29.63,27.78Z"/><circle class="cls-5" cx="28.23" cy="30.32" r="0.89"/><path class="cls-4" d="M31.09,29.41a6.41,6.41,0,0,0,1.25-1.3,10.6,10.6,0,0,1-1.25.75A6.85,6.85,0,0,0,32,27.24a8.32,8.32,0,0,1-1.62,1.57c-.4.24-.24.33,0,.37-.37.1-.32.21-.16.3a4.06,4.06,0,0,1,.56.57,6.83,6.83,0,0,0,2.07-.86A10,10,0,0,1,31.09,29.41Z"/><path class="cls-4" d="M17.72,34.05h0a1.39,1.39,0,0,1-1.39-1.39v-3.5a1.39,1.39,0,0,1,1.39-1.39h0a1.39,1.39,0,0,1,1.39,1.39v3.5A1.39,1.39,0,0,1,17.72,34.05Z"/><path class="cls-4" d="M16.26,29.41A6.41,6.41,0,0,1,15,28.11a10.6,10.6,0,0,0,1.25.75,6.85,6.85,0,0,1-.87-1.62,8,8,0,0,0,1.67,1.57c.4.24.24.33,0,.37.38.1.33.21.17.3,0,.19-.56.57-.56.57a6.83,6.83,0,0,1-2.07-.86A10.34,10.34,0,0,0,16.26,29.41Z"/><circle class="cls-5" cx="16.35" cy="30.32" r="0.89"/><rect class="cls-5" x="6.48" y="26.54" width="1.45" height="7.51" rx="0.72"/></g></g></svg>