<svg xmlns="http://www.w3.org/2000/svg" viewBox="0 0 49.19 74.72"><defs><style>.cls-1,.cls-13,.cls-17,.cls-18{fill:#fff;}.cls-14,.cls-2,.cls-3{fill:#a2ced7;}.cls-2{opacity:0.4;}.cls-10,.cls-11,.cls-13,.cls-14,.cls-17,.cls-18,.cls-2,.cls-7{isolation:isolate;}.cls-4{fill:#000201;}.cls-5{fill:#cc8662;}.cls-6,.cls-7{fill:#a35634;}.cls-11,.cls-7{opacity:0.45;}.cls-8{fill:#5e5e5e;}.cls-10,.cls-11,.cls-9{fill:#303030;}.cls-10{opacity:0.29;}.cls-12{fill:#ffd297;}.cls-13{opacity:0.55;}.cls-14,.cls-18{opacity:0.35;}.cls-15{fill:#fc5454;}.cls-16{fill:#ce1313;}.cls-17{opacity:0.6;}</style></defs><g id="Layer_2" data-name="Layer 2"><g id="Layer_1-2" data-name="Layer 1"><path class="cls-1" d="M21.25,51.73l5.49-.09A14.29,14.29,0,0,1,41.26,65.7h0a8.26,8.26,0,0,1-8.12,8.38l-17.58.27A8.25,8.25,0,0,1,7.2,66.24h0A14.29,14.29,0,0,1,21.25,51.73Z"/><path class="cls-2" d="M40.57,65.81v.13a8.28,8.28,0,0,1-8.13,8.24L16,74.43a19.14,19.14,0,0,1-.4-3.37,9.57,9.57,0,0,1,1.6-5.78c2.62-3.64,8.1-4.25,10.77-7.85a11.59,11.59,0,0,0,1.4-2.65c.33-.82.62-1.65.88-2.49A14.29,14.29,0,0,1,40.57,65.81Z"/><path class="cls-3" d="M41.07,66a8.25,8.25,0,0,1-8.25,8.25h-13a8.77,8.77,0,0,1,3.83-6c1.87-1.24,4.14-1.7,6.2-2.59a16.1,16.1,0,0,0,8.21-8.41A14.11,14.11,0,0,1,41.07,66Z"/><path class="cls-4" d="M9.4,64.47a.29.29,0,0,1-.13,0,.34.34,0,0,1-.18-.42h0l1.77-4.19a.33.33,0,0,1,.43-.18.33.33,0,0,1,.17.43L9.69,64.3A.34.34,0,0,1,9.4,64.47Z"/><path class="cls-4" d="M11.52,62.52h-.13a.32.32,0,0,1-.17-.42h0l1-2.24a.33.33,0,0,1,.43-.18.33.33,0,0,1,.17.43l-1,2.24A.32.32,0,0,1,11.52,62.52Z"/><circle class="cls-4" cx="8.43" cy="60.04" r="0.52"/><path class="cls-4" d="M33,74.72H15.38A8.75,8.75,0,0,1,6.66,66a14.85,14.85,0,0,1,.56-4,.49.49,0,0,1,.94.26A13.73,13.73,0,0,0,7.63,66a7.77,7.77,0,0,0,7.75,7.77H33A7.77,7.77,0,0,0,40.72,66a13.81,13.81,0,0,0-13.8-13.81H21.39a13.74,13.74,0,0,0-7.29,2.1.49.49,0,0,1-.52-.82,14.72,14.72,0,0,1,7.81-2.25h5.53A14.77,14.77,0,0,1,41.69,66,8.75,8.75,0,0,1,33,74.72Z"/><path class="cls-4" d="M9.38,58.76A.48.48,0,0,1,9,58a14.61,14.61,0,0,1,2.76-3.21.49.49,0,0,1,.64.74,13.42,13.42,0,0,0-2.58,3A.49.49,0,0,1,9.38,58.76Z"/><path class="cls-5" d="M20.89,41h6V52.12a3,3,0,0,1-3,3h0a3,3,0,0,1-3-3V41Z"/><path class="cls-6" d="M20.89,35.33h6V46.5a3,3,0,0,1-3,3h0a3,3,0,0,1-3-3V35.33Z"/><path class="cls-4" d="M23.89,55.52a3.4,3.4,0,0,1-3.4-3.4V41a.4.4,0,0,1,.4-.4h6a.4.4,0,0,1,.4.4V52.12A3.41,3.41,0,0,1,23.89,55.52Zm-2.6-14.17V52.12a2.6,2.6,0,1,0,5.2,0V41.35Z"/><circle class="cls-5" cx="4.75" cy="27.11" r="3.28"/><path class="cls-4" d="M4.75,30.87a3.77,3.77,0,1,1,3.76-3.76A3.77,3.77,0,0,1,4.75,30.87Zm0-6.56a2.8,2.8,0,1,0,2.79,2.8A2.8,2.8,0,0,0,4.75,24.31Z"/><circle class="cls-5" cx="44.38" cy="27.11" r="3.28"/><circle class="cls-6" cx="44.31" cy="27.11" r="1.65"/><circle class="cls-6" cx="4.78" cy="27.11" r="1.65"/><path class="cls-4" d="M44.38,30.87a3.77,3.77,0,1,1,3.76-3.76A3.77,3.77,0,0,1,44.38,30.87Zm0-6.56a2.8,2.8,0,1,0,2.79,2.8A2.81,2.81,0,0,0,44.38,24.31Z"/><rect class="cls-5" x="5.58" y="7.76" width="38.1" height="38.9" rx="16.04"/><path class="cls-1" d="M23.47,46.36l-2.19.22a16,16,0,0,1-15.8-16.2V23.5a16,16,0,0,1,16-16h1.95a16,16,0,0,0-16,16v6.82a16,16,0,0,0,16,16Z"/><path class="cls-7" d="M43.2,24.09V30.9a16,16,0,0,1-16,16H24.15V8.05h3A16,16,0,0,1,43.2,24Z"/><path class="cls-6" d="M43.23,24v6.81a16,16,0,0,1-16,16H24.85a16,16,0,0,0,16-15.95V24a16,16,0,0,0-16-16h2.25A16,16,0,0,1,43.23,23.9Z"/><path class="cls-8" d="M43.51,23.49V30.3a15.51,15.51,0,0,1-.1,1.8l-.1-.08a4.86,4.86,0,0,1-1.81-3.78V24.82a7.34,7.34,0,0,0-5.09-5.42,15,15,0,0,0-4.9-.54h-6q.22-.67.39-1.38c.24-.82.45-1.77,1.2-2.16a3.22,3.22,0,0,1,1.1-.26,9.26,9.26,0,0,0,3.69-1.36c1.32-.85,2.5-2.28,2.27-3.84a3.7,3.7,0,0,0-.39-1.13A16,16,0,0,1,43.51,23.49Z"/><path class="cls-9" d="M43.62,23.93v6.81a15.51,15.51,0,0,1-.1,1.8l-.1-.08-.12-.11a4.81,4.81,0,0,1-1.69-3.67V25.26A7.66,7.66,0,0,0,41,23.39,16,16,0,0,0,34.2,11.32a2.8,2.8,0,0,0,0-1,2.33,2.33,0,0,0-.08-.36,3.45,3.45,0,0,0-.31-.77A16,16,0,0,1,43.62,23.93Z"/><path class="cls-9" d="M34.62,13.92a10.05,10.05,0,0,1-4.2,2.23,3.22,3.22,0,0,0-1.1.26,2.27,2.27,0,0,0-1.17,1.67c-.08.23-.14.47-.24.7H25.56c.14-.33.26-.66.37-1,.24-.82.44-1.77,1.19-2.16a3.27,3.27,0,0,1,1.11-.26,9.2,9.2,0,0,0,4.64-2.07,3.78,3.78,0,0,0,1.28-2.11,3.29,3.29,0,0,0-.37-2.13,15.39,15.39,0,0,1,2.61,1.43h0A4.34,4.34,0,0,1,34.62,13.92Z"/><path class="cls-8" d="M13.2,19.06H13a9.77,9.77,0,0,0-1.87.83,4.91,4.91,0,0,0-.51.39,8.56,8.56,0,0,0-3,6.06l.48,1.72A4.86,4.86,0,0,1,6.3,31.84H6.21C6.15,31.26,6,30.57,6,30l.13-6.7a16,16,0,0,1,2.43-8.49,3.61,3.61,0,0,0,.16.42,7,7,0,0,0,4.08,3.63A2.38,2.38,0,0,1,13.2,19.06Z"/><path class="cls-4" d="M8.49,40.32a.51.51,0,0,1-.4-.2,16.51,16.51,0,0,1-3-9.51.49.49,0,0,1,.49-.49h0a.48.48,0,0,1,.48.49,15.44,15.44,0,0,0,2.83,9,.49.49,0,0,1-.12.68A.48.48,0,0,1,8.49,40.32Z"/><path class="cls-4" d="M12.68,44.41a.45.45,0,0,1-.27-.08,16.64,16.64,0,0,1-3-2.53.49.49,0,0,1,.72-.66A15.52,15.52,0,0,0,13,43.53a.48.48,0,0,1,.13.67A.46.46,0,0,1,12.68,44.41Z"/><path class="cls-4" d="M21.58,47.05a16.43,16.43,0,0,1-6.23-1.22.48.48,0,0,1,.36-.9,15.59,15.59,0,0,0,5.91,1.15h6A15.53,15.53,0,0,0,43.13,30.57V23.76A15.53,15.53,0,0,0,27.62,8.24h-6a15.59,15.59,0,0,0-12.33,6.1.47.47,0,0,1-.68.09.48.48,0,0,1-.1-.68A16.61,16.61,0,0,1,21.6,7.27h6A16.5,16.5,0,0,1,44.1,23.76v6.81A16.49,16.49,0,0,1,27.62,47.05h-6Z"/><path class="cls-8" d="M19.2,19.8A1.55,1.55,0,0,0,20,20.89a3.62,3.62,0,0,0,1.37.36,4.5,4.5,0,0,0,2.06-.15,4.66,4.66,0,0,0,2.6-3.32c.24-.82.45-1.77,1.2-2.16a3.22,3.22,0,0,1,1.1-.26A9.11,9.11,0,0,0,32,14c1.32-.85,2.5-2.28,2.27-3.84a5.28,5.28,0,0,0-1-2,15.72,15.72,0,0,0-3.49-4,6.25,6.25,0,0,0-5-1.26,3.67,3.67,0,0,1-.74.11c-.55,0-1-.51-1.37-.89a5.85,5.85,0,0,0-6.6-.79,6.2,6.2,0,0,0-3.08,5.94l-.25-.07a5.74,5.74,0,0,0-4.46,3,6.76,6.76,0,0,0,.15,5.65,7,7,0,0,0,4.09,3.64,1.72,1.72,0,0,1,.68.33,1.81,1.81,0,0,1,.4,1,6,6,0,0,0,2.56,3.36c1.1.79,4.75.66,4,.11A3.38,3.38,0,0,1,19.2,19.8Z"/><path class="cls-10" d="M32.05,13.86a9.2,9.2,0,0,1-3.69,1.32,3.15,3.15,0,0,0-1.09.25,3.13,3.13,0,0,0-1.21,2.17,4.72,4.72,0,0,1-2.6,3.32,4.64,4.64,0,0,1-2.06.15A3.58,3.58,0,0,1,20,20.7a1.52,1.52,0,0,1-.83-1.09,3.39,3.39,0,0,0,1.07,4.46c.73.54-2.92.68-4-.11a7.32,7.32,0,0,1-2-2c.31-1.93,1-4,2.74-4.78,1.23-.5,2.67-.2,3.89-.71,1.63-.69,2.38-2.61,3.85-3.58,1-.68,2.34-.84,3.42-1.46A8.64,8.64,0,0,0,32,6.29c.31.47,0,.68-.1,0A12.87,12.87,0,0,1,33.39,8a5.14,5.14,0,0,1,1,2.05C34.55,11.57,33.37,13,32.05,13.86Z"/><path class="cls-4" d="M43.48,32.89a.51.51,0,0,1-.31-.11,5.36,5.36,0,0,1-2-4.18V25.18a7.36,7.36,0,0,0-4.71-5.36,11.21,11.21,0,0,0-3.27-.49h0a.5.5,0,0,1-.5-.5.52.52,0,0,1,.54-.5,12.16,12.16,0,0,1,3.59.54,8.41,8.41,0,0,1,5.38,6.21V28.6A4.34,4.34,0,0,0,43.79,32a.5.5,0,0,1,.08.7A.48.48,0,0,1,43.48,32.89Z"/><path class="cls-4" d="M28.68,19.29H25.82a.5.5,0,0,1-.5-.5.5.5,0,0,1,.5-.5h2.86a.5.5,0,0,1,.5.5A.5.5,0,0,1,28.68,19.29Z"/><path class="cls-4" d="M8.34,23.51a.53.53,0,0,1-.24-.06.51.51,0,0,1-.2-.68A8.59,8.59,0,0,1,10.36,20a5.54,5.54,0,0,1,2.05-.9.5.5,0,0,1,.22,1,4.57,4.57,0,0,0-1.69.74,7.41,7.41,0,0,0-2.16,2.46A.51.51,0,0,1,8.34,23.51Z"/><path class="cls-4" d="M5.76,32.84a.48.48,0,0,1-.39-.19.5.5,0,0,1,.07-.7,4.38,4.38,0,0,0,1.63-3.4V26.28a.5.5,0,0,1,1,0v2.27a5.38,5.38,0,0,1-2,4.18A.56.56,0,0,1,5.76,32.84Z"/><path class="cls-4" d="M21.71,21.68a5,5,0,0,1-.77-.06,3.77,3.77,0,0,1-1.5-.4,2.11,2.11,0,0,1-1.1-1.44.5.5,0,1,1,1-.2,1.07,1.07,0,0,0,.57.74,2.9,2.9,0,0,0,1.16.31,4.12,4.12,0,0,0,1.89-.13,4.26,4.26,0,0,0,2.26-2.94,3.49,3.49,0,0,1,1.46-2.5A3.36,3.36,0,0,1,28,14.74a8.71,8.71,0,0,0,3.46-1.28c1.07-.68,2.24-2,2-3.35a4.37,4.37,0,0,0-.85-1.81c-.35-.54-.76-1.14-1.2-1.69A.5.5,0,0,1,32.17,6c.46.58.89,1.2,1.24,1.72a5.64,5.64,0,0,1,1,2.22c.28,1.89-1.1,3.49-2.48,4.37a9.58,9.58,0,0,1-3.9,1.43,2.66,2.66,0,0,0-1,.23c-.5.26-.71,1-.92,1.82a5.27,5.27,0,0,1-2.86,3.65A5.28,5.28,0,0,1,21.71,21.68Z"/><path class="cls-4" d="M29.51,4.52a.51.51,0,0,1-.31-.11,5.78,5.78,0,0,0-4.6-1.17,3.19,3.19,0,0,1-.81.13,2.49,2.49,0,0,1-1.56-.87l-.17-.16a.5.5,0,1,1,.68-.74l.19.18a1.71,1.71,0,0,0,.89.59,2.4,2.4,0,0,0,.54-.1,6.81,6.81,0,0,1,5.46,1.36.49.49,0,0,1,.08.7A.51.51,0,0,1,29.51,4.52Z"/><circle class="cls-4" cx="10.89" cy="7.72" r="0.52"/><circle class="cls-4" cx="7.82" cy="24.63" r="0.52"/><circle class="cls-4" cx="30.83" cy="18.78" r="0.52"/><circle class="cls-4" cx="14.03" cy="44.78" r="0.52"/><circle class="cls-4" cx="30.77" cy="4.96" r="0.52"/><circle class="cls-9" cx="30.85" cy="16.03" r="0.46"/><circle class="cls-9" cx="32.71" cy="15.02" r="0.3"/><circle class="cls-11" cx="32.28" cy="16.15" r="0.17"/><circle class="cls-9" cx="29.88" cy="16.87" r="0.28"/><circle class="cls-9" cx="35.13" cy="13.45" r="0.37"/><circle class="cls-11" cx="34.29" cy="14.97" r="0.23"/><circle class="cls-11" cx="33.63" cy="15.89" r="0.5"/><path class="cls-4" d="M17.4,10.35a.33.33,0,0,1-.23-.09,4.77,4.77,0,0,1-.81-1.08.34.34,0,0,1,.13-.44.32.32,0,0,1,.44.13,4,4,0,0,0,.7.93.32.32,0,0,1,0,.46A.33.33,0,0,1,17.4,10.35Z"/><path class="cls-4" d="M20.34,11.59a4.22,4.22,0,0,1-1.84-.41.32.32,0,0,1-.15-.43.33.33,0,0,1,.43-.16,3.62,3.62,0,0,0,3.34-.11,3.85,3.85,0,0,0,1.42-5.23.32.32,0,0,1,.56-.32,4.49,4.49,0,0,1-1.66,6.12A4.35,4.35,0,0,1,20.34,11.59Z"/><path class="cls-4" d="M12.45,16.23a2.56,2.56,0,0,1-2.24-1.31.34.34,0,0,1,.13-.45.32.32,0,0,1,.44.13,1.9,1.9,0,0,0,3.33-1.83.34.34,0,0,1,.12-.45.32.32,0,0,1,.44.13,2.54,2.54,0,0,1-1,3.46A2.48,2.48,0,0,1,12.45,16.23Z"/><path class="cls-4" d="M19.56,17.3A2.53,2.53,0,0,1,17.33,16a.32.32,0,1,1,.56-.32,1.9,1.9,0,0,0,3.32-1.83.34.34,0,0,1,.13-.45.32.32,0,0,1,.44.13,2.54,2.54,0,0,1-1,3.46A2.48,2.48,0,0,1,19.56,17.3Z"/><path class="cls-12" d="M45.15,29.84a3.77,3.77,0,1,0,3.77,3.77h0A3.77,3.77,0,0,0,45.15,29.84Zm0,5.34a1.53,1.53,0,1,1,1.53-1.53h0a1.53,1.53,0,0,1-1.51,1.53Z"/><path class="cls-4" d="M45.12,37.67a4.07,4.07,0,1,1,4.07-4.07A4.08,4.08,0,0,1,45.12,37.67Zm0-7.54a3.47,3.47,0,1,0,3.47,3.47A3.47,3.47,0,0,0,45.12,30.13Z"/><path class="cls-4" d="M45.12,35.43A1.83,1.83,0,1,1,47,33.6,1.83,1.83,0,0,1,45.12,35.43Zm0-3.06a1.23,1.23,0,1,0,1.23,1.23A1.23,1.23,0,0,0,45.12,32.37Z"/><path class="cls-1" d="M13.59,6l-.12,0a.5.5,0,0,1-.36-.61S14.47.19,19.26.87a.5.5,0,0,1-.14,1c-3.91-.56-5,3.55-5.05,3.72A.49.49,0,0,1,13.59,6Z"/><ellipse class="cls-1" cx="9.32" cy="37.51" rx="0.88" ry="0.5" transform="translate(-29.22 34.55) rotate(-71.66)"/><circle class="cls-13" cx="10.9" cy="38.01" r="0.28"/><path class="cls-13" d="M10,38.3a.22.22,0,1,1-.22.22h0A.21.21,0,0,1,10,38.3Z"/><circle class="cls-13" cx="10.33" cy="36.49" r="0.29"/><path class="cls-1" d="M6.15,24.15h0a.37.37,0,0,1-.37-.38,19.28,19.28,0,0,1,.61-4.4.36.36,0,0,1,.45-.26.37.37,0,0,1,.27.45,18.83,18.83,0,0,0-.58,4.23A.37.37,0,0,1,6.15,24.15Z"/><path class="cls-4" d="M5.58,31.31a.48.48,0,0,1-.49-.48v-7a16.6,16.6,0,0,1,1.35-6.56A.5.5,0,0,1,7.08,17a.48.48,0,0,1,.25.64,15.61,15.61,0,0,0-1.27,6.18v7A.47.47,0,0,1,5.58,31.31Z"/><path class="cls-4" d="M12.72,7.68a.51.51,0,0,1-.5-.45A6.73,6.73,0,0,1,15.56.74,6.4,6.4,0,0,1,20.75.39a.5.5,0,1,1-.34.94A5.38,5.38,0,0,0,16,1.62a5.7,5.7,0,0,0-2.82,5.51.51.51,0,0,1-.45.55Z"/><circle class="cls-3" cx="25.21" cy="67.4" r="0.6"/><circle class="cls-3" cx="27.51" cy="66.51" r="0.58"/><circle class="cls-3" cx="23.08" cy="68.85" r="1.31"/><circle class="cls-14" cx="23.23" cy="66.49" r="0.41"/><circle class="cls-14" cx="24.98" cy="66.27" r="0.21"/><circle class="cls-14" cx="21.91" cy="66.78" r="0.21"/><circle class="cls-14" cx="25.88" cy="65.63" r="0.56"/><circle class="cls-14" cx="21.18" cy="67.78" r="0.46"/><path class="cls-12" d="M4.08,29.35a3.77,3.77,0,1,0,3.77,3.77,3.77,3.77,0,0,0-3.77-3.77Zm0,5.29A1.53,1.53,0,1,1,5.6,33.1v0a1.52,1.52,0,0,1-1.52,1.52Z"/><path class="cls-4" d="M4.09,37.23a4.33,4.33,0,0,1-1.19-.17.31.31,0,0,1-.2-.38.31.31,0,0,1,.37-.2A3.49,3.49,0,1,0,.6,33.16a3.73,3.73,0,0,0,.14.92,3.56,3.56,0,0,0,.29.7.3.3,0,0,1-.12.41.29.29,0,0,1-.4-.12,4.4,4.4,0,0,1-.35-.83A4.34,4.34,0,0,1,0,33.16a4.08,4.08,0,0,1,4.07-4.09h0A4.08,4.08,0,0,1,7,36,4,4,0,0,1,4.09,37.23Z"/><path class="cls-4" d="M4.08,35a1.83,1.83,0,1,1,1.83-1.83A1.83,1.83,0,0,1,4.08,35Zm0-3.06a1.23,1.23,0,1,0,1.23,1.23A1.23,1.23,0,0,0,4.08,31.89Z"/><path class="cls-8" d="M19.85,27.29,15.2,27A1.29,1.29,0,0,1,14,25.74h0c0-.69.5-.58,1.17-.64l4.64-.45a1.3,1.3,0,0,1,1.42,1.18.28.28,0,0,1,0,.09h0A1.32,1.32,0,0,1,20,27.29Z"/><path class="cls-9" d="M19.85,27.29,15.2,27A1.29,1.29,0,0,1,14,25.74h0c0-.69-.2.43.48.36l6.25.39c.76-.08.49-1.33.51-.57h0A1.32,1.32,0,0,1,20,27.29Z"/><path class="cls-4" d="M19.91,27.48h-.08l-4.65-.28a1.52,1.52,0,0,1-1.44-1.5c0-.8.57-.83,1.07-.85l.31,0,.8-.08a.23.23,0,0,1,.25.21.24.24,0,0,1-.21.25l-.8.08-.32,0c-.56,0-.64.05-.64.39a1.07,1.07,0,0,0,1,1l4.65.28h.08A1.08,1.08,0,0,0,21,25.92v-.06a1.13,1.13,0,0,0-.39-.74,1.07,1.07,0,0,0-.79-.24L18,25.06a.23.23,0,0,1,0-.46l1.84-.18a1.51,1.51,0,0,1,1.12.35,1.47,1.47,0,0,1,.55,1,.34.34,0,0,1,0,.1,1.55,1.55,0,0,1-1.51,1.57Z"/><circle class="cls-9" cx="18.84" cy="26.3" r="0.34"/><circle class="cls-9" cx="17.94" cy="25.9" r="0.18"/><circle class="cls-9" cx="20.09" cy="26.34" r="0.44"/><path class="cls-8" d="M28.78,27.05l4.65-.28a1.31,1.31,0,0,0,1.23-1.27h0c0-.69-.5-.58-1.18-.64l-4.64-.45a1.3,1.3,0,0,0-1.42,1.17v.11h0a1.31,1.31,0,0,0,1.24,1.36Z"/><path class="cls-9" d="M28.78,27.05l4.65-.28a1.31,1.31,0,0,0,1.23-1.27h0c0-.69.19.43-.49.36l-6.25.39c-.75-.08-.49-1.32-.5-.56h0a1.31,1.31,0,0,0,1.24,1.36Z"/><path class="cls-4" d="M28.72,27.25h0a1.53,1.53,0,0,1-1.49-1.57.49.49,0,0,1,0-.12,1.52,1.52,0,0,1,1.66-1.38l1.84.18a.23.23,0,0,1,.21.25.22.22,0,0,1-.25.21l-1.84-.18a1.07,1.07,0,0,0-1.17,1v.09a1.07,1.07,0,0,0,1,1.1h.1l4.65-.28a1.08,1.08,0,0,0,1-1.05c0-.33-.08-.35-.64-.38l-.33,0L32.69,25a.24.24,0,0,1-.21-.26.23.23,0,0,1,.25-.2l.79.08.31,0c.5,0,1.08.05,1.08.85A1.54,1.54,0,0,1,33.46,27l-4.65.28Z"/><circle class="cls-9" cx="29.79" cy="26.06" r="0.34"/><circle class="cls-9" cx="30.7" cy="25.66" r="0.18"/><circle class="cls-9" cx="28.55" cy="26.1" r="0.44"/><path class="cls-4" d="M17.74,28.36h0a1.39,1.39,0,0,1,1.39,1.39v3.5a1.39,1.39,0,0,1-1.39,1.39h0a1.39,1.39,0,0,1-1.39-1.39v-3.5A1.39,1.39,0,0,1,17.74,28.36Z"/><path class="cls-4" d="M18.32,25.14a5.64,5.64,0,0,1-5.48-4.34,1.43,1.43,0,0,0-.27-.75,1.19,1.19,0,0,0-.44-.21,7.51,7.51,0,0,1-4.42-3.9,6.75,6.75,0,0,1,.12-5.87A6,6,0,0,1,9.09,8.42a.5.5,0,0,1,.71,0,.51.51,0,0,1,0,.71,4.86,4.86,0,0,0-1,1.37,5.75,5.75,0,0,0-.1,5,6.45,6.45,0,0,0,3.79,3.36,2.3,2.3,0,0,1,.83.41l.08.09a2.42,2.42,0,0,1,.51,1.26,4.62,4.62,0,0,0,5.36,3.42,4.76,4.76,0,0,1-.81-1.77.5.5,0,0,1,1-.22A3.73,3.73,0,0,0,20.43,24a.49.49,0,0,1,.15.46.52.52,0,0,1-.32.37,4.84,4.84,0,0,1-.65.19A5.68,5.68,0,0,1,18.32,25.14Z"/><circle class="cls-6" cx="24.07" cy="33.31" r="1.39"/><path class="cls-4" d="M24.07,34.93a1.62,1.62,0,1,1,1.62-1.62A1.63,1.63,0,0,1,24.07,34.93Zm0-2.78a1.16,1.16,0,1,0,1.16,1.16A1.16,1.16,0,0,0,24.07,32.15Z"/><circle class="cls-4" cx="1.67" cy="36.03" r="0.52"/><path class="cls-1" d="M1.46,31.94a.27.27,0,0,1-.12,0,.25.25,0,0,1-.1-.34,3.53,3.53,0,0,1,2-1.63.25.25,0,0,1,.16.48,3,3,0,0,0-1.69,1.39A.26.26,0,0,1,1.46,31.94Z"/><path class="cls-1" d="M1.06,33H1a.25.25,0,0,1-.2-.29c0-.13.06-.25.1-.37a.26.26,0,0,1,.32-.16.25.25,0,0,1,.15.32,1.63,1.63,0,0,0-.07.3A.27.27,0,0,1,1.06,33Z"/><path class="cls-15" d="M27.7,38.18S26.7,41,24.24,41h-.09c-2.52,0-3.46-2.77-3.46-2.77Z"/><path class="cls-16" d="M27.7,38s-1,2.77-3.46,2.77h-.09c-2.52,0-3.46-2.77-3.46-2.77h.25a3.75,3.75,0,0,0,3.21,2.22h.1A3.75,3.75,0,0,0,27.47,38Z"/><path class="cls-4" d="M24.24,41.18h-.09c-2.65,0-3.67-2.9-3.68-2.93a.26.26,0,0,1,0-.21.25.25,0,0,1,.19-.09h7a.23.23,0,0,1,.22.31C27.87,38.38,26.83,41.18,24.24,41.18ZM21,38.41a3.63,3.63,0,0,0,3.11,2.31h.09a3.73,3.73,0,0,0,3.11-2.31Zm6.66,0h0Z"/><path class="cls-15" d="M28,38l-2.38.11-1.36.13h-.13l-1.41-.09-2.38-.11c1.08,0,2.5-1.4,3-1.27a6.86,6.86,0,0,1,.86.32,5.33,5.33,0,0,1,.87-.32C25.56,36.63,26.94,38,28,38Z"/><path class="cls-4" d="M24.15,38.5l-1.43-.09-2.37-.11a.23.23,0,0,1-.22-.24.22.22,0,0,1,.23-.22,4.2,4.2,0,0,0,1.77-.75c.56-.35,1-.6,1.29-.51a5.89,5.89,0,0,1,.8.29,4.59,4.59,0,0,1,.81-.29c.3-.11.71.14,1.27.48A4,4,0,0,0,28,37.8a.23.23,0,0,1,0,.46l-2.38.11Zm-2.5-.6,2.51.14h.12l1.34-.13,1.12,0c-.24-.13-.47-.27-.68-.4S25.3,37,25.17,37a4.51,4.51,0,0,0-.85.31.25.25,0,0,1-.19,0,6,6,0,0,0-.84-.31c-.11,0-.6.26-.92.46S21.89,37.77,21.65,37.9Z"/><circle class="cls-1" cx="16.28" cy="2.78" r="0.6"/><circle class="cls-17" cx="15.47" cy="4.13" r="0.35"/><circle class="cls-17" cx="18.03" cy="3.07" r="0.42"/><circle class="cls-18" cx="16.77" cy="4" r="0.29"/><circle class="cls-17" cx="9.69" cy="15.05" r="0.29"/><circle class="cls-18" cx="9.42" cy="13.6" r="0.29"/><circle class="cls-17" cx="9.17" cy="11.15" r="0.42"/><path class="cls-4" d="M31.57,28.36h0A1.39,1.39,0,0,1,33,29.75v3.5a1.39,1.39,0,0,1-1.39,1.39h0a1.39,1.39,0,0,1-1.39-1.39v-3.5A1.39,1.39,0,0,1,31.57,28.36Z"/><circle class="cls-1" cx="30.17" cy="30.9" r="0.89"/><path class="cls-4" d="M33,30a6.64,6.64,0,0,0,1.24-1.3,10.6,10.6,0,0,1-1.25.75,6.66,6.66,0,0,0,.87-1.62,8.35,8.35,0,0,1-1.67,1.58c-.39.23-.24.32,0,.36-.38.1-.33.21-.17.3a4.06,4.06,0,0,1,.56.57,6.83,6.83,0,0,0,2.07-.86A10.22,10.22,0,0,1,33,30Z"/><path class="cls-4" d="M16.15,30a6.37,6.37,0,0,1-1.24-1.3,10.48,10.48,0,0,0,1.24.75,6.63,6.63,0,0,1-.86-1.62A8.07,8.07,0,0,0,17,29.4c.39.23.24.32,0,.36.38.1.33.21.16.3,0,.19-.56.57-.56.57a6.83,6.83,0,0,1-2.07-.86A10.34,10.34,0,0,0,16.15,30Z"/><circle class="cls-1" cx="16.4" cy="30.9" r="0.89"/></g></g></svg>