<svg xmlns="http://www.w3.org/2000/svg" viewBox="0 0 49.05 91.99"><defs><style>.cls-1{fill:#854277;}.cls-2,.cls-4{fill:#66245d;}.cls-2,.cls-20{opacity:0.4;}.cls-11,.cls-2,.cls-20,.cls-7,.cls-9{isolation:isolate;}.cls-3{fill:#c170b2;}.cls-5{fill:#000201;}.cls-6{fill:#fdc6a2;}.cls-10,.cls-7{fill:#e89176;}.cls-7{opacity:0.75;}.cls-8,.cls-9{fill:#fff;}.cls-9{opacity:0.55;}.cls-11,.cls-12{fill:#ff9976;}.cls-11{opacity:0.25;}.cls-13{fill:#181828;}.cls-14{fill:#af143b;}.cls-15{fill:#91052d;}.cls-16{fill:#ffdede;}.cls-17{fill:#ea3d90;}.cls-18{fill:#ff7dc7;}.cls-19{fill:#ffe8dc;}.cls-20,.cls-22{fill:#ffddd7;}.cls-21{fill:#ce7057;}</style></defs><g id="Layer_2" data-name="Layer 2"><g id="Layer_1-2" data-name="Layer 1"><path class="cls-1" d="M25.05,61.78h0A20.44,20.44,0,0,1,45.49,82.22h0A9.47,9.47,0,0,1,36,91.69H14.08a9.46,9.46,0,0,1-9.47-9.47h0A20.44,20.44,0,0,1,25.05,61.78Z"/><path class="cls-2" d="M29.9,76c5.42-2.71,3.45-3.83,4.53-12.14,0,0,2.58,1.54,2.6,1.53,1.07.73,1.78,2.06,2.7,3a20.46,20.46,0,0,1,6,14.46A8.22,8.22,0,0,1,42.86,89c-1.72,1.71-3.06,2.1-6.42,2.67h-22a5.6,5.6,0,0,1-2.68-.46c-1.64-.48-2.55-1.16-2.82-2.85a6.05,6.05,0,0,1,.13-2.9c.57-1.75,2.21-3.12,4.1-4.22a21,21,0,0,1,7.25-2.52Z"/><path class="cls-3" d="M6.9,75.8H6.77a.41.41,0,0,1-.26-.51h0c.13-.36,3.17-8.84,10.84-11.42a.38.38,0,0,1,.5.24h0a.42.42,0,0,1-.26.51C10.33,67.09,7.31,75.47,7.28,75.56A.42.42,0,0,1,6.9,75.8Z"/><path class="cls-4" d="M45.31,81.69a9.47,9.47,0,0,1-9.46,9.46h-22a9.88,9.88,0,0,1-3.28-.57,5.9,5.9,0,0,1,0-2.51,6.25,6.25,0,0,1,3.5-4.34c3.41-1.56,7.33.19,11.09.36a14.88,14.88,0,0,0,13-7.33,18.59,18.59,0,0,0,2.55-7.86A20.32,20.32,0,0,1,45.31,81.69Z"/><path class="cls-5" d="M36.21,92h-22A10,10,0,0,1,4.25,82a14.9,14.9,0,0,1,.06-1.61A.5.5,0,0,1,4.85,80a.49.49,0,0,1,.43.54A12.46,12.46,0,0,0,5.22,82a9,9,0,0,0,9,9h22a9,9,0,0,0,9-9,20,20,0,0,0-39.1-5.69.48.48,0,0,1-.93-.27,20.93,20.93,0,0,1,41,6A10,10,0,0,1,36.21,92Z"/><path class="cls-6" d="M25.51,55.21h0a4.21,4.21,0,0,1,4.22,4.22v2.94a4.22,4.22,0,0,1-4.22,4.22h0a4.21,4.21,0,0,1-4.22-4.22V59.43A4.21,4.21,0,0,1,25.51,55.21Z"/><path class="cls-7" d="M29.58,58.19v2.94a4.27,4.27,0,0,1-.12,1c-4.47.36-6.94-2-8.06-5.36a3.83,3.83,0,0,1,.85-1.41,4.2,4.2,0,0,1,5.94-.3,4.25,4.25,0,0,1,1.39,3.15Z"/><circle class="cls-4" cx="35.72" cy="78.78" r="2.27"/><circle class="cls-4" cx="32.64" cy="80.82" r="0.67"/><path class="cls-5" d="M7.18,84H7.06a.33.33,0,0,1-.19-.42h0l1.77-4.21a.32.32,0,0,1,.43-.18.33.33,0,0,1,.17.43L7.48,83.8A.38.38,0,0,1,7.18,84Z"/><path class="cls-5" d="M9.3,82H9.18a.31.31,0,0,1-.19-.4v0H9l.94-2.24a.32.32,0,0,1,.43-.18.33.33,0,0,1,.17.43l-1,2.24A.35.35,0,0,1,9.3,82Z"/><path class="cls-8" d="M11.19,38.46a.4.4,0,0,1-.41-.4V32.45a.41.41,0,1,1,.81,0v5.61A.4.4,0,0,1,11.19,38.46Z"/><ellipse class="cls-8" cx="11.19" cy="40.33" rx="0.54" ry="0.73"/><path class="cls-5" d="M25.5,67.05a4.68,4.68,0,0,1-4.67-4.68V59.43a4.68,4.68,0,1,1,9.36,0v2.94A4.69,4.69,0,0,1,25.5,67.05Zm0-11.38a3.75,3.75,0,0,0-3.75,3.76v2.94a3.76,3.76,0,1,0,7.52,0V59.43A3.76,3.76,0,0,0,25.5,55.67Z"/><circle class="cls-9" cx="18.51" cy="57.4" r="0.22"/><circle class="cls-9" cx="21.55" cy="58.46" r="0.29"/><ellipse class="cls-8" cx="18.31" cy="55.5" rx="0.88" ry="0.5" transform="translate(-40.13 55.42) rotate(-71.66)"/><circle class="cls-9" cx="19.91" cy="55.99" r="0.28"/><path class="cls-9" d="M19.05,56.28a.22.22,0,0,1,.22.22.22.22,0,0,1-.22.22.22.22,0,0,1-.22-.22.21.21,0,0,1,.22-.22Z"/><circle class="cls-9" cx="19.34" cy="54.47" r="0.29"/><path class="cls-6" d="M7.08,32.54h2a4.79,4.79,0,0,1,4.69,4.86h0A4.78,4.78,0,0,1,9,42.13H6.9a4.81,4.81,0,0,1-4.7-4.86h0a4.77,4.77,0,0,1,4.86-4.69h0Z"/><path class="cls-5" d="M9,42.57H6.9a5.11,5.11,0,0,1-3.12-1.1.44.44,0,0,1,.55-.69,4.27,4.27,0,0,0,2.57.9h2A4.35,4.35,0,0,0,9.07,33H7a4.34,4.34,0,0,0-4.34,4.25A4.2,4.2,0,0,0,3,38.94a.46.46,0,0,1-.24.58.47.47,0,0,1-.59-.24,5.21,5.21,0,0,1-.39-2.06,5.28,5.28,0,0,1,5.31-5.13h2A5.24,5.24,0,0,1,9,42.57Z"/><path class="cls-10" d="M7.61,35h1a2.5,2.5,0,0,1,2.44,2.54h0A2.53,2.53,0,0,1,8.56,40h-1a2.49,2.49,0,0,1-2.43-2.54h0A2.48,2.48,0,0,1,7.61,35Z"/><path class="cls-8" d="M4.28,35.67a1.72,1.72,0,0,1,.89-1c.35-.14.21-.71-.16-.57a2.23,2.23,0,0,0-1.24,1.26c-.15.34.36.64.51.3Z"/><ellipse class="cls-8" cx="3.59" cy="36.77" rx="0.47" ry="0.38" transform="translate(-33.3 34.95) rotate(-81.6)"/><path class="cls-6" d="M41.9,32.54h2a4.81,4.81,0,0,1,4.71,4.88h0a4.77,4.77,0,0,1-4.85,4.68h-2a4.78,4.78,0,0,1-4.69-4.86h0a4.75,4.75,0,0,1,4.84-4.69h0Z"/><path class="cls-5" d="M43.84,42.54H41.75a5.22,5.22,0,0,1,0-10.44h2.1a5.23,5.23,0,0,1-.06,10.45Zm-.09-.89h.08A4.34,4.34,0,0,0,43.89,33H41.83a4.33,4.33,0,0,0-.07,8.66Z"/><path class="cls-10" d="M42.34,35H43.4a2.49,2.49,0,0,1,2.43,2.53h0A2.49,2.49,0,0,1,43.3,40h-1a2.5,2.5,0,0,1-2.44-2.54h0A2.49,2.49,0,0,1,42.34,35Z"/><path class="cls-8" d="M38.49,36a1.72,1.72,0,0,1,.89-1c.35-.14.2-.71-.16-.57A2.22,2.22,0,0,0,38,35.68c-.15.35.36.65.51.31Z"/><ellipse class="cls-8" cx="37.82" cy="37.1" rx="0.47" ry="0.38" transform="translate(-4.41 69.09) rotate(-81.6)"/><path class="cls-6" d="M37.49,10.06c.21.18.39.36.58.55a17.73,17.73,0,0,1,5.2,12.57V41.51a17.76,17.76,0,0,1-35.52.38V23.18a17.63,17.63,0,0,1,5.78-13.11C19.43,4.67,31.57,4.7,37.49,10.06Z"/><path class="cls-11" d="M43.34,23.11V41.44a17.78,17.78,0,0,1-17.7,17.82h-.06V6c4.51,0,9,1.34,12,4,.21.18.39.37.58.56A17.71,17.71,0,0,1,43.34,23.11Z"/><path class="cls-12" d="M43.27,23V41.36a17.78,17.78,0,0,1-17.7,17.82h-1.3c9.24-.66,17.32-8.37,17.29-17.78V23c0-4.72-2.68-9.24-6-12.57-.19-.19-.38-.38-.58-.56a17.69,17.69,0,0,0-10.77-4c4.93-.28,10,1.06,13.29,4,.2.18.38.37.57.56A17.73,17.73,0,0,1,43.27,23Z"/><path class="cls-8" d="M26.4,59.36h-1c-9.81,0-17.74-8-17.71-17V24A18.27,18.27,0,0,1,12.9,10.63c.2-.19.37-.37.58-.55,3.18-2.88,8.14-4.21,13-4-4.18.18-8.27,1.52-11,4-.21.18-.39.36-.58.55A17.74,17.74,0,0,0,9.69,23.2V41.53A17.77,17.77,0,0,0,26.4,59.36Z"/><path class="cls-5" d="M11.9,53.42a.52.52,0,0,1-.38-.17A18.23,18.23,0,0,1,7.29,41.89V30.68a.49.49,0,1,1,1,0V41.89a17.23,17.23,0,0,0,4,10.73.5.5,0,0,1-.06.69A.53.53,0,0,1,11.9,53.42Z"/><path class="cls-5" d="M25.55,59.84a18.2,18.2,0,0,1-12.26-4.72.49.49,0,0,1,0-.69.48.48,0,0,1,.68,0,17.25,17.25,0,0,0,11.61,4.48h.08A17.29,17.29,0,0,0,42.82,41.52V23.19A17.29,17.29,0,0,0,37.76,11c-.19-.19-.36-.36-.55-.53-5.86-5.24-17.64-5.24-23.36,0A17.23,17.23,0,0,0,8.23,23.17a.49.49,0,1,1-1,0A18.17,18.17,0,0,1,13.2,9.71c6-5.53,18.48-5.53,24.65,0l.58.55a18.36,18.36,0,0,1,5.36,12.94V41.52A18.26,18.26,0,0,1,25.63,59.84Z"/><path class="cls-5" d="M7.75,28.36a.49.49,0,0,1-.49-.48v-2a.49.49,0,1,1,1,0v2A.49.49,0,0,1,7.75,28.36Z"/><ellipse class="cls-13" cx="19.6" cy="33.9" rx="2.25" ry="2.85"/><ellipse class="cls-8" cx="18.79" cy="32.87" rx="0.83" ry="0.91"/><ellipse class="cls-13" cx="31.47" cy="33.9" rx="2.25" ry="2.85"/><ellipse class="cls-8" cx="30.66" cy="32.87" rx="0.83" ry="0.91"/><path class="cls-8" d="M9.68,72.62a.42.42,0,0,1-.21-.06A.4.4,0,0,1,9.34,72a17.32,17.32,0,0,1,1.57-2.17.4.4,0,1,1,.61.53A17,17,0,0,0,10,72.43.42.42,0,0,1,9.68,72.62Z"/><circle class="cls-8" cx="12.4" cy="69.03" r="0.56"/><circle class="cls-3" cx="15.61" cy="65.78" r="0.62"/><circle class="cls-3" cx="15.01" cy="67" r="0.41"/><path class="cls-12" d="M15.9,20.87H41.8v2h-24a2,2,0,0,1-2-2h.1Z"/><path class="cls-5" d="M35.34,86.69H43.6a.42.42,0,0,1,.42.42.42.42,0,0,1-.42.42H35.34a.42.42,0,0,1-.42-.42A.41.41,0,0,1,35.34,86.69Z"/><path class="cls-5" d="M31.56,86.69h1.17a.42.42,0,0,1,.42.42.42.42,0,0,1-.42.42H31.56a.42.42,0,0,1-.42-.42A.41.41,0,0,1,31.56,86.69Z"/><path class="cls-14" d="M21,41.88H31.61a1.86,1.86,0,0,1,1.87,1.85h0v2.44a7.88,7.88,0,0,1-7.87,7.87h0a7.87,7.87,0,0,1-7.87-7.87h0V43.45a1.57,1.57,0,0,1,1.57-1.57H21Z"/><path class="cls-15" d="M27.25,53.88a7.89,7.89,0,0,1-9.35-6.07h0a6.86,6.86,0,0,1-.17-1.62v-3A1.25,1.25,0,0,1,19,41.91h2v4.31A7.86,7.86,0,0,0,27.25,53.88Z"/><path class="cls-8" d="M20.42,41.87H32.13a1.35,1.35,0,0,1,1.35,1.35h0v3.43H20.42Z"/><path class="cls-16" d="M20.42,41.87H32a1.46,1.46,0,0,1,1.46,1.46h0v.52H20.42Z"/><path class="cls-13" d="M33.48,47.08H20.41a.42.42,0,0,1-.42-.42h0V41.88c0-.24.19.31.42.32s.42-.56.42-.32v4.36H33.47c.23,0-.3.15-.28.38s.59.43.35.45h-.06Z"/><path class="cls-17" d="M32.84,47.61V49.1C31.15,51.67,30.35,54,27.26,54c-.94,0-1.88.48-2.7,0v-.33a5.67,5.67,0,0,1,8.3-6.07Z"/><path class="cls-13" d="M24.54,54.18a.29.29,0,0,1-.3-.24,5.46,5.46,0,0,1-.1-1.13,6,6,0,0,1,6-6,5.88,5.88,0,0,1,2.8.71.28.28,0,0,1,.09.39v0a.33.33,0,0,1-.38.11,5.37,5.37,0,0,0-7.85,5.76.3.3,0,0,1-.24.33h-.05Z"/><path class="cls-18" d="M25.9,49.86a.15.15,0,0,1-.15-.15.11.11,0,0,1,0-.08,5.42,5.42,0,0,1,3.92-2.19.14.14,0,0,1,.18.1.16.16,0,0,1-.11.19h-.07A5.2,5.2,0,0,0,26,49.8Z"/><ellipse class="cls-18" cx="26.46" cy="49.52" rx="0.56" ry="0.35" transform="translate(-29.29 42.87) rotate(-55.08)"/><circle class="cls-18" cx="27.45" cy="49.24" r="0.18"/><circle class="cls-18" cx="27.08" cy="50.2" r="0.18"/><path class="cls-5" d="M25.61,54.53a8.37,8.37,0,0,1-8.36-8.35v-2.9a1.88,1.88,0,0,1,1.86-1.89h13A1.89,1.89,0,0,1,34,43.28v2.9A8.36,8.36,0,0,1,25.61,54.53ZM19.14,42.36a.91.91,0,0,0-.92.91v2.91a7.39,7.39,0,0,0,14.77,0v-2.9a.92.92,0,0,0-.91-.92Z"/><path class="cls-5" d="M26.21,42.48a.4.4,0,0,1-.38-.27,11.07,11.07,0,0,1-.71-3.3V36.15a.42.42,0,0,1,.32-.5.42.42,0,0,1,.5.32s0,.07,0,.11v2.81a10.41,10.41,0,0,0,.66,3,.41.41,0,0,1-.25.52h0A.47.47,0,0,1,26.21,42.48Z"/><path class="cls-8" d="M9.69,36h0a.44.44,0,0,1,.44.44V40.3a.44.44,0,0,1-.44.44h0a.44.44,0,0,1-.43-.44V36.46A.43.43,0,0,1,9.69,36Z"/><path class="cls-12" d="M41.39,26h0a.44.44,0,0,1,.44.44v3.84a.44.44,0,0,1-.44.44h0a.44.44,0,0,1-.43-.44V26.4A.43.43,0,0,1,41.39,26Z"/><path class="cls-19" d="M11.85,26.14h0a.72.72,0,0,1,.72.72v6.35a.73.73,0,0,1-.72.72h0a.72.72,0,0,1-.72-.72V26.86A.72.72,0,0,1,11.85,26.14Z"/><path class="cls-10" d="M33.31,5.82H23.47A13.5,13.5,0,0,0,12.73.49H.49C.49,10.27,5.58,21.06,18,20.94H42a3.14,3.14,0,0,0,3-4C43.45,11.28,38.8,5.82,33.31,5.82Z"/><path class="cls-20" d="M20.15,3c-5.22,10.61-17.91,8.88-19,3.46.18-1-.63-.46-.63-6H12.73C16.8.49,17.52,1,20.15,3Z"/><path class="cls-21" d="M39.79,7.93c2.39,1.68,4.15,5.73,4.88,9.41a2.89,2.89,0,0,1-2.27,3.38,2.74,2.74,0,0,1-.56.06H17.2C11.77,20.78,4.3,17,3.28,11.7c3.12,2.45,7,5.4,10.94,5.39H38.35c3.58,0,4-6.29,1.63-9l-.19-.19"/><path class="cls-22" d="M4.17,1.53h6.4a.73.73,0,0,1,.73.73h0a.73.73,0,0,1-.73.73H4.17a.73.73,0,0,1-.73-.73h0A.72.72,0,0,1,4.17,1.53Z"/><path class="cls-8" d="M18.35,3.27h-.24l-2.28-.79a10.93,10.93,0,0,0-3.62-.62H2.29a.74.74,0,0,1-.79-.69h0a.74.74,0,0,1,.69-.8h10a12.33,12.33,0,0,1,4.12.69l2.26.79A.74.74,0,0,1,19,2.8a.43.43,0,0,0,0,.05.74.74,0,0,1-.69.49Z"/><path class="cls-5" d="M41.78,21.42H18c-5.61,0-10-1.89-13.17-5.56a.48.48,0,1,1,.73-.63c2.95,3.45,7.13,5.2,12.44,5.22H41.77a2.92,2.92,0,0,0,3-2.94,2.46,2.46,0,0,0,0-.54C43.94,13.2,41.47,6.78,33.28,6.3H23.46a.47.47,0,0,1-.38-.19A13.15,13.15,0,0,0,12.72,1H1a30.85,30.85,0,0,0,.62,5.67.48.48,0,0,1-.95.19A31.45,31.45,0,0,1,0,.48.49.49,0,0,1,.48,0H12.73a14.08,14.08,0,0,1,11,5.33h9.61c6.49.38,11,4.56,12.33,11.46a3.5,3.5,0,0,1,.06.72A3.92,3.92,0,0,1,41.78,21.42Z"/><path class="cls-5" d="M3.59,13.73a.47.47,0,0,1-.42-.24,19.61,19.61,0,0,1-1.58-3.34.48.48,0,1,1,.91-.33A19.64,19.64,0,0,0,4,13a.48.48,0,0,1-.17.66A.44.44,0,0,1,3.59,13.73Z"/><circle class="cls-21" cx="37.31" cy="17.18" r="1.65"/><circle class="cls-21" cx="34.4" cy="15.85" r="0.71"/><circle class="cls-22" cx="5.16" cy="3.32" r="0.71"/><circle class="cls-21" cx="17.48" cy="17.23" r="2.83"/></g></g></svg>