<svg xmlns="http://www.w3.org/2000/svg" viewBox="0 0 47.22 97.26"><defs><style>.cls-1{fill:#3ec4ff;}.cls-2,.cls-4{fill:#048edd;}.cls-2{opacity:0.4;}.cls-10,.cls-11,.cls-18,.cls-19,.cls-2,.cls-20{isolation:isolate;}.cls-3{fill:#c5f3ff;}.cls-5{fill:#000201;}.cls-11,.cls-19,.cls-20,.cls-6{fill:#fff;}.cls-7{fill:#fdc6a2;}.cls-10,.cls-8{fill:#ff9976;}.cls-9{fill:#e89176;}.cls-10{opacity:0.25;}.cls-11{opacity:0.55;}.cls-12{fill:#ffe8dc;}.cls-13{fill:#d2f4fc;}.cls-14{fill:#5e5e5e;}.cls-15,.cls-18{fill:#303030;}.cls-16{fill:#f9968f;}.cls-17{fill:#e25959;}.cls-18{opacity:0.29;}.cls-19{opacity:0.6;}.cls-20{opacity:0.35;}</style></defs><g id="Layer_2" data-name="Layer 2"><g id="Layer_1-2" data-name="Layer 1"><path class="cls-1" d="M23.28,67h0A20.45,20.45,0,0,1,43.72,87.48h0A9.47,9.47,0,0,1,34.29,97h-22a9.47,9.47,0,0,1-9.47-9.47h0A20.44,20.44,0,0,1,23.27,67.08h0Z"/><path class="cls-2" d="M28.1,81.26c5.42-2.71,6.68-6.14,2.94-12.86,0,0,4.17,2.26,4.19,2.25,1.07.73,1.78,2.07,2.7,3a20.41,20.41,0,0,1,6,14.45,8.21,8.21,0,0,1-2.87,6.11c-1.72,1.71-3.07,2.1-6.43,2.67h-22a5.8,5.8,0,0,1-2.79-.49,3.72,3.72,0,0,1-2.75-3,5.93,5.93,0,0,1,.16-2.68c.57-1.76,2.21-3.13,4.11-4.23a11.32,11.32,0,0,1,3.7-1.06,42.88,42.88,0,0,0,13-4.12Z"/><path class="cls-3" d="M5.08,81.06H5a.38.38,0,0,1-.26-.48v0a5.42,5.42,0,0,1,.2-2,22.07,22.07,0,0,1,2.57-4.06,17,17,0,0,1,8.06-5.31.41.41,0,0,1,.51.25.4.4,0,0,1-.25.51h0C8.5,72.4,5.49,80.78,5.46,80.87A.4.4,0,0,1,5.08,81.06Z"/><path class="cls-4" d="M43.54,87a9.46,9.46,0,0,1-9.46,9.46H23l-.82.54-5.72.06-.77-.6H12.12a9.4,9.4,0,0,1-3.28-.57A6.12,6.12,0,0,1,12.34,89c3.42-1.56,7.34.19,11.09.36a15,15,0,0,0,13-7.4A18.55,18.55,0,0,0,39,74.13,20.34,20.34,0,0,1,43.54,87Z"/><path class="cls-5" d="M16.48,97.26h-4a10,10,0,0,1-10-10,14.81,14.81,0,0,1,.06-1.6.51.51,0,0,1,.54-.43.49.49,0,0,1,.43.54,12.38,12.38,0,0,0-.06,1.49,9,9,0,0,0,9,9h4a.49.49,0,0,1,0,1Z"/><path class="cls-5" d="M34.42,97.26H21.64a.49.49,0,1,1,0-1H34.42a9,9,0,0,0,9-9,20,20,0,0,0-19.94-20h0A19.8,19.8,0,0,0,6.59,76.64a.48.48,0,0,1-.67.15.47.47,0,0,1-.15-.66,20.75,20.75,0,0,1,17.66-9.75h0A20.94,20.94,0,0,1,44.37,87.3,10,10,0,0,1,34.42,97.26Z"/><circle class="cls-4" cx="33.95" cy="84.04" r="2.27"/><circle class="cls-4" cx="30.86" cy="86.08" r="0.67"/><path class="cls-5" d="M5.41,89.25a.28.28,0,0,1-.13,0,.32.32,0,0,1-.18-.42h0L6.89,84.6a.33.33,0,0,1,.45-.1.34.34,0,0,1,.15.35L5.72,89A.35.35,0,0,1,5.41,89.25Z"/><path class="cls-5" d="M7.53,87.3H7.4a.33.33,0,0,1-.18-.42h0l1-2.24a.32.32,0,0,1,.42-.17h0a.33.33,0,0,1,.18.42h0l-.95,2.24A.31.31,0,0,1,7.53,87.3Z"/><path class="cls-6" d="M7.89,77.89a.43.43,0,0,1-.22-.06.41.41,0,0,1-.13-.56A17.68,17.68,0,0,1,9.12,75.1a.4.4,0,0,1,.61.53,17.35,17.35,0,0,0-1.5,2.07A.42.42,0,0,1,7.89,77.89Z"/><circle class="cls-6" cx="10.63" cy="74.3" r="0.56"/><path class="cls-7" d="M23.74,60.47h0A4.22,4.22,0,0,1,28,64.69v2.94a4.22,4.22,0,0,1-4.22,4.22h0a4.22,4.22,0,0,1-4.22-4.22V64.69A4.22,4.22,0,0,1,23.74,60.47Z"/><path class="cls-8" d="M27.81,63.45v2.94a4.15,4.15,0,0,1-.12,1c-4.47.37-7-2-8.07-5.36a4.22,4.22,0,0,1,8.19,1.44Z"/><path class="cls-5" d="M23.74,72.31a4.69,4.69,0,0,1-4.68-4.68V64.69a4.68,4.68,0,0,1,9.36,0v2.94A4.69,4.69,0,0,1,23.74,72.31Zm0-11.38A3.76,3.76,0,0,0,20,64.69v2.94a3.76,3.76,0,0,0,7.52,0V64.69A3.77,3.77,0,0,0,23.74,60.93Z"/><circle class="cls-3" cx="13.84" cy="71.04" r="0.62"/><circle class="cls-3" cx="13.23" cy="72.26" r="0.41"/><path class="cls-7" d="M5.31,37.8h2A4.8,4.8,0,0,1,12,42.67h0a4.75,4.75,0,0,1-4.82,4.68h-2A4.78,4.78,0,0,1,.46,42.49h0A4.77,4.77,0,0,1,5.3,37.8h0Z"/><path class="cls-5" d="M7.24,47.8H5.15A5.32,5.32,0,0,1,2,46.71.45.45,0,1,1,2.58,46a4.37,4.37,0,0,0,2.57.91h2a4.44,4.44,0,0,0,3.09-1.22,4.29,4.29,0,0,0,1.3-3A4.35,4.35,0,0,0,7.3,38.25h-2A4.33,4.33,0,0,0,.89,42.5a4.17,4.17,0,0,0,.33,1.71A.47.47,0,0,1,1,44.8a.45.45,0,0,1-.58-.25A5,5,0,0,1,0,42.49a5.24,5.24,0,0,1,5.3-5.13h2a5.24,5.24,0,0,1,5.12,5.32A5.19,5.19,0,0,1,7.24,47.8Z"/><path class="cls-9" d="M5.89,40.28H6.94a2.5,2.5,0,0,1,2.43,2.54h0a2.49,2.49,0,0,1-2.53,2.43h-1a2.47,2.47,0,0,1-2.43-2.53h0A2.48,2.48,0,0,1,5.89,40.28Z"/><path class="cls-6" d="M2.51,41a1.76,1.76,0,0,1,.88-1c.35-.13.21-.71-.15-.57A2.32,2.32,0,0,0,2,40.67c-.15.34.36.64.51.3Z"/><ellipse class="cls-6" cx="1.82" cy="42.04" rx="0.47" ry="0.38" transform="translate(-40.04 37.7) rotate(-81.6)"/><path class="cls-7" d="M40.07,37.8h2a4.8,4.8,0,0,1,4.71,4.87h0a4.78,4.78,0,0,1-4.85,4.69h-2a4.79,4.79,0,0,1-4.69-4.87h0a4.78,4.78,0,0,1,4.85-4.69h0Z"/><path class="cls-5" d="M42,47.82H39.93a5.23,5.23,0,0,1,0-10.45h2.09A5.23,5.23,0,0,1,42,47.82Zm-.07-.89H42a4.34,4.34,0,0,0,.07-8.68h-2a4.34,4.34,0,0,0-.14,8.67Z"/><path class="cls-9" d="M40.57,40.28h1A2.5,2.5,0,0,1,44,42.82h0a2.49,2.49,0,0,1-2.53,2.43h-1A2.48,2.48,0,0,1,38,42.71h0A2.49,2.49,0,0,1,40.57,40.28Z"/><path class="cls-7" d="M35.79,15.32l.58.55a17.74,17.74,0,0,1,5.2,12.58V46.77a17.76,17.76,0,0,1-35.52.38V28.45a17.65,17.65,0,0,1,5.78-13.12C17.73,9.93,29.89,10,35.79,15.32Z"/><path class="cls-10" d="M41.57,28.59V46.92A17.76,17.76,0,0,1,23.89,64.74h-.06V11.44c4.51,0,9,1.34,12,4,.21.18.39.37.58.56A17.75,17.75,0,0,1,41.57,28.59Z"/><circle class="cls-11" cx="16.73" cy="62.66" r="0.22"/><circle class="cls-11" cx="19.78" cy="63.72" r="0.29"/><ellipse class="cls-6" cx="8.72" cy="50.47" rx="0.88" ry="0.5" transform="matrix(0.31, -0.95, 0.95, 0.31, -41.93, 42.87)"/><circle class="cls-11" cx="10.32" cy="50.96" r="0.28"/><path class="cls-11" d="M9.46,51.24a.22.22,0,0,1,.22.22.22.22,0,0,1-.22.22.21.21,0,0,1-.22-.22.22.22,0,0,1,.22-.22Z"/><circle class="cls-11" cx="9.75" cy="49.44" r="0.29"/><ellipse class="cls-6" cx="36.03" cy="42.37" rx="0.47" ry="0.38" transform="translate(-11.15 71.82) rotate(-81.6)"/><path class="cls-8" d="M41.59,28.26V46.58a17.77,17.77,0,0,1-17.7,17.83h-1.3c9.24-.71,17.3-8.42,17.3-17.83V28.26c0-4.72-2.68-9.24-6-12.57-.19-.19-.39-.37-.59-.55a17.58,17.58,0,0,0-10.76-4c4.93-.29,10,1,13.28,4l.58.55A17.75,17.75,0,0,1,41.59,28.26Z"/><path class="cls-6" d="M24.62,64.58h-1c-9.8,0-17.73-8-17.7-17V29.23a18.19,18.19,0,0,1,5.21-13.34c.19-.19.37-.37.58-.55,3.17-2.87,8.14-4.21,13-4-4.17.17-8.27,1.51-11,4-.2.18-.38.36-.57.55A17.69,17.69,0,0,0,7.89,28.46V46.79A17.74,17.74,0,0,0,24.62,64.58Z"/><path class="cls-5" d="M10.09,58.69a.49.49,0,0,1-.38-.18A18.25,18.25,0,0,1,5.49,47.16V37a.49.49,0,0,1,1,0V47.15a17.18,17.18,0,0,0,4,10.74.5.5,0,0,1-.06.69A.51.51,0,0,1,10.09,58.69Z"/><path class="cls-5" d="M23.77,65a18.22,18.22,0,0,1-12.21-4.68.49.49,0,0,1,.65-.72,17.25,17.25,0,0,0,11.56,4.43h0A17.31,17.31,0,0,0,41.05,46.77V28.46A17.33,17.33,0,0,0,36,16.23l-.57-.54c-5.84-5.22-17.62-5.23-23.34,0A17.26,17.26,0,0,0,6.46,28.45a.49.49,0,0,1-.48.49H6a.49.49,0,0,1-.49-.49A18.2,18.2,0,0,1,11.43,15c6-5.53,18.47-5.53,24.65,0l.59.56A18.31,18.31,0,0,1,42,28.46V46.77A18.27,18.27,0,0,1,23.77,65Z"/><path class="cls-5" d="M6,33.63a.49.49,0,0,1-.49-.49v-2a.49.49,0,0,1,1,0v2A.49.49,0,0,1,6,33.63Z"/><path class="cls-6" d="M7.91,41.28h0a.44.44,0,0,1,.44.44v3.84a.44.44,0,0,1-.44.44h0a.43.43,0,0,1-.43-.44V41.72A.44.44,0,0,1,7.91,41.28Z"/><path class="cls-8" d="M39.61,31.22h0a.44.44,0,0,1,.44.44V35.5a.44.44,0,0,1-.44.44h0a.43.43,0,0,1-.43-.44V31.66A.44.44,0,0,1,39.61,31.22Z"/><path class="cls-12" d="M10.07,31.4h0a.73.73,0,0,1,.72.72v6.35a.72.72,0,0,1-.72.72h0a.72.72,0,0,1-.72-.72V32.12A.72.72,0,0,1,10.07,31.4Z"/><path class="cls-6" d="M33.47,38.18a5,5,0,0,1-9.65,1.69,5,5,0,1,1,0-3.38,5,5,0,0,1,9.65,1.69Z"/><path class="cls-13" d="M33.53,43c0,2.75-2.28.22-5,.22-2.15,0-4.68.73-5.36-1.18-.7,1.91-1.84,1.18-4,1.18-2.75,0-4.64,3-4.64.23s1-3.62,3.72-3.62c2.15,0,4.57.84,5.26,2.75.69-1.91,3-2.85,5.11-2.85C31.34,39.67,33.53,40.2,33.53,43Z"/><path class="cls-5" d="M14.89,35.82a.29.29,0,0,1-.18,0,.33.33,0,0,1-.11-.46,5.35,5.35,0,0,1,.47-.67.34.34,0,1,1,.53.43,4.56,4.56,0,0,0-.42.59A.34.34,0,0,1,14.89,35.82Z"/><path class="cls-5" d="M14.2,37.89h0a.34.34,0,0,1-.3-.37,3.12,3.12,0,0,1,.11-.61.34.34,0,0,1,.65.17,4.54,4.54,0,0,0-.09.51A.33.33,0,0,1,14.2,37.89Z"/><path class="cls-5" d="M28.53,43.41c-1.54,0-3.68-.2-4.72-1.94-1,1.73-3.11,1.94-4.66,1.94a5.36,5.36,0,0,1-5.23-4.27.35.35,0,0,1,.27-.4.34.34,0,0,1,.4.27,4.68,4.68,0,0,0,4.56,3.72c2.46,0,3.81-.67,4.35-2.17a.32.32,0,0,1,.32-.23h0a.34.34,0,0,1,.32.23c.53,1.5,1.87,2.17,4.36,2.17h0a4.66,4.66,0,0,0,1.55-9,4.65,4.65,0,0,0-5.94,2.85.35.35,0,0,1-.32.22.34.34,0,0,1-.32-.22,4.71,4.71,0,0,0-6.8-2.38.34.34,0,0,1-.47-.11.35.35,0,0,1,.12-.47,5.35,5.35,0,0,1,7.34,1.79l.12.22A5.35,5.35,0,0,1,30.31,33a5.34,5.34,0,0,1-1.78,10.37Z"/><path class="cls-5" d="M19.72,35.69h0a.83.83,0,0,1,.83.83v2.07a.83.83,0,0,1-.83.83h0a.83.83,0,0,1-.82-.83V36.52A.83.83,0,0,1,19.72,35.69Z"/><path class="cls-5" d="M27.94,35.69h0a.83.83,0,0,1,.83.83v2.07a.83.83,0,0,1-.83.83h0a.83.83,0,0,1-.82-.83V36.52A.83.83,0,0,1,27.94,35.69Z"/><circle class="cls-6" cx="27.11" cy="37.2" r="0.53"/><circle class="cls-6" cx="18.93" cy="37.2" r="0.53"/><path class="cls-14" d="M25.82,41.54s4.3-2.48,8.09-.59,5.44,2.38,7,2.38a9.7,9.7,0,0,1-8.53,4.34A18.44,18.44,0,0,1,24,45.05"/><path class="cls-14" d="M20,32.15l-6.8-.4a1.92,1.92,0,0,1-1.8-1.88h0A1.9,1.9,0,0,1,13.17,28L20,27.33A1.92,1.92,0,0,1,22,29.06c0,.05,0,.1,0,.14v1.06a1.92,1.92,0,0,1-1.93,1.9Z"/><path class="cls-15" d="M20,32.15l-6.8-.4a1.92,1.92,0,0,1-1.8-1.88h0c0-1-.28.64.71.54L21.3,31c1.11-.1.73-2.93.75-1.82v1.06a1.93,1.93,0,0,1-1.88,1.95Z"/><path class="cls-5" d="M20.17,32.5H20l-6.8-.4a2.26,2.26,0,0,1-2.12-2.21,2.21,2.21,0,0,1,2-2.22l1.16-.12a.34.34,0,0,1,.07.67l-1.16.12a1.55,1.55,0,0,0-1.41,1.55,1.58,1.58,0,0,0,1.48,1.53l6.89.41a1.58,1.58,0,0,0,1.55-1.6V29A1.6,1.6,0,0,0,20,27.62l-2.68.26a.34.34,0,0,1-.07-.67L19.91,27a2.26,2.26,0,0,1,2.47,2c0,.06,0,.11,0,.17v1.06A2.27,2.27,0,0,1,20.17,32.5Z"/><circle class="cls-15" cx="18.57" cy="30.69" r="0.51"/><circle class="cls-15" cx="17.24" cy="30.12" r="0.27"/><circle class="cls-15" cx="20.39" cy="30.75" r="0.65"/><path class="cls-14" d="M26.61,32.23l6.81-.41A1.91,1.91,0,0,0,35.22,30h0a1.94,1.94,0,0,0-1.73-2l-6.79-.65a1.93,1.93,0,0,0-2.09,1.75v1.18a1.91,1.91,0,0,0,1.85,2Z"/><path class="cls-15" d="M26.61,32.23l6.81-.41A1.91,1.91,0,0,0,35.22,30h0c0-1,.28.64-.72.54l-9.15.56c-1.11-.11-.72-2.93-.74-1.82v1.06a1.91,1.91,0,0,0,1.87,2Z"/><path class="cls-5" d="M26.52,32.58h0a2.25,2.25,0,0,1-1.58-.69,2.22,2.22,0,0,1-.63-1.6V29.07a2.26,2.26,0,0,1,.81-1.53A2.2,2.2,0,0,1,26.73,27l2.69.26a.34.34,0,0,1,.31.37.35.35,0,0,1-.38.3l-2.69-.26a1.57,1.57,0,0,0-1.15.36A1.63,1.63,0,0,0,25,29.14v1.15a1.57,1.57,0,0,0,1.54,1.61h.1l6.81-.41A1.58,1.58,0,0,0,34.88,30a1.62,1.62,0,0,0-1.43-1.62l-1.16-.11a.34.34,0,0,1-.3-.37.34.34,0,0,1,.37-.3l1.16.11a2.26,2.26,0,0,1-.08,4.5l-6.81.41Z"/><circle class="cls-15" cx="28.08" cy="30.77" r="0.51"/><circle class="cls-15" cx="29.41" cy="30.2" r="0.27"/><circle class="cls-15" cx="26.26" cy="30.83" r="0.65"/><path class="cls-14" d="M21.4,41.78s-4.3-2.48-8.09-.58-5.43,2.37-7,2.37a9.7,9.7,0,0,0,8.58,4.34,18.4,18.4,0,0,0,8.36-2.62"/><path class="cls-15" d="M22.34,44,23,45.31a18.4,18.4,0,0,1-8.36,2.62,9.7,9.7,0,0,1-8.53-4.34,5.72,5.72,0,0,0,1.3-.12,10.15,10.15,0,0,0,7.23,2.76A18.39,18.39,0,0,0,22.34,44Z"/><path class="cls-15" d="M40.7,43.32a9.73,9.73,0,0,1-8.54,4.35A18.34,18.34,0,0,1,23.8,45l.68-1.31A18.33,18.33,0,0,0,32.16,46a10.14,10.14,0,0,0,7.24-2.76A5.65,5.65,0,0,0,40.7,43.32Z"/><path class="cls-5" d="M14.45,48.22A10.13,10.13,0,0,1,6,43.71a.34.34,0,0,1,.28-.53,8.92,8.92,0,0,0,3.51-.81.34.34,0,1,1,.28.62A9.68,9.68,0,0,1,7,43.83a9.4,9.4,0,0,0,7.91,3.7A18.24,18.24,0,0,0,23.07,45a.35.35,0,0,1,.47.12.34.34,0,0,1-.12.46,18.87,18.87,0,0,1-8.51,2.68Z"/><path class="cls-5" d="M21.4,42.07a.33.33,0,0,1-.17,0s-4.19-2.37-7.77-.57l-1,.5a.35.35,0,0,1-.46-.15.35.35,0,0,1,.15-.46l1-.5c3.91-2,8.24.48,8.42.59a.34.34,0,0,1-.17.63Z"/><circle class="cls-16" cx="23.76" cy="42.39" r="2.59"/><path class="cls-17" d="M26.35,42.39a2.59,2.59,0,0,1-5.17.33,1.82,1.82,0,0,1,0-.33c0-1.43,1.08,1.61,2.5,1.61S26.35,41,26.35,42.39Z"/><path class="cls-5" d="M23.76,45.58a2.93,2.93,0,1,1,2.93-2.93A2.93,2.93,0,0,1,23.76,45.58Zm0-5.18A2.25,2.25,0,1,0,26,42.65,2.25,2.25,0,0,0,23.76,40.4Z"/><path class="cls-5" d="M32.8,48.22h-.44a18.91,18.91,0,0,1-8.52-2.68.33.33,0,0,1-.11-.46.34.34,0,0,1,.46-.12,18.24,18.24,0,0,0,8.21,2.58,9.41,9.41,0,0,0,7.87-3.69c-1.58-.14-3.35-.8-6.52-2.38-2.81-1.42-6-.27-7.21.29a.33.33,0,0,1-.45-.17.33.33,0,0,1,.17-.45c1.32-.59,4.72-1.82,7.8-.28,3.92,2,5.43,2.33,6.85,2.33a.35.35,0,0,1,.3.18.36.36,0,0,1,0,.35A10.11,10.11,0,0,1,32.8,48.22Z"/><path class="cls-14" d="M5.61,37.77h0a1.31,1.31,0,0,1-1.33-1.31v0l1.3-10.2c0-.73-.71-1.09,0-1.09h0a1.34,1.34,0,0,1,1.33,1.33h0v10A1.33,1.33,0,0,1,5.61,37.77Z"/><path class="cls-15" d="M5.89,29.22h0c-.56,0-.36-.33-.36-.89L6,20.66c0-.56-.64-1.16-.08-1.16h0a1,1,0,0,1,1,1v7.69a1,1,0,0,1-1,1Z"/><path class="cls-5" d="M5.6,38.21a1.76,1.76,0,0,1-1.24-.51,1.71,1.71,0,0,1-.52-1.23l1.26-11h0A.57.57,0,0,1,4.83,25a.6.6,0,0,1,.59-.6.57.57,0,0,1,.48.28l.3-.09a1.07,1.07,0,0,1,1,0,.76.76,0,0,1,.28.66L7.34,36.48a1.76,1.76,0,0,1-1.72,1.73Zm0-.44h0ZM6,25.58,4.71,36.49a.83.83,0,0,0,.27.59.79.79,0,0,0,.62.26.89.89,0,0,0,.87-.88L6.61,25.4l-.15,0A4.19,4.19,0,0,1,6,25.58Z"/><path class="cls-14" d="M41.57,37.92h0a1.25,1.25,0,0,0,1.25-1.25l-1.23-9.38c0-.69.67-1.25,0-1.25h0a1.25,1.25,0,0,0-1.25,1.25v9.38A1.24,1.24,0,0,0,41.57,37.92Z"/><path class="cls-5" d="M41.57,38.33h0a1.66,1.66,0,0,1-1.63-1.66V27.29a1.66,1.66,0,0,1,1.66-1.66.71.71,0,0,1,.61.27.83.83,0,0,1-.05.82,1.66,1.66,0,0,0-.15.57l1.22,9.33A1.66,1.66,0,0,1,41.57,38.33ZM41.36,26.5a.81.81,0,0,0-.61.79v9.38a.83.83,0,1,0,1.66,0l-1.23-9.32A2.11,2.11,0,0,1,41.36,26.5Z"/><path class="cls-14" d="M40.48,6.51c1.26,0-1.64-1.88-2.8-2.36a12.15,12.15,0,0,0-11.12,1.1l1.81-3.08A3.27,3.27,0,0,0,26,.51a6.12,6.12,0,0,0-3,.34A11,11,0,0,0,16.3,7.62l-2-.41a15.12,15.12,0,0,0-5.19.45,10.74,10.74,0,0,0-5,2.78,7.66,7.66,0,0,0-1.75,4c-.14.88-.07,2,.74,2.38A2.9,2.9,0,0,0,4.44,17,.92.92,0,0,1,4.8,17c.35.2.23.72.09,1.09a11.55,11.55,0,0,0-.79,5.2,2.58,2.58,0,0,0,.4,1.43,2.57,2.57,0,0,0,2.64.75,6.07,6.07,0,0,0,4.75-5.09l1.5-.18a3.23,3.23,0,0,0,2.35,0,5.56,5.56,0,0,0,2.32-2.8l1.83-3.52a14.12,14.12,0,0,0,2.81,4.94,5.74,5.74,0,0,0,3.18,2.09A3,3,0,0,0,28.61,20l1.33-.09A8.4,8.4,0,0,0,34.45,24a1.77,1.77,0,0,1,.41.21,1.4,1.4,0,0,1,.28.54A14.38,14.38,0,0,0,40.49,32a3.54,3.54,0,0,0,2.77.84,3,3,0,0,0,1.82-1.72c1.09-2.33.42-5.08-.5-7.49-.69-1.75-1.69-3.63-3.42-4.31l.11-.11a6.69,6.69,0,0,0,2.27.3,2.9,2.9,0,0,0,2-.93,3.42,3.42,0,0,0,.63-2.48,6.45,6.45,0,0,0-1.81-3.89c-1.77-1.79-4.43-2.35-6.94-2.58a14.32,14.32,0,0,0-5.79.41S36.34,6.52,40.48,6.51Z"/><path class="cls-15" d="M44.61,23.57c.93,2.41,1.6,5.16.5,7.49a2.91,2.91,0,0,1-1.81,1.72,3.48,3.48,0,0,1-2.77-.85,14.3,14.3,0,0,1-5.35-7.3,1.4,1.4,0,0,0-.28-.54,1.77,1.77,0,0,0-.41-.21,8.43,8.43,0,0,1-4.6-4.07l-1.32.09c.11-.11.22-.22.35-.33a3.2,3.2,0,0,1,1.2-.69c1.12-.29,2.26.42,3.42.46a2.8,2.8,0,0,0,2.37-1.18,2.55,2.55,0,0,0,.16-2.61c-.55-1-1.72-1.46-2.48-2.3a3.57,3.57,0,0,1-.66-3.61,16.36,16.36,0,0,1,4.53-.09c2.52.23,5.17.79,7,2.58A6.38,6.38,0,0,1,46.26,16a3.37,3.37,0,0,1-.62,2.48,2.9,2.9,0,0,1-2,.93,6.69,6.69,0,0,1-2.27-.3l-.12.11C43,19.92,43.89,21.8,44.61,23.57Z"/><path class="cls-18" d="M28.58,20a3,3,0,0,1-2.73.91,5.8,5.8,0,0,1-3.19-2.09,13.72,13.72,0,0,1-1.47-2,10.15,10.15,0,0,1,3.14-4.19c.89-.68,1.88-1.23,2.74-2a8.14,8.14,0,0,0,2.7-6.85,12.26,12.26,0,0,1,7.93.38c1.16.48,4,2.36,2.8,2.36-4.14,0-8.81,3.52-8.81,3.52A9.11,9.11,0,0,1,33,9.7a3.56,3.56,0,0,0,.68,3.55c.76.84,1.93,1.31,2.48,2.3A2.55,2.55,0,0,1,36,18.16a2.8,2.8,0,0,1-2.37,1.18c-1.16,0-2.3-.75-3.42-.46a3.2,3.2,0,0,0-1.2.69c-.13.11-.24.22-.35.33"/><circle class="cls-5" cx="14.66" cy="7.29" r="0.52"/><circle class="cls-5" cx="43.32" cy="11.28" r="0.52"/><circle class="cls-5" cx="34.78" cy="7.96" r="0.52"/><circle class="cls-5" cx="44.69" cy="23.81" r="0.52"/><circle class="cls-5" cx="11.1" cy="42.18" r="0.52"/><path class="cls-5" d="M3.89,81.71l-.14,0a.49.49,0,0,1-.33-.6,21.46,21.46,0,0,1,1.3-3.31.49.49,0,1,1,.87.43,19.82,19.82,0,0,0-1.24,3.15A.48.48,0,0,1,3.89,81.71Z"/><circle class="cls-5" cx="3.22" cy="83.31" r="0.52"/><circle class="cls-15" cx="33.25" cy="18.96" r="1.24"/><circle class="cls-15" cx="33.32" cy="12.5" r="1.07"/><circle class="cls-15" cx="31.33" cy="13.48" r="0.54"/><circle class="cls-15" cx="26.19" cy="19.78" r="1"/><path class="cls-5" d="M41.73,11.06a.47.47,0,0,1-.17,0,15.73,15.73,0,0,0-4.14-.86,13.65,13.65,0,0,0-5.62.39.48.48,0,0,1-.61-.34.5.5,0,0,1,.34-.62,14.43,14.43,0,0,1,6-.42,16.68,16.68,0,0,1,4.38.91.51.51,0,0,1,.3.64A.5.5,0,0,1,41.73,11.06Z"/><path class="cls-5" d="M44,22.75a.48.48,0,0,1-.47-.33,4.92,4.92,0,0,0-2.45-2.72.49.49,0,0,1-.25-.63.5.5,0,0,1,.61-.29,6.28,6.28,0,0,0,2.11.27,2.38,2.38,0,0,0,1.65-.77,2.8,2.8,0,0,0,.5-2.07,5.89,5.89,0,0,0-1.43-3.35.49.49,0,0,1,0-.7.5.5,0,0,1,.7,0,6.83,6.83,0,0,1,1.67,3.9A3.82,3.82,0,0,1,46,18.92a3.42,3.42,0,0,1-2.38,1.13H43.2a5.77,5.77,0,0,1,1.25,2,.5.5,0,0,1-.3.64Z"/><path class="cls-5" d="M42.81,33.42a4,4,0,0,1-2.65-1,15,15,0,0,1-5.5-7.52.81.81,0,0,0-.18-.36l-.18-.07a9,9,0,0,1-4.86-4.31.5.5,0,1,1,.89-.45,8,8,0,0,0,4.29,3.82,1.64,1.64,0,0,1,.54.28,1.71,1.71,0,0,1,.46.82,14,14,0,0,0,5.16,7,3,3,0,0,0,2.36.76A2.47,2.47,0,0,0,44.61,31a7.67,7.67,0,0,0,.09-5.34.5.5,0,1,1,.95-.33,8.66,8.66,0,0,1-.11,6,3.51,3.51,0,0,1-2.12,2l-.1,0Z"/><path class="cls-5" d="M16.34,8.16l-.17,0a.51.51,0,0,1-.31-.64,11.4,11.4,0,0,1,7-7.07A6.57,6.57,0,0,1,26.09.06a4.08,4.08,0,0,1,1.64.66,2,2,0,0,1,.54,2.67.5.5,0,0,1-.69.17.49.49,0,0,1-.17-.68,1,1,0,0,0-.26-1.35,3,3,0,0,0-1.21-.48,5.72,5.72,0,0,0-2.74.32,10.4,10.4,0,0,0-6.39,6.46A.51.51,0,0,1,16.34,8.16Z"/><path class="cls-5" d="M36.54,7.79a.5.5,0,0,1-.13-1,26.6,26.6,0,0,1,3.22-.65,4.34,4.34,0,0,0-2.11-1.48,11.61,11.61,0,0,0-10.69,1,.5.5,0,0,1-.55-.83A12.6,12.6,0,0,1,37.86,3.74a5.32,5.32,0,0,1,3.06,2.59.49.49,0,0,1,0,.47.51.51,0,0,1-.39.26,23,23,0,0,0-3.86.72Z"/><path class="cls-6" d="M3.82,13.1a.52.52,0,0,1-.21,0,.5.5,0,0,1-.25-.66c.07-.16,1.79-4,7.39-4.67a.5.5,0,0,1,.56.43.49.49,0,0,1-.43.56c-5,.63-6.54,3.94-6.61,4.08A.49.49,0,0,1,3.82,13.1Z"/><circle class="cls-6" cx="12.66" cy="8" r="0.56"/><path class="cls-5" d="M3,12.76a.69.69,0,0,1-.2,0,.52.52,0,0,1-.27-.66,6.8,6.8,0,0,1,1.21-1.91A11.15,11.15,0,0,1,9,7.23,12.88,12.88,0,0,1,12.9,6.7a.52.52,0,0,1,.49.51.49.49,0,0,1-.51.49,11.71,11.71,0,0,0-3.59.49A10.15,10.15,0,0,0,4.5,10.85a5.55,5.55,0,0,0-1,1.61A.5.5,0,0,1,3,12.76Z"/><path class="cls-6" d="M5.11,24.7a.5.5,0,0,1-.49-.38A8.86,8.86,0,0,1,5,18.8a.5.5,0,1,1,.93.39,7.88,7.88,0,0,0-.37,4.89.5.5,0,0,1-.36.61Z"/><path class="cls-5" d="M6.51,26.19a3.09,3.09,0,0,1-2.29-1,3.22,3.22,0,0,1-.53-1.77A12.18,12.18,0,0,1,4.51,18a1,1,0,0,0,.1-.47H4.55A3.62,3.62,0,0,1,3,17.39C2.1,17,1.72,15.89,2,14.46a.5.5,0,0,1,1,.15c-.12.74-.06,1.61.46,1.85a2.84,2.84,0,0,0,1.07.09,1.2,1.2,0,0,1,.63.11c.27.16.78.59.34,1.72a11.32,11.32,0,0,0-.75,5A2.29,2.29,0,0,0,5,24.57a2.1,2.1,0,0,0,2.08.53,5.59,5.59,0,0,0,4.3-4.71A.5.5,0,0,1,12,20a.49.49,0,0,1,.43.56,6.59,6.59,0,0,1-5,5.55A2.92,2.92,0,0,1,6.51,26.19Z"/><path class="cls-5" d="M26.42,21.53a4.46,4.46,0,0,1-.63-.05A6.45,6.45,0,0,1,22.3,19.2a14.37,14.37,0,0,1-2.49-4.06l-1.3,2.51a5.91,5.91,0,0,1-2.51,3,3.7,3.7,0,0,1-2.77.1.49.49,0,0,1-.3-.64.5.5,0,0,1,.64-.3,2.66,2.66,0,0,0,2-.05,5,5,0,0,0,2.05-2.5l1.84-3.59a.51.51,0,0,1,.49-.26.48.48,0,0,1,.43.34,13.65,13.65,0,0,0,2.71,4.83A5.41,5.41,0,0,0,26,20.5a2.49,2.49,0,0,0,2.24-.77.5.5,0,0,1,.71,0,.49.49,0,0,1,0,.7A3.44,3.44,0,0,1,26.42,21.53Z"/><circle class="cls-19" cx="3.67" cy="15.69" r="0.42"/><circle class="cls-6" cx="7.98" cy="9.88" r="0.6"/><circle class="cls-19" cx="7.17" cy="11.23" r="0.35"/><circle class="cls-19" cx="9.73" cy="10.17" r="0.42"/><circle class="cls-20" cx="8.47" cy="11.11" r="0.29"/><circle class="cls-19" cx="6.16" cy="20.61" r="0.29"/><circle class="cls-20" cx="6.42" cy="22.06" r="0.29"/><circle class="cls-19" cx="6.68" cy="24.51" r="0.42"/><path class="cls-5" d="M8.06,20.13H7.93a.31.31,0,0,1-.17-.42h0l1.77-4.17a.32.32,0,0,1,.42-.17h0a.34.34,0,0,1,.17.43L8.36,20A.32.32,0,0,1,8.06,20.13Z"/><path class="cls-5" d="M10.41,18.12h-.13a.32.32,0,0,1-.18-.42h0L11,15.47a.33.33,0,1,1,.6.25l-1,2.23A.32.32,0,0,1,10.41,18.12Z"/><circle class="cls-5" cx="14.66" cy="46.07" r="0.6"/><circle class="cls-15" cx="16.9" cy="44.94" r="0.33"/><circle class="cls-15" cx="12.18" cy="45.79" r="0.33"/><circle class="cls-15" cx="16.9" cy="45.94" r="0.18"/><circle class="cls-15" cx="11.14" cy="45.09" r="0.11"/><circle class="cls-15" cx="12.24" cy="44.74" r="0.22"/><circle class="cls-15" cx="13.34" cy="46.17" r="0.32"/><circle class="cls-15" cx="27.01" cy="44.75" r="0.33"/><circle class="cls-15" cx="28.88" cy="45.45" r="0.67"/><circle class="cls-15" cx="27.81" cy="43.36" r="0.28"/><circle class="cls-15" cx="26.81" cy="43.63" r="0.33"/><circle class="cls-4" cx="37.17" cy="80.91" r="0.88"/><circle class="cls-2" cx="36.22" cy="77.14" r="0.46"/><circle class="cls-2" cx="34.86" cy="80.45" r="0.46"/><circle class="cls-4" cx="26.9" cy="88.75" r="1.07"/><circle class="cls-2" cx="28.11" cy="86.02" r="0.29"/><path class="cls-5" d="M27.39,49.19H20.26a.39.39,0,1,1,0-.77h7.13a.39.39,0,0,1,0,.77Z"/><circle class="cls-5" cx="19.16" cy="96.74" r="0.52"/></g></g></svg>