<svg xmlns="http://www.w3.org/2000/svg" viewBox="0 0 46.6 97.26"><defs><style>.cls-1{fill:#fdc6a2;}.cls-2{fill:#000201;}.cls-11,.cls-3{fill:#e89176;}.cls-15,.cls-4,.cls-5,.cls-6{fill:#fff;}.cls-5{opacity:0.6;}.cls-11,.cls-12,.cls-15,.cls-18,.cls-24,.cls-5,.cls-6,.cls-8{isolation:isolate;}.cls-6{opacity:0.35;}.cls-7{fill:#3ec4ff;}.cls-10,.cls-8{fill:#048edd;}.cls-8{opacity:0.4;}.cls-9{fill:#c5f3ff;}.cls-11{opacity:0.75;}.cls-12,.cls-16{fill:#ff9976;}.cls-12{opacity:0.25;}.cls-13{fill:#1d1a18;}.cls-14{fill:#0c0b0a;}.cls-15{opacity:0.55;}.cls-17{fill:#ffe8dc;}.cls-18,.cls-20{fill:#5e5e5e;}.cls-18{opacity:0.5;}.cls-19{fill:#d2f4fc;}.cls-21,.cls-24{fill:#303030;}.cls-22{fill:#f9968f;}.cls-23{fill:#e25959;}.cls-24{opacity:0.29;}</style></defs><g id="Layer_2" data-name="Layer 2"><g id="Layer_1-2" data-name="Layer 1"><path class="cls-1" d="M5.31,37.8h2A4.8,4.8,0,0,1,12,42.68v0h0a4.77,4.77,0,0,1-4.84,4.68h-2A4.78,4.78,0,0,1,.45,42.52v0h0A4.78,4.78,0,0,1,5.31,37.8Z"/><path class="cls-2" d="M7.24,47.84H5.17a5.32,5.32,0,0,1-3.12-1.09A.45.45,0,0,1,2.6,46,4.28,4.28,0,0,0,5.17,47h2a4.35,4.35,0,0,0,.13-8.7h-2A4.34,4.34,0,0,0,.89,42.5a4.25,4.25,0,0,0,.33,1.72A.45.45,0,0,1,1,44.8a.45.45,0,0,1-.58-.25,5.21,5.21,0,0,1,4.83-7.19H7.31a5.24,5.24,0,0,1-.07,10.48Z"/><path class="cls-3" d="M5.84,40.28h1a2.5,2.5,0,0,1,2.43,2.54h0a2.49,2.49,0,0,1-2.53,2.43h-1a2.47,2.47,0,0,1-2.43-2.52h0A2.48,2.48,0,0,1,5.84,40.28Z"/><path class="cls-4" d="M2.51,41a1.78,1.78,0,0,1,.89-1c.35-.13.21-.71-.16-.57A2.31,2.31,0,0,0,2,40.65c-.15.34.36.64.51.3Z"/><ellipse class="cls-4" cx="1.82" cy="42.04" rx="0.47" ry="0.38" transform="translate(-40.03 37.7) rotate(-81.6)"/><path class="cls-2" d="M36,82l-.14,0a.48.48,0,0,1-.33-.6,21.32,21.32,0,0,1,1.28-3.27.49.49,0,0,1,.87.43,20.68,20.68,0,0,0-1.22,3.11A.49.49,0,0,1,36,82Z"/><path class="cls-4" d="M34.63,41a1.78,1.78,0,0,1,.89-1c.35-.13.21-.71-.16-.57a2.3,2.3,0,0,0-1.24,1.25c-.15.34.36.64.51.3Z"/><ellipse class="cls-4" cx="33.94" cy="42.04" rx="0.47" ry="0.38" transform="translate(-12.61 69.48) rotate(-81.6)"/><path class="cls-2" d="M38.1,33.63a.49.49,0,0,1-.49-.49v-2a.49.49,0,0,1,1,0v2A.49.49,0,0,1,38.1,33.63Z"/><circle class="cls-2" cx="35.29" cy="83.57" r="0.52"/><path class="cls-4" d="M37.23,24.7a.5.5,0,0,1-.49-.38,8.86,8.86,0,0,1,.41-5.52.5.5,0,1,1,.93.39,7.81,7.81,0,0,0-.37,4.89.51.51,0,0,1-.36.61Z"/><circle class="cls-5" cx="35.79" cy="15.69" r="0.42"/><circle class="cls-5" cx="38.29" cy="20.61" r="0.29"/><circle class="cls-6" cx="38.55" cy="22.06" r="0.29"/><path class="cls-7" d="M23.07,67h0A20.46,20.46,0,0,1,43.52,87.47h0A9.47,9.47,0,0,1,34.09,97h-22a9.47,9.47,0,0,1-9.47-9.47h0A20.44,20.44,0,0,1,23,67Z"/><path class="cls-8" d="M27.9,81.26c5.42-2.71,6.68-6.14,2.93-12.86,0,0,4.18,2.26,4.2,2.25,1.07.73,1.78,2.07,2.7,3a20.41,20.41,0,0,1,6,14.45,8.2,8.2,0,0,1-2.88,6.11c-1.71,1.71-3.06,2.1-6.42,2.67h-22a5.87,5.87,0,0,1-2.78-.48,3.72,3.72,0,0,1-2.75-3,5.79,5.79,0,0,1,.16-2.68c.57-1.76,2.21-3.13,4.11-4.23a11.32,11.32,0,0,1,3.7-1.06,42.88,42.88,0,0,0,13-4.12Z"/><path class="cls-9" d="M4.88,81.06H4.74a.38.38,0,0,1-.25-.49v0a5,5,0,0,1,.2-2,21.55,21.55,0,0,1,2.57-4.06,17,17,0,0,1,8.06-5.31.41.41,0,0,1,.5.26.39.39,0,0,1-.25.5C8.3,72.32,5.29,80.7,5.26,80.79A.42.42,0,0,1,4.88,81.06Z"/><path class="cls-10" d="M43.34,87a9.47,9.47,0,0,1-9.48,9.46H22.76L22,97H16.23l-.77-.6H11.91a9.4,9.4,0,0,1-3.28-.57,5.9,5.9,0,0,1,0-2.51A6.3,6.3,0,0,1,12.14,89c3.42-1.56,7.34.19,11.09.36A15,15,0,0,0,36.28,82a18.55,18.55,0,0,0,2.55-7.86A20.4,20.4,0,0,1,43.34,87Z"/><path class="cls-2" d="M16.28,97.26h-4a10,10,0,0,1-9.95-10V85.75a.49.49,0,0,1,1,0V87.3a9,9,0,0,0,9,9h4a.49.49,0,0,1,0,1Z"/><path class="cls-2" d="M34.23,97.26H21.44a.49.49,0,1,1,0-1H34.23a9,9,0,0,0,9-9,20,20,0,0,0-19.93-20h0A19.8,19.8,0,0,0,6.42,76.64a.48.48,0,0,1-.67.15.47.47,0,0,1-.15-.66,20.75,20.75,0,0,1,17.66-9.75h0A21,21,0,0,1,44.18,87.3,10,10,0,0,1,34.23,97.26Z"/><circle class="cls-10" cx="33.75" cy="84.04" r="2.27"/><circle class="cls-10" cx="30.66" cy="86.08" r="0.67"/><path class="cls-2" d="M5.2,89.25a.24.24,0,0,1-.12,0,.29.29,0,0,1-.19-.39v0h0l1.77-4.19a.32.32,0,0,1,.41-.17h0a.33.33,0,0,1,.18.42h0L5.5,89A.32.32,0,0,1,5.2,89.25Z"/><path class="cls-2" d="M7.33,87.3H7.2A.33.33,0,0,1,7,86.86H7L8,84.6a.33.33,0,0,1,.6.25h0l-1,2.24A.3.3,0,0,1,7.33,87.3Z"/><path class="cls-4" d="M7.71,77.89a.37.37,0,0,1-.21-.06.4.4,0,0,1-.14-.56A17.68,17.68,0,0,1,8.94,75.1a.4.4,0,0,1,.61.53,15.38,15.38,0,0,0-1.5,2.07A.4.4,0,0,1,7.71,77.89Z"/><circle class="cls-4" cx="10.43" cy="74.3" r="0.56"/><path class="cls-1" d="M23.53,60.47h0a4.22,4.22,0,0,1,4.22,4.22v2.94a4.22,4.22,0,0,1-4.22,4.22h0a4.21,4.21,0,0,1-4.22-4.22V64.69A4.21,4.21,0,0,1,23.53,60.47Z"/><path class="cls-11" d="M27.61,63.45v2.94a3.71,3.71,0,0,1-.13,1c-4.47.37-6.94-2-8.06-5.36a4.22,4.22,0,0,1,8.19,1.44Z"/><path class="cls-2" d="M23.53,72.31a4.67,4.67,0,0,1-4.68-4.68V64.69a4.68,4.68,0,0,1,9.36,0v2.94A4.68,4.68,0,0,1,23.53,72.31Zm0-11.38a3.76,3.76,0,0,0-3.76,3.76v2.94a3.76,3.76,0,0,0,7.52,0V64.69A3.77,3.77,0,0,0,23.53,60.93Z"/><circle class="cls-9" cx="13.63" cy="71.04" r="0.62"/><circle class="cls-9" cx="13.03" cy="72.26" r="0.41"/><path class="cls-1" d="M39.45,37.8h2a4.8,4.8,0,0,1,4.71,4.87h0a4.77,4.77,0,0,1-4.85,4.69h-2a4.79,4.79,0,0,1-4.69-4.87h0a4.78,4.78,0,0,1,4.85-4.69h0Z"/><path class="cls-2" d="M41.39,47.82H39.31a5.23,5.23,0,0,1,0-10.45h2.09a5.24,5.24,0,0,1,5.15,5.32,5.22,5.22,0,0,1-5.21,5.14Zm-.08-.89h.07a4.34,4.34,0,0,0,.06-8.68h-2a4.34,4.34,0,0,0-.14,8.67Z"/><path class="cls-3" d="M40.37,40.28h1a2.5,2.5,0,0,1,2.43,2.54h0a2.49,2.49,0,0,1-2.53,2.43H40.22a2.48,2.48,0,0,1-2.43-2.54h0a2.49,2.49,0,0,1,2.54-2.43Z"/><path class="cls-1" d="M35.59,15.32l.58.55a17.74,17.74,0,0,1,5.2,12.58V46.77a17.76,17.76,0,0,1-35.52.38h0V28.45a17.65,17.65,0,0,1,5.78-13.12C17.53,9.93,29.66,10,35.59,15.32Z"/><path class="cls-12" d="M41.36,28.59V46.92a17.76,17.76,0,0,1-17.7,17.82H23.6V11.44c4.51,0,9,1.34,12,4,.21.18.39.37.58.56A17.73,17.73,0,0,1,41.36,28.59Z"/><path class="cls-13" d="M34.06,47.09v1.2a3.05,3.05,0,0,1-.5,1.66,11.74,11.74,0,0,1-10.2,5.15h-.09A11.75,11.75,0,0,1,13,50a3,3,0,0,1-.5-1.66v-.86c.22,0,.46.06.7.07h1.1a18.41,18.41,0,0,0,8.36-2.63l-.07-.14a2.15,2.15,0,0,0,.62.08h.33a18.24,18.24,0,0,0,8.07,2.46h.56A10,10,0,0,0,34.06,47.09Z"/><path class="cls-14" d="M30.45,48v.82A2.06,2.06,0,0,1,30.11,50a8,8,0,0,1-7,3.51H23A8,8,0,0,1,16,50a2,2,0,0,1-.34-1.13v-.59H17a21.41,21.41,0,0,1,4.58-3.9l.52-.11,2.26.07.77-.22c1.83-1.82.35.77.4.77,2.68,1.61,3.27,3.22,3.27,3.22h.38A6,6,0,0,0,30.45,48Z"/><circle class="cls-15" cx="16.53" cy="62.66" r="0.22"/><circle class="cls-15" cx="19.57" cy="63.72" r="0.29"/><ellipse class="cls-4" cx="8.52" cy="50.47" rx="0.88" ry="0.5" transform="translate(-42.06 42.68) rotate(-71.66)"/><circle class="cls-15" cx="10.12" cy="50.96" r="0.28"/><path class="cls-15" d="M9.25,51.24a.23.23,0,0,1,.23.21.22.22,0,0,1-.21.23A.21.21,0,0,1,9,51.47H9A.23.23,0,0,1,9.25,51.24Z"/><circle class="cls-15" cx="9.54" cy="49.44" r="0.29"/><ellipse class="cls-4" cx="35.84" cy="42.37" rx="0.47" ry="0.38" transform="translate(-11.31 71.63) rotate(-81.6)"/><path class="cls-16" d="M41.39,28.26V46.58A17.77,17.77,0,0,1,23.68,64.41h-1.3C31.63,63.75,39.7,56,39.67,46.63V28.26c0-4.72-2.67-9.24-6-12.57l-.58-.55a17.63,17.63,0,0,0-10.77-4c4.93-.29,10,1,13.29,4l.58.55A17.81,17.81,0,0,1,41.39,28.26Z"/><path class="cls-4" d="M24.42,64.58h-1c-9.8,0-17.73-8-17.7-17V29.23A18.19,18.19,0,0,1,11,15.89c.19-.19.37-.37.57-.55,3.18-2.87,8.15-4.21,13-4-4.18.17-8.27,1.51-11,4-.21.18-.38.36-.58.55A17.77,17.77,0,0,0,7.7,28.46V46.79A17.77,17.77,0,0,0,24.42,64.58Z"/><path class="cls-2" d="M9.89,58.69a.52.52,0,0,1-.38-.17A18.31,18.31,0,0,1,5.28,47.16V37a.49.49,0,0,1,1,0V47.15a17.25,17.25,0,0,0,4,10.74.5.5,0,0,1-.06.69A.51.51,0,0,1,9.89,58.69Z"/><path class="cls-2" d="M23.57,65.08a18.23,18.23,0,0,1-12.26-4.73.48.48,0,0,1,0-.68.49.49,0,0,1,.68,0,17.25,17.25,0,0,0,11.61,4.48h0A17.3,17.3,0,0,0,40.85,46.78V28.46a17.34,17.34,0,0,0-5.07-12.23l-.18-.18-.37-.35c-5.86-5.23-17.65-5.24-23.36,0A17.27,17.27,0,0,0,6.25,28.45a.49.49,0,0,1-.48.49h0a.49.49,0,0,1-.49-.49A18.22,18.22,0,0,1,11.22,15c6-5.52,18.47-5.53,24.65,0,.14.12.28.26.41.39l.18.17a18.33,18.33,0,0,1,5.36,12.94v18.3a18.28,18.28,0,0,1-18.2,18.31Z"/><rect class="cls-4" x="7.28" y="41.28" width="0.87" height="4.72" rx="0.43"/><path class="cls-16" d="M39.41,31.22h0a.44.44,0,0,1,.44.44V35.5a.44.44,0,0,1-.44.44h0A.43.43,0,0,1,39,35.5V31.66A.44.44,0,0,1,39.41,31.22Z"/><path class="cls-17" d="M9.87,31.4h0a.73.73,0,0,1,.72.72v6.35a.72.72,0,0,1-.72.72h0a.72.72,0,0,1-.72-.72V32.12A.72.72,0,0,1,9.87,31.4Z"/><path class="cls-4" d="M20,50.33h-.53c-.87,0-1.58-1.71-1.58-2.58h0a1.58,1.58,0,0,1,1.58-1.58H20c.88,0,1.58-.29,1.58.58v1C21.63,48.62,20.93,50.33,20,50.33Z"/><path class="cls-18" d="M21.82,47a8.08,8.08,0,0,1-3.42,1.18c-.31,0-.46-.53-.46-.85v-.63a.57.57,0,0,1,.55-.57h2.58a.57.57,0,0,1,.56.56h0v.63C21.63,47.69,22.13,47,21.82,47Z"/><path class="cls-2" d="M19.93,50.53A2.23,2.23,0,0,1,17.7,48.3v-.56a1.14,1.14,0,0,1,1-1.13l2.1-1a.47.47,0,0,1,.17,0c.06,0,.2-.12.27-.18a.57.57,0,0,1,.61-.17.48.48,0,0,1,.26.48V48.3a2.24,2.24,0,0,1-2.22,2.23Zm1.17-4.16-2.1,1a.32.32,0,0,1-.16,0,.36.36,0,0,0-.37.36v.56a1.45,1.45,0,0,0,1.45,1.46,1.47,1.47,0,0,0,1.46-1.46v-2A.83.83,0,0,1,21.1,46.37Z"/><path class="cls-4" d="M17.34,51H15.57c-.33,0-.61-1.27-.61-1.61V48a.61.61,0,0,1,.61-.61h1.77A.62.62,0,0,1,18,48h0v1.33C18,49.71,17.68,51,17.34,51Z"/><path class="cls-18" d="M18.33,48.19a7,7,0,0,1-3.22.5c-.25,0-.18,0-.18-.3v-.52a.46.46,0,0,1,.45-.46h2.08a.46.46,0,0,1,.45.46l.33-.25C18.24,47.87,18.58,48.19,18.33,48.19Z"/><path class="cls-2" d="M16.44,51.49A1.8,1.8,0,0,1,15.19,51a1.77,1.77,0,0,1-.57-1.27V48.14a1,1,0,0,1,.88-1l1.68-.95a.36.36,0,0,1,.2-.06,1,1,0,0,1,1,1v2.5a1.84,1.84,0,0,1-1.78,1.84h-.16Zm1-4.55-1.64.93a.34.34,0,0,1-.19.05.22.22,0,0,0-.22.22v1.5a1.07,1.07,0,0,0,.32.78,1,1,0,0,0,.75.28h.11a1.06,1.06,0,0,0,1-1.05V47.14A.21.21,0,0,0,17.45,46.94Z"/><path class="cls-4" d="M26.86,50.33h.54c.87,0,1.57-1.71,1.57-2.58h0a1.59,1.59,0,0,0-1.56-1.58h-.55c-.87,0-1.57-.29-1.57.58v1C25.29,48.62,26,50.33,26.86,50.33Z"/><path class="cls-18" d="M25.1,47a8,8,0,0,0,3.42,1.18c.31,0,.45-.53.45-.85v-.63a.58.58,0,0,0-.55-.57H25.85a.56.56,0,0,0-.56.56h0v.63C25.29,47.69,24.79,47,25.1,47Z"/><path class="cls-2" d="M27,50.53a2.23,2.23,0,0,1-2.23-2.23V45.74a.48.48,0,0,1,.26-.48.58.58,0,0,1,.62.17c.06.06.2.18.26.18a.45.45,0,0,1,.16,0l2.12,1a1.14,1.14,0,0,1,1,1.13v.56A2.25,2.25,0,0,1,27,50.53Zm-1.46-4.24v2a1.46,1.46,0,0,0,2.92,0v-.56a.36.36,0,0,0-.36-.36.29.29,0,0,1-.16,0l-2.13-1A.77.77,0,0,1,25.55,46.29Z"/><path class="cls-4" d="M29.57,51h1.77c.34,0,.61-1.27.61-1.61V48a.62.62,0,0,0-.61-.61H29.57A.61.61,0,0,0,29,48h0v1.33C29,49.71,29.24,51,29.57,51Z"/><path class="cls-18" d="M28.84,48.38a6.77,6.77,0,0,0,3,.31c.24,0,.18,0,.18-.3v-.52a.48.48,0,0,0-.46-.46h-2.1a.47.47,0,0,0-.46.46v.52C29,48.64,28.59,48.38,28.84,48.38Z"/><path class="cls-2" d="M30.42,51.48h-.09a1.84,1.84,0,0,1-1.84-1.84v-2.5a1,1,0,0,1,1-1,.35.35,0,0,1,.19.06l1.69.95a1,1,0,0,1,.89,1v1.5A1.84,1.84,0,0,1,30.42,51.48Zm-1-4.54a.2.2,0,0,0-.14.2v2.5a1.05,1.05,0,0,0,1.06,1.06h.09a1.06,1.06,0,0,0,1.06-1.06v-1.5a.22.22,0,0,0-.22-.22.35.35,0,0,1-.2-.05Z"/><rect class="cls-4" x="21.96" y="45.15" width="2.99" height="3.55" rx="0.61"/><path class="cls-18" d="M21.9,46.43a10.06,10.06,0,0,0,2.9,0c.25,0,.19,0,.19-.3v-.54a.46.46,0,0,0-.46-.45H22.45a.45.45,0,0,0-.45.45h0l-.08.94C21.92,46.78,21.65,46.43,21.9,46.43Z"/><path class="cls-2" d="M23.42,49.2h-.09a1.84,1.84,0,0,1-1.84-1.84v-2.5a1,1,0,0,1,1-1,.45.45,0,0,1,.19,0l1.69,1a1,1,0,0,1,.89,1v1.5A1.84,1.84,0,0,1,23.42,49.2Zm-1-4.54a.2.2,0,0,0-.14.2v2.5a1.05,1.05,0,0,0,1.06,1.06h.09a1.06,1.06,0,0,0,1.06-1.06v-1.5a.22.22,0,0,0-.22-.22.35.35,0,0,1-.2,0Z"/><path class="cls-4" d="M33.27,38.18a5,5,0,0,1-9.65,1.69,5,5,0,1,1,0-3.38,5,5,0,0,1,9.65,1.69Z"/><path class="cls-19" d="M33.33,43c0,2.75-2.29.22-5,.22-2.16,0-4.68.73-5.37-1.18-.69,1.91-1.83,1.18-4,1.18-2.74,0-4.63,3-4.63.23s1.31-4.47,4-4.47a5.66,5.66,0,0,1,4.93,3.6c.69-1.91,2.61-3.79,4.76-3.79C30.8,38.73,33.33,40.2,33.33,43Z"/><path class="cls-2" d="M14.71,35.82a.32.32,0,0,1-.19,0,.35.35,0,0,1-.1-.47,6,6,0,0,1,.49-.67.33.33,0,0,1,.47,0,.34.34,0,0,1,0,.48,5.13,5.13,0,0,0-.44.6A.32.32,0,0,1,14.71,35.82Z"/><path class="cls-2" d="M14,37.89h0a.33.33,0,0,1-.3-.37q0-.3.09-.6a.35.35,0,0,1,.41-.26.35.35,0,0,1,.26.41,4.34,4.34,0,0,0-.09.52A.33.33,0,0,1,14,37.89Z"/><path class="cls-2" d="M28.33,43.41h0c-1.56,0-3.65-.21-4.68-1.94-1,1.73-3.12,1.94-4.67,1.94a5.37,5.37,0,0,1-5.22-4.27.34.34,0,0,1,.67-.13,4.66,4.66,0,0,0,4.55,3.72c2.47,0,3.81-.67,4.36-2.17a.35.35,0,0,1,.32-.23.36.36,0,0,1,.32.23c.53,1.5,1.87,2.17,4.36,2.17h0a4.66,4.66,0,1,0-4.39-6.2.35.35,0,0,1-.32.22h0a.32.32,0,0,1-.32-.22,5.08,5.08,0,0,0-.4-.81,4.66,4.66,0,0,0-6.4-1.57A.34.34,0,0,1,16,34a.35.35,0,0,1,.12-.47,5.35,5.35,0,0,1,7.34,1.79l.12.22a5.34,5.34,0,1,1,4.72,7.83Z"/><path class="cls-2" d="M19.52,35.69h0a.83.83,0,0,1,.83.83v2.07a.83.83,0,0,1-.83.83h0a.82.82,0,0,1-.82-.83V36.52A.83.83,0,0,1,19.52,35.69Z"/><path class="cls-2" d="M27.73,35.69h0a.83.83,0,0,1,.83.83v2.07a.83.83,0,0,1-.83.83h0a.82.82,0,0,1-.82-.83V36.52A.83.83,0,0,1,27.73,35.69Z"/><circle class="cls-4" cx="26.91" cy="37.2" r="0.53"/><circle class="cls-4" cx="18.73" cy="37.2" r="0.53"/><path class="cls-20" d="M25.62,41.54s4.3-2.48,8.09-.59,5.43,2.38,7,2.38a9.72,9.72,0,0,1-8.53,4.34,18.2,18.2,0,0,1-8.36-2.62"/><path class="cls-16" d="M13.14,30.24l6.52-.6h0l.09.94a.66.66,0,0,1-.6.72l-5.2.49a.66.66,0,0,1-.72-.6l-.09-1Z"/><path class="cls-16" d="M32.49,30.23l-5.21-.49a.65.65,0,0,1-.59-.72l.08-.94h0l6.53.6h0l-.1,1A.66.66,0,0,1,32.49,30.23Z"/><path class="cls-20" d="M18.8,30.48l-4.91.39a1.38,1.38,0,0,1-1.48-1.17h0a1.38,1.38,0,0,1,1-1.55L18.25,27a1.4,1.4,0,0,1,1.67,1,.29.29,0,0,0,0,.09l.12.75a1.41,1.41,0,0,1-1.17,1.6Z"/><path class="cls-21" d="M18.8,30.48l-4.91.39a1.38,1.38,0,0,1-1.48-1.17h0c-.11-.71-.13.49.57.32l6.61-.51c.78-.19.22-2.18.35-1.38l.12.75a1.4,1.4,0,0,1-1.18,1.59Z"/><path class="cls-2" d="M13.79,31.21a1.72,1.72,0,0,1-.47-3.38l.83-.2a.33.33,0,0,1,.4.24.35.35,0,0,1-.24.41l-.83.2a1,1,0,0,0-.74,1.17,1.06,1.06,0,0,0,1.12.89l4.91-.39a1.1,1.1,0,0,0,.76-.43,1,1,0,0,0,.19-.79l-.12-.74a1.07,1.07,0,0,0-1.28-.86l-1.9.45a.34.34,0,0,1-.4-.25.33.33,0,0,1,.25-.4l1.9-.45A1.73,1.73,0,0,1,20.24,28l.15.87a1.75,1.75,0,0,1-.33,1.29,1.7,1.7,0,0,1-1.13.69h-.1l-4.92.39Z"/><circle class="cls-21" cx="17.6" cy="29.58" r="0.37"/><circle class="cls-21" cx="16.59" cy="29.3" r="0.19"/><circle class="cls-21" cx="18.91" cy="29.44" r="0.47"/><path class="cls-20" d="M21.2,41.78s-4.31-2.48-8.09-.58-5.44,2.37-7,2.37a9.7,9.7,0,0,0,8.54,4.34A18.4,18.4,0,0,0,23,45.29"/><path class="cls-21" d="M22.14,44l.68,1.32a18.28,18.28,0,0,1-8.36,2.62,9.7,9.7,0,0,1-8.53-4.34,5.72,5.72,0,0,0,1.3-.12,10.1,10.1,0,0,0,7.23,2.76A18.39,18.39,0,0,0,22.14,44Z"/><path class="cls-21" d="M40.5,43.32A9.71,9.71,0,0,1,32,47.67,18.34,18.34,0,0,1,23.65,45l.68-1.31A18.33,18.33,0,0,0,32,46a10.1,10.1,0,0,0,7.24-2.76A6.52,6.52,0,0,0,40.5,43.32Z"/><path class="cls-2" d="M21.19,42.07A.32.32,0,0,1,21,42c-.05,0-4.2-2.36-7.77-.57l-1,.5a.34.34,0,0,1-.31-.61l1-.5c3.9-2,8.23.49,8.41.59a.33.33,0,0,1,.13.46A.34.34,0,0,1,21.19,42.07Z"/><circle class="cls-22" cx="23.42" cy="42.38" r="2.59"/><path class="cls-23" d="M26,42.38a2.59,2.59,0,1,1-5.18,0C20.83,41,21.91,44,23.34,44S26,41,26,42.38Z"/><path class="cls-2" d="M23.42,45.57a2.93,2.93,0,1,1,2.93-2.93A2.93,2.93,0,0,1,23.42,45.57Zm0-5.18a2.25,2.25,0,1,0,2.25,2.25A2.25,2.25,0,0,0,23.42,40.39Z"/><path class="cls-20" d="M5.4,37.77h0a1.32,1.32,0,0,1-1.32-1.32h0l1.29-10.2c0-.73-.7-1.09,0-1.09h0A1.34,1.34,0,0,1,6.7,26.46v10A1.32,1.32,0,0,1,5.4,37.77Z"/><path class="cls-21" d="M5.71,29.22h0c-.56,0-.36-.33-.36-.89l.43-7.67c0-.56-.63-1.16-.07-1.16h0a1,1,0,0,1,1,1v7.69a1,1,0,0,1-1,1Z"/><path class="cls-2" d="M5.4,38.21a1.76,1.76,0,0,1-1.76-1.76l1.26-11h0A.57.57,0,0,1,4.63,25a.61.61,0,0,1,.59-.6.57.57,0,0,1,.48.28A2.8,2.8,0,0,0,6,24.61a1.07,1.07,0,0,1,1,0,.76.76,0,0,1,.28.66L7.14,36.48A1.77,1.77,0,0,1,5.4,38.21Zm.37-12.63L4.51,36.49a.88.88,0,0,0,.88.85.9.9,0,0,0,.88-.87L6.42,25.4l-.15,0A5.07,5.07,0,0,1,5.77,25.58Z"/><path class="cls-20" d="M41.36,37.92h0a1.25,1.25,0,0,0,1.25-1.25l-1.22-9.38c0-.69.66-1.25,0-1.25h0a1.25,1.25,0,0,0-1.28,1.22v9.41A1.25,1.25,0,0,0,41.36,37.92Z"/><path class="cls-2" d="M41.36,38.33a1.66,1.66,0,0,1-1.66-1.66V27.29a1.66,1.66,0,0,1,1.7-1.66.72.72,0,0,1,.6.27.83.83,0,0,1,0,.82,1.66,1.66,0,0,0-.15.57L43,36.62A1.66,1.66,0,0,1,41.36,38.33Zm-.2-11.85a.83.83,0,0,0-.38.21.77.77,0,0,0-.26.58v9.4a.84.84,0,0,0,1.68,0L41,27.35A2.41,2.41,0,0,1,41.16,26.48Z"/><path class="cls-20" d="M40.28,6.51c1.25,0-1.64-1.88-2.8-2.36a12.15,12.15,0,0,0-11.12,1.1l1.81-3.08A3.27,3.27,0,0,0,25.79.51a6.12,6.12,0,0,0-3,.34A10.91,10.91,0,0,0,16.1,7.62l-2-.41A15,15,0,0,0,9,7.66a10.74,10.74,0,0,0-5,2.78,7.66,7.66,0,0,0-1.75,4c-.13.88-.06,2,.75,2.38A2.77,2.77,0,0,0,4.32,17a1,1,0,0,1,.37.07c.35.2.23.72.08,1.09A11.86,11.86,0,0,0,4,23.35a2.75,2.75,0,0,0,.4,1.43,2.58,2.58,0,0,0,2.6.75,6.07,6.07,0,0,0,4.67-5.13l1.5-.18a3.23,3.23,0,0,0,2.35,0,5.54,5.54,0,0,0,2.31-2.8l1.78-3.52a14.1,14.1,0,0,0,2.8,4.94,5.8,5.8,0,0,0,3.19,2.09A3,3,0,0,0,28.36,20l1.32-.09A8.44,8.44,0,0,0,34.25,24a1.77,1.77,0,0,1,.41.21,1.4,1.4,0,0,1,.28.54A14.33,14.33,0,0,0,40.29,32a3.49,3.49,0,0,0,2.77.84,2.91,2.91,0,0,0,1.81-1.72c1.1-2.33.43-5.08-.5-7.49C43.69,21.85,42.72,20,41,19.29l.12-.11a6.69,6.69,0,0,0,2.27.3,2.9,2.9,0,0,0,2-.93A3.33,3.33,0,0,0,46,16.09a6.38,6.38,0,0,0-1.8-3.89c-1.78-1.79-4.43-2.35-7-2.58a14.26,14.26,0,0,0-5.78.41S36.14,6.52,40.28,6.51Z"/><path class="cls-21" d="M44.41,23.57c.93,2.41,1.6,5.16.5,7.49a2.91,2.91,0,0,1-1.81,1.72,3.48,3.48,0,0,1-2.77-.85A14.24,14.24,0,0,1,35,24.63a1.4,1.4,0,0,0-.28-.54,1.77,1.77,0,0,0-.41-.21,8.45,8.45,0,0,1-4.57-4.07l-1.32.09a3.75,3.75,0,0,1,.35-.33,3.2,3.2,0,0,1,1.2-.69c1.12-.29,2.26.42,3.42.46a2.8,2.8,0,0,0,2.37-1.18,2.57,2.57,0,0,0,.16-2.61c-.55-1-1.72-1.46-2.48-2.3a3.57,3.57,0,0,1-.66-3.61,16.36,16.36,0,0,1,4.53-.09c2.52.23,5.17.79,7,2.58A6.31,6.31,0,0,1,46,16a3.37,3.37,0,0,1-.62,2.48,2.9,2.9,0,0,1-2,.93,6.69,6.69,0,0,1-2.27-.3l-.12.11C42.76,19.92,43.73,21.8,44.41,23.57Z"/><path class="cls-24" d="M28.37,20a3,3,0,0,1-2.73.91,5.8,5.8,0,0,1-3.19-2.09,13,13,0,0,1-1.47-2,10.15,10.15,0,0,1,3.14-4.19c.89-.68,1.88-1.23,2.74-2a8.14,8.14,0,0,0,2.7-6.85,12.26,12.26,0,0,1,7.93.38c1.16.48,4,2.36,2.8,2.36-4.14,0-8.81,3.52-8.81,3.52a10.27,10.27,0,0,1,1.27-.33,3.54,3.54,0,0,0,.68,3.55c.76.84,1.93,1.31,2.48,2.3a2.57,2.57,0,0,1-.16,2.61,2.8,2.8,0,0,1-2.37,1.18c-1.16,0-2.3-.75-3.42-.46a3.2,3.2,0,0,0-1.2.69,3.75,3.75,0,0,0-.35.33"/><circle class="cls-2" cx="14.46" cy="7.29" r="0.52"/><circle class="cls-2" cx="43.12" cy="11.28" r="0.52"/><circle class="cls-2" cx="34.58" cy="7.96" r="0.52"/><circle class="cls-2" cx="44.49" cy="23.81" r="0.52"/><circle class="cls-2" cx="10.9" cy="42.18" r="0.52"/><circle class="cls-21" cx="33.05" cy="18.96" r="1.24"/><circle class="cls-21" cx="33.12" cy="12.5" r="1.07"/><circle class="cls-21" cx="31.12" cy="13.48" r="0.54"/><circle class="cls-21" cx="25.99" cy="19.78" r="1"/><path class="cls-2" d="M41.53,11.06l-.17,0a15.51,15.51,0,0,0-4.15-.87,13.6,13.6,0,0,0-5.61.4.5.5,0,0,1-.27-1,14.55,14.55,0,0,1,6-.42,16.68,16.68,0,0,1,4.38.91.51.51,0,0,1,.31.64A.5.5,0,0,1,41.53,11.06Z"/><path class="cls-2" d="M43.78,22.75a.48.48,0,0,1-.47-.33,4.92,4.92,0,0,0-2.45-2.72.49.49,0,0,1-.25-.63.5.5,0,0,1,.61-.29,6.28,6.28,0,0,0,2.11.27A2.38,2.38,0,0,0,45,18.28a2.82,2.82,0,0,0,.53-2.07,5.81,5.81,0,0,0-1.42-3.35.49.49,0,0,1,0-.7.5.5,0,0,1,.7,0,6.75,6.75,0,0,1,1.66,3.9,3.82,3.82,0,0,1-.76,2.83,3.41,3.41,0,0,1-2.37,1.12H43a5.77,5.77,0,0,1,1.25,2,.5.5,0,0,1-.3.64Z"/><path class="cls-2" d="M42.61,33.42a4,4,0,0,1-2.66-1,14.91,14.91,0,0,1-5.49-7.52.79.79,0,0,0-.14-.32,1,1,0,0,0-.24-.11,9,9,0,0,1-4.85-4.31.5.5,0,1,1,.89-.45,8,8,0,0,0,4.3,3.82,2,2,0,0,1,.53.27l.08.07a1.73,1.73,0,0,1,.39.76,14,14,0,0,0,5.15,7,3.09,3.09,0,0,0,2.37.76A2.45,2.45,0,0,0,44.4,31a7.59,7.59,0,0,0,.13-5.33.5.5,0,0,1,.95-.33,8.63,8.63,0,0,1-.15,6,3.49,3.49,0,0,1-2.11,2l-.1,0Z"/><path class="cls-2" d="M16.14,8.16a.5.5,0,0,1-.17,0,.51.51,0,0,1-.31-.64,11.37,11.37,0,0,1,7-7.07A6.57,6.57,0,0,1,25.89.06a4.23,4.23,0,0,1,1.63.65,1.91,1.91,0,0,1,.4,2.69l-.41-.28-.39-.31a.91.91,0,0,0-.18-1.29,3.24,3.24,0,0,0-1.2-.47A5.72,5.72,0,0,0,23,1.37a10.38,10.38,0,0,0-6.39,6.46A.51.51,0,0,1,16.14,8.16Z"/><path class="cls-2" d="M36.34,7.79a.5.5,0,0,1-.49-.36.51.51,0,0,1,.35-.62,27.4,27.4,0,0,1,3.22-.65,4.27,4.27,0,0,0-2.1-1.48,11.61,11.61,0,0,0-10.69,1,.5.5,0,0,1-.55-.83A12.6,12.6,0,0,1,37.66,3.74a5.32,5.32,0,0,1,3.06,2.59.52.52,0,0,1,0,.47.51.51,0,0,1-.39.26,23,23,0,0,0-3.86.72Z"/><path class="cls-4" d="M3.61,13.1a.43.43,0,0,1-.19,0,.49.49,0,0,1-.26-.65c.07-.17,1.77-4,7.39-4.68a.5.5,0,0,1,.56.43.49.49,0,0,1-.43.56c-5,.63-6.54,3.94-6.61,4.08A.49.49,0,0,1,3.61,13.1Z"/><circle class="cls-4" cx="12.45" cy="8" r="0.56"/><path class="cls-2" d="M2.9,12.76a.58.58,0,0,1-.19,0,.51.51,0,0,1-.28-.66,6.91,6.91,0,0,1,1.2-1.91A11.15,11.15,0,0,1,8.89,7.23,12.85,12.85,0,0,1,12.7,6.7a.52.52,0,0,1,.5.51.51.51,0,0,1-.51.49,12.06,12.06,0,0,0-3.54.49,10.15,10.15,0,0,0-4.79,2.66,5.61,5.61,0,0,0-1,1.6A.49.49,0,0,1,2.9,12.76Z"/><path class="cls-2" d="M6.31,26.18a3.11,3.11,0,0,1-2.27-1A.27.27,0,0,1,4,25.09a3.53,3.53,0,0,1-.46-1.68A12.36,12.36,0,0,1,4.3,18a1.08,1.08,0,0,0,.11-.47H4.34a3.56,3.56,0,0,1-1.51-.15C1.9,17,1.53,15.9,1.74,14.46A.49.49,0,0,1,2.31,14a.5.5,0,0,1,.42.57c0,.36-.18,1.55.47,1.85a2.6,2.6,0,0,0,1.06.09,1.22,1.22,0,0,1,.64.11c.54.31.65.95.33,1.73a11.38,11.38,0,0,0-.73,5,2.51,2.51,0,0,0,.31,1.16,2.06,2.06,0,0,0,2.06.57,5.59,5.59,0,0,0,4.31-4.71.49.49,0,0,1,.56-.43.5.5,0,0,1,.43.56,6.6,6.6,0,0,1-5,5.55A3.22,3.22,0,0,1,6.31,26.18Z"/><path class="cls-2" d="M26.1,21.52a3.39,3.39,0,0,1-.55,0A6.41,6.41,0,0,1,22,19.2a14.46,14.46,0,0,1-2.48-4L18.3,17.65a5.88,5.88,0,0,1-2.5,3,3.7,3.7,0,0,1-2.77.1.49.49,0,0,1-.3-.64.5.5,0,0,1,.64-.3,2.66,2.66,0,0,0,2-.05,4.93,4.93,0,0,0,2-2.5l1.8-3.58a.49.49,0,0,1,.49-.27.48.48,0,0,1,.43.34,13.79,13.79,0,0,0,2.7,4.83,5.43,5.43,0,0,0,2.94,1.93A2.47,2.47,0,0,0,28,19.67a.5.5,0,1,1,.75.65A3.48,3.48,0,0,1,26.1,21.52Z"/><circle class="cls-4" cx="7.77" cy="9.88" r="0.6"/><circle class="cls-5" cx="6.97" cy="11.23" r="0.35"/><circle class="cls-5" cx="9.53" cy="10.17" r="0.42"/><circle class="cls-6" cx="8.27" cy="11.11" r="0.29"/><circle class="cls-5" cx="6.48" cy="24.51" r="0.42"/><path class="cls-2" d="M7.86,20.13H7.73a.33.33,0,0,1-.18-.42h0l1.76-4.17a.33.33,0,0,1,.45-.11.33.33,0,0,1,.15.37L8.15,19.92A.29.29,0,0,1,7.86,20.13Z"/><path class="cls-2" d="M10.2,18.12h-.12a.32.32,0,0,1-.19-.41h0l.94-2.23a.32.32,0,0,1,.42-.17.33.33,0,0,1,.17.42L10.49,18A.35.35,0,0,1,10.2,18.12Z"/><path class="cls-20" d="M27.69,28.63,32.6,29a1.39,1.39,0,0,0,1.48-1.17h0a1.39,1.39,0,0,0-1-1.55l-4.79-1.15a1.41,1.41,0,0,0-1.68,1s0,.06,0,.09l-.11.75a1.37,1.37,0,0,0,1.13,1.59Z"/><path class="cls-2" d="M32.7,29.41h-.13L27.66,29h0l-.09,0a1.75,1.75,0,0,1-1.44-2l.13-.87a1.77,1.77,0,0,1,2.13-1.32l4.8,1.15a1.77,1.77,0,0,1-.47,3.48Zm-5-1.16,4.91.39a1,1,0,0,0,1.07-.85A1,1,0,0,0,33,26.68L28.2,25.53a1,1,0,0,0-.76.12,1,1,0,0,0-.45.63l-.12.81a1,1,0,0,0,.81,1.16v.38Z"/><circle class="cls-2" cx="14.46" cy="46.07" r="0.6"/><circle class="cls-21" cx="16.7" cy="44.94" r="0.33"/><circle class="cls-21" cx="11.98" cy="45.79" r="0.33"/><circle class="cls-21" cx="16.7" cy="45.94" r="0.18"/><circle class="cls-21" cx="10.93" cy="45.09" r="0.11"/><circle class="cls-21" cx="12.04" cy="44.74" r="0.22"/><circle class="cls-21" cx="13.14" cy="46.17" r="0.32"/><circle class="cls-21" cx="26.8" cy="44.75" r="0.33"/><circle class="cls-21" cx="28.68" cy="45.45" r="0.67"/><circle class="cls-21" cx="27.61" cy="43.36" r="0.28"/><circle class="cls-21" cx="26.61" cy="43.63" r="0.33"/><path class="cls-22" d="M19.15,54.89c-.3-.31-.95.06-.95-.39h0c0-1.77,2.45-4.36,4.46-4.36h2.28c2,0,3.87,2.63,3.87,4.4h0c0,.5-1.24.34-1.61.65l-3.39.25Z"/><path class="cls-23" d="M28.81,54.66a12,12,0,0,1-2.46.75l-2.54.19-4.17-.46a7.66,7.66,0,0,1-1.14-.39,23.82,23.82,0,0,0,9.63-2.2A4.53,4.53,0,0,1,28.81,54.66Z"/><path class="cls-2" d="M28.82,55a.43.43,0,0,1-.44-.44c0-2.25-2.23-4.08-5-4.08s-4.72,1.58-5,3.68a.43.43,0,0,1-.49.38.44.44,0,0,1-.38-.49c.3-2.53,2.81-4.45,5.84-4.45,3.28,0,5.85,2.18,5.85,5A.44.44,0,0,1,28.82,55Z"/><path class="cls-2" d="M24.07,56h-.51A12.24,12.24,0,0,1,12.87,50.6a3.52,3.52,0,0,1-.57-1.94v-.34a.49.49,0,0,1,1,0v.34a2.57,2.57,0,0,0,.41,1.4A11.26,11.26,0,0,0,23.49,55h.11a11.23,11.23,0,0,0,9.79-4.94,2.45,2.45,0,0,0,.42-1.39v-.34a.49.49,0,0,1,1,0v.34a3.47,3.47,0,0,1-.58,1.93A12.16,12.16,0,0,1,24.07,56Z"/><circle class="cls-10" cx="36.97" cy="80.91" r="0.88"/><circle class="cls-8" cx="36.02" cy="77.14" r="0.46"/><circle class="cls-8" cx="34.65" cy="80.45" r="0.46"/><circle class="cls-10" cx="26.69" cy="88.75" r="1.07"/><circle class="cls-8" cx="27.91" cy="86.02" r="0.29"/><path class="cls-2" d="M3.65,81.77l-.14,0a.48.48,0,0,1-.33-.6,20.45,20.45,0,0,1,1.28-3.28.49.49,0,1,1,.87.43,20.39,20.39,0,0,0-1.22,3.12A.48.48,0,0,1,3.65,81.77Z"/><circle class="cls-2" cx="2.96" cy="83.36" r="0.52"/><circle class="cls-2" cx="18.83" cy="96.74" r="0.52"/><path class="cls-2" d="M14.24,48.22a10.13,10.13,0,0,1-8.41-4.51.34.34,0,0,1,0-.34.37.37,0,0,1,.3-.19,9,9,0,0,0,3.52-.81.34.34,0,0,1,.44.17.33.33,0,0,1-.16.45,9.74,9.74,0,0,1-3.16.84,9.42,9.42,0,0,0,7.89,3.7A18.2,18.2,0,0,0,22.83,45a.34.34,0,0,1,.35.59,19,19,0,0,1-8.5,2.67Z"/><path class="cls-2" d="M32.59,48.22h-.43a18.86,18.86,0,0,1-8.52-2.67A.34.34,0,1,1,24,45a18.24,18.24,0,0,0,8.21,2.58,9.44,9.44,0,0,0,7.87-3.69c-1.58-.14-3.35-.8-6.52-2.38-2.83-1.42-6-.27-7.21.29a.34.34,0,1,1-.29-.61c1.32-.61,4.72-1.84,7.81-.29,3.92,2,5.43,2.33,6.85,2.33a.32.32,0,0,1,.29.18.34.34,0,0,1,0,.35A10.12,10.12,0,0,1,32.59,48.22Z"/><polygon class="cls-23" points="24.27 54.93 23.45 51.57 22.82 54.93 24.27 54.93"/></g></g></svg>