<svg xmlns="http://www.w3.org/2000/svg" viewBox="0 0 49.8 85.19"><defs><style>.cls-1{fill:#383838;}.cls-2,.cls-21{fill:#232323;}.cls-3{fill:#000201;}.cls-22,.cls-4,.cls-8{fill:#fff;}.cls-4{opacity:0.55;}.cls-14,.cls-19,.cls-21,.cls-22,.cls-23,.cls-4,.cls-6{isolation:isolate;}.cls-5{fill:#f2563d;}.cls-6,.cls-7{fill:#e52b17;}.cls-6{opacity:0.4;}.cls-9{fill:#ffd2d9;}.cls-10{fill:#f2ab83;}.cls-11,.cls-23{fill:#d87d55;}.cls-12{fill:#1e1e30;}.cls-13,.cls-14{fill:#e28b60;}.cls-14,.cls-22{opacity:0.5;}.cls-15{fill:#5e5e5e;}.cls-16{fill:#fc5454;}.cls-17{fill:#dd2c2c;}.cls-18{fill:#e8e2dd;}.cls-19{fill:#c6bdb6;opacity:0.3;}.cls-20{fill:#181828;}.cls-21,.cls-23{opacity:0.45;}</style></defs><g id="Layer_2" data-name="Layer 2"><g id="Layer_1-2" data-name="Layer 1"><polyline class="cls-1" points="40.8 22.81 35.36 51.19 38.64 61.49 39.93 61.27 40.78 59.33 42.36 61.43 43.81 66.94 45.48 66.25 46.44 62.02 49.37 62.29 46.09 45.76 45.84 30.23 45.33 22.32"/><path class="cls-2" d="M43.82,26.76V38.09a18.2,18.2,0,0,1-8.19,15.23L35,51.42l.27-1.4a18.18,18.18,0,0,0,6.5-14V24.76a12.26,12.26,0,0,0-.09-1.82l1.67-.18A17.91,17.91,0,0,1,43.82,26.76Z"/><path class="cls-1" d="M3.49,39.42C.33,26.25,1.93,14.57,7.08,13.33S19,21.78,22.08,35s-1.49,32.77-6.64,34S6.65,52.59,3.49,39.42Z"/><path class="cls-2" d="M22.35,52.26a49.12,49.12,0,0,1-1.36,6,18.27,18.27,0,0,1-15.39-18v-6.2A18.26,18.26,0,0,0,22.35,52.26Z"/><path class="cls-3" d="M49.37,62.72a.42.42,0,0,1-.41-.31A94.31,94.31,0,0,1,45.16,38a.42.42,0,0,1,.42-.44.43.43,0,0,1,.44.42,93.53,93.53,0,0,0,3.76,24.24.42.42,0,0,1-.29.53Z"/><path class="cls-3" d="M14.06,68.41A3,3,0,0,1,12.52,68C9,65.76,6.79,56,4.44,45.6,4,43.54,3.5,41.49,3,39.5-.24,25.86,1.49,14.14,7,12.82a5.45,5.45,0,0,1,4.16.87c4.57,2.81,9.06,11.09,11.44,21.12A51.15,51.15,0,0,1,24,51.53a.5.5,0,0,1-.53.45.49.49,0,0,1-.45-.53A50.41,50.41,0,0,0,21.62,35c-2.29-9.63-6.71-17.87-11-20.5a4.43,4.43,0,0,0-3.4-.76C2.43,14.93,1,26.61,4,39.27c.48,2,1,4,1.41,6.11,2.21,9.72,4.49,19.76,7.65,21.73a1.81,1.81,0,0,0,1.43.26c1.06-.26,6-7.63,7.05-9.83a.5.5,0,0,1,.9.43c-.58,1.2-5.88,9.91-7.71,10.36A3,3,0,0,1,14.06,68.41Z"/><circle class="cls-4" cx="23.88" cy="53" r="0.22"/><circle class="cls-4" cx="23.88" cy="54.05" r="0.29"/><path class="cls-5" d="M23.79,58.08h0A18.31,18.31,0,0,1,42.1,76.39h0a8.48,8.48,0,0,1-8.48,8.48H14A8.48,8.48,0,0,1,5.5,76.39h0A18.32,18.32,0,0,1,23.79,58.08Z"/><path class="cls-6" d="M23.53,72.62A8.87,8.87,0,0,0,31,69.16C32.58,67,33.1,64.1,32.3,60c0,.61,2.22,1.33,2.23,1.33a15.11,15.11,0,0,1,2.44,2,18.28,18.28,0,0,1,5.37,13,8.48,8.48,0,0,1-8.48,8.48H14.21a21.38,21.38,0,0,1-4.16-1.15c-.48-1.61-1-3.42-.49-5s2-2.79,3.68-3.79c.28-.16.57-.32.87-.47a17.1,17.1,0,0,1,8.23-1.7Z"/><path class="cls-7" d="M42.1,75.35a8.48,8.48,0,0,1-8.48,8.48H14A8.66,8.66,0,0,1,11,83.32a5.33,5.33,0,0,1,0-2.25,5.65,5.65,0,0,1,3.13-3.89c3.06-1.39,6.57.17,9.93.33a13.5,13.5,0,0,0,11.7-6.57,16.44,16.44,0,0,0,2.28-7A18.21,18.21,0,0,1,42.1,75.35Z"/><path class="cls-3" d="M33.85,85.19H14.12a8.91,8.91,0,0,1-8.91-8.91,14.05,14.05,0,0,1,0-1.44.43.43,0,1,1,.86.1,11.65,11.65,0,0,0,0,1.34,8.06,8.06,0,0,0,8,8H33.78a8.1,8.1,0,0,0,8.09-8.1A17.91,17.91,0,0,0,24,58.35h0A18,18,0,0,0,6.82,71.14.44.44,0,1,1,6,70.9a18.84,18.84,0,0,1,18-13.41h0A18.76,18.76,0,0,1,42.73,76.23,8.92,8.92,0,0,1,33.85,85.19Z"/><circle class="cls-7" cx="33.11" cy="73.47" r="2.04"/><circle class="cls-7" cx="30.35" cy="75.29" r="0.6"/><path class="cls-8" d="M10,67.8a.45.45,0,0,1-.19,0,.37.37,0,0,1-.12-.5,15,15,0,0,1,1.41-1.94.35.35,0,1,1,.54.46,14.2,14.2,0,0,0-1.33,1.85A.36.36,0,0,1,10,67.8Z"/><circle class="cls-8" cx="12.46" cy="64.58" r="0.5"/><path class="cls-9" d="M7.49,70.64H7.37a.36.36,0,0,1-.22-.46h0c.11-.32,2.83-7.92,9.7-10.23a.36.36,0,0,1,.47.19.35.35,0,0,1-.19.47l-.05,0c-6.53,2.2-9.22,9.71-9.25,9.79A.35.35,0,0,1,7.49,70.64Z"/><circle class="cls-9" cx="15.33" cy="61.67" r="0.55"/><circle class="cls-9" cx="14.79" cy="62.76" r="0.37"/><path class="cls-3" d="M33,80.4h7.39a.38.38,0,0,1,.38.38h0a.38.38,0,0,1-.37.37H33a.38.38,0,0,1-.38-.36h0A.38.38,0,0,1,33,80.4Z"/><path class="cls-3" d="M29.62,80.4h1.05a.38.38,0,0,1,0,.75H29.62a.38.38,0,0,1-.38-.36h0a.38.38,0,0,1,.38-.38Z"/><circle class="cls-10" cx="4.34" cy="33.36" r="4"/><circle class="cls-11" cx="4.7" cy="33.14" r="1.69"/><path d="M4.34,37.7a4.34,4.34,0,1,1,4.34-4.34h0A4.36,4.36,0,0,1,4.34,37.7Zm0-8A3.67,3.67,0,1,0,8,33.4v0A3.68,3.68,0,0,0,4.34,29.7Z"/><path d="M6.35,32.54a.23.23,0,0,1-.19-.1c-.73-1.11-2.65-1-2.68-1a.27.27,0,0,1-.24-.23.22.22,0,0,1,.2-.24h0c.09,0,2.21-.08,3.09,1.25a.23.23,0,0,1-.07.32H6.35Z"/><path d="M4,34a.23.23,0,0,1-.23-.23h0a4,4,0,0,1,1.16-2.35.23.23,0,1,1,.33.33,3.54,3.54,0,0,0-1,2A.24.24,0,0,1,4,34Z"/><circle class="cls-10" cx="43.42" cy="33.36" r="4"/><circle class="cls-11" cx="43.06" cy="33.14" r="1.69"/><path d="M43.42,37.7a4.34,4.34,0,1,1,4.34-4.34h0A4.36,4.36,0,0,1,43.42,37.7Zm0-8a3.67,3.67,0,1,0,3.66,3.68v0A3.67,3.67,0,0,0,43.42,29.7Z"/><path d="M41.4,32.54a.23.23,0,0,1-.23-.23.2.2,0,0,1,0-.13c.88-1.33,3-1.25,3.08-1.25a.23.23,0,0,1,.23.23h0a.24.24,0,0,1-.24.23h-.07a3.33,3.33,0,0,0-2.61,1.05A.22.22,0,0,1,41.4,32.54Z"/><path d="M43.82,34a.23.23,0,0,1-.23-.23h0a3.54,3.54,0,0,0-1-2,.22.22,0,0,1,0-.31l0,0a.24.24,0,0,1,.33,0,4,4,0,0,1,1.16,2.35.24.24,0,0,1-.26.22Z"/><path class="cls-12" d="M29.6,49.13a.42.42,0,0,1-.43-.41h0V9.65a.43.43,0,1,1,.86,0V48.76A.43.43,0,0,1,29.6,49.13Z"/><path class="cls-12" d="M16.63,51.4A.44.44,0,0,1,16.2,51V11a.43.43,0,0,1,.86,0V51a.42.42,0,0,1-.42.42Z"/><path class="cls-10" d="M21.18,48.16h4.94V58a2.49,2.49,0,0,1-2.47,2.47h0A2.49,2.49,0,0,1,21.18,58Z"/><path class="cls-13" d="M25.9,52.5v2.2c-.92-.21-.59,1.61-2.56,1.53-2,.08-1.8-1.85-2.38-3V52.5Z"/><path class="cls-3" d="M23.6,60.86A2.83,2.83,0,0,1,20.77,58h0V48.21a.34.34,0,0,1,.32-.36h5a.33.33,0,0,1,.36.3V58a2.84,2.84,0,0,1-2.84,2.84ZM21.49,48.57V58a2.11,2.11,0,0,0,4.2.41,1.77,1.77,0,0,0,0-.23.54.54,0,0,0,0-.18V48.57Z"/><path class="cls-10" d="M23.87,6.24h0A18.25,18.25,0,0,1,42.12,24.49h0V35.83A18.26,18.26,0,0,1,23.87,54.09h0A18.27,18.27,0,0,1,5.61,35.83V20.48C5.61,10.4,13.78,6.24,23.87,6.24Z"/><path class="cls-14" d="M23.87,6.24h0A18.25,18.25,0,0,1,42.12,24.49h0V35.83A18.26,18.26,0,0,1,23.87,54.09h0Z"/><path class="cls-11" d="M42.4,19.52V35.67A18.25,18.25,0,0,1,24.16,53.93H22.85A18.24,18.24,0,0,0,38.61,42.24a13.18,13.18,0,0,0,1.21-5.53v-1c-2,.23,0-2.73-.07-5.91,0-2.72-3.24-6.92-.78-8.08l.34-.12c0-3.2-6.9-8.23-10.07-10.18-4.41-2.72,0-4.8-6.39-5.25h1.3c10.08,0,18.25,5,18.25,15V19.52Z"/><path class="cls-8" d="M25,54.05c-.41,0-.68-.28-1.09-.28A18.13,18.13,0,0,1,5.49,35.93V21.28c0-10.08,8.18-15,18.26-15H25C15.4,6.92,7.13,11.38,7.13,21V35.53C7.12,45.14,15.38,53.4,25,54.05Z"/><circle class="cls-8" cx="10.46" cy="17.63" r="1.21"/><circle class="cls-8" cx="13.25" cy="16.28" r="0.54"/><circle class="cls-8" cx="12.39" cy="17.47" r="0.18"/><circle class="cls-8" cx="12.19" cy="16.14" r="0.29"/><path class="cls-3" d="M42.12,36.31a.49.49,0,0,1-.48-.48V20.48c0-12.42-12.43-13.76-17.77-13.76S6.09,8.06,6.09,20.48V35.83a.48.48,0,1,1-1,0V20.48c0-9.22,7-14.72,18.74-14.72S42.6,11.26,42.6,20.48V35.83A.49.49,0,0,1,42.12,36.31Z"/><path class="cls-8" d="M2,31.94a1.8,1.8,0,0,1,.88-1c.35-.13.21-.7-.15-.56a2.3,2.3,0,0,0-1.24,1.23c-.15.35.35.65.51.31Z"/><ellipse class="cls-8" cx="1.32" cy="33.04" rx="0.47" ry="0.38" transform="translate(-31.55 29.52) rotate(-81.6)"/><path class="cls-3" d="M9.51,76.88a.24.24,0,0,1-.12,0,.33.33,0,0,1-.18-.41h0L11,72.3a.33.33,0,0,1,.43-.17.32.32,0,0,1,.17.42h0L9.8,76.72A.32.32,0,0,1,9.51,76.88Z"/><path class="cls-3" d="M11.86,74.86h-.12a.31.31,0,0,1-.18-.41h0l.95-2.24a.32.32,0,1,1,.59.26h0l-.94,2.23A.34.34,0,0,1,11.86,74.86Z"/><path class="cls-15" d="M27.4,25.67l7.72-1.36a2.18,2.18,0,0,0,1.8-2.38h0c-.11-1.14-1-.86-2.09-.84L27,21.24a2.21,2.21,0,0,0-2.16,2.26c0,.05,0,.1,0,.15v.11a2.19,2.19,0,0,0,2.42,1.93Z"/><path class="cls-1" d="M27.4,25.67l7.72-1.36a2.18,2.18,0,0,0,1.8-2.38h0c-.11-1.14.41.69-.74.71L25.8,24.5c-1.28,0-1.08-2.12-1-.85v.11a2.19,2.19,0,0,0,2.42,1.94Z"/><path class="cls-3" d="M27,26a2.44,2.44,0,0,1-2.43-2.22v-.13a.62.62,0,0,1,0-.15A2.46,2.46,0,0,1,27,21l3.11-.07a.29.29,0,0,1,.26.25.25.25,0,0,1-.25.26L27,21.5a1.95,1.95,0,0,0-1.9,2v.27A1.85,1.85,0,0,0,25.79,25a1.87,1.87,0,0,0,1.41.44l.16,0,7.73-1.36A1.94,1.94,0,0,0,36.68,22c-.07-.68-.37-.69-1.28-.64l-.55,0H33.5a.26.26,0,0,1-.26-.25.26.26,0,0,1,.26-.26h1.34l.53,0c.84-.05,1.7-.1,1.81,1.1a2.43,2.43,0,0,1-2,2.65L27.45,26l-.2,0Z"/><circle class="cls-1" cx="28.88" cy="23.82" r="0.58"/><circle class="cls-1" cx="30.33" cy="22.98" r="0.31"/><circle class="cls-1" cx="26.81" cy="24.12" r="0.75"/><path class="cls-15" d="M20.22,25.67,12.5,24.31a2.21,2.21,0,0,1-1.81-2.38h0c.11-1.14,1-.86,2.1-.84l7.84.15a2.2,2.2,0,0,1,2.15,2.25.86.86,0,0,1,0,.16v.07a2.19,2.19,0,0,1-2.39,2Z"/><path class="cls-1" d="M20.22,25.67,12.5,24.31a2.21,2.21,0,0,1-1.81-2.38h0c.11-1.14-.4.69.74.71L21.82,24.5c1.28,0,1.08-2.12.95-.85v.07a2.19,2.19,0,0,1-2.39,2Z"/><path class="cls-3" d="M20.59,26h-.23l-.2,0-7.72-1.36a2.46,2.46,0,0,1-2-2.65c.11-1.2,1-1.15,1.81-1.1l.54,0h1.34a.26.26,0,0,1,.25.26.25.25,0,0,1-.25.25H12.77l-.56,0c-1-.06-1.22,0-1.29.63a2,2,0,0,0,1.6,2.11l7.72,1.36.17,0a2,2,0,0,0,2.11-1.74v-.22a1.93,1.93,0,0,0-1.9-2l-3.1-.07a.25.25,0,0,1-.25-.26.3.3,0,0,1,.26-.25l3.11.07A2.45,2.45,0,0,1,23,23.5a.91.91,0,0,1,0,.17v0A2.43,2.43,0,0,1,20.59,26Z"/><circle class="cls-1" cx="18.73" cy="23.82" r="0.58"/><circle class="cls-1" cx="17.29" cy="22.98" r="0.31"/><circle class="cls-1" cx="20.8" cy="24.12" r="0.75"/><path class="cls-1" d="M30,9.22s11.09,5.84,12.05,13l4,8.17.21-14V14L45.15,9.4,41.6,4.83,38.38,2.42"/><path class="cls-1" d="M39.31,9.64a6.73,6.73,0,0,0-2.08-.4,5.48,5.48,0,0,0-2.91.73c-.23.14-.45.3-.68.45s-.4.23-.61.33C31.35,9.64,30.12,9,30.12,9l7-1.72,2.17,2.31Z"/><circle class="cls-1" cx="22.85" cy="6.02" r="0.33"/><path class="cls-8" d="M7.55,9.58a.48.48,0,0,1-.26-.07.51.51,0,0,1-.17-.69,12.35,12.35,0,0,1,4-4.07.5.5,0,1,1,.52.86A11.15,11.15,0,0,0,8,9.34.52.52,0,0,1,7.55,9.58Z"/><circle class="cls-8" cx="8.53" cy="8.92" r="0.53"/><circle class="cls-8" cx="10.4" cy="6.58" r="0.42"/><circle class="cls-8" cx="9.99" cy="8.29" r="0.24"/><circle class="cls-8" cx="7.52" cy="11.4" r="0.48"/><circle class="cls-8" cx="7.01" cy="12.66" r="0.23"/><rect class="cls-8" x="6.5" y="25.22" width="1.45" height="7.51" rx="0.72"/><path class="cls-3" d="M39.41,62.13a1.31,1.31,0,0,1-1.29-1.07L34.74,50.68a.43.43,0,1,1,.82-.26L39,60.85a.47.47,0,0,0,.54.41.44.44,0,0,0,.35-.33l.59-2.29a.43.43,0,0,1,.53-.31.44.44,0,0,1,.31.53l-.59,2.28a1.33,1.33,0,0,1-1,1Z"/><path class="cls-3" d="M44.65,67.33a1.31,1.31,0,0,1-1.25-.92l-2-6a.44.44,0,0,1,.27-.54.44.44,0,0,1,.55.27l2,6a.4.4,0,0,0,.22.27.45.45,0,0,0,.34,0,.45.45,0,0,0,.31-.34l1-4.24a.44.44,0,0,1,.52-.32.44.44,0,0,1,.32.52l-1,4.23a1.34,1.34,0,0,1-.89,1A1.32,1.32,0,0,1,44.65,67.33Z"/><path class="cls-3" d="M25.41,54.37H22.1c-1.39-.32-3.63-1-6.66-2.08a14.86,14.86,0,0,1-6.6-4.57A15.74,15.74,0,0,1,5.36,37.62a.48.48,0,0,1,.48-.47h0a.48.48,0,0,1,.47.49A14.77,14.77,0,0,0,9.58,47.1a14,14,0,0,0,6.18,4.28c3,1,5.15,1.71,6.51,2h3.08c1.37-.32,3.55-1,6.5-2A13.94,13.94,0,0,0,38,47.09a14.74,14.74,0,0,0,3.27-9.45.48.48,0,0,1,.47-.49h0a.48.48,0,0,1,.48.47A15.71,15.71,0,0,1,38.77,47.7a14.8,14.8,0,0,1-6.6,4.58c-3,1.06-5.26,1.75-6.65,2.08Z"/><path class="cls-16" d="M23.24,49c-2.29-.27-3.63-1.85-6.19-3.3a11,11,0,0,0,1.76.57,6.77,6.77,0,0,0,2.91-1,1.26,1.26,0,0,1,.63-.13l-.51.09c.29.18.52.09.82.24a2.55,2.55,0,0,0,2.74-.29l.2.11c.11,0,.18.16.3.22a4.77,4.77,0,0,0,4.52.24,16.65,16.65,0,0,0-2.15,1.69A8.24,8.24,0,0,1,24.21,49Z"/><path class="cls-17" d="M25.69,48.76a7,7,0,0,1-1.7.18H23a12,12,0,0,1-4.74-2.21,11.83,11.83,0,0,0-1.44-1.09,14.19,14.19,0,0,0,2,.66,6.14,6.14,0,0,0,2.74-1h0c-.13.72,1.2,1.67,2,1.64-.54.41-2.16-.1-2.81-.28.94.66,2.08,1.75,3.9,1.56C25,48.14,25.4,48.63,25.69,48.76Z"/><circle class="cls-18" cx="43.94" cy="37.05" r="2.4"/><path class="cls-19" d="M45.05,34.93a2.4,2.4,0,0,1-3.24,3.23A2.4,2.4,0,1,0,46.11,36s0-.05,0-.08A2.29,2.29,0,0,0,45.05,34.93Z"/><ellipse class="cls-8" cx="42.63" cy="36.35" rx="0.72" ry="0.44" transform="translate(-8.2 59.92) rotate(-65.33)"/><path class="cls-20" d="M43.81,39.82a2.76,2.76,0,1,1,2.76-2.76h0A2.77,2.77,0,0,1,43.81,39.82Zm0-4.8a2,2,0,1,0,2,2h0A2,2,0,0,0,43.81,35Z"/><circle class="cls-18" cx="4.6" cy="36.84" r="2.4"/><path class="cls-19" d="M5.71,34.76A2.4,2.4,0,0,1,2.47,38a2.41,2.41,0,0,0,4.39-2,1.34,1.34,0,0,0-.12-.24A2.34,2.34,0,0,0,5.71,34.76Z"/><ellipse class="cls-8" cx="3.28" cy="36.14" rx="0.72" ry="0.44" transform="translate(-30.93 24.03) rotate(-65.33)"/><path class="cls-20" d="M4.47,39.62a2.76,2.76,0,1,1,2.77-2.76h0a2.77,2.77,0,0,1-2.76,2.76Zm0-4.8a2,2,0,1,0,2,2h0a2,2,0,0,0-2-2Z"/><path class="cls-3" d="M46.1,30.7h0a.55.55,0,0,1-.52-.56l.34-10.78a15.51,15.51,0,0,0-.22-3.11.54.54,0,0,1,.44-.62.55.55,0,0,1,.62.44A17.71,17.71,0,0,1,47,19.4l-.33,10.78A.54.54,0,0,1,46.1,30.7Z"/><rect class="cls-3" x="16.35" y="27.37" width="3.71" height="4.79" rx="1.85"/><path class="cls-3" d="M16.09,28.54a6.74,6.74,0,0,1-.9-1.56,9.44,9.44,0,0,0,1,1,6.84,6.84,0,0,1-.45-1.78A7.89,7.89,0,0,0,17,28.13c.32.32.15.38-.1.35.34.19.27.29.09.34a4,4,0,0,0-.68.42,7,7,0,0,1-1.8-1.34A10,10,0,0,0,16.09,28.54Z"/><circle class="cls-8" cx="16.37" cy="29.4" r="0.89"/><path class="cls-3" d="M31.34,28.55a7,7,0,0,0,.84-1.6,10,10,0,0,1-1,1.06,7,7,0,0,0,.38-1.8,8.19,8.19,0,0,1-1.17,2c-.31.33-.14.37.11.34-.33.2-.26.29-.07.34a4.26,4.26,0,0,1,.7.39,7,7,0,0,0,1.74-1.41A10.47,10.47,0,0,1,31.34,28.55Z"/><rect class="cls-3" x="27.83" y="27.37" width="3.71" height="4.79" rx="1.85"/><circle class="cls-8" cx="28.25" cy="29.4" r="0.89"/><path class="cls-3" d="M24,42.4a.49.49,0,0,1-.48-.48V33.45a.48.48,0,1,1,1,0v8.47A.49.49,0,0,1,24,42.4Z"/><path class="cls-1" d="M14.86,2.88a15.08,15.08,0,0,1,3.21-.4c1.08,0,2.15.07,3.23,0a32,32,0,0,0,6.58-1.26A19.07,19.07,0,0,1,34.51.43a7.4,7.4,0,0,1,5.63,3.2C33.49,19.73,5.69,19.18,5.69,19.18l-.24,1.2s-.23-1.16-.4-2.68A2.8,2.8,0,0,0,5,17a15.3,15.3,0,0,1,.16-4.48L6.47,9.22a12.06,12.06,0,0,1,4.16-4.58l.62-.38"/><path class="cls-2" d="M40.41,3.37C33.76,19.47,6,18.92,6,18.92l-.24,1.2s-.23-1.16-.4-2.68c0-.24-.05-.49-.07-.75a23.63,23.63,0,0,1-.07-2.79,6.73,6.73,0,0,0,.07,1.19c.07.39,0,.5.07.75.17,1.52.4,2.67.4,2.67l-.24-1.42S32.62,17.84,40,2.74A5.47,5.47,0,0,1,40.41,3.37Z"/><path class="cls-2" d="M42.27,5.69a19,19,0,0,1-6.12,7.64c-.77-.66-1.55-1.25-2.28-1.77a19.09,19.09,0,0,0,6.3-7.82l1.41,1Z"/><path class="cls-3" d="M46.13,14.55a.52.52,0,0,1-.53-.5c-.28-4.2-3.23-7.55-4.49-8.8a.54.54,0,1,1,.76-.76c1.34,1.33,4.5,4.93,4.79,9.49a.53.53,0,0,1-.49.57Z"/><path class="cls-3" d="M5.61,21a.49.49,0,0,1-.47-.39s-.24-1.18-.41-2.72a2.6,2.6,0,0,0-.05-.66,15.75,15.75,0,0,1,.15-4.71.48.48,0,0,1,.94.18A15.1,15.1,0,0,0,5.62,17a2.91,2.91,0,0,1,.07.79c.16,1.44.39,2.57.39,2.59A.48.48,0,0,1,5.7,21Z"/><circle class="cls-3" cx="5.85" cy="10.92" r="0.52"/><circle class="cls-3" cx="17.6" cy="34.74" r="0.52"/><circle class="cls-3" cx="13.08" cy="3.64" r="0.52"/><circle class="cls-3" cx="48" cy="62.22" r="0.52"/><path class="cls-3" d="M15,3.46a.49.49,0,0,1-.47-.37.48.48,0,0,1,.36-.58,16,16,0,0,1,3.31-.41h3.24a24.75,24.75,0,0,0,5.22-.92.48.48,0,0,1,.26.92,25.21,25.21,0,0,1-5.45,1H18.23a14.78,14.78,0,0,0-3.1.39Z"/><path class="cls-3" d="M6.13,19.76H5.84a.48.48,0,0,1,0-1h.24c2.66,0,27.36-.41,33.66-15A6.85,6.85,0,0,0,34.64,1a15.1,15.1,0,0,0-4.5.32.48.48,0,0,1-.22-.94A16.07,16.07,0,0,1,34.71.05a7.88,7.88,0,0,1,6,3.41.45.45,0,0,1,0,.45C38,10.64,31,15.52,20.69,18A66.82,66.82,0,0,1,6.13,19.76Z"/><path class="cls-3" d="M42.1,23.72a.49.49,0,0,1-.48-.48c0-3.95-3.7-7.64-6.81-10a.48.48,0,1,1,.58-.76c3.28,2.53,7.19,6.45,7.19,10.79A.49.49,0,0,1,42.1,23.72Z"/><circle class="cls-2" cx="25.27" cy="13.3" r="1.19"/><circle class="cls-2" cx="11.62" cy="17.06" r="0.6"/><circle class="cls-2" cx="19.88" cy="12.54" r="1.03"/><circle class="cls-21" cx="16.41" cy="13.97" r="0.46"/><circle class="cls-21" cx="16.54" cy="11.94" r="0.33"/><circle class="cls-21" cx="23.58" cy="11.94" r="0.33"/><circle class="cls-21" cx="13.18" cy="14.2" r="0.79"/><path class="cls-8" d="M7.09,10.2a.59.59,0,0,1-.22,0,.48.48,0,0,1-.21-.65A12.53,12.53,0,0,1,11,4.73l.62-.38a.48.48,0,0,1,.5.82l-.61.37a11.5,11.5,0,0,0-4,4.4A.51.51,0,0,1,7.09,10.2Z"/><path class="cls-3" d="M6.63,9.81a.59.59,0,0,1-.22-.05.49.49,0,0,1-.21-.65,12.5,12.5,0,0,1,4.33-4.77c.19-.13.4-.25.61-.37a.5.5,0,0,1,.67.17.47.47,0,0,1-.16.65l0,0a6.32,6.32,0,0,0-.56.33,11.6,11.6,0,0,0-4,4.41A.51.51,0,0,1,6.63,9.81Z"/><circle class="cls-8" cx="9.48" cy="8.2" r="0.53"/><circle class="cls-8" cx="11.35" cy="5.86" r="0.42"/><circle class="cls-8" cx="10.95" cy="7.57" r="0.24"/><circle class="cls-8" cx="8.47" cy="10.68" r="0.48"/><circle class="cls-8" cx="7.96" cy="11.94" r="0.23"/><circle class="cls-2" cx="12.76" cy="54.31" r="1.81"/><circle class="cls-2" cx="13.83" cy="58.62" r="0.7"/><circle class="cls-2" cx="8.91" cy="53.07" r="0.57"/><circle class="cls-2" cx="8.46" cy="49.54" r="0.78"/><circle class="cls-2" cx="16.24" cy="56.62" r="1.01"/><circle class="cls-2" cx="12.14" cy="56.87" r="0.25"/><polygon class="cls-8" points="36.63 35.47 35.38 35.24 36.49 23.38 37.79 23.29 36.63 35.47"/><polygon class="cls-22" points="34.61 35.24 33.81 35.24 34.96 23.63 35.72 23.52 34.61 35.24"/><polygon class="cls-22" points="28.04 34.4 27.38 34.4 28.33 25.09 28.95 24.99 28.04 34.4"/><polygon class="cls-8" points="11.33 35.47 10.07 35.24 11.19 23.38 12.48 23.29 11.33 35.47"/><polygon class="cls-22" points="12.95 35.24 12.14 35.24 13.29 23.63 14.01 23.96 12.95 35.24"/><path class="cls-3" d="M11.87,35.83a3.09,3.09,0,0,1-3.12-3.07L7.75,26a3.1,3.1,0,0,1,3.08-3.12l8.46,2h0a3,3,0,0,1,3,3.06v3.9A3.08,3.08,0,0,1,21.35,34a3.11,3.11,0,0,1-2.19.85.32.32,0,1,1,0-.64,2.33,2.33,0,0,0,1.73-.67,2.41,2.41,0,0,0,.75-1.71V27.94a2.43,2.43,0,0,0-2.43-2.43h-.08l-8.39-2a2.45,2.45,0,0,0-2.37,2.44l1,6.77a2.46,2.46,0,0,0,2.44,2.48L16,34.58a.33.33,0,0,1,.37.27.33.33,0,0,1-.27.37l-4.17.61Z"/><path class="cls-3" d="M25.9,31.62h-4a.32.32,0,0,1,0-.64h4a.32.32,0,0,1,0,.64Z"/><circle class="cls-17" cx="23.87" cy="48.23" r="0.22"/><circle class="cls-17" cx="22.81" cy="47.61" r="0.13"/><circle class="cls-17" cx="23.22" cy="47.84" r="0.07"/><path class="cls-11" d="M22.66,42.48c.92.34,1.53.06,2.58.15a2,2,0,0,1-1.32.62,1.55,1.55,0,0,1-.76-.18A1,1,0,0,1,22.66,42.48Z"/><path class="cls-11" d="M22.21,49.47c1.18.38,2,.1,3.34.23a2.86,2.86,0,0,1-1.73.62,2.89,2.89,0,0,1-1-.21A1.13,1.13,0,0,1,22.21,49.47Z"/><path class="cls-11" d="M34.3,49.27c.89-.76.89-2.1.9-3.27,0-2.17.43-4.6,2.18-5.89.35-.27.74-.47,1.08-.75,1.25-1,1.53-2.77,1.73-4.36-.48,2-.17,4.06-.44,6.12-.23,1.81-.51,3.48-1.75,4.81"/><path class="cls-3" d="M23.58,47.13h0l-2-.24-3.2-.15a.2.2,0,0,1-.11,0c-.3-.19-.54-.33-.81-.47A5.21,5.21,0,0,1,17,46a.24.24,0,0,1-.08-.31.23.23,0,0,1,.3-.1l.44.23c1.42.62,2.55.08,3.65-.46l.59-.27a.67.67,0,0,1,.49-.07.13.13,0,0,1,.08,0,2.46,2.46,0,0,0,2.66,0,.89.89,0,0,1,.62,0l.53.25c1.13.53,2.3,1.08,3.59.59l.52-.25a.23.23,0,0,1,.3.1.24.24,0,0,1-.08.31,4.77,4.77,0,0,1-.56.27c-.36.18-.72.37-1.06.58a.24.24,0,0,1-.31-.07L26,46.91l-1.1.2a.25.25,0,0,1-.27-.19.24.24,0,0,1,.19-.27l1.13-.2,1.87-.07A10.8,10.8,0,0,1,26,45.69l-.5-.24a.31.31,0,0,0-.25,0,2.86,2.86,0,0,1-3.07,0,.26.26,0,0,0-.15,0l-.6.28a11.6,11.6,0,0,1-1.39.59l1.51.06,2,.24a.23.23,0,0,1,0,.46Z"/><ellipse class="cls-11" cx="35.01" cy="47.94" rx="0.71" ry="1.04"/><circle class="cls-23" cx="34.27" cy="45.51" r="0.25"/><circle class="cls-11" cx="33.17" cy="48.45" r="0.17"/><circle class="cls-11" cx="32.2" cy="50.22" r="0.33"/><circle class="cls-11" cx="33.62" cy="49.26" r="0.28"/><circle class="cls-23" cx="33.6" cy="46.77" r="0.26"/><circle class="cls-23" cx="34.96" cy="42.32" r="0.19"/><path class="cls-11" d="M28.74,34.56a3.52,3.52,0,0,0,1.8,1.4c1.37.46,2.87,0,4.3.21a3.57,3.57,0,0,0,2.24-.65c-.25-.45-1.47-.18-2-.26-2.41-.4-4.9-.17-7.29-.64"/><path class="cls-3" d="M36.13,35.84H36l-7.4-1a3.07,3.07,0,0,1-3-3.08V27.94a3.08,3.08,0,0,1,3.07-3.07l8.33-2h0a3.09,3.09,0,0,1,3.14,3.06l-1,6.87A3.07,3.07,0,0,1,36.13,35.84Zm1-12.33-8.33,2a2.46,2.46,0,0,0-2.5,2.44v3.82a2.43,2.43,0,0,0,2.39,2.44l7.43,1,0,.32.05-.32a2.44,2.44,0,0,0,2.44-2.44l1-6.87A2.44,2.44,0,0,0,37.13,23.51Z"/><path class="cls-3" d="M23.61,49.4a6.08,6.08,0,0,1-4-1.49.26.26,0,1,1,.34-.4,5.51,5.51,0,0,0,4,1.36,5.72,5.72,0,0,0,3.65-1.38.26.26,0,1,1,.34.4,6.28,6.28,0,0,1-4,1.5Z"/></g></g></svg>