<svg xmlns="http://www.w3.org/2000/svg" viewBox="0 0 47.89 89.05"><defs><style>.cls-1,.cls-16,.cls-25{fill:#ffad4a;}.cls-2{fill:#000201;}.cls-3{fill:#ffd297;}.cls-11,.cls-17,.cls-18,.cls-21,.cls-4{fill:#fff;}.cls-5{fill:#854277;}.cls-6,.cls-8{fill:#66245d;}.cls-6{opacity:0.4;}.cls-10,.cls-11,.cls-13,.cls-16,.cls-17,.cls-18,.cls-20,.cls-21,.cls-25,.cls-6{isolation:isolate;}.cls-7{fill:#c170b2;}.cls-9{fill:#fdc6a2;}.cls-10,.cls-12{fill:#e89176;}.cls-10{opacity:0.75;}.cls-11{opacity:0.55;}.cls-13,.cls-14,.cls-20{fill:#ff9976;}.cls-13{opacity:0.25;}.cls-15{fill:#181828;}.cls-16,.cls-18{opacity:0.35;}.cls-17,.cls-20{opacity:0.6;}.cls-19{fill:#ef8847;}.cls-21{opacity:0.5;}.cls-22{fill:#e1fbff;}.cls-23{fill:#f9968f;}.cls-24{fill:#e25959;}.cls-25{opacity:0.45;}</style></defs><g id="Layer_2" data-name="Layer 2"><g id="Layer_1-2" data-name="Layer 1"><path class="cls-1" d="M33.88,4.15S38.47,4.64,46,1.08a.45.45,0,0,1,.61.17.44.44,0,0,1-.08.55c-3,3.08-9.62,8.93-16.37,7.57"/><path class="cls-2" d="M32.22,9.92a10.26,10.26,0,0,1-2.13-.21.49.49,0,0,1-.39-.59.5.5,0,0,1,.59-.39C36.59,10,43,4.62,46.19,1.3,38.67,5,34.05,4.52,33.86,4.5A.5.5,0,0,1,33.41,4,.49.49,0,0,1,34,3.51s4.57.41,11.86-3A.95.95,0,0,1,46.9,2C43.89,5.1,38.22,9.92,32.22,9.92Z"/><path class="cls-3" d="M14.8,8.85S10.57,7,2.32,8.16A.45.45,0,0,1,2,7.32C5.78,5.26,13.88,1.66,19.91,5"/><path class="cls-4" d="M4.72,7.05a.5.5,0,0,1-.21-1A25.09,25.09,0,0,1,9.43,4.41a.5.5,0,1,1,.22,1A23.93,23.93,0,0,0,4.93,7,.52.52,0,0,1,4.72,7.05Z"/><path class="cls-2" d="M14.8,9.23a.4.4,0,0,1-.15,0S10.4,7.42,2.37,8.54a.84.84,0,0,1-1-.68A.83.83,0,0,1,1.85,7C6.05,4.68,14,1.3,20.09,4.65a.38.38,0,0,1,.15.52.37.37,0,0,1-.51.14C13.75,2,5.49,5.86,2.21,7.65c0,.12,0,.15,0,.14,8.28-1.16,12.52.64,12.7.71a.39.39,0,0,1,.2.5A.37.37,0,0,1,14.8,9.23Z"/><path class="cls-3" d="M9.84,21.06s-3,3.52-4.27,11.75a.45.45,0,0,1-.88,0c-.89-4.18-2-13,2.93-17.79"/><path class="cls-2" d="M5.89,33.65c-.67,0-1.49-.2-1.58-.75-1-4.68-1.93-13.29,3-18.12a.38.38,0,0,1,.54,0,.37.37,0,0,1,0,.53C3,20.07,4.28,29.1,5.06,32.76a2.34,2.34,0,0,0,1.35.06c.82-5.2,2.09-7,3-7.68a1.42,1.42,0,0,1,1.08-.3.38.38,0,0,1,.29.46.39.39,0,0,1-.44.29c-.56-.07-2.23,1.14-3.21,7.42C7.08,33.42,6.63,33.65,5.89,33.65Z"/><path class="cls-1" d="M38.69,23.68s2.76,3.7,3.53,12a.45.45,0,0,0,.88.08c1.15-4.11,2.79-12.82-1.82-17.94"/><path class="cls-2" d="M42,36.48l-.39,0c-.85-.11-1-.51-1-.74-.71-7.6-2.76-7.59-2.75-7.57a.39.39,0,0,1-.41-.34.36.36,0,0,1,.32-.41,1.41,1.41,0,0,1,1.06.38c.88.7,2,2.63,2.53,7.85a2,2,0,0,0,1.37-.06C43.74,32,45.58,23.13,41,18a.38.38,0,0,1,0-.54.37.37,0,0,1,.53,0c4.84,5.37,2.94,14.58,1.9,18.29C43.33,36.36,42.56,36.48,42,36.48Zm-.61-.81v0Z"/><path class="cls-5" d="M23.94,58.83h0A20.44,20.44,0,0,1,44.38,79.27h0a9.47,9.47,0,0,1-9.47,9.47H13a9.47,9.47,0,0,1-9.47-9.47h0A20.44,20.44,0,0,1,23.93,58.83h0Z"/><path class="cls-6" d="M28.76,73.05c5.42-2.71,3.46-3.83,4.54-12.14,0,0,2.57,1.54,2.59,1.53,1.07.73,1.78,2.07,2.7,3a20.41,20.41,0,0,1,6,14.45A8.17,8.17,0,0,1,41.72,86c-1.72,1.71-3.07,2.1-6.43,2.67H13.34a5.59,5.59,0,0,1-2.68-.45c-1.6-.54-2.6-1.18-2.83-2.87A6.28,6.28,0,0,1,8,82.46c.57-1.76,2.21-3.13,4.11-4.23a21.28,21.28,0,0,1,7.25-2.55Z"/><path class="cls-7" d="M5.45,72.56H5.31a.39.39,0,0,1-.25-.49v0c.12-.36,3.16-8.84,10.83-11.42a.4.4,0,1,1,.26.76C8.87,63.85,5.86,72.23,5.83,72.32A.42.42,0,0,1,5.45,72.56Z"/><path class="cls-8" d="M44.2,78.74a9.46,9.46,0,0,1-9.46,9.46h-22a9.63,9.63,0,0,1-3.28-.57A6.14,6.14,0,0,1,13,80.78c3.42-1.56,7.34.19,11.09.36a15,15,0,0,0,13-7.33A18.28,18.28,0,0,0,39.59,66,20.32,20.32,0,0,1,44.2,78.74Z"/><path class="cls-2" d="M35.09,89.05H13.15a10,10,0,0,1-10-10,12.62,12.62,0,0,1,.07-1.6.48.48,0,1,1,1,.11,12.38,12.38,0,0,0-.06,1.49,9,9,0,0,0,9,9H35.06a9,9,0,0,0,9-9A20,20,0,0,0,24.12,59.17h0A20.07,20.07,0,0,0,5,73.41a.48.48,0,0,1-.6.33.5.5,0,0,1-.33-.61A21.06,21.06,0,0,1,24.1,58.2h0A20.94,20.94,0,0,1,45,79.09,10,10,0,0,1,35.09,89.05Z"/><rect class="cls-9" x="20.18" y="52.26" width="8.44" height="11.38" rx="4.22"/><path class="cls-10" d="M28.47,55.24v2.94a4.15,4.15,0,0,1-.12,1c-4.47.36-7-2-8.07-5.36a4.22,4.22,0,0,1,8.19,1.44Z"/><circle class="cls-8" cx="34.61" cy="75.83" r="2.27"/><circle class="cls-8" cx="31.52" cy="77.87" r="0.67"/><path class="cls-2" d="M6.06,81H5.93a.33.33,0,0,1-.18-.42h0l1.77-4.19a.34.34,0,0,1,.46-.1.35.35,0,0,1,.14.35L6.35,80.87A.32.32,0,0,1,6.06,81Z"/><path class="cls-2" d="M8.19,79.09H8.06a.33.33,0,0,1-.18-.42h0l1-2.24a.32.32,0,0,1,.42-.17h0a.32.32,0,0,1,.18.42h0l-1,2.24A.32.32,0,0,1,8.19,79.09Z"/><path class="cls-4" d="M10.08,35.52a.41.41,0,0,1-.41-.41V29.5a.41.41,0,0,1,.41-.4.4.4,0,0,1,.4.4v5.61A.4.4,0,0,1,10.08,35.52Z"/><ellipse class="cls-4" cx="10.08" cy="37.38" rx="0.54" ry="0.73"/><path class="cls-2" d="M24.4,64.1a4.69,4.69,0,0,1-4.68-4.68V56.48a4.68,4.68,0,0,1,9.36,0v2.94A4.69,4.69,0,0,1,24.4,64.1Zm0-11.38a3.77,3.77,0,0,0-3.76,3.76v2.94a3.76,3.76,0,0,0,7.52,0V56.48A3.77,3.77,0,0,0,24.4,52.72Z"/><circle class="cls-11" cx="17.39" cy="54.45" r="0.22"/><circle class="cls-11" cx="20.44" cy="55.51" r="0.29"/><ellipse class="cls-4" cx="17.2" cy="52.55" rx="0.88" ry="0.5" transform="translate(-38.09 52.35) rotate(-71.66)"/><circle class="cls-11" cx="18.8" cy="53.04" r="0.28"/><path class="cls-11" d="M17.93,53.33a.22.22,0,1,1-.22.22.22.22,0,0,1,.22-.22Z"/><circle class="cls-11" cx="18.22" cy="51.53" r="0.29"/><path class="cls-9" d="M6,29.59H8a4.8,4.8,0,0,1,4.68,4.87h0a4.75,4.75,0,0,1-4.82,4.68h-2a4.79,4.79,0,0,1-4.69-4.86h0A4.77,4.77,0,0,1,6,29.59H6Z"/><path class="cls-2" d="M7.9,39.59H5.81a5.21,5.21,0,0,1-3.11-1.1.44.44,0,0,1-.08-.62.44.44,0,0,1,.62-.08,4.4,4.4,0,0,0,2.58.91h2a4.11,4.11,0,0,0,3.09-1.22,4.25,4.25,0,0,0,1.3-3A4.35,4.35,0,0,0,8,30H5.9a4.34,4.34,0,0,0-4.35,4.25A4.53,4.53,0,0,0,1.88,36a.44.44,0,0,1-.24.58.43.43,0,0,1-.58-.24,5.19,5.19,0,0,1,4.82-7.19H8a5.24,5.24,0,0,1,5.12,5.32A5.19,5.19,0,0,1,7.9,39.59Z"/><path class="cls-12" d="M6.5,32.07h1A2.49,2.49,0,0,1,10,34.57v.11h0a2.49,2.49,0,0,1-2.53,2.43h-1A2.48,2.48,0,0,1,4,34.58H4a2.49,2.49,0,0,1,2.47-2.51Z"/><path class="cls-4" d="M3.17,32.73a1.8,1.8,0,0,1,.88-1c.35-.14.21-.71-.15-.57a2.39,2.39,0,0,0-1.25,1.25c-.15.34.36.64.51.3Z"/><ellipse class="cls-4" cx="2.48" cy="33.83" rx="0.47" ry="0.38" transform="translate(-31.35 31.34) rotate(-81.6)"/><path class="cls-9" d="M40.73,29.59h2a4.8,4.8,0,0,1,4.71,4.87h0a4.78,4.78,0,0,1-4.85,4.69h-2a4.79,4.79,0,0,1-4.69-4.87h0a4.78,4.78,0,0,1,4.85-4.69h0Z"/><path class="cls-2" d="M42.66,39.61H40.59a5.23,5.23,0,0,1,0-10.45h2.09a5.23,5.23,0,0,1-.07,10.46Zm-.07-.89h.06A4.34,4.34,0,0,0,42.72,30h-2a4.34,4.34,0,0,0-.08,8.67Z"/><path class="cls-12" d="M41.23,32.07h1a2.49,2.49,0,0,1,2.48,2.5v.11h0a2.49,2.49,0,0,1-2.53,2.43h-1a2.49,2.49,0,0,1-2.43-2.54h0a2.49,2.49,0,0,1,2.48-2.5Z"/><path class="cls-4" d="M37.38,33.06a1.8,1.8,0,0,1,.88-1c.35-.14.2-.71-.15-.57a2.27,2.27,0,0,0-1.25,1.24c-.15.35.36.65.51.31Z"/><ellipse class="cls-4" cx="36.7" cy="34.16" rx="0.47" ry="0.38" transform="translate(-2.46 65.48) rotate(-81.6)"/><path class="cls-9" d="M36.38,7.4c.2.18.38.37.58.56a17.7,17.7,0,0,1,5.2,12.57V38.85a17.76,17.76,0,0,1-35.52.38V20.53A17.7,17.7,0,0,1,12.42,7.41C18.32,2,30.45,2.05,36.38,7.4Z"/><path class="cls-13" d="M42.23,20.16V38.49a17.76,17.76,0,0,1-17.7,17.82h-.06V3c4.51,0,9,1.34,12,4,.21.18.39.37.58.56A17.69,17.69,0,0,1,42.23,20.16Z"/><path class="cls-14" d="M42.16,20.05V38.37A17.77,17.77,0,0,1,24.45,56.2h0a11.3,11.3,0,0,1-1.3-.05c9.25-.66,17.33-8.37,17.3-17.78V20.05c0-4.72-2.68-9.24-6-12.57-.2-.19-.38-.38-.59-.55a17.58,17.58,0,0,0-10.76-4c4.92-.29,10,1,13.28,4a7.54,7.54,0,0,1,.58.55A17.7,17.7,0,0,1,42.16,20.05Z"/><path class="cls-4" d="M25.28,56.37h-1a18,18,0,0,1-11.55-4A19.56,19.56,0,0,1,10.44,50,16.5,16.5,0,0,1,6.58,39.33V21A18.26,18.26,0,0,1,11.82,7.68c.19-.19.37-.37.58-.55,3.17-2.87,8.14-4.21,13-4-4.17.17-8.27,1.51-11,4-.2.18-.38.36-.57.55C10.49,11,8.05,15.61,8.06,20.32V38.68C8,48.12,15.94,55.83,25.28,56.37Z"/><path class="cls-2" d="M10.75,50.48a.46.46,0,0,1-.37-.18A18.22,18.22,0,0,1,6.15,39V27.73a.48.48,0,0,1,.49-.48.47.47,0,0,1,.48.48V38.94a17.32,17.32,0,0,0,4,10.74.48.48,0,0,1-.06.68A.47.47,0,0,1,10.75,50.48Z"/><path class="cls-2" d="M24.43,56.87a18.2,18.2,0,0,1-12.2-4.68.48.48,0,1,1,.64-.72,17.28,17.28,0,0,0,28.84-12.9V20.25A17.28,17.28,0,0,0,36.66,8l-.57-.55c-5.85-5.22-17.63-5.22-23.34,0A17.21,17.21,0,0,0,7.12,20.24a.48.48,0,0,1-.48.49h0a.49.49,0,0,1-.49-.49A18.24,18.24,0,0,1,12.09,6.76c6-5.52,18.47-5.52,24.65,0l.59.56a18.27,18.27,0,0,1,5.35,12.93V38.57a18.26,18.26,0,0,1-18.2,18.3Z"/><path class="cls-2" d="M6.64,25.42a.49.49,0,0,1-.49-.49v-2a.48.48,0,0,1,.49-.48.47.47,0,0,1,.48.48v2A.48.48,0,0,1,6.64,25.42Z"/><ellipse class="cls-15" cx="18.48" cy="30.95" rx="2.25" ry="2.85"/><ellipse class="cls-4" cx="17.68" cy="29.92" rx="0.83" ry="0.91"/><ellipse class="cls-15" cx="30.35" cy="30.95" rx="2.25" ry="2.85"/><ellipse class="cls-4" cx="29.54" cy="29.92" rx="0.83" ry="0.91"/><path class="cls-4" d="M8.57,69.68a.39.39,0,0,1-.21-.06.42.42,0,0,1-.14-.56A17.68,17.68,0,0,1,9.8,66.89a.4.4,0,1,1,.62.52,18,18,0,0,0-1.51,2.07A.39.39,0,0,1,8.57,69.68Z"/><circle class="cls-4" cx="11.29" cy="66.09" r="0.56"/><circle class="cls-7" cx="14.5" cy="62.83" r="0.62"/><circle class="cls-7" cx="13.89" cy="64.05" r="0.41"/><path class="cls-2" d="M34.23,83.75h8.25a.43.43,0,0,1,.43.41h0a.42.42,0,0,1-.42.42H34.23a.42.42,0,0,1-.42-.42.41.41,0,0,1,.4-.42Z"/><path class="cls-2" d="M30.45,83.75h1.16a.42.42,0,0,1,.42.4v0a.42.42,0,0,1-.42.42H30.45a.42.42,0,0,1,0-.84Z"/><path class="cls-4" d="M8,33.29H8a.44.44,0,0,1,.44.44v3.84A.44.44,0,0,1,8,38H8a.43.43,0,0,1-.43-.44V33.73A.44.44,0,0,1,8,33.29Z"/><path class="cls-14" d="M40.27,23h0a.44.44,0,0,1,.44.44v3.84a.44.44,0,0,1-.44.44h0a.43.43,0,0,1-.43-.44V23.45A.44.44,0,0,1,40.27,23Z"/><circle class="cls-2" cx="4.07" cy="75.08" r="0.52"/><ellipse class="cls-4" cx="10.48" cy="47" rx="0.88" ry="0.5" transform="translate(-37.43 42.16) rotate(-71.66)"/><circle class="cls-11" cx="12.07" cy="47.48" r="0.28"/><path class="cls-11" d="M11.21,47.77A.22.22,0,1,1,11,48a.22.22,0,0,1,.22-.22Z"/><circle class="cls-11" cx="11.5" cy="45.97" r="0.29"/><path class="cls-3" d="M42.56,9.84c-.08-.23,0-.12-.06-.26L39.78,10.9a13.38,13.38,0,0,0,2.78-1.06,22.79,22.79,0,0,1,.79,2.42l.52,2.29a18.3,18.3,0,0,1,.32,4.11,6.27,6.27,0,0,1-1.45,3.79c-1-1.48-5-5.92-6.47-7.89a7.52,7.52,0,0,1-3.33,1.79c-4.67,1.34-10,.75-13.85-2.3v.09c-4.8,2.41-9,6.9-12.31,11.16-.91-1-1-3.36-.9-4.68A.3.3,0,0,1,6,20.54l-.08.06h0A35.21,35.21,0,0,0,.62,27,30,30,0,0,1,2.9,14.44l2.36-4.23a21.36,21.36,0,0,1,4-3.47L11.11,6v0L11.28,6,11.11,6h0c.23-1.47,1.5-2.54,2.68-3.45l1.73-.91S21.87-.66,26.25,1L30,2.38a48.47,48.47,0,0,0,17.07,3.8A14,14,0,0,1,42.56,9.84Z"/><path class="cls-3" d="M6.44,20.09,6,20.54"/><path class="cls-3" d="M36.27,14.56c-.13-.17-.24-.33-.33-.46"/><path class="cls-1" d="M42.56,10c-.08-.23,0-.12-.06-.26L39.78,11A13.38,13.38,0,0,0,42.56,10a22.79,22.79,0,0,1,.82,2.41l.54,2.22a19.6,19.6,0,0,1,.27,4.19,8.91,8.91,0,0,1-2.27,4.28c-1-1.48-3.77-7.17-5.82-8.22a6.71,6.71,0,0,1-3.16,1.63,18.07,18.07,0,0,1-4,.66h0c1.71-2.18,4.36-3,5.56-5.45.94-2,.14-5.76,2-6.92A48.25,48.25,0,0,0,47.06,6.32,14,14,0,0,1,42.56,10Z"/><path class="cls-16" d="M47.18,6.18l-.11.13A47.57,47.57,0,0,1,36.59,4.75c-1.83,1.16-1,5-2,6.92-1.18,2.44-3.82,3.35-5.53,5.44a14.8,14.8,0,0,1-9-2.43,7.54,7.54,0,0,1,.58-1.49,20.42,20.42,0,0,1,2.87-3.74,31,31,0,0,0,2-2.57,7.22,7.22,0,0,0,1.16-2.15,6.18,6.18,0,0,0,.19-1.92,9.53,9.53,0,0,0-.21-1.68l3.41,1.26A48.29,48.29,0,0,0,47.18,6.18Z"/><path class="cls-3" d="M28.89,26.68l5.41-.1a1.53,1.53,0,0,0,1.49-1.43h0a1.53,1.53,0,0,0-1.31-1.59l-5.36-.74a1.52,1.52,0,0,0-1.71,1.31s0,.07,0,.1l0,.84a1.53,1.53,0,0,0,1.45,1.61Z"/><path class="cls-1" d="M28.89,26.68l5.41-.1a1.53,1.53,0,0,0,1.49-1.43h0c0-.79.2.51-.58.41l-7.28.14c-.87-.12-.48-2.35-.53-1.47l0,.84a1.53,1.53,0,0,0,1.45,1.61Z"/><path class="cls-2" d="M28.89,27h-.08a1.81,1.81,0,0,1-1.73-1.87l.05-.84s0-.09,0-.13a1.79,1.79,0,0,1,2-1.54l2.12.29a.29.29,0,0,1,.23.31.27.27,0,0,1-.31.23l-2.12-.29a1.25,1.25,0,0,0-1.4,1.07l-.06.93a1.25,1.25,0,0,0,1.21,1.3l5.46-.1a1.25,1.25,0,0,0,.15-2.48l-.92-.13a.27.27,0,0,1-.23-.31.28.28,0,0,1,.31-.23l.92.13a1.79,1.79,0,0,1-.21,3.56Z"/><circle class="cls-1" cx="30.11" cy="25.59" r="0.4"/><circle class="cls-1" cx="31.18" cy="25.18" r="0.21"/><circle class="cls-1" cx="28.66" cy="25.58" r="0.51"/><path class="cls-3" d="M19.68,26.68l-5.41-.1a1.51,1.51,0,0,1-1.48-1.43h0a1.51,1.51,0,0,1,1.27-1.57l5.36-.74a1.52,1.52,0,0,1,1.71,1.28c0,.05,0,.09,0,.13l.05.84a1.52,1.52,0,0,1-1.45,1.59Z"/><path class="cls-1" d="M19.68,26.68l-5.41-.1a1.51,1.51,0,0,1-1.48-1.43h0c0-.79-.2.51.58.41l7.27.14c.88-.12.48-2.35.53-1.47l0,.84a1.52,1.52,0,0,1-1.43,1.61Z"/><path class="cls-2" d="M19.68,27l-5.42-.1A1.78,1.78,0,0,1,14,23.32l.92-.14a.27.27,0,0,1,.08.54l-.92.13a1.24,1.24,0,0,0,.17,2.46l5.41.1h.07A1.26,1.26,0,0,0,21,25.1l-.05-.83s0-.07,0-.11a1.24,1.24,0,0,0-1.4-1.05l-2.12.29a.27.27,0,0,1-.31-.23.28.28,0,0,1,.23-.31l2.12-.29a1.78,1.78,0,0,1,2,1.52.68.68,0,0,1,0,.15l0,.84A1.75,1.75,0,0,1,21,26.37a1.77,1.77,0,0,1-1.24.58Z"/><circle class="cls-1" cx="18.47" cy="25.59" r="0.4"/><circle class="cls-1" cx="17.4" cy="25.18" r="0.21"/><circle class="cls-1" cx="19.91" cy="25.58" r="0.51"/><path class="cls-2" d="M43.21,12.83a.5.5,0,0,1-.49-.39A14.6,14.6,0,0,0,42,10.11a.49.49,0,0,1,.27-.65.49.49,0,0,1,.65.27,15.73,15.73,0,0,1,.78,2.5.5.5,0,0,1-.38.59Z"/><circle class="cls-2" cx="27.81" cy="1.7" r="0.52"/><circle class="cls-2" cx="43.73" cy="14.26" r="0.52"/><circle class="cls-2" cx="4.14" cy="12.28" r="0.52"/><circle class="cls-2" cx="23.61" cy="16.44" r="0.52"/><path class="cls-2" d="M28.06,17.6a18,18,0,0,1-2.64-.19.51.51,0,0,1-.43-.57.51.51,0,0,1,.57-.42,16.7,16.7,0,0,0,7.1-.47c1.36-.39,3-1.13,3.72-2.48a14.4,14.4,0,0,1-9.87-7.4.49.49,0,0,1,.21-.67.5.5,0,0,1,.67.21,13.4,13.4,0,0,0,9.75,7,.5.5,0,0,1,.4.63c-.6,2.13-2.83,3.18-4.6,3.69A17.7,17.7,0,0,1,28.06,17.6Z"/><path class="cls-2" d="M21.93,16.38a.45.45,0,0,1-.2,0,13,13,0,0,1-3-1.85.52.52,0,0,1-.07-.71.51.51,0,0,1,.71-.06,11.83,11.83,0,0,0,2.75,1.71.5.5,0,0,1,.26.65A.51.51,0,0,1,21.93,16.38Z"/><path class="cls-2" d="M39.64,11.47a.5.5,0,0,1-.13-1A13.55,13.55,0,0,0,45.9,6.71,49.09,49.09,0,0,1,29.67,2.93.5.5,0,1,1,30.05,2,48.15,48.15,0,0,0,47,5.76a.48.48,0,0,1,.43.3.49.49,0,0,1-.06.52,14.53,14.53,0,0,1-7.58,4.88Z"/><path class="cls-2" d="M42.11,24.18H42a.47.47,0,0,1-.39-.36,18.11,18.11,0,0,0-4.12-7.54.5.5,0,1,1,.74-.67,19.13,19.13,0,0,1,4,6.9,10,10,0,0,0,1.28-3.83,18.08,18.08,0,0,0,0-2.55.5.5,0,0,1,.46-.54.51.51,0,0,1,.54.47,20.57,20.57,0,0,1,0,2.72A11.13,11.13,0,0,1,42.51,24,.48.48,0,0,1,42.11,24.18Z"/><path class="cls-4" d="M1.4,23.66H1.34a.5.5,0,0,1-.44-.55,31,31,0,0,1,2.16-8.43.49.49,0,0,1,.65-.27.5.5,0,0,1,.27.65A30.23,30.23,0,0,0,1.9,23.22.51.51,0,0,1,1.4,23.66Z"/><path class="cls-4" d="M6.18,21.62H6.12a.5.5,0,0,1-.44-.55,31.13,31.13,0,0,1,2.16-8.43.5.5,0,0,1,.92.38,30.32,30.32,0,0,0-2.08,8.16A.51.51,0,0,1,6.18,21.62Z"/><path class="cls-2" d="M.52,27.61H.4A.51.51,0,0,1,0,27.13,30.17,30.17,0,0,1,2.34,14.34.51.51,0,0,1,3,14.07a.49.49,0,0,1,.27.65A29.29,29.29,0,0,0,1,25.38a33.08,33.08,0,0,1,4.34-5.32.48.48,0,0,1,.7,0,.5.5,0,0,1,0,.71A32.92,32.92,0,0,0,1,27.36.5.5,0,0,1,.52,27.61Z"/><circle class="cls-4" cx="2.9" cy="18.53" r="0.6"/><circle class="cls-17" cx="2.89" cy="20.1" r="0.35"/><circle class="cls-17" cx="4.55" cy="17.89" r="0.42"/><circle class="cls-18" cx="3.94" cy="19.33" r="0.29"/><circle class="cls-2" cx="6.74" cy="16.39" r="0.52"/><circle class="cls-19" cx="10.98" cy="31.31" r="0.52"/><path class="cls-2" d="M7.21,15.35l-.18,0a.5.5,0,0,1-.29-.65,25.71,25.71,0,0,1,1.94-3.94.5.5,0,0,1,.86.52A23.66,23.66,0,0,0,7.68,15,.51.51,0,0,1,7.21,15.35Z"/><path class="cls-2" d="M6.68,25.87a.48.48,0,0,1-.36-.15C5,24.37,5.21,21.25,5.35,20c.11-.69.24-1.35.39-2a.52.52,0,0,1,.6-.39.5.5,0,0,1,.38.6c-.15.68-.28,1.32-.38,2a9.52,9.52,0,0,0,.37,4.43c4.15-5.26,8.1-8.78,12.05-10.76a.5.5,0,0,1,.44.9c-3.94,2-7.91,5.58-12.13,11a.5.5,0,0,1-.36.19Z"/><path class="cls-4" d="M6.37,10.59A.5.5,0,0,1,6,9.74,32.1,32.1,0,0,1,8.83,7.22.5.5,0,0,1,9.45,8a33.24,33.24,0,0,0-2.73,2.44A.47.47,0,0,1,6.37,10.59Z"/><path class="cls-2" d="M5.16,10.81a.46.46,0,0,1-.33-.13.48.48,0,0,1,0-.7A21.39,21.39,0,0,1,8.88,6.42a.49.49,0,0,1,.69.13.5.5,0,0,1-.13.7,20.4,20.4,0,0,0-3.91,3.39A.46.46,0,0,1,5.16,10.81Z"/><path class="cls-2" d="M11.16,7.63a.52.52,0,0,1-.42-.22A1.8,1.8,0,0,1,10.49,6c.25-1.59,1.6-2.76,2.85-3.73a.5.5,0,0,1,.7.08.52.52,0,0,1-.08.71C12.81,4,11.67,5,11.47,6.21a.85.85,0,0,0,.1.64.5.5,0,0,1-.13.7A.57.57,0,0,1,11.16,7.63Z"/><path class="cls-2" d="M15.39,2.26a.49.49,0,0,1-.47-.33.5.5,0,0,1,.3-.64C15.48,1.2,21.8-1.08,26.3.64a.5.5,0,0,1-.36.94c-4.15-1.59-10.32.63-10.38.65A.51.51,0,0,1,15.39,2.26Z"/><path class="cls-2" d="M8.93,18a.29.29,0,0,1-.13,0,.33.33,0,0,1-.18-.42h0l1.76-4.17a.32.32,0,0,1,.42-.17h0a.32.32,0,0,1,.17.42h0L9.21,17.82A.28.28,0,0,1,8.93,18Z"/><path class="cls-2" d="M11.27,16h-.12a.32.32,0,0,1-.19-.4h0l.94-2.23a.32.32,0,1,1,.59.25l-.94,2.23A.34.34,0,0,1,11.27,16Z"/><circle class="cls-1" cx="34.58" cy="6.33" r="0.38"/><circle class="cls-1" cx="34.62" cy="7.36" r="0.27"/><circle class="cls-1" cx="34.73" cy="9.8" r="1.54"/><circle class="cls-1" cx="32.28" cy="9.94" r="0.26"/><circle class="cls-1" cx="32.34" cy="14.29" r="0.67"/><circle class="cls-1" cx="31.23" cy="14.25" r="0.17"/><path class="cls-2" d="M12.83,7.18a.5.5,0,0,1-.28-.91,11.29,11.29,0,0,1,5.81-1.94.49.49,0,0,1,.52.48.5.5,0,0,1-.48.52A10.25,10.25,0,0,0,13.11,7.1.57.57,0,0,1,12.83,7.18Z"/><path class="cls-20" d="M32.11,38a5.73,5.73,0,0,1-1-.08A6.27,6.27,0,0,1,26,33a.5.5,0,0,1,.39-.59.51.51,0,0,1,.59.39,5.23,5.23,0,0,0,10.29-.19.5.5,0,0,1,1,.16A6.24,6.24,0,0,1,32.11,38Z"/><path class="cls-20" d="M16.77,38a5.52,5.52,0,0,1-.81-.06,6,6,0,0,1-5.1-4.68.48.48,0,1,1,.94-.21,5.08,5.08,0,0,0,8,2.93,5,5,0,0,0,1.95-3.36.47.47,0,0,1,.54-.42.49.49,0,0,1,.42.55,6.06,6.06,0,0,1-6,5.25Z"/><path class="cls-19" d="M22.5,31l-.36-.34a3,3,0,0,1,4.31-.11.57.57,0,0,1,.11.11L26.2,31,26.11,31a2.58,2.58,0,0,0-1.83-.71A2.55,2.55,0,0,0,22.5,31Z"/><path class="cls-19" d="M32.11,37.17a6.38,6.38,0,1,1,6.38-6.38A6.38,6.38,0,0,1,32.11,37.17Zm0-11.46a5.08,5.08,0,1,0,5.08,5.08A5.09,5.09,0,0,0,32.11,25.71Z"/><polygon class="cls-21" points="16.55 36.78 14.91 36.49 12.87 26.41 14.22 25.61 16.55 36.78"/><polygon class="cls-21" points="17.83 36.31 17.28 36.45 14.91 25.57 15.39 25.13 17.83 36.31"/><path class="cls-19" d="M16.74,37.17A6.17,6.17,0,0,1,15.4,37a6.38,6.38,0,0,1-4.61-3.91.65.65,0,0,1,.37-.84.65.65,0,0,1,.84.36A5.09,5.09,0,1,0,21,28a5.09,5.09,0,0,0-7-1.51,5.1,5.1,0,0,0-2.22,3.21.65.65,0,0,1-.77.5.66.66,0,0,1-.5-.77,6.39,6.39,0,0,1,2.78-4A6.39,6.39,0,0,1,23,32.12,6.4,6.4,0,0,1,16.74,37.17Z"/><path class="cls-3" d="M17.76,38.06H31.9a3.46,3.46,0,0,1,3.46,3.46h0V52.31A10.53,10.53,0,0,1,24.83,62.84h0A10.52,10.52,0,0,1,14.3,52.31V41.52A3.46,3.46,0,0,1,17.76,38.06Z"/><path class="cls-3" d="M17.76,38.06H31.9a3.46,3.46,0,0,1,3.46,3.46h0V52.31A10.53,10.53,0,0,1,24.83,62.84h0A10.52,10.52,0,0,1,14.3,52.31V41.52A3.46,3.46,0,0,1,17.76,38.06Z"/><path class="cls-1" d="M35.58,41.38V52.17a10.53,10.53,0,0,1-18.85,6.45,10.52,10.52,0,0,0,17-8.28V39.55a3.5,3.5,0,0,0-.27-1.35A3.46,3.46,0,0,1,35.58,41.38Z"/><path class="cls-2" d="M24.84,63.26a11,11,0,0,1-11-10.95V48.84a.41.41,0,0,1,.42-.41.41.41,0,0,1,.41.41v3.47a10.12,10.12,0,0,0,20.24,0V41.52a3.06,3.06,0,0,0-.89-2.16,3.18,3.18,0,0,0-2.16-.88H17.76a3,3,0,0,0-3.05,3v3.26a.41.41,0,0,1-.41.42.42.42,0,0,1-.42-.42V41.52a3.88,3.88,0,0,1,3.88-3.87H31.91a3.87,3.87,0,0,1,2.73,1.12,3.83,3.83,0,0,1,1.14,2.74v10.8A11,11,0,0,1,24.84,63.26Z"/><path class="cls-15" d="M32.4,41a8.53,8.53,0,0,1-8.12,8.2,8.17,8.17,0,0,1-8-6.74c.19.17.12-1.59.36-1.44.07,0,5.41-.2,5.49-.16C25.78,43,29.71,41.26,32.4,41Z"/><path class="cls-4" d="M31.55,40.84,31.5,41a7.08,7.08,0,0,1-.24,1.45c-2.17,2.7-11.39,2.45-13.84,0a5.24,5.24,0,0,1-.21-1.58v0Z"/><path class="cls-22" d="M30.88,40.91V41a.45.45,0,0,1-.22.25c-2,1-10.33.9-12.56,0a.32.32,0,0,1-.19-.3h0Z"/><path class="cls-2" d="M24.72,44.52c-2.74,0-5.95-.58-7.35-2a.24.24,0,0,1-.07-.12,4.59,4.59,0,0,1-.22-1.52.31.31,0,0,1,.31-.28.28.28,0,0,1,.28.3,4,4,0,0,0,.17,1.25c1.25,1.19,4.51,1.91,7.82,1.74,2.5-.13,4.46-.77,5.27-1.72a6.29,6.29,0,0,0,.2-1.3.31.31,0,0,1,.32-.28.29.29,0,0,1,.27.31,6.35,6.35,0,0,1-.24,1.49.37.37,0,0,1-.05.11c-.9,1.11-3,1.83-5.74,2C25.38,44.52,25.05,44.52,24.72,44.52Z"/><path class="cls-23" d="M30.56,46.35a8.19,8.19,0,0,1-6.14,2.76,7.5,7.5,0,0,1-2-.24,2.28,2.28,0,0,1,0-.37,4.86,4.86,0,0,1,3.49-3,5.66,5.66,0,0,1,4.54.66Z"/><path class="cls-2" d="M24.35,49.56h-.43a8.56,8.56,0,0,1-8.15-8.15.84.84,0,0,1,.23-.62.87.87,0,0,1,.6-.28H32.07a.87.87,0,0,1,.85.89A8.59,8.59,0,0,1,24.35,49.56Zm-7.71-8.23A7.68,7.68,0,0,0,24,48.72a7.77,7.77,0,0,0,8.12-7.36l0-.45v.42Z"/><path class="cls-2" d="M22.39,48.79a.31.31,0,0,1-.13,0,.31.31,0,0,1-.15-.41,5.87,5.87,0,0,1,7.79-2.81,5.07,5.07,0,0,1,.65.35.31.31,0,0,1,.1.42.3.3,0,0,1-.42.1,4.83,4.83,0,0,0-.59-.32,5.24,5.24,0,0,0-7,2.52A.33.33,0,0,1,22.39,48.79Z"/><circle class="cls-23" cx="24.42" cy="36.65" r="2.59"/><path class="cls-24" d="M27.06,36.68a2.59,2.59,0,1,1-5.17.32,1.71,1.71,0,0,1,0-.32c0-1.43,1.08,1.62,2.5,1.62S27.06,35.22,27.06,36.68Z"/><path class="cls-2" d="M24.42,39.84a2.93,2.93,0,1,1,2.93-2.93A2.93,2.93,0,0,1,24.42,39.84Zm0-5.18a2.25,2.25,0,1,0,2.25,2.25A2.25,2.25,0,0,0,24.42,34.66Z"/><circle class="cls-2" cx="14.3" cy="46.78" r="0.52"/><circle class="cls-1" cx="27.5" cy="59.63" r="1.12"/><circle class="cls-1" cx="31.01" cy="57.66" r="0.99"/><circle class="cls-25" cx="27.91" cy="56.99" r="0.56"/><circle class="cls-25" cx="25.41" cy="57.86" r="0.32"/><circle class="cls-25" cx="28.73" cy="55.27" r="0.82"/><circle class="cls-1" cx="25.03" cy="60.68" r="0.71"/><circle class="cls-1" cx="28.87" cy="57.8" r="0.25"/><path class="cls-4" d="M15.84,51.11a.42.42,0,0,1-.42-.42V47.77a.41.41,0,0,1,.42-.41.41.41,0,0,1,.41.41v2.92A.41.41,0,0,1,15.84,51.11Z"/><ellipse class="cls-4" cx="15.84" cy="52.26" rx="0.47" ry="0.38" transform="translate(-38.17 60.3) rotate(-81.6)"/></g></g></svg>