<svg xmlns="http://www.w3.org/2000/svg" viewBox="0 0 463.88 239.98"><defs><style>.cls-1{fill:#738e02;}.cls-2{fill:#88b206;}.cls-3{fill:#769103;}.cls-4,.cls-49{fill:#e9ffa4;}.cls-5{fill:#e4f0f9;}.cls-6{opacity:0.39;}.cls-7{fill:#b5bcc6;}.cls-37,.cls-8{fill:#ced3db;}.cls-9{fill:#7f8b99;}.cls-10{fill:#8c97a5;}.cls-11{fill:#6e7984;}.cls-12,.cls-13,.cls-24{fill:#fff;}.cls-12{opacity:0.28;}.cls-13{opacity:0.58;}.cls-14{fill:#a4cf3a;}.cls-15{fill:#91423c;}.cls-16{fill:#6b251f;}.cls-17{fill:#98ba60;}.cls-18{fill:#e2f7b2;}.cls-19{fill:#c2dd8e;}.cls-20{fill:#feb06d;}.cls-21,.cls-23,.cls-39{fill:#dd764d;}.cls-21,.cls-46{opacity:0.44;}.cls-22{fill:#354c70;}.cls-25{fill:#0288b2;}.cls-26{fill:#00b1c9;}.cls-27,.cls-40{fill:#253956;}.cls-28,.cls-46,.cls-48{fill:#f7f7f7;}.cls-29{fill:#1b235c;}.cls-30{fill:#fee8c7;}.cls-31{fill:#ddbb8e;}.cls-32{fill:#c19968;}.cls-33{fill:#6c8431;}.cls-33,.cls-37{opacity:0.52;}.cls-34{fill:#86382e;}.cls-35{fill:#0cdfef;}.cls-36{fill:#b7502c;}.cls-38{opacity:0.45;}.cls-39{opacity:0.51;}.cls-40{opacity:0.47;}.cls-41{fill:#00939e;}.cls-42{fill:#008184;}.cls-43,.cls-44{fill:#00848e;}.cls-44{opacity:0.4;}.cls-45,.cls-47{fill:#939caa;}.cls-47{opacity:0.36;}.cls-48{opacity:0.65;}.cls-49{opacity:0.59;}</style></defs><g id="Layer_2" data-name="Layer 2"><g id="Layer_2-2" data-name="Layer 2"><path class="cls-1" d="M403,195.08h16.51a33.23,33.23,0,0,1,33.23,33.23v0a0,0,0,0,1,0,0H403a0,0,0,0,1,0,0V195.08A0,0,0,0,1,403,195.08Z"/><path class="cls-2" d="M436.64,192.59h0A1.37,1.37,0,0,1,438,194v8.62a0,0,0,0,1,0,0h-2.73a0,0,0,0,1,0,0V194A1.37,1.37,0,0,1,436.64,192.59Z" transform="translate(126.22 -167.56) rotate(25.28)"/><path class="cls-2" d="M438.91,197.72h0a.84.84,0,0,1,.84.84v5.3a0,0,0,0,1,0,0h-1.68a0,0,0,0,1,0,0v-5.3A.84.84,0,0,1,438.91,197.72Z" transform="translate(127.8 -168.22) rotate(25.28)"/><path class="cls-3" d="M436.77,197.59h0a.72.72,0,0,1,.72.72v4.57a0,0,0,0,1,0,0h-1.45a0,0,0,0,1,0,0v-4.57A.72.72,0,0,1,436.77,197.59Z" transform="translate(127.37 -167.36) rotate(25.28)"/><path class="cls-3" d="M432.45,195.55h0a.72.72,0,0,1,.72.72v4.57a0,0,0,0,1,0,0h-1.45a0,0,0,0,1,0,0v-4.57A.72.72,0,0,1,432.45,195.55Z" transform="translate(126.08 -165.71) rotate(25.28)"/><path class="cls-4" d="M421.73,188.48h0a1.21,1.21,0,0,1,1.21,1.21v7.62a0,0,0,0,1,0,0h-2.41a0,0,0,0,1,0,0v-7.62A1.21,1.21,0,0,1,421.73,188.48Z" transform="translate(2 -4.31) rotate(0.59)"/><path class="cls-4" d="M424.73,191.92h0a.74.74,0,0,1,.74.74v4.68a0,0,0,0,1,0,0H424a0,0,0,0,1,0,0v-4.68a.74.74,0,0,1,.74-.74Z" transform="translate(2.02 -4.34) rotate(0.59)"/><path class="cls-3" d="M422.82,192.64h0a.64.64,0,0,1,.64.64v4a0,0,0,0,1,0,0h-1.28a0,0,0,0,1,0,0v-4a.64.64,0,0,1,.64-.64Z" transform="translate(2.02 -4.32) rotate(0.59)"/><path class="cls-3" d="M418.59,192.6h0a.64.64,0,0,1,.64.64v4a0,0,0,0,1,0,0h-1.28a0,0,0,0,1,0,0v-4a.64.64,0,0,1,.64-.64Z" transform="translate(2.02 -4.28) rotate(0.59)"/><path class="cls-5" d="M447.3,117.36h-1.18a6.81,6.81,0,0,0-6.67-5.44,6.71,6.71,0,0,0-3,.72A11.07,11.07,0,0,0,420.28,110a14.19,14.19,0,0,0-25.34,7.33h-.16a2.33,2.33,0,0,0-2.33,2.34h0a2.33,2.33,0,0,0,2.33,2.33H447.3a2.33,2.33,0,0,0,2.33-2.33h0A2.33,2.33,0,0,0,447.3,117.36Z"/><circle class="cls-5" cx="448.63" cy="107.91" r="1.69"/><path class="cls-5" d="M451.06,41.44h-1.18a6.78,6.78,0,0,0-9.71-4.72A11.07,11.07,0,0,0,424,34.1a14.19,14.19,0,0,0-25.34,7.34h-.15a2.33,2.33,0,0,0-2.34,2.33h0a2.34,2.34,0,0,0,2.34,2.34h52.51a2.34,2.34,0,0,0,2.34-2.34h0A2.33,2.33,0,0,0,451.06,41.44Z"/><circle class="cls-5" cx="452.4" cy="31.99" r="1.69"/><path class="cls-2" d="M353.86,193.93,378,188.29c13-3,26.94,0,36.24,7.87l25.68,21.68H364.69Z"/><path class="cls-4" d="M423.36,206.95h0a1.37,1.37,0,0,1,1.37,1.37v8.62a0,0,0,0,1,0,0H422a0,0,0,0,1,0,0v-8.62A1.37,1.37,0,0,1,423.36,206.95Z" transform="translate(2.2 -4.33) rotate(0.59)"/><path class="cls-4" d="M426.76,210.83h0a.84.84,0,0,1,.84.84V217a0,0,0,0,1,0,0h-1.68a0,0,0,0,1,0,0v-5.3A.84.84,0,0,1,426.76,210.83Z" transform="translate(2.22 -4.36) rotate(0.59)"/><path class="cls-3" d="M424.6,211.65h0a.72.72,0,0,1,.72.72V217a0,0,0,0,1,0,0h-1.45a0,0,0,0,1,0,0v-4.57A.72.72,0,0,1,424.6,211.65Z" transform="translate(2.22 -4.34) rotate(0.59)"/><path class="cls-3" d="M419.81,211.6h0a.72.72,0,0,1,.72.72v4.57a0,0,0,0,1,0,0h-1.45a0,0,0,0,1,0,0v-4.57A.72.72,0,0,1,419.81,211.6Z" transform="translate(2.22 -4.29) rotate(0.59)"/><path class="cls-5" d="M107.35,113.41h-1.18a6.79,6.79,0,0,0-9.72-4.72,11.06,11.06,0,0,0-16.12-2.61A14.18,14.18,0,0,0,55,113.41h-.16a2.33,2.33,0,0,0-2.33,2.33h0a2.33,2.33,0,0,0,2.33,2.34h52.52a2.33,2.33,0,0,0,2.33-2.34h0A2.33,2.33,0,0,0,107.35,113.41Z"/><path class="cls-5" d="M182.53,70.64h-1.72a9.87,9.87,0,0,0-9.68-7.9,9.75,9.75,0,0,0-4.41,1A16.08,16.08,0,0,0,143.3,60a20.59,20.59,0,0,0-36.78,10.64h-.23A3.38,3.38,0,0,0,102.91,74h0a3.38,3.38,0,0,0,3.38,3.39h76.24A3.39,3.39,0,0,0,185.92,74h0A3.39,3.39,0,0,0,182.53,70.64Z"/><rect class="cls-2" x="8.16" y="226.07" width="455.72" height="13.91" rx="6.96"/><g class="cls-6"><path class="cls-7" d="M88.48,102.71a.86.86,0,0,1-1,.57,79.94,79.94,0,0,1-8.69-1.71A115,115,0,0,1,67.3,98a112.48,112.48,0,0,1-11.1-4.74A65.76,65.76,0,0,1,45.66,87Z"/><path class="cls-8" d="M88.48,102.71,45.66,87a66,66,0,0,1,12.11,2A117.59,117.59,0,0,1,80.4,97.32a80.77,80.77,0,0,1,7.73,4.33A.88.88,0,0,1,88.48,102.71Z"/><path class="cls-7" d="M0,86.78a.87.87,0,0,0,.69.87A83.26,83.26,0,0,0,9.44,89a113.46,113.46,0,0,0,12.07.62,113.21,113.21,0,0,0,12.05-.61,67.35,67.35,0,0,0,12.06-2.27Z"/><path class="cls-8" d="M0,86.78H45.62A66.5,66.5,0,0,0,33.56,84.5a113.21,113.21,0,0,0-12-.61,113.46,113.46,0,0,0-12.07.62A83.26,83.26,0,0,0,.69,85.9.89.89,0,0,0,0,86.78Z"/><path class="cls-7" d="M58.11,43a.87.87,0,0,0-1,.42,79.9,79.9,0,0,0-3.77,8,113.9,113.9,0,0,0-3.94,11.41,108.57,108.57,0,0,0-2.76,11.76,66.42,66.42,0,0,0-1.17,12.21Z"/><path class="cls-8" d="M58.11,43,45.44,86.86a66.56,66.56,0,0,0,5.53-11A112.28,112.28,0,0,0,54.91,64.5a112.11,112.11,0,0,0,2.75-11.76,82,82,0,0,0,1.1-8.8A.87.87,0,0,0,58.11,43Z"/><polygon class="cls-7" points="49.14 205.13 45.47 205.13 45.47 87.03 47.69 87.03 49.14 205.13"/><polygon class="cls-8" points="45.47 87.03 45.47 205.13 41.8 205.13 43.24 87.03 45.47 87.03"/><circle class="cls-8" cx="45.47" cy="86.83" r="4.05"/><path class="cls-9" d="M47.76,92.2a4,4,0,0,1-4.58,0l0-2a4,4,0,0,0,4.52,0Z"/><circle class="cls-10" cx="45.47" cy="86.83" r="2.41"/><circle class="cls-11" cx="45.47" cy="86.83" r="1.81"/><rect class="cls-9" x="46.67" y="103.87" width="0.7" height="4.87" rx="0.35" transform="translate(-0.94 0.42) rotate(-0.51)"/><rect class="cls-9" x="46.06" y="168.33" width="0.7" height="4.87" rx="0.35" transform="translate(-1.51 0.42) rotate(-0.51)"/><rect class="cls-12" x="43.06" y="143.41" width="0.7" height="4.87" rx="0.35" transform="translate(85.53 292.07) rotate(-179.49)"/><rect class="cls-12" x="43.81" y="156.19" width="0.7" height="4.87" rx="0.35" transform="translate(86.91 317.64) rotate(-179.49)"/><rect class="cls-12" x="44.02" y="95.2" width="0.7" height="4.87" rx="0.35" transform="translate(87.86 195.66) rotate(-179.49)"/><rect class="cls-12" x="44.02" y="179.78" width="0.7" height="4.87" rx="0.35" transform="translate(87.11 364.83) rotate(-179.49)"/><rect class="cls-12" x="42.59" y="198.35" width="0.7" height="4.87" rx="0.35" transform="translate(84.09 401.94) rotate(-179.49)"/><rect class="cls-12" x="44.15" y="111.52" width="0.7" height="4.87" rx="0.35" transform="translate(87.99 228.3) rotate(-179.49)"/><rect class="cls-9" x="47.8" y="198.92" width="0.7" height="4.87" rx="0.35" transform="translate(-1.78 0.43) rotate(-0.51)"/><path class="cls-13" d="M14.17,84.54a.37.37,0,0,1-.36-.35.37.37,0,0,1,.35-.38c.08,0,7.29-.21,12.67-.1a.36.36,0,0,1,.35.37.35.35,0,0,1-.36.36c-5.37-.12-12.56.09-12.63.1Z"/></g><path class="cls-2" d="M88.29,193.67l-17.62-4.11c-9.46-2.21-19.67,0-26.46,5.75L25.46,211.14H80.38Z"/><path class="cls-14" d="M105.82,189l-18-5.22a26.92,26.92,0,0,0-27,7.29L41.72,211.14h56Z"/><path class="cls-15" d="M58.32,157.14c.92,7,3.08,10.46,4.66,12.07v-.46a3,3,0,0,1,3-3,.1.1,0,0,0,.1-.09v-8.31H69v8.31a3,3,0,0,1-3,3,.1.1,0,0,0-.1.1v9.54a.1.1,0,0,0,.1.09h3.11a3,3,0,0,1,3,3v8.16H69.21V181.4a.11.11,0,0,0-.1-.1H66a3,3,0,0,1-3-3v-5.38a10.2,10.2,0,0,1-2.8-2.43c-2.41-2.91-4-7.27-4.75-13Z"/><path class="cls-2" d="M47.3,139.56a2.81,2.81,0,0,1-2.81-2.81v-5.54a2.8,2.8,0,0,1,2.81-2.81h15A11.13,11.13,0,0,1,71,132.6a12.35,12.35,0,0,0,9.61,4.83H81a2.05,2.05,0,0,1,2,2v16.73a2,2,0,0,1-2,2H50.91a2,2,0,0,1-2-2v-.15a2.14,2.14,0,0,0-2.13-2.14h0a2.17,2.17,0,0,1-2.17-2.16v-8.49a2.17,2.17,0,0,1,2.17-2.17h1.35a.77.77,0,0,0,.78-.77h0a.78.78,0,0,0-.78-.77Z"/><path class="cls-14" d="M54.74,139.56a2.81,2.81,0,0,1-2.81-2.81v-5.54a2.81,2.81,0,0,1,2.81-2.81h15a11.13,11.13,0,0,1,8.72,4.2,12.35,12.35,0,0,0,9.61,4.83h.43a2.05,2.05,0,0,1,2,2v16.73a2,2,0,0,1-2,2H58.35a2,2,0,0,1-2-2v-.15a2.13,2.13,0,0,0-2.13-2.14h0A2.17,2.17,0,0,1,52,151.76v-8.49a2.17,2.17,0,0,1,2.17-2.17h1.36a.77.77,0,0,0,.77-.77h0a.78.78,0,0,0-.77-.77Z"/><circle class="cls-4" cx="56.26" cy="151.89" r="1.4"/><circle class="cls-4" cx="62.86" cy="147.55" r="0.38"/><circle class="cls-4" cx="71.71" cy="148.84" r="0.49"/><circle class="cls-4" cx="75.16" cy="153.14" r="0.77"/><circle class="cls-4" cx="63.86" cy="152.63" r="0.81"/><circle class="cls-4" cx="49.3" cy="143.45" r="0.74"/><path class="cls-4" d="M69.72,129.13H59.08a.73.73,0,0,1,0-1.46H69.72a.73.73,0,0,1,0,1.46Z"/><rect class="cls-16" x="63.69" y="172.7" width="0.18" height="3.14"/><rect class="cls-16" x="69.87" y="180.59" width="0.18" height="3.14"/><rect class="cls-16" x="64.55" y="168.06" width="0.18" height="3.14"/><rect class="cls-16" x="67.76" y="159.79" width="0.18" height="3.14"/><rect class="cls-16" x="64.87" y="171.98" width="0.18" height="1.34"/><rect class="cls-16" x="64.48" y="174.17" width="0.18" height="3.14"/><rect class="cls-16" x="67.24" y="161.59" width="0.18" height="1.34"/><rect class="cls-16" x="66.85" y="163.77" width="0.18" height="3.14"/><rect class="cls-16" x="71.33" y="182.4" width="0.18" height="1.34"/><rect class="cls-16" x="70.94" y="184.58" width="0.18" height="3.14"/><rect class="cls-16" x="66.1" y="158.25" width="2.92" height="1.53" transform="translate(135.11 318.04) rotate(-180)"/><path class="cls-2" d="M66.74,203H69a0,0,0,0,1,0,0v7a1.11,1.11,0,0,1-1.11,1.11h0A1.11,1.11,0,0,1,66.74,210v-7A0,0,0,0,1,66.74,203Z" transform="translate(135.69 414.17) rotate(-180)"/><path class="cls-3" d="M73.36,197.73h2.22a0,0,0,0,1,0,0v7a1.11,1.11,0,0,1-1.11,1.11h0a1.11,1.11,0,0,1-1.11-1.11v-7A0,0,0,0,1,73.36,197.73Z" transform="translate(148.95 403.57) rotate(180)"/><path class="cls-2" d="M62.49,197.94H66.1a0,0,0,0,1,0,0v11.39a1.8,1.8,0,0,1-1.8,1.8h0a1.8,1.8,0,0,1-1.8-1.8V197.94a0,0,0,0,1,0,0Z" transform="translate(128.58 409.08) rotate(-180)"/><path class="cls-2" d="M58.67,203h2.22a0,0,0,0,1,0,0v7a1.11,1.11,0,0,1-1.11,1.11h0A1.11,1.11,0,0,1,58.67,210v-7a0,0,0,0,1,0,0Z" transform="translate(119.56 414.17) rotate(180)"/><path class="cls-3" d="M61.67,204.14h1.91a0,0,0,0,1,0,0v6a1,1,0,0,1-1,1h0a1,1,0,0,1-1-1v-6A0,0,0,0,1,61.67,204.14Z" transform="translate(125.26 415.28) rotate(180)"/><path class="cls-3" d="M68,204.14h1.91a0,0,0,0,1,0,0v6a1,1,0,0,1-1,1h0a1,1,0,0,1-1-1v-6A0,0,0,0,1,68,204.14Z" transform="translate(137.91 415.28) rotate(-180)"/><path class="cls-2" d="M62.08,185.3h2a0,0,0,0,1,0,0v6.3a1,1,0,0,1-1,1h0a1,1,0,0,1-1-1v-6.3a0,0,0,0,1,0,0Z" transform="translate(200.81 332.85) rotate(154.72)"/><path class="cls-2" d="M60.81,189H62a0,0,0,0,1,0,0v3.87a.61.61,0,0,1-.61.61h0a.61.61,0,0,1-.61-.61V189a0,0,0,0,1,0,0Z" transform="translate(198.66 338) rotate(154.72)"/><path class="cls-3" d="M62.45,189h1.06a0,0,0,0,1,0,0v3.34a.53.53,0,0,1-.53.53h0a.53.53,0,0,1-.53-.53V189A0,0,0,0,1,62.45,189Z" transform="translate(201.45 336.59) rotate(154.72)"/><path class="cls-3" d="M65.61,187.46h1.06a0,0,0,0,1,0,0v3.34a.53.53,0,0,1-.53.53h0a.53.53,0,0,1-.53-.53v-3.34A0,0,0,0,1,65.61,187.46Z" transform="translate(206.84 332.39) rotate(154.72)"/><path class="cls-2" d="M54.77,164.46c-1.23,1.37-.74,3.81-.74,3.81s2.48.24,3.72-1.13.74-3.81.74-3.81S56,163.1,54.77,164.46Z"/><path class="cls-14" d="M69.55,162c-1.24,1.36-.75,3.81-.75,3.81s2.49.23,3.72-1.13.74-3.81.74-3.81S70.78,160.61,69.55,162Z"/><path class="cls-2" d="M40.08,159.68a3.54,3.54,0,0,0-.52,2.69,3.54,3.54,0,0,0,2.62-.79,3.54,3.54,0,0,0,.52-2.69A3.54,3.54,0,0,0,40.08,159.68Z"/><path class="cls-14" d="M44.94,165.77a3.54,3.54,0,0,0,2.4,1.31,3.56,3.56,0,0,0,0-2.74A3.55,3.55,0,0,0,45,163,3.53,3.53,0,0,0,44.94,165.77Z"/><path class="cls-14" d="M48.82,179.19a3.6,3.6,0,0,0,2.41,1.31,3.58,3.58,0,0,0,0-2.74,3.55,3.55,0,0,0-2.41-1.31A3.53,3.53,0,0,0,48.82,179.19Z"/><path class="cls-14" d="M41.55,180.05A3.55,3.55,0,0,0,44,181.36a3.58,3.58,0,0,0,0-2.74,3.55,3.55,0,0,0-2.41-1.31A3.53,3.53,0,0,0,41.55,180.05Z"/><path class="cls-4" d="M49.45,174.06a3.56,3.56,0,0,0,2.72-.3,3.52,3.52,0,0,0-1.54-2.26,3.52,3.52,0,0,0-2.72.29A3.53,3.53,0,0,0,49.45,174.06Z"/><path class="cls-4" d="M53.34,183.45a3.58,3.58,0,0,0,2.73-.3,3.6,3.6,0,0,0-1.54-2.27,3.58,3.58,0,0,0-2.73.3A3.6,3.6,0,0,0,53.34,183.45Z"/><path class="cls-17" d="M218.5,186.1c12.49.89,24.89-8.6,27.28-20.89.44-2.26,0-5.36-2.24-5.77a9.68,9.68,0,0,1-1.63-.2c-1.48-.55-1.33-2.7-.73-4.16s1.33-3.29.27-4.45c-.76-.84-2.14-.9-2.83-1.79-1.14-1.5.64-3.57.48-5.45-.18-2.31-3.1-3.44-3.81-5.63-.45-1.38.06-2.89-.21-4.31-.31-1.6-1.55-2.83-2.46-4.17-1.79-2.63-2.42-5.88-3.92-8.68s-4.53-5.31-7.6-4.5c-2.66.7-4.11,3.48-5.25,6L203,150.37a29,29,0,0,0-2.35,6.53c-1,5.39,1.16,11,4.55,15.27s7.92,7.54,12.38,10.71"/><path class="cls-18" d="M221.12,187.18a1.05,1.05,0,0,1,0-2.1c9.08-.13,15.67-6.54,15.73-6.6a1.05,1.05,0,0,1,1.49,1.49c-.3.29-7.24,7.08-17.19,7.21Z"/><path class="cls-19" d="M246.09,166.3c.47-2.66.08-6.62-3.25-7.09-1.05-.15-1.75-.09-1.74-1.35a7.75,7.75,0,0,1,.74-2.56c.58-1.57.84-3.43-.47-4.71a7.62,7.62,0,0,0-2-1.14c-1.08-.58-.77-1.45-.46-2.43.49-1.56.85-3.07,0-4.58-.75-1.35-2.13-2.18-3-3.46a4.78,4.78,0,0,1-.47-3,7,7,0,0,0-.45-3.07c-.82-1.94-2.42-3.43-3.32-5.35-1-2.19-1.69-4.54-2.81-6.69-.63-1.21-2.45-.14-1.82,1.06.94,1.81,1.55,3.75,2.34,5.63a26,26,0,0,0,2.93,4.88,5,5,0,0,1,1,2.67,22.75,22.75,0,0,0,0,3.09,7.24,7.24,0,0,0,2.41,3.76,6,6,0,0,1,1.33,1.65,3.47,3.47,0,0,1-.18,2.49c-.45,1.42-.89,3,.19,4.28a5.25,5.25,0,0,0,1.91,1.22c1.13.54,1.3,1.21,1,2.39-.44,1.56-1.24,2.91-1,4.59a3.1,3.1,0,0,0,.93,1.92,4.09,4.09,0,0,0,2.45.74c1.94.31,1.89,3,1.63,4.48-.23,1.33,1.8,1.9,2,.56Z"/><rect class="cls-8" x="65.1" y="205.15" width="101.47" height="5.89" transform="translate(231.68 416.19) rotate(-180)"/><rect class="cls-20" x="122.08" y="135.41" width="99.88" height="69.74" transform="translate(344.04 340.56) rotate(-180)"/><rect class="cls-21" x="122.08" y="201.01" width="99.88" height="4.14" transform="translate(344.04 406.16) rotate(-180)"/><polygon class="cls-22" points="203.26 93.31 185.5 114.36 173.34 135.41 197.65 135.41 227.57 135.41 215.42 114.36 203.26 93.31"/><polyline class="cls-22" points="203.26 93.31 97.77 93.31 97.77 135.41 186.39 135.41"/><rect class="cls-23" x="69.25" y="135.41" width="52.83" height="69.74" transform="translate(191.33 340.56) rotate(-180)"/><rect class="cls-23" x="122.08" y="135.41" width="99.88" height="4.01" transform="translate(344.04 274.84) rotate(-180)"/><rect class="cls-24" x="192.99" y="173.19" width="18.49" height="20.35" transform="translate(404.48 366.72) rotate(-180)"/><rect class="cls-24" x="162.77" y="173.19" width="18.49" height="20.35" transform="translate(344.04 366.72) rotate(-180)"/><rect class="cls-24" x="132.55" y="173.19" width="18.49" height="20.35" transform="translate(283.6 366.72) rotate(-180)"/><rect class="cls-24" x="162.77" y="147.03" width="18.49" height="20.35" transform="translate(344.04 314.4) rotate(-180)"/><rect class="cls-24" x="192.99" y="147.03" width="18.49" height="20.35" transform="translate(404.48 314.4) rotate(-180)"/><rect class="cls-25" x="197.91" y="150.27" width="8.65" height="6.93" transform="translate(404.48 307.47) rotate(-180)"/><rect class="cls-26" x="197.91" y="157.2" width="8.65" height="6.93" transform="translate(404.48 321.34) rotate(-180)"/><rect class="cls-25" x="197.91" y="176.43" width="8.65" height="6.93" transform="translate(404.48 359.79) rotate(-180)"/><rect class="cls-26" x="197.91" y="183.36" width="8.65" height="6.93" transform="translate(404.48 373.66) rotate(-180)"/><rect class="cls-25" x="167.69" y="176.43" width="8.65" height="6.93" transform="translate(344.04 359.79) rotate(-180)"/><rect class="cls-26" x="167.69" y="183.36" width="8.65" height="6.93" transform="translate(344.04 373.66) rotate(-180)"/><rect class="cls-25" x="137.47" y="176.43" width="8.65" height="6.93" transform="translate(283.6 359.79) rotate(-180)"/><rect class="cls-26" x="137.47" y="183.36" width="8.65" height="6.93" transform="translate(283.6 373.66) rotate(-180)"/><rect class="cls-25" x="167.69" y="150.27" width="8.65" height="6.93" transform="translate(344.04 307.47) rotate(-180)"/><rect class="cls-26" x="167.69" y="157.2" width="8.65" height="6.93" transform="translate(344.04 321.34) rotate(-180)"/><rect class="cls-24" x="132.55" y="147.03" width="18.49" height="20.35" transform="translate(283.6 314.4) rotate(-180)"/><rect class="cls-25" x="137.47" y="150.27" width="8.65" height="6.93" transform="translate(283.6 307.47) rotate(-180)"/><rect class="cls-26" x="137.47" y="157.2" width="8.65" height="6.93" transform="translate(283.6 321.34) rotate(-180)"/><polygon class="cls-23" points="94.17 93.31 80.21 114.71 69.77 136.11 94.17 136.11 122.08 136.11 108.12 114.71 94.17 93.31"/><polygon class="cls-27" points="97.77 93.31 122.08 135.41 116.65 135.41 92.98 93.31 97.77 93.31"/><polygon class="cls-27" points="92.98 93.31 66.57 135.41 72 135.41 97.77 93.31 92.98 93.31"/><rect class="cls-28" x="130.78" y="205.15" width="94.18" height="3.26" transform="translate(355.73 413.56) rotate(-180)"/><polyline class="cls-27" points="199.27 101.42 174.12 101.42 190.02 124.57 195.5 124.57"/><polygon class="cls-24" points="190.02 124.57 208.51 124.57 208.51 112.64 199.27 101.42 190.02 112.64 190.02 124.57"/><path class="cls-25" d="M194.94,108.66h8.65a0,0,0,0,1,0,0v2.61a4.33,4.33,0,0,1-4.33,4.33h0a4.33,4.33,0,0,1-4.33-4.33v-2.61A0,0,0,0,1,194.94,108.66Z" transform="translate(398.53 224.26) rotate(-180)"/><rect class="cls-26" x="194.94" y="115.6" width="8.65" height="6.93" transform="translate(398.53 238.13) rotate(-180)"/><polyline class="cls-27" points="169.64 101.42 145.2 101.42 160.4 124.57 165.88 124.57"/><polygon class="cls-24" points="160.4 124.57 178.89 124.57 178.89 112.64 169.64 101.42 160.4 112.64 160.4 124.57"/><path class="cls-25" d="M165.32,108.66H174a0,0,0,0,1,0,0v2.61a4.33,4.33,0,0,1-4.33,4.33h0a4.33,4.33,0,0,1-4.33-4.33v-2.61A0,0,0,0,1,165.32,108.66Z" transform="translate(339.29 224.26) rotate(-180)"/><rect class="cls-26" x="165.32" y="115.6" width="8.65" height="6.93" transform="translate(339.29 238.13) rotate(-180)"/><polyline class="cls-27" points="140.02 101.42 116.28 101.42 130.78 124.57 136.26 124.57"/><polygon class="cls-24" points="130.78 124.57 149.27 124.57 149.27 112.64 140.02 101.42 130.78 112.64 130.78 124.57"/><path class="cls-25" d="M135.7,108.66h8.65a0,0,0,0,1,0,0v2.61A4.33,4.33,0,0,1,140,115.6h0a4.33,4.33,0,0,1-4.33-4.33v-2.61a0,0,0,0,1,0,0Z" transform="translate(280.04 224.26) rotate(-180)"/><rect class="cls-26" x="135.7" y="115.6" width="8.65" height="6.93" transform="translate(280.04 238.13) rotate(-180)"/><polygon class="cls-29" points="225.31 163.83 227.29 205.15 224.96 205.15 223.87 205.15 223.87 163.83 225.31 163.83"/><polygon class="cls-29" points="230.46 167.01 225.59 172.46 225.66 175.43 230.46 168.99 230.46 167.01"/><polygon class="cls-29" points="233.27 175.33 225.59 181.48 225.66 184.46 233.27 176.61 233.27 175.33"/><circle class="cls-19" cx="227.71" cy="151.26" r="1.72"/><circle class="cls-19" cx="236.71" cy="154.89" r="0.46"/><circle class="cls-19" cx="241.59" cy="164.73" r="0.6"/><circle class="cls-19" cx="239.67" cy="171.22" r="0.94"/><circle class="cls-19" cx="232.28" cy="159.45" r="0.99"/><circle class="cls-19" cx="231.37" cy="138.33" r="0.91"/><circle class="cls-30" cx="354.28" cy="60" r="60"/><circle class="cls-31" cx="330.57" cy="24.37" r="1.68"/><circle class="cls-31" cx="349.79" cy="49.65" r="2.84"/><circle class="cls-31" cx="400.09" cy="37.62" r="3.06"/><circle class="cls-31" cx="369.69" cy="78.68" r="6.21"/><path class="cls-32" d="M375.91,78.76a6.22,6.22,0,1,1-12.23-1.57,6.22,6.22,0,0,0,12,0A6.26,6.26,0,0,1,375.91,78.76Z"/><circle class="cls-31" cx="368.64" cy="24.75" r="5.16"/><circle class="cls-24" cx="308.82" cy="43.2" r="1.55"/><circle class="cls-24" cx="318.8" cy="27.62" r="3.79"/><circle class="cls-24" cx="328.18" cy="11.11" r="1.81"/><circle class="cls-24" cx="337.94" cy="16.4" r="2.45"/><circle class="cls-24" cx="317.34" cy="45.01" r="1.81"/><circle class="cls-31" cx="335.43" cy="91.13" r="2.25"/><circle class="cls-31" cx="320.86" cy="58.25" r="2.37"/><path class="cls-14" d="M329.85,187.51l24.63-7.15a36.85,36.85,0,0,1,37,10l26.19,27.5H340.91Z"/><path class="cls-15" d="M394.9,143.89c-1.26,9.64-4.21,14.32-6.38,16.54v-.64a4.14,4.14,0,0,0-4.13-4.13.13.13,0,0,1-.13-.13V144.15h-4v11.38a4.14,4.14,0,0,0,4.13,4.13.13.13,0,0,1,.13.13v13.06a.13.13,0,0,1-.13.13h-4.27a4.14,4.14,0,0,0-4.13,4.13v11.18h4V177.11a.13.13,0,0,1,.13-.13h4.27a4.14,4.14,0,0,0,4.13-4.13v-7.37a13.74,13.74,0,0,0,3.84-3.32c3.3-4,5.49-10,6.51-17.75Z"/><path class="cls-2" d="M410,119.81a3.85,3.85,0,0,0,3.85-3.85v-7.59a3.85,3.85,0,0,0-3.85-3.85H389.49a15.25,15.25,0,0,0-11.95,5.76,16.89,16.89,0,0,1-13.16,6.62h-.58a2.8,2.8,0,0,0-2.8,2.8v22.91a2.8,2.8,0,0,0,2.8,2.8h41.25a2.8,2.8,0,0,0,2.8-2.8v-.21a2.91,2.91,0,0,1,2.92-2.91h0a3,3,0,0,0,3-3V124.9a3,3,0,0,0-3-3h-1.86a1.07,1.07,0,0,1-1.06-1.06h0a1.07,1.07,0,0,1,1.06-1.06Z"/><path class="cls-14" d="M399.81,119.81a3.85,3.85,0,0,0,3.85-3.85v-7.59a3.86,3.86,0,0,0-3.85-3.85H379.29a15.25,15.25,0,0,0-12,5.76,16.89,16.89,0,0,1-13.15,6.62h-.59a2.8,2.8,0,0,0-2.8,2.8v22.91a2.8,2.8,0,0,0,2.8,2.8h41.26a2.8,2.8,0,0,0,2.8-2.8v-.21a2.91,2.91,0,0,1,2.91-2.91h0a3,3,0,0,0,3-3V124.9a3,3,0,0,0-3-3h-1.86a1.06,1.06,0,0,1-1-1.06h0a1.06,1.06,0,0,1,1-1.06Z"/><path class="cls-14" d="M157.22,183.54c-17.8,1.28-35.47-12.26-38.87-29.77-.63-3.23,0-7.63,3.18-8.22a13.74,13.74,0,0,0,2.33-.29c2.11-.78,1.9-3.85,1-5.93s-1.9-4.68-.38-6.35c1.08-1.18,3-1.27,4-2.54,1.64-2.14-.9-5.09-.68-7.77.27-3.28,4.42-4.9,5.44-8,.63-2-.09-4.12.3-6.14.44-2.27,2.19-4,3.5-5.94,2.55-3.75,3.45-8.37,5.59-12.37s6.45-7.56,10.83-6.41c3.79,1,5.86,5,7.47,8.52l18.3,40.32a41.16,41.16,0,0,1,3.36,9.31c1.43,7.67-1.65,15.64-6.49,21.76S164.87,174.43,158.51,179"/><rect class="cls-33" x="148.56" y="156.57" width="4" height="14.13"/><path class="cls-4" d="M153.48,185.08h0c-14.18-.19-24.08-9.87-24.49-10.28a1.5,1.5,0,0,1,2.11-2.13c.09.1,9.48,9.24,22.42,9.41a1.51,1.51,0,0,1,1.48,1.53A1.49,1.49,0,0,1,153.48,185.08Z"/><polygon class="cls-34" points="155.23 176.51 149.28 184.26 149.38 188.51 155.23 179.33 155.23 176.51"/><polygon class="cls-34" points="155.23 163.38 149.28 171.14 149.38 175.38 155.23 166.2 155.23 163.38"/><rect class="cls-33" x="148.56" y="114.16" width="4" height="33.13"/><path class="cls-4" d="M119.79,154.53c-.31-1.74-.41-4.33.9-5.73.76-.8,1.81-.61,2.81-.77a3.89,3.89,0,0,0,2.86-1.87c1.1-1.87.67-4.32-.08-6.23a10.8,10.8,0,0,1-1-3.46c0-1.31.87-1.72,1.93-2.2,2.34-1.05,3.75-2.76,3.31-5.44-.36-2.16-1.92-4.37-.52-6.44,1.18-1.73,3-2.9,4.11-4.72a7.49,7.49,0,0,0,1-3.58c.06-1.59-.35-3.22.17-4.76a14.63,14.63,0,0,1,2.47-3.9,23,23,0,0,0,2.33-3.9c1.44-3.09,2.36-6.39,3.94-9.42.9-1.7-1.69-3.22-2.59-1.51-1.45,2.78-2.36,5.77-3.59,8.64a22.66,22.66,0,0,1-2,3.73c-.8,1.18-1.75,2.26-2.49,3.48A8.92,8.92,0,0,0,132,110.1c-.17,1.62.28,3.29-.06,4.89-.47,2.17-2.81,3.58-4.12,5.25a6.88,6.88,0,0,0-1,6.72c.28.94,1,2.2.72,3.21s-1.66,1.35-2.51,1.78c-2.52,1.25-3.2,3.72-2.55,6.33.41,1.62,2.42,4.68,1.25,6.37-.35.5-.89.44-1.45.48a6.76,6.76,0,0,0-2,.39,5.28,5.28,0,0,0-2.63,2.35,11.39,11.39,0,0,0-.79,7.46c.34,1.9,3.24,1.09,2.89-.8Z"/><rect class="cls-8" x="231.22" y="210.69" width="144.62" height="7.15"/><rect class="cls-20" x="152.29" y="111.3" width="142.35" height="99.39"/><polygon class="cls-22" points="178.94 51.3 204.26 81.3 221.58 111.3 186.94 111.3 141.29 111.3 159.61 81.3 178.94 51.3"/><polyline class="cls-22" points="178.94 51.3 329.28 51.3 329.28 111.3 202.99 111.3"/><polygon class="cls-23" points="369.57 210.69 294.29 210.69 294.48 111.3 369.57 111.02 369.57 210.69"/><rect class="cls-23" x="152.29" y="111.3" width="142.35" height="5.72"/><rect class="cls-24" x="210.29" y="127.86" width="26.35" height="29"/><rect class="cls-26" x="212.04" y="129.78" width="22.85" height="25.15"/><polygon class="cls-35" points="223.89 154.93 222.04 154.93 227.04 129.78 228.89 129.78 223.89 154.93"/><polygon class="cls-35" points="219.89 154.93 216.03 154.93 221.03 129.78 224.89 129.78 219.89 154.93"/><rect class="cls-24" x="306.9" y="165.14" width="20.95" height="29"/><polygon class="cls-23" points="334.41 51.3 354.3 81.8 369.19 112.3 334.41 112.3 294.64 112.3 314.53 81.8 334.41 51.3"/><rect class="cls-28" x="14.1" y="210.69" width="268.14" height="7.15"/><polyline class="cls-27" points="184.63 62.85 220.47 62.85 197.81 95.85 190 95.85"/><polygon class="cls-20" points="197.81 95.85 171.46 95.85 171.46 78.85 184.63 62.85 197.81 78.85 197.81 95.85"/><path class="cls-26" d="M190.8,79.35V93H178.47V79.35a6.17,6.17,0,0,1,12.33,0Z"/><polyline class="cls-27" points="226.85 62.85 261.68 62.85 240.03 95.85 232.22 95.85"/><polygon class="cls-20" points="240.03 95.85 213.67 95.85 213.67 78.85 226.85 62.85 240.03 78.85 240.03 95.85"/><path class="cls-26" d="M233,79.35V93H220.69V79.35a6.16,6.16,0,1,1,12.32,0Z"/><polyline class="cls-27" points="269.06 62.85 302.9 62.85 282.24 95.85 274.43 95.85"/><polygon class="cls-20" points="282.24 95.85 255.89 95.85 255.89 78.85 269.06 62.85 282.24 78.85 282.24 95.85"/><path class="cls-26" d="M275.23,79.35V93H262.9V79.35a6.17,6.17,0,1,1,12.33,0Z"/><polygon class="cls-34" points="147.52 151.8 144.69 210.69 148.02 210.69 149.56 210.69 149.56 151.8 147.52 151.8"/><polygon class="cls-34" points="141.18 156.34 147.13 164.1 147.02 168.34 141.18 159.16 141.18 156.34"/><polygon class="cls-34" points="136.18 168.2 147.13 176.96 147.02 181.2 136.18 170.02 136.18 168.2"/><circle class="cls-4" cx="144.1" cy="133.89" r="2.45"/><circle class="cls-4" cx="131.27" cy="139.07" r="0.66"/><circle class="cls-4" cx="124.31" cy="153.09" r="0.85"/><circle class="cls-4" cx="127.06" cy="162.34" r="1.34"/><circle class="cls-4" cx="137.59" cy="145.56" r="1.41"/><circle class="cls-4" cx="138.88" cy="115.46" r="1.29"/><circle class="cls-4" cx="397.73" cy="136.7" r="1.91"/><circle class="cls-4" cx="388.68" cy="130.76" r="0.52"/><circle class="cls-4" cx="376.57" cy="132.52" r="0.66"/><circle class="cls-4" cx="371.84" cy="138.41" r="1.05"/><circle class="cls-4" cx="387.32" cy="137.71" r="1.1"/><circle class="cls-4" cx="407.26" cy="125.14" r="1.01"/><rect class="cls-27" x="152.25" y="102.95" width="12.8" height="3.54" rx="1.77"/><rect class="cls-27" x="194.23" y="55.96" width="12.8" height="3.54" rx="1.77"/><rect class="cls-27" x="264.61" y="104.06" width="12.8" height="3.54" rx="1.77"/><rect class="cls-27" x="246.71" y="53.96" width="12.8" height="3.54" rx="1.77"/><rect class="cls-27" x="305.65" y="55.73" width="12.8" height="3.54" rx="1.77"/><rect class="cls-27" x="197.81" y="104.06" width="12.8" height="3.54" rx="1.77"/><rect class="cls-23" x="159.74" y="119.2" width="10.64" height="2.62" rx="1.31"/><rect class="cls-23" x="170.84" y="123.06" width="10.64" height="2.62" rx="1.31"/><rect class="cls-23" x="265.69" y="121.84" width="10.64" height="2.62" rx="1.31"/><rect class="cls-36" x="312.05" y="118.77" width="10.64" height="2.62" rx="1.31"/><rect class="cls-36" x="336.3" y="109.31" width="10.64" height="2.62" rx="1.31"/><rect class="cls-36" x="343.53" y="202.38" width="10.64" height="2.62" rx="1.31"/><rect class="cls-36" x="301.57" y="196.18" width="10.64" height="2.62" rx="1.31"/><rect class="cls-36" x="313.76" y="202.41" width="10.64" height="2.62" rx="1.31"/><rect class="cls-36" x="352.54" y="117.89" width="10.64" height="2.62" rx="1.31"/><rect class="cls-23" x="208.35" y="121.13" width="10.64" height="2.62" rx="1.31"/><rect class="cls-23" x="218.14" y="201.11" width="10.64" height="2.62" rx="1.31"/><rect class="cls-37" x="152.35" y="212.08" width="10.64" height="2.62" rx="1.31"/><rect class="cls-37" x="184.42" y="214.08" width="9.33" height="2.3" rx="1.15"/><rect class="cls-37" x="220.22" y="212.94" width="9.33" height="2.3" rx="1.15"/><rect class="cls-37" x="243.86" y="212.25" width="9.33" height="2.3" rx="1.15"/><rect class="cls-37" x="269.88" y="214.08" width="9.33" height="2.3" rx="1.15"/><rect class="cls-23" x="260.37" y="202.38" width="10.64" height="2.62" rx="1.31"/><rect class="cls-23" x="154.42" y="168.45" width="7.59" height="1.87" rx="0.93"/><rect class="cls-23" x="157.67" y="170.31" width="7.59" height="1.87" rx="0.93"/><rect class="cls-23" x="154.42" y="172.18" width="7.59" height="1.87" rx="0.93"/><rect class="cls-23" x="169.28" y="201.86" width="7.59" height="1.87" rx="0.93" transform="translate(346.16 405.58) rotate(180)"/><rect class="cls-23" x="166.04" y="203.73" width="7.59" height="1.87" rx="0.93" transform="translate(339.67 409.32) rotate(180)"/><rect class="cls-23" x="169.28" y="205.59" width="7.59" height="1.87" rx="0.93" transform="translate(346.16 413.05) rotate(180)"/><rect class="cls-23" x="198.31" y="174.05" width="7.59" height="1.87" rx="0.93" transform="translate(404.21 349.97) rotate(180)"/><rect class="cls-23" x="195.06" y="175.92" width="7.59" height="1.87" rx="0.93" transform="translate(397.71 353.7) rotate(-180)"/><rect class="cls-23" x="198.31" y="177.79" width="7.59" height="1.87" rx="0.93" transform="translate(404.21 357.44) rotate(-180)"/><g class="cls-38"><rect class="cls-23" x="242.58" y="138.27" width="7.59" height="1.87" rx="0.93" transform="translate(492.75 278.4) rotate(180)"/><rect class="cls-23" x="239.33" y="140.14" width="7.59" height="1.87" rx="0.93" transform="translate(486.26 282.14) rotate(180)"/><rect class="cls-23" x="242.58" y="142" width="7.59" height="1.87" rx="0.93" transform="translate(492.75 285.88) rotate(180)"/></g><g class="cls-38"><rect class="cls-23" x="283.81" y="162.34" width="7.59" height="1.87" rx="0.93" transform="translate(575.21 326.54) rotate(-180)"/><rect class="cls-23" x="280.56" y="164.2" width="7.59" height="1.87" rx="0.93" transform="translate(568.71 330.28) rotate(-180)"/><rect class="cls-23" x="283.81" y="166.07" width="7.59" height="1.87" rx="0.93" transform="translate(575.21 334.01) rotate(-180)"/></g><rect class="cls-23" x="238.94" y="179.89" width="10.64" height="2.62" rx="1.31"/><rect class="cls-24" x="213.15" y="132.47" width="2.05" height="9.88" rx="1.02"/><rect class="cls-39" x="206.35" y="158.46" width="32.18" height="2.91"/><rect class="cls-22" x="206.35" y="156.86" width="32.18" height="1.6"/><rect class="cls-24" x="167.22" y="127.86" width="26.35" height="29"/><rect class="cls-39" x="162.88" y="158.46" width="32.18" height="2.91"/><rect class="cls-22" x="162.88" y="156.86" width="32.18" height="1.6"/><rect class="cls-40" x="166.91" y="97.45" width="32.18" height="2.91"/><rect class="cls-27" x="166.91" y="95.85" width="32.18" height="1.6"/><rect class="cls-40" x="209.2" y="97.45" width="32.18" height="2.91"/><rect class="cls-27" x="209.2" y="95.85" width="32.18" height="1.6"/><rect class="cls-40" x="251.92" y="97.45" width="32.18" height="2.91"/><rect class="cls-27" x="251.92" y="95.85" width="32.18" height="1.6"/><rect class="cls-26" x="168.97" y="129.78" width="22.85" height="25.15"/><polygon class="cls-35" points="180.82 154.93 178.97 154.93 183.97 129.78 185.82 129.78 180.82 154.93"/><polygon class="cls-35" points="176.82 154.93 172.97 154.93 177.97 129.78 181.82 129.78 176.82 154.93"/><rect class="cls-24" x="252.86" y="127.86" width="26.35" height="29"/><rect class="cls-39" x="248.53" y="158.46" width="32.18" height="2.91"/><rect class="cls-22" x="248.53" y="156.86" width="32.18" height="1.6"/><rect class="cls-26" x="254.61" y="129.78" width="22.85" height="25.15"/><rect class="cls-24" x="306.9" y="127.86" width="20.95" height="29"/><rect class="cls-41" x="309.06" y="129.78" width="16.85" height="25.15"/><polygon class="cls-42" points="314.23 154.93 309.86 154.93 315.19 129.78 319.7 129.78 314.23 154.93"/><polygon class="cls-42" points="317.45 154.93 316.07 154.93 321.4 129.78 322.92 129.78 317.45 154.93"/><rect class="cls-24" x="79.04" y="144.51" width="12.47" height="17.26"/><rect class="cls-41" x="80.33" y="145.66" width="10.03" height="14.97"/><polygon class="cls-42" points="83.41 160.63 80.8 160.63 83.97 145.66 86.66 145.66 83.41 160.63"/><polygon class="cls-42" points="85.32 160.63 84.5 160.63 87.67 145.66 88.58 145.66 85.32 160.63"/><rect class="cls-24" x="96.92" y="144.51" width="12.47" height="17.26"/><rect class="cls-41" x="98.21" y="145.66" width="10.03" height="14.97"/><polygon class="cls-42" points="101.29 160.63 98.68 160.63 101.85 145.66 104.54 145.66 101.29 160.63"/><polygon class="cls-42" points="103.2 160.63 102.38 160.63 105.55 145.66 106.46 145.66 103.2 160.63"/><rect class="cls-24" x="79.04" y="166.32" width="12.47" height="17.26"/><rect class="cls-41" x="80.33" y="167.47" width="10.03" height="14.97"/><polygon class="cls-42" points="83.41 182.44 80.8 182.44 83.97 167.47 86.66 167.47 83.41 182.44"/><polygon class="cls-42" points="85.32 182.44 84.5 182.44 87.67 167.47 88.58 167.47 85.32 182.44"/><rect class="cls-24" x="96.92" y="166.32" width="12.47" height="17.26"/><rect class="cls-41" x="98.21" y="167.47" width="10.03" height="14.97"/><polygon class="cls-42" points="101.29 182.44 98.68 182.44 101.85 167.47 104.54 167.47 101.29 182.44"/><polygon class="cls-42" points="103.2 182.44 102.38 182.44 105.55 167.47 106.46 167.47 103.2 182.44"/><rect class="cls-24" x="337.96" y="127.86" width="20.95" height="29"/><rect class="cls-41" x="340.01" y="129.78" width="16.85" height="25.15"/><rect class="cls-24" x="329.28" y="90.1" width="8.45" height="13.09"/><rect class="cls-41" x="330.11" y="90.97" width="6.8" height="11.36"/><polygon class="cls-42" points="333.91 102.33 332.11 102.33 334.11 90.97 335.91 90.97 333.91 102.33"/><rect class="cls-24" x="337.96" y="165.14" width="20.95" height="29"/><rect class="cls-41" x="340.01" y="167.04" width="16.85" height="25.15"/><rect class="cls-41" x="309.06" y="167.31" width="16.85" height="25.15"/><polygon class="cls-35" points="266.47 154.93 264.61 154.93 269.61 129.78 271.47 129.78 266.47 154.93"/><polygon class="cls-35" points="262.46 154.93 258.61 154.93 263.61 129.78 267.46 129.78 262.46 154.93"/><rect class="cls-24" x="252.86" y="165.12" width="26.35" height="29"/><rect class="cls-39" x="248.53" y="195.72" width="32.18" height="2.91"/><rect class="cls-22" x="248.53" y="194.12" width="32.18" height="1.6"/><rect class="cls-26" x="254.61" y="167.04" width="22.85" height="25.15"/><polygon class="cls-35" points="266.47 192.19 264.61 192.19 269.61 167.04 271.47 167.04 266.47 192.19"/><polygon class="cls-35" points="262.46 192.19 258.61 192.19 263.61 167.04 267.46 167.04 262.46 192.19"/><rect class="cls-24" x="167.22" y="165.12" width="26.35" height="29"/><rect class="cls-39" x="162.88" y="195.72" width="32.18" height="2.91"/><rect class="cls-22" x="162.88" y="194.12" width="32.18" height="1.6"/><rect class="cls-26" x="168.97" y="167.04" width="22.85" height="25.15"/><polygon class="cls-35" points="180.82 192.19 178.97 192.19 183.97 167.04 185.82 167.04 180.82 192.19"/><polygon class="cls-35" points="176.82 192.19 172.97 192.19 177.97 167.04 181.82 167.04 176.82 192.19"/><rect class="cls-24" x="210.69" y="165.12" width="26.35" height="29"/><rect class="cls-39" x="206.35" y="195.72" width="32.18" height="2.91"/><rect class="cls-22" x="206.35" y="194.12" width="32.18" height="1.6"/><rect class="cls-26" x="212.44" y="167.04" width="22.85" height="25.15"/><polygon class="cls-35" points="224.29 192.19 222.44 192.19 227.44 167.04 229.29 167.04 224.29 192.19"/><polygon class="cls-35" points="220.29 192.19 216.43 192.19 221.43 167.04 225.29 167.04 220.29 192.19"/><rect class="cls-43" x="184.38" y="74.41" width="0.5" height="17.6"/><rect class="cls-43" x="179.47" y="79.1" width="10.44" height="0.5"/><rect class="cls-43" x="179.47" y="84.34" width="10.44" height="0.5"/><rect class="cls-43" x="179.47" y="89.59" width="10.44" height="0.5"/><rect class="cls-43" x="226.55" y="74.41" width="0.5" height="17.6"/><rect class="cls-43" x="221.63" y="79.1" width="10.44" height="0.5"/><rect class="cls-43" x="221.63" y="84.34" width="10.44" height="0.5"/><rect class="cls-43" x="221.63" y="89.59" width="10.44" height="0.5"/><rect class="cls-43" x="268.76" y="74.41" width="0.5" height="17.6"/><rect class="cls-43" x="263.85" y="79.1" width="10.44" height="0.5"/><rect class="cls-43" x="263.85" y="84.34" width="10.44" height="0.5"/><rect class="cls-43" x="263.85" y="89.59" width="10.44" height="0.5"/><path class="cls-44" d="M190.8,79.35V93H178.47v0L188.7,74.73A2.35,2.35,0,0,1,189,75,6.13,6.13,0,0,1,190.8,79.35Z"/><path class="cls-44" d="M233,79.35V93H220.68v0l10.23-18.17a2.35,2.35,0,0,1,.29.26A6.13,6.13,0,0,1,233,79.35Z"/><path class="cls-44" d="M275.23,79.35V93H262.9v0l10.23-18.17a2.35,2.35,0,0,1,.29.26A6.13,6.13,0,0,1,275.23,79.35Z"/><polygon class="cls-36" points="363.05 113.17 332.99 65.5 305.4 113.06 299.35 109.55 332.75 51.98 368.97 109.44 363.05 113.17"/><polygon class="cls-27" points="329.28 51.3 294.64 111.3 302.38 111.3 336.11 51.3 329.28 51.3"/><polygon class="cls-27" points="336.11 51.3 373.75 111.3 366.01 111.3 329.28 51.3 336.11 51.3"/><rect class="cls-8" x="292.78" y="117.02" width="4.24" height="87.64"/><path class="cls-45" d="M305.39,208.68h-5.57a5.94,5.94,0,0,1-5.93-5.93v-4.12h2v4.12a3.94,3.94,0,0,0,3.93,3.93h5.57Z"/><path class="cls-46" d="M293.64,187.89a.75.75,0,0,1-.75-.75V181.2a.75.75,0,0,1,1.5,0v5.94A.76.76,0,0,1,293.64,187.89Z"/><path class="cls-47" d="M296.07,196.14a1,1,0,0,1-1-1v-4.95a1,1,0,0,1,2,0v4.95A1,1,0,0,1,296.07,196.14Z"/><path class="cls-46" d="M296.3,155.68a.76.76,0,0,1-.75-.75V149a.75.75,0,0,1,1.5,0v5.94A.75.75,0,0,1,296.3,155.68Z"/><path class="cls-48" d="M293.64,131.15a.75.75,0,0,1-.75-.75v-6a.75.75,0,1,1,1.5,0v6A.76.76,0,0,1,293.64,131.15Z"/><path class="cls-48" d="M293.64,166.06a.75.75,0,0,1-.75-.75v-5.95a.75.75,0,0,1,1.5,0v5.95A.76.76,0,0,1,293.64,166.06Z"/><polygon class="cls-16" points="146.43 200.67 146.18 200.66 146.45 194.11 146.7 194.12 146.43 200.67"/><polygon class="cls-16" points="147.12 205.14 146.87 205.13 147.13 198.58 147.38 198.59 147.12 205.14"/><polygon class="cls-16" points="146.85 188.51 146.6 188.5 146.87 181.95 147.12 181.96 146.85 188.51"/><rect class="cls-16" x="148.89" y="201.86" width="0.25" height="4.07"/><rect class="cls-16" x="148.89" y="187.74" width="0.25" height="4.07"/><polygon class="cls-16" points="145.48 208.47 145.23 208.46 145.37 204.65 145.62 204.66 145.48 208.47"/><path class="cls-4" d="M393.86,105.52H379.29a1,1,0,0,1,0-2h14.57a1,1,0,0,1,0,2Z"/><rect class="cls-16" x="387.3" y="165.2" width="0.25" height="4.31"/><rect class="cls-16" x="378.84" y="176.01" width="0.25" height="4.31"/><rect class="cls-16" x="386.12" y="158.84" width="0.25" height="4.31"/><rect class="cls-16" x="381.73" y="147.51" width="0.25" height="4.31"/><rect class="cls-16" x="385.69" y="164.22" width="0.25" height="1.83"/><rect class="cls-16" x="386.21" y="167.21" width="0.25" height="4.31"/><rect class="cls-16" x="382.44" y="149.99" width="0.25" height="1.83"/><rect class="cls-16" x="382.97" y="152.97" width="0.25" height="4.31"/><rect class="cls-16" x="376.84" y="178.48" width="0.25" height="1.83"/><rect class="cls-16" x="377.37" y="181.47" width="0.25" height="4.31"/><rect class="cls-16" x="380.26" y="145.41" width="4" height="2.1"/><path class="cls-2" d="M381.86,206.74h0a1.52,1.52,0,0,1,1.52,1.52v9.59a0,0,0,0,1,0,0h-3a0,0,0,0,1,0,0v-9.59A1.52,1.52,0,0,1,381.86,206.74Z"/><path class="cls-3" d="M372.78,199.48h0A1.52,1.52,0,0,1,374.3,201v9.59a0,0,0,0,1,0,0h-3a0,0,0,0,1,0,0V201a1.52,1.52,0,0,1,1.52-1.52Z"/><path class="cls-2" d="M386.73,199.77h0a2.47,2.47,0,0,1,2.47,2.47v15.6a0,0,0,0,1,0,0h-4.94a0,0,0,0,1,0,0v-15.6A2.47,2.47,0,0,1,386.73,199.77Z"/><path class="cls-2" d="M392.9,206.74h0a1.52,1.52,0,0,1,1.52,1.52v9.59a0,0,0,0,1,0,0h-3a0,0,0,0,1,0,0v-9.59a1.52,1.52,0,0,1,1.52-1.52Z"/><path class="cls-3" d="M389,208.26h0a1.31,1.31,0,0,1,1.31,1.31v8.28a0,0,0,0,1,0,0h-2.62a0,0,0,0,1,0,0v-8.28A1.31,1.31,0,0,1,389,208.26Z"/><path class="cls-3" d="M380.34,208.26h0a1.31,1.31,0,0,1,1.31,1.31v8.28a0,0,0,0,1,0,0H379a0,0,0,0,1,0,0v-8.28a1.31,1.31,0,0,1,1.31-1.31Z"/><path class="cls-2" d="M388.39,182.45h0a1.37,1.37,0,0,1,1.37,1.37v8.62a0,0,0,0,1,0,0H387a0,0,0,0,1,0,0v-8.62a1.37,1.37,0,0,1,1.37-1.37Z" transform="translate(117.27 -147.92) rotate(25.28)"/><path class="cls-2" d="M390.65,187.58h0a.84.84,0,0,1,.84.84v5.3a0,0,0,0,1,0,0h-1.68a0,0,0,0,1,0,0v-5.3A.84.84,0,0,1,390.65,187.58Z" transform="translate(118.85 -148.58) rotate(25.28)"/><path class="cls-3" d="M388.52,187.46h0a.72.72,0,0,1,.72.72v4.57a0,0,0,0,1,0,0H387.8a0,0,0,0,1,0,0v-4.57A.72.72,0,0,1,388.52,187.46Z" transform="translate(118.41 -147.73) rotate(25.28)"/><path class="cls-3" d="M384.19,185.41h0a.72.72,0,0,1,.72.72v4.57a0,0,0,0,1,0,0h-1.45a0,0,0,0,1,0,0v-4.57A.72.72,0,0,1,384.19,185.41Z" transform="translate(117.13 -146.07) rotate(25.28)"/><path class="cls-2" d="M399.76,153.92c1.69,1.87,1,5.22,1,5.22s-3.4.32-5.09-1.55-1-5.22-1-5.22S398.07,152.05,399.76,153.92Z"/><path class="cls-14" d="M379.53,150.51c1.69,1.87,1,5.22,1,5.22s-3.4.32-5.09-1.54-1-5.22-1-5.22S377.84,148.64,379.53,150.51Z"/><path class="cls-2" d="M419.89,147.37c1.18,1.32.71,3.69.71,3.69s-2.4.22-3.59-1.09-.71-3.69-.71-3.69S418.7,146.06,419.89,147.37Z"/><path class="cls-14" d="M413.23,155.71c-.9,1.53-3.29,1.8-3.29,1.8s-.94-2.22-.05-3.76,3.3-1.79,3.3-1.79S414.13,154.18,413.23,155.71Z"/><path class="cls-14" d="M407.91,174.08c-.89,1.54-3.29,1.8-3.29,1.8s-.94-2.22,0-3.75,3.29-1.8,3.29-1.8S408.81,172.55,407.91,174.08Z"/><path class="cls-14" d="M417.87,175.27c-.9,1.53-3.29,1.79-3.29,1.79s-.94-2.22,0-3.75,3.29-1.8,3.29-1.8S418.77,173.73,417.87,175.27Z"/><path class="cls-4" d="M407.06,167.06c-1.61.75-3.73-.4-3.73-.4s.49-2.36,2.11-3.11,3.73.41,3.73.41S408.67,166.32,407.06,167.06Z"/><path class="cls-4" d="M401.72,179.92c-1.61.74-3.73-.41-3.73-.41s.5-2.36,2.11-3.1,3.73.4,3.73.4S403.33,179.17,401.72,179.92Z"/><rect class="cls-14" x="8.16" y="217.03" width="455.72" height="16.6" rx="8.3"/><rect class="cls-4" x="242.86" y="220.48" width="19.07" height="3.47" rx="1.73"/><rect class="cls-4" x="350.82" y="219.87" width="19.07" height="3.47" rx="1.73"/><rect class="cls-4" x="297.73" y="215.73" width="19.07" height="3.47" rx="1.73"/><rect class="cls-14" x="318.06" y="231.55" width="19.07" height="3.47" rx="1.73"/><rect class="cls-4" x="25.05" y="223.95" width="13.68" height="2.49" rx="1.24"/><rect class="cls-4" x="60.34" y="222.44" width="13.68" height="2.49" rx="1.24"/><rect class="cls-49" x="96.43" y="227.2" width="10.96" height="1.99" rx="1"/><rect class="cls-4" x="145.33" y="223.95" width="13.68" height="2.49" rx="1.24"/><rect class="cls-4" x="180.62" y="222.44" width="13.68" height="2.49" rx="1.24"/><rect class="cls-49" x="160.57" y="228.11" width="10.96" height="1.99" rx="1"/><rect class="cls-49" x="195.74" y="226.94" width="10.96" height="1.99" rx="1"/><rect class="cls-49" x="218.02" y="223.9" width="10.96" height="1.99" rx="1"/><circle class="cls-1" cx="411.09" cy="208.44" r="0.53"/><circle class="cls-1" cx="412.55" cy="203.52" r="0.6"/><circle class="cls-1" cx="408.43" cy="194.88" r="0.6"/><circle class="cls-1" cx="408.27" cy="201.83" r="0.9"/><circle class="cls-1" cx="410.33" cy="204.95" r="0.56"/><circle class="cls-1" cx="412.29" cy="206.71" r="0.4"/><circle class="cls-1" cx="413.88" cy="207.91" r="0.47"/><circle class="cls-4" cx="372.27" cy="192.24" r="0.53"/><circle class="cls-4" cx="373.73" cy="187.33" r="0.6"/><circle class="cls-4" cx="369.61" cy="178.69" r="0.6"/><circle class="cls-4" cx="369.44" cy="185.63" r="0.9"/><circle class="cls-4" cx="371.5" cy="188.76" r="0.56"/><circle class="cls-4" cx="373.46" cy="190.52" r="0.4"/><circle class="cls-4" cx="375.06" cy="191.71" r="0.47"/><circle class="cls-4" cx="429.82" cy="233.75" r="0.53"/><circle class="cls-4" cx="431.28" cy="228.84" r="0.6"/><circle class="cls-4" cx="427.16" cy="220.2" r="0.6"/><circle class="cls-4" cx="427" cy="227.14" r="0.9"/><circle class="cls-4" cx="429.06" cy="230.27" r="0.56"/><circle class="cls-4" cx="431.02" cy="232.03" r="0.4"/><circle class="cls-4" cx="432.61" cy="233.22" r="0.47"/><rect class="cls-23" x="366.45" y="123.73" width="10.33" height="2.75"/><rect class="cls-23" x="364.13" y="129.2" width="7.84" height="2.75"/><rect class="cls-36" x="367.62" y="126.48" width="5.84" height="2.75"/><rect class="cls-23" x="146.49" y="136.26" width="10.33" height="2.75" transform="translate(303.31 275.26) rotate(-180)"/><rect class="cls-23" x="151.3" y="141.76" width="7.84" height="2.75" transform="translate(310.45 286.28) rotate(-180)"/><rect class="cls-20" x="149.81" y="139.01" width="5.84" height="2.75" transform="translate(305.46 280.77) rotate(-180)"/><rect class="cls-23" x="363.23" y="192.44" width="10.33" height="2.75"/><rect class="cls-23" x="360.9" y="197.91" width="7.84" height="2.75"/><rect class="cls-36" x="364.4" y="195.2" width="5.84" height="2.75"/><circle class="cls-5" cx="459.36" cy="139.16" r="3.58"/><circle class="cls-5" cx="99.65" cy="56.34" r="3.58"/><path class="cls-5" d="M241.58,29.39h-1.44A8.28,8.28,0,0,0,232,22.77a8.16,8.16,0,0,0-3.69.88,13.45,13.45,0,0,0-19.61-3.17,17.24,17.24,0,0,0-30.8,8.91h-.19a2.84,2.84,0,0,0-2.84,2.84h0a2.84,2.84,0,0,0,2.84,2.84h63.84a2.84,2.84,0,0,0,2.83-2.84h0A2.84,2.84,0,0,0,241.58,29.39Z"/><circle class="cls-5" cx="211.34" cy="11.9" r="2.99"/><circle class="cls-5" cx="230.73" cy="15.84" r="2.36"/><circle class="cls-5" cx="437.53" cy="103.77" r="2.82"/><rect class="cls-24" x="90.61" y="122.04" width="8.45" height="13.09"/><rect class="cls-41" x="91.43" y="122.91" width="6.8" height="11.36"/><polygon class="cls-42" points="95.23 134.27 93.43 134.27 95.43 122.91 97.23 122.91 95.23 134.27"/><circle class="cls-5" cx="71.69" cy="84.76" r="2.82"/><rect class="cls-2" x="400.13" y="231.55" width="19.07" height="3.47" rx="1.73"/><rect class="cls-2" x="433.26" y="231.92" width="19.07" height="3.47" rx="1.73"/><polygon class="cls-42" points="346.05 154.93 341.67 154.93 347 129.78 351.52 129.78 346.05 154.93"/><polygon class="cls-42" points="349.26 154.93 347.88 154.93 353.21 129.78 354.73 129.78 349.26 154.93"/><polygon class="cls-42" points="314.61 192.58 310.23 192.58 315.56 167.43 320.08 167.43 314.61 192.58"/><polygon class="cls-42" points="317.82 192.58 316.45 192.58 321.77 167.43 323.29 167.43 317.82 192.58"/><polygon class="cls-42" points="346.7 192.22 342.33 192.22 347.66 167.07 352.18 167.07 346.7 192.22"/><polygon class="cls-42" points="349.92 192.22 348.54 192.22 353.87 167.07 355.39 167.07 349.92 192.22"/></g></g></svg>