<svg xmlns="http://www.w3.org/2000/svg" viewBox="0 0 653.65 840.58"><defs><style>.cls-1{fill:#c64f4f;}.cls-2{fill:#ffb999;}.cls-11,.cls-15,.cls-3,.cls-5{fill:#f99269;}.cls-4{fill:#feb999;}.cls-5{opacity:0.56;}.cls-6{fill:#7bb7b0;}.cls-7{fill:#333;}.cls-8{fill:#4a949f;}.cls-24,.cls-9{fill:#005c84;}.cls-23,.cls-9{opacity:0.39;}.cls-10{fill:#ffe986;}.cls-11{opacity:0.63;}.cls-12{fill:#b79815;}.cls-13{fill:#95d1c8;}.cls-14{fill:#dbb721;}.cls-15{opacity:0.38;}.cls-16{fill:#1e1e1e;}.cls-17,.cls-28,.cls-29{fill:#fff;}.cls-18{fill:#d4f0fc;}.cls-19{fill:#ffd5c5;}.cls-20{fill:#f2d249;}.cls-21{opacity:0.57;}.cls-22{fill:#d6bb4c;}.cls-25{fill:#ad3d3d;}.cls-26,.cls-31{fill:#fff6d2;}.cls-26{opacity:0.66;}.cls-27{fill:#fba07b;opacity:0.5;isolation:isolate;}.cls-28{opacity:0.42;}.cls-29{opacity:0.82;}.cls-30{fill:#d1f2ec;}</style></defs><g id="Layer_2" data-name="Layer 2"><g id="Layer_3" data-name="Layer 3"><circle class="cls-1" cx="159.88" cy="18.64" r="13.27"/><circle class="cls-1" cx="180.21" cy="31.62" r="13.27"/><circle class="cls-1" cx="191.79" cy="50.26" r="13.27"/><circle class="cls-2" cx="191.81" cy="69.18" r="13.27"/><circle class="cls-1" cx="123.48" cy="18.92" r="13.27"/><circle class="cls-1" cx="103.15" cy="31.91" r="13.27"/><circle class="cls-1" cx="91.58" cy="50.54" r="13.27"/><circle class="cls-2" cx="87.06" cy="69.18" r="13.27"/><circle class="cls-3" cx="87.06" cy="69.18" r="7.25"/><circle class="cls-3" cx="192.09" cy="69.18" r="7.25"/><rect class="cls-4" x="71.6" y="392.5" width="34.7" height="406.07"/><rect class="cls-5" x="71.6" y="392.5" width="34.7" height="362.76"/><rect class="cls-4" x="173.25" y="392.5" width="34.7" height="406.07"/><rect class="cls-5" x="173.25" y="392.5" width="34.7" height="364.62"/><rect class="cls-6" x="62.41" y="339.98" width="53.08" height="406.07"/><rect class="cls-6" x="164.36" y="339.98" width="53.08" height="406.07"/><rect class="cls-7" x="71.6" y="798.9" width="34.7" height="33.55"/><rect class="cls-7" x="15.13" y="832.4" width="102.78" height="5.65"/><rect class="cls-7" x="172.99" y="798.9" width="34.7" height="33.55" transform="translate(380.67 1631.35) rotate(-180)"/><rect class="cls-7" x="161.38" y="832.4" width="102.78" height="5.65" transform="translate(425.55 1670.45) rotate(-180)"/><path class="cls-8" d="M115.46,737h-53a.36.36,0,1,1,0-.72h53a.36.36,0,0,1,0,.72Z"/><path class="cls-8" d="M115.46,741h-53a.36.36,0,1,1,0-.71h53a.36.36,0,0,1,0,.71Z"/><rect class="cls-3" x="64.71" y="783.6" width="27.03" height="1"/><rect class="cls-3" x="64.71" y="787.55" width="27.03" height="1"/><rect class="cls-3" x="186.68" y="783.6" width="27.03" height="1"/><rect class="cls-3" x="186.68" y="787.55" width="27.03" height="1"/><path class="cls-8" d="M217.48,737h-53a.36.36,0,1,1,0-.72h53a.36.36,0,1,1,0,.72Z"/><path class="cls-8" d="M217.48,741h-53a.36.36,0,1,1,0-.71h53a.36.36,0,1,1,0,.71Z"/><rect class="cls-6" x="62.41" y="188.78" width="155.03" height="197.3"/><rect class="cls-9" x="62.41" y="188.78" width="155.03" height="161.15"/><rect class="cls-10" x="52.96" y="131.43" width="173.93" height="203.29"/><path class="cls-2" d="M163.87,321H33.9a20,20,0,0,1-20-20V199.08a20,20,0,0,1,39.93,0v82h110a20,20,0,0,1,0,39.93Z"/><path class="cls-2" d="M251.83,418.43a20,20,0,0,1-20-20V213.77a20,20,0,1,1,40,0V398.43A20,20,0,0,1,251.83,418.43Z"/><rect class="cls-11" x="231.83" y="193.01" width="40" height="66.89"/><rect class="cls-11" x="13.85" y="193.01" width="40" height="66.89"/><path class="cls-10" d="M226.16,131.46h53.08a0,0,0,0,1,0,0V246.35a0,0,0,0,1,0,0h0a53.08,53.08,0,0,1-53.08-53.08v-61.8A0,0,0,0,1,226.16,131.46Z" transform="translate(505.41 377.81) rotate(-180)"/><rect class="cls-12" x="225.01" y="199.93" width="1.5" height="46.55"/><path class="cls-9" d="M130.61,354a2.38,2.38,0,1,1,2.38-2.38A2.38,2.38,0,0,1,130.61,354Zm0-3.76a1.38,1.38,0,1,0,1.38,1.38A1.38,1.38,0,0,0,130.61,350.27Z"/><path class="cls-9" d="M130.61,361.94a2.39,2.39,0,1,1,2.38-2.39A2.38,2.38,0,0,1,130.61,361.94Zm0-3.77a1.39,1.39,0,1,0,1.38,1.38A1.38,1.38,0,0,0,130.61,358.17Z"/><path class="cls-9" d="M130.61,369.09a2.38,2.38,0,1,1,2.38-2.38A2.38,2.38,0,0,1,130.61,369.09Zm0-3.76a1.38,1.38,0,1,0,1.38,1.38A1.38,1.38,0,0,0,130.61,365.33Z"/><rect class="cls-13" x="69.44" y="537.04" width="8.82" height="32.78" rx="4.41"/><rect class="cls-13" x="94.78" y="408.15" width="8.82" height="32.78" rx="4.41"/><rect class="cls-13" x="96.29" y="658.77" width="8.82" height="32.78" rx="4.41"/><path class="cls-9" d="M139,386a1.07,1.07,0,0,1-1.06-1.06V336.08a1.07,1.07,0,0,1,2.13,0v48.83A1.07,1.07,0,0,1,139,386Z"/><path class="cls-9" d="M63.28,357a1.06,1.06,0,0,1,0-2.12A11.92,11.92,0,0,0,75.19,343v-7.35a1.07,1.07,0,0,1,2.13,0V343A14,14,0,0,1,63.28,357Z"/><path class="cls-9" d="M217.86,357a14,14,0,0,1-14-14v-7.35a1.06,1.06,0,0,1,2.12,0V343a11.93,11.93,0,0,0,11.92,11.91,1.06,1.06,0,0,1,0,2.12Z"/><path class="cls-14" d="M140.11,157.92a23.71,23.71,0,0,1-23.68-23.68,1,1,0,0,1,2,0,21.69,21.69,0,0,0,43.37,0,1,1,0,0,1,2,0A23.71,23.71,0,0,1,140.11,157.92Z"/><rect class="cls-2" x="122.82" y="47.75" width="34.2" height="99.87" rx="17.1"/><rect class="cls-2" x="122.82" y="47.75" width="34.2" height="99.87" rx="17.1"/><rect class="cls-11" x="122.82" y="32.7" width="34.2" height="99.87" rx="17.1"/><circle class="cls-2" cx="139.93" cy="65.53" r="53.09"/><path class="cls-15" d="M193,65.53a53.1,53.1,0,1,1-106.19,0,54.06,54.06,0,0,1,.8-9.23,53.1,53.1,0,0,0,104.59,0A54.06,54.06,0,0,1,193,65.53Z"/><path class="cls-10" d="M53.08,131.46h0a0,0,0,0,1,0,0V246.35a0,0,0,0,1,0,0H0a0,0,0,0,1,0,0v-61.8A53.08,53.08,0,0,1,53.08,131.46Z"/><rect class="cls-12" x="52.45" y="195.32" width="1.5" height="51.07"/><circle class="cls-16" cx="125.39" cy="60.03" r="4.66"/><circle class="cls-16" cx="156.87" cy="60.03" r="4.66"/><circle class="cls-1" cx="141.27" cy="13.27" r="13.27"/><path class="cls-17" d="M209.67,261.22H161.34a3.13,3.13,0,0,0-3.13,3.13v69.46a3.76,3.76,0,0,0,3.76,3.76h47.08a3.75,3.75,0,0,0,3.75-3.76l-.22-31.53.22-37.93A3.13,3.13,0,0,0,209.67,261.22Z"/><rect class="cls-17" x="156.27" y="259.49" width="59.46" height="6.31" rx="3.15"/><path class="cls-18" d="M212.8,265.78l0,2.14a.68.68,0,0,1-.2,0H159.42a2.89,2.89,0,0,1-1.21-.26v-2.14a2.88,2.88,0,0,0,1.21.25H212.8Z"/><rect class="cls-17" x="156.27" y="333.81" width="59.46" height="6.31" rx="3.15"/><path class="cls-18" d="M215.73,337a3.22,3.22,0,0,1-.92,2.23,3.14,3.14,0,0,1-2.23.92H159.43a3.15,3.15,0,0,1-3.16-3.15,3.39,3.39,0,0,1,.25-1.24,3.17,3.17,0,0,0,2.91,1.91h53.15a3.19,3.19,0,0,0,2.23-.92,3.53,3.53,0,0,0,.67-1A3.19,3.19,0,0,1,215.73,337Z"/><rect class="cls-19" x="74.41" y="278.43" width="4.74" height="21.83" rx="2.37" transform="translate(-212 368.24) rotate(-90.42)"/><circle class="cls-19" cx="94.7" cy="289.56" r="2.6"/><path class="cls-20" d="M150.08,324.94H57.57a2,2,0,1,1,0-4h92.51a2,2,0,0,1,0,4Z"/><g class="cls-21"><rect class="cls-22" x="35.04" y="160.11" width="19.04" height="2" transform="matrix(0.85, -0.53, 0.53, 0.85, -79.13, 48.66)"/><rect class="cls-22" x="42.53" y="163.71" width="9.75" height="2" transform="translate(-80.83 50.99) rotate(-32.38)"/></g><g class="cls-21"><rect class="cls-22" x="197.67" y="239.73" width="19.04" height="2" transform="matrix(0.85, -0.53, 0.53, 0.85, -96.52, 147.78)"/><rect class="cls-22" x="205.16" y="243.33" width="9.75" height="2" transform="translate(-98.19 150.47) rotate(-32.38)"/></g><g class="cls-23"><path class="cls-24" d="M194.06,391.72a1.06,1.06,0,0,1-.9-.49,1.08,1.08,0,0,1,.33-1.47l16.1-10.16a1.06,1.06,0,0,1,1.13,1.79l-16.09,10.17A1.1,1.1,0,0,1,194.06,391.72Z"/><path class="cls-24" d="M200.84,392.85a1.06,1.06,0,0,1-.57-2l8.23-5.22A1.07,1.07,0,0,1,210,386a1.06,1.06,0,0,1-.33,1.46l-8.24,5.23A1,1,0,0,1,200.84,392.85Z"/></g><path class="cls-17" d="M123.88,97.19c-2.22,0-4-2.12-4-4.73a5.45,5.45,0,0,1,.12-1.14c2.76-13.1,14-21.08,25.09-17.83,7.44,2.18,13.26,9,15.11,17.83.53,2.53-.77,5.1-2.92,5.73a3.55,3.55,0,0,1-1,.14Z"/><circle class="cls-1" cx="534.28" cy="106.16" r="13.27"/><circle class="cls-1" cx="554.61" cy="119.15" r="13.27"/><circle class="cls-1" cx="566.19" cy="137.79" r="13.27"/><circle class="cls-2" cx="566.21" cy="156.71" r="13.27"/><circle class="cls-1" cx="497.88" cy="106.45" r="13.27"/><circle class="cls-1" cx="477.55" cy="119.44" r="13.27"/><circle class="cls-1" cx="465.98" cy="138.07" r="13.27"/><circle class="cls-25" cx="499.58" cy="110.59" r="13.27"/><circle class="cls-25" cx="479.25" cy="123.58" r="13.27"/><circle class="cls-25" cx="467.67" cy="142.21" r="13.27"/><circle class="cls-2" cx="461.46" cy="156.71" r="13.27"/><circle class="cls-3" cx="461.46" cy="156.71" r="7.25"/><circle class="cls-3" cx="566.49" cy="156.71" r="7.25"/><rect class="cls-4" x="446" y="480.03" width="34.7" height="321.07"/><rect class="cls-5" x="446" y="480.03" width="34.7" height="277.76"/><rect class="cls-4" x="547.65" y="480.03" width="34.7" height="321.07"/><rect class="cls-5" x="547.65" y="480.03" width="34.7" height="279.62"/><rect class="cls-6" x="436.81" y="427.51" width="53.08" height="321.07"/><rect class="cls-6" x="538.76" y="427.51" width="53.08" height="321.07"/><rect class="cls-7" x="446" y="801.43" width="34.7" height="33.55"/><rect class="cls-7" x="389.53" y="834.93" width="102.78" height="5.65"/><rect class="cls-7" x="547.38" y="801.43" width="34.7" height="33.55" transform="translate(1129.47 1636.41) rotate(-180)"/><rect class="cls-7" x="535.78" y="834.93" width="102.78" height="5.65" transform="translate(1174.34 1675.51) rotate(-180)"/><path class="cls-8" d="M489.85,739.55h-53a.36.36,0,0,1,0-.72h53a.36.36,0,1,1,0,.72Z"/><path class="cls-8" d="M489.85,743.5h-53a.36.36,0,1,1,0-.71h53a.36.36,0,1,1,0,.71Z"/><path class="cls-8" d="M591.88,739.55h-53a.36.36,0,0,1,0-.72h53a.36.36,0,1,1,0,.72Z"/><path class="cls-8" d="M591.88,743.5h-53a.36.36,0,1,1,0-.71h53a.36.36,0,1,1,0,.71Z"/><rect class="cls-6" x="436.81" y="276.31" width="155.03" height="197.3"/><rect class="cls-9" x="436.81" y="276.31" width="155.03" height="161.15"/><rect class="cls-10" x="427.36" y="218.96" width="173.93" height="203.29"/><path class="cls-2" d="M538.27,408.51h-130a20,20,0,0,1-20-20V286.61a20,20,0,1,1,39.92,0v82h110a20,20,0,0,1,0,39.93Z"/><path class="cls-2" d="M626.23,506a20,20,0,0,1-20-20V301.3a20,20,0,1,1,40,0V486A20,20,0,0,1,626.23,506Z"/><rect class="cls-11" x="606.23" y="280.54" width="40" height="66.89"/><rect class="cls-11" x="388.25" y="280.54" width="40" height="66.89"/><path class="cls-10" d="M600.56,219h53.08a0,0,0,0,1,0,0V333.88a0,0,0,0,1,0,0h0a53.08,53.08,0,0,1-53.08-53.08V219a0,0,0,0,1,0,0Z" transform="translate(1254.21 552.87) rotate(-180)"/><rect class="cls-12" x="599.41" y="287.46" width="1.5" height="46.55"/><path class="cls-9" d="M505,441.56a2.38,2.38,0,1,1,2.38-2.38A2.38,2.38,0,0,1,505,441.56Zm0-3.76a1.38,1.38,0,1,0,1.38,1.38A1.38,1.38,0,0,0,505,437.8Z"/><path class="cls-9" d="M505,449.47a2.39,2.39,0,1,1,2.38-2.39A2.38,2.38,0,0,1,505,449.47Zm0-3.77a1.39,1.39,0,1,0,1.38,1.38A1.38,1.38,0,0,0,505,445.7Z"/><path class="cls-9" d="M505,456.62a2.39,2.39,0,1,1,2.38-2.38A2.38,2.38,0,0,1,505,456.62Zm0-3.77a1.39,1.39,0,1,0,1.38,1.39A1.38,1.38,0,0,0,505,452.85Z"/><rect class="cls-13" x="443.2" y="640.53" width="8.82" height="32.78" rx="4.41"/><path class="cls-9" d="M513.38,473.5a1.07,1.07,0,0,1-1.06-1.06V423.61a1.07,1.07,0,0,1,2.13,0v48.83A1.07,1.07,0,0,1,513.38,473.5Z"/><path class="cls-9" d="M437.68,444.52a1.06,1.06,0,0,1,0-2.12,11.93,11.93,0,0,0,11.91-11.92v-7.34a1.07,1.07,0,0,1,2.13,0v7.34A14.06,14.06,0,0,1,437.68,444.52Z"/><path class="cls-9" d="M592.25,444.52a14,14,0,0,1-14-14v-7.34a1.06,1.06,0,0,1,2.12,0v7.34a11.93,11.93,0,0,0,11.91,11.92,1.06,1.06,0,1,1,0,2.12Z"/><path class="cls-14" d="M514.51,245.45a23.71,23.71,0,0,1-23.68-23.68,1,1,0,0,1,2,0,21.69,21.69,0,0,0,43.37,0,1,1,0,1,1,2,0A23.71,23.71,0,0,1,514.51,245.45Z"/><rect class="cls-2" x="497.22" y="135.28" width="34.2" height="99.87" rx="17.1"/><rect class="cls-2" x="497.22" y="135.28" width="34.2" height="99.87" rx="17.1"/><rect class="cls-11" x="497.22" y="120.23" width="34.2" height="99.87" rx="17.1"/><circle class="cls-2" cx="514.33" cy="153.06" r="53.09"/><path class="cls-15" d="M567.42,153.06a53.1,53.1,0,1,1-106.19,0,54.06,54.06,0,0,1,.8-9.23c4.37,24.92,18,51.87,52.3,51.87,37.19,0,47.92-26.95,52.29-51.87A54.06,54.06,0,0,1,567.42,153.06Z"/><path class="cls-10" d="M427.48,219h0a0,0,0,0,1,0,0V333.88a0,0,0,0,1,0,0H374.4a0,0,0,0,1,0,0v-61.8A53.08,53.08,0,0,1,427.48,219Z"/><path class="cls-26" d="M382.31,294.31a2,2,0,0,1-2-2v-15c0-15.57,4.79-28.71,13.87-38,9.72-10,24.27-15.22,42.07-15.22a2,2,0,0,1,0,4c-32.53,0-51.94,18.4-51.94,49.22v15A2,2,0,0,1,382.31,294.31Z"/><path class="cls-17" d="M385.61,259a2,2,0,0,1-.68-.12,2,2,0,0,1-1.2-2.55c5.33-14.92,16.57-25.16,32.51-29.63a2,2,0,0,1,1.08,3.85c-14.63,4.1-24.95,13.48-29.83,27.13A2,2,0,0,1,385.61,259Z"/><rect class="cls-12" x="426.85" y="280.64" width="1.5" height="53.28"/><circle class="cls-16" cx="499.78" cy="147.56" r="4.66"/><circle class="cls-16" cx="531.27" cy="147.56" r="4.66"/><circle class="cls-1" cx="515.67" cy="100.8" r="13.27"/><path class="cls-17" d="M584.07,348.75H535.74a3.13,3.13,0,0,0-3.13,3.13v69.46a3.75,3.75,0,0,0,3.76,3.75h47.08a3.74,3.74,0,0,0,3.75-3.75L587,389.81l.22-37.93A3.13,3.13,0,0,0,584.07,348.75Z"/><rect class="cls-17" x="530.67" y="347.02" width="59.46" height="6.31" rx="3.15"/><path class="cls-18" d="M587.19,353.31v2.14a.68.68,0,0,1-.2,0H533.82a2.89,2.89,0,0,1-1.21-.26v-2.14a2.88,2.88,0,0,0,1.21.25h53.37Z"/><rect class="cls-17" x="530.67" y="421.34" width="59.46" height="6.31" rx="3.15"/><path class="cls-18" d="M590.13,424.5a3.22,3.22,0,0,1-.92,2.23,3.15,3.15,0,0,1-2.24.92H533.83a3.15,3.15,0,0,1-3.16-3.15,3.39,3.39,0,0,1,.25-1.24,3.16,3.16,0,0,0,2.91,1.91H587a3.19,3.19,0,0,0,2.24-.92,3.53,3.53,0,0,0,.67-1A3.19,3.19,0,0,1,590.13,424.5Z"/><rect class="cls-19" x="448.8" y="365.96" width="4.74" height="21.83" rx="2.37" transform="translate(77.61 830.8) rotate(-90.42)"/><circle class="cls-19" cx="469.1" cy="377.09" r="2.6"/><path class="cls-20" d="M524.48,412.47H432a2,2,0,0,1,0-4h92.51a2,2,0,0,1,0,4Z"/><g class="cls-21"><rect class="cls-22" x="572.07" y="327.26" width="19.04" height="2" transform="matrix(0.85, -0.53, 0.53, 0.85, -85.43, 361.18)"/><rect class="cls-22" x="579.56" y="330.86" width="9.75" height="2" transform="translate(-86.85 364.57) rotate(-32.38)"/></g><g class="cls-23"><path class="cls-24" d="M568.46,479.25a1.06,1.06,0,0,1-.9-.49,1.08,1.08,0,0,1,.33-1.47L584,467.13a1.06,1.06,0,0,1,1.13,1.79L569,479.09A1.1,1.1,0,0,1,568.46,479.25Z"/><path class="cls-24" d="M575.24,480.38a1.06,1.06,0,0,1-.57-2l8.23-5.22A1.06,1.06,0,1,1,584,475l-8.24,5.23A1,1,0,0,1,575.24,480.38Z"/></g><rect class="cls-27" x="504.3" y="127.27" width="21.17" height="1.35"/><rect class="cls-27" x="495.51" y="123.36" width="38.74" height="1.35"/><rect class="cls-27" x="504.3" y="131.19" width="21.17" height="1.35"/><path class="cls-17" d="M532.39,164c2.22,0,4,2.12,4,4.73a5.45,5.45,0,0,1-.12,1.14c-2.76,13.1-14,21.08-25.09,17.83-7.44-2.18-13.26-9-15.11-17.83-.53-2.53.77-5.1,2.92-5.73a3.55,3.55,0,0,1,1-.14Z"/><rect class="cls-28" x="642.54" y="281.48" width="10.92" height="43.86" rx="5.46" transform="translate(1296 606.83) rotate(180)"/><rect class="cls-29" x="642.54" y="294.3" width="10.92" height="18.23" rx="5.46" transform="translate(1296 606.83) rotate(-180)"/><path class="cls-19" d="M473.91,131.73a41.43,41.43,0,0,1,2.93-5.09c.26-.37.51-.73.78-1.09l.23-.31c.16-.21-.11.14,0-.06s.29-.37.43-.54c.58-.7,1.18-1.37,1.81-2A1.5,1.5,0,0,0,478,120.5a37.08,37.08,0,0,0-6.7,9.71,1.5,1.5,0,1,0,2.59,1.52Z"/><path class="cls-2" d="M493.17,138.33a1.5,1.5,0,0,0,0-3,1.5,1.5,0,0,0,0,3Z"/><circle class="cls-19" cx="483.91" cy="117.59" r="2.22"/><circle class="cls-28" cx="647.71" cy="267.9" r="5.84"/><path class="cls-13" d="M447.61,556.58a3,3,0,0,1-3-3v-70a3,3,0,0,1,6,0v70A3,3,0,0,1,447.61,556.58Z"/><path class="cls-13" d="M447.61,590.08a3,3,0,0,1-3-3v-20a3,3,0,0,1,6,0v20A3,3,0,0,1,447.61,590.08Z"/><path class="cls-30" d="M447.61,547.17a3,3,0,0,1-3-3v-20a3,3,0,0,1,6,0v20A3,3,0,0,1,447.61,547.17Z"/><path class="cls-19" d="M617.87,390a2.5,2.5,0,0,1-2.5-2.5V367.51a2.5,2.5,0,0,1,5,0v19.95A2.5,2.5,0,0,1,617.87,390Z"/><path class="cls-17" d="M617.87,415.4a2.5,2.5,0,0,1-2.5-2.5v-27a2.5,2.5,0,1,1,5,0v27A2.5,2.5,0,0,1,617.87,415.4Z"/><path class="cls-17" d="M617.87,471.37a2.5,2.5,0,0,1-2.5-2.5V460.1a2.5,2.5,0,0,1,5,0v8.77A2.5,2.5,0,0,1,617.87,471.37Z"/><path class="cls-19" d="M617.87,451.8a2.5,2.5,0,0,1-2.5-2.5v-25a2.5,2.5,0,0,1,5,0v25A2.5,2.5,0,0,1,617.87,451.8Z"/><path class="cls-30" d="M447.61,508.39a3,3,0,0,1-3-3v-7.53a3,3,0,0,1,6,0v7.53A3,3,0,0,1,447.61,508.39Z"/><path class="cls-13" d="M447.61,476.39a3,3,0,0,1-3-3v-7.53a3,3,0,0,1,6,0v7.53A3,3,0,0,1,447.61,476.39Z"/><path class="cls-31" d="M382.11,315a2,2,0,0,1-2-2v-11.3a2,2,0,1,1,4,0V313A2,2,0,0,1,382.11,315Z"/></g></g></svg>