<svg xmlns="http://www.w3.org/2000/svg" viewBox="0 0 63.58 52.68"><defs><style>.cls-1,.cls-10,.cls-4{fill:#c9d2df;}.cls-1{opacity:0.4;}.cls-1,.cls-4,.cls-8{isolation:isolate;}.cls-2{fill:#3e3126;}.cls-3{fill:#fff;}.cls-4{opacity:0.6;}.cls-5{fill:#ff9c01;}.cls-6{fill:#6ae184;}.cls-7,.cls-8{fill:#389d9c;}.cls-8{opacity:0.45;}.cls-9{fill:#c0ffcc;}.cls-11{fill:#42caf8;}</style></defs><g id="Layer_2" data-name="Layer 2"><g id="Layer_1-2" data-name="Layer 1"><rect class="cls-1" x="27.15" y="44.23" width="4.23" height="2.92"/><path class="cls-2" d="M31.38,52.68a.53.53,0,0,1-.53-.53V44.23a.53.53,0,0,1,1.06,0h0v7.92A.53.53,0,0,1,31.38,52.68Z"/><path class="cls-2" d="M27.2,52.68a.53.53,0,0,1-.53-.53V44.23a.54.54,0,0,1,.33-.68.53.53,0,0,1,.67.68v7.92A.52.52,0,0,1,27.2,52.68Z"/><path class="cls-3" d="M3.5,18V5.3H60.09V41.11a3.4,3.4,0,0,1-3.4,3.39H8.78a5.72,5.72,0,0,1-5.73-5.71v-.14Z"/><path class="cls-1" d="M60,23.07A34.23,34.23,0,0,1,49.38,33.26a.71.71,0,0,0-.68-.5A.72.72,0,0,0,48.16,34c-.83.47-1.67.92-2.53,1.33a2.17,2.17,0,0,0-4,1.09,2,2,0,0,0,.08.55c-.87.32-1.75.6-2.65.87a2,2,0,0,0-1.57-.65c-1,0-1.75.5-1.75,1.12a.75.75,0,0,0,.1.36A65.54,65.54,0,0,1,3.12,37v1.61A5.72,5.72,0,0,0,8.71,44.5H56.76a3.4,3.4,0,0,0,3.4-3.39Z"/><rect class="cls-4" x="4.05" y="5.05" width="55.76" height="5.2"/><path class="cls-2" d="M56.69,45H19.57a.53.53,0,1,1,0-1.06H56.69a2.87,2.87,0,0,0,2.87-2.86V5.83H4V18A.53.53,0,1,1,3,18V5.3a.53.53,0,0,1,.53-.53H60.09a.53.53,0,0,1,.53.53V41.11A3.92,3.92,0,0,1,56.69,45Z"/><path class="cls-2" d="M14.28,45H6.89A3.94,3.94,0,0,1,3,41.11V24a.53.53,0,0,1,.53-.53A.53.53,0,0,1,4,24V41.11A2.86,2.86,0,0,0,6.89,44h7.39a.53.53,0,1,1,0,1.06Z"/><polygon class="cls-5" points="18.27 14.21 19.06 15.83 20.85 16.09 19.56 17.34 19.86 19.12 18.27 18.28 16.67 19.12 16.98 17.34 15.68 16.09 17.47 15.83 18.27 14.21"/><polygon class="cls-5" points="24.92 14.21 25.72 15.83 27.5 16.09 26.21 17.34 26.51 19.12 24.92 18.28 23.32 19.12 23.63 17.34 22.34 16.09 24.12 15.83 24.92 14.21"/><polygon class="cls-5" points="31.57 14.21 32.37 15.83 34.15 16.09 32.86 17.34 33.16 19.12 31.57 18.28 29.97 19.12 30.28 17.34 28.99 16.09 30.77 15.83 31.57 14.21"/><polygon class="cls-5" points="38.22 14.21 39.02 15.83 40.8 16.09 39.51 17.34 39.81 19.12 38.22 18.28 36.62 19.12 36.93 17.34 35.64 16.09 37.42 15.83 38.22 14.21"/><polygon class="cls-5" points="44.87 14.21 45.67 15.83 47.45 16.09 46.16 17.34 46.46 19.12 44.87 18.28 43.27 19.12 43.58 17.34 42.29 16.09 44.07 15.83 44.87 14.21"/><path class="cls-2" d="M7,15.47h-.1a.24.24,0,0,1-.14-.32h0L8.1,11.85a.27.27,0,0,1,.34-.14.26.26,0,0,1,.13.34L7.2,15.31A.25.25,0,0,1,7,15.47Z"/><path class="cls-2" d="M8.8,13.88H8.7a.24.24,0,0,1-.14-.32h0l.75-1.76a.25.25,0,0,1,.47.19L9,13.75A.25.25,0,0,1,8.8,13.88Z"/><circle class="cls-2" cx="16.96" cy="44.61" r="0.58"/><circle class="cls-2" cx="3.5" cy="20.92" r="0.58"/><path class="cls-6" d="M3.5.37H60.09a2.79,2.79,0,0,1,2.79,2.79h0A2.79,2.79,0,0,1,60.09,6H3.5A2.79,2.79,0,0,1,.71,3.16h0A2.79,2.79,0,0,1,3.5.37Z"/><path class="cls-7" d="M62.41,3.31a2.77,2.77,0,0,1-.81,2,2.85,2.85,0,0,1-2,.81L2,5.72C1.21,5.72,1.32,4.46.82,4,24.58,5.41,54.53,6.59,61.18,1A2.77,2.77,0,0,1,62.41,3.31Z"/><circle class="cls-7" cx="52.8" cy="4.21" r="0.85"/><circle class="cls-7" cx="55.46" cy="3.66" r="0.29"/><circle class="cls-7" cx="50.22" cy="4.63" r="0.42"/><circle class="cls-8" cx="47.96" cy="3.93" r="0.28"/><circle class="cls-8" cx="49.73" cy="3.07" r="0.5"/><circle class="cls-8" cx="51.52" cy="2.07" r="0.43"/><circle class="cls-1" cx="46.86" cy="32.76" r="0.39"/><circle class="cls-1" cx="38.61" cy="34.37" r="0.58"/><circle class="cls-1" cx="42.79" cy="32.1" r="0.27"/><rect class="cls-9" x="1.27" y="0.58" width="17.84" height="2.25" rx="1.12"/><path class="cls-2" d="M60.09,6.68H3.5A3.32,3.32,0,0,1,3.14.05a2.16,2.16,0,0,1,.36,0H21.66a.53.53,0,0,1,.53.53.53.53,0,0,1-.53.53H3.5a2.26,2.26,0,0,0,0,4.52H60.09a2.26,2.26,0,0,0,0-4.52H26.2a.53.53,0,0,1-.53-.53A.53.53,0,0,1,26.2.05H60.08a3.32,3.32,0,1,1,.37,6.63,2.29,2.29,0,0,1-.37,0Z"/><circle class="cls-2" cx="23.93" cy="0.58" r="0.58"/><path class="cls-2" d="M50.26,20.52a.29.29,0,0,1-.3-.28V6.63a.31.31,0,0,1,.29-.31h0a.31.31,0,0,1,.31.31V20.22a.29.29,0,0,1-.3.3Z"/><path class="cls-2" d="M50.26,26.09a3,3,0,1,1,3-3A3,3,0,0,1,50.26,26.09Zm0-5.41a2.4,2.4,0,1,0,2.4,2.4h0a2.39,2.39,0,0,0-2.39-2.39Z"/><rect class="cls-10" x="24.66" y="22.64" width="19.82" height="1.55" rx="0.28"/><rect class="cls-10" x="24.66" y="26.16" width="19.82" height="1.55" rx="0.28"/><rect class="cls-10" x="24.66" y="29.68" width="19.82" height="1.55" rx="0.28"/><path class="cls-11" d="M20.83,27.66a1.75,1.75,0,0,0-.38-.55,2.23,2.23,0,0,0-.53-.38,3.68,3.68,0,0,0-.57-.26l-.73-.3a1.77,1.77,0,0,1-.55-.35.66.66,0,0,1-.21-.51.83.83,0,0,1,.1-.41.61.61,0,0,1,.3-.27,1.21,1.21,0,0,1,.53-.09.93.93,0,0,1,.54.14,1.16,1.16,0,0,1,.4.36,2.6,2.6,0,0,1,.31.5L20.9,25a2.4,2.4,0,0,0-.44-.65,2,2,0,0,0-.7-.52,2.07,2.07,0,0,0-.55-.17v-1h-.86v1a2.2,2.2,0,0,0-.65.19,1.73,1.73,0,0,0-.72.59,1.43,1.43,0,0,0-.26.82,1.73,1.73,0,0,0,.16.78,1.91,1.91,0,0,0,.42.55,2.53,2.53,0,0,0,.55.37,5,5,0,0,0,.53.23c.25.09.48.19.7.29a1.87,1.87,0,0,1,.53.39.79.79,0,0,1,.21.58.89.89,0,0,1-.11.48.67.67,0,0,1-.32.3,1.28,1.28,0,0,1-.55.1,1.33,1.33,0,0,1-.67-.16,1.6,1.6,0,0,1-.52-.45A4.37,4.37,0,0,1,17.2,28l-.83.55a2.81,2.81,0,0,0,.56.88,2.78,2.78,0,0,0,.83.62,3.09,3.09,0,0,0,.59.18v1h.85v-1A2.42,2.42,0,0,0,20,30a1.7,1.7,0,0,0,.73-.65,2,2,0,0,0,.11-1.73Z"/></g></g></svg>