<svg xmlns="http://www.w3.org/2000/svg" viewBox="0 0 46.25 71.42"><defs><style>.cls-1{fill:#f2563d;}.cls-2{fill:#3e3126;}.cls-3{fill:#ff7769;}.cls-4,.cls-6,.cls-7,.cls-9{fill:#e52b17;}.cls-5{fill:#fff;}.cls-6{opacity:0.45;}.cls-13,.cls-14,.cls-6,.cls-7,.cls-9{isolation:isolate;}.cls-7{opacity:0.1;}.cls-8{fill:#ffeeeb;}.cls-9{opacity:0.6;}.cls-10{fill:#ffede1;}.cls-11{fill:#ffa878;}.cls-12,.cls-13,.cls-14{fill:#ea5706;}.cls-13{opacity:0.25;}.cls-14{opacity:0.35;}</style></defs><g id="Layer_2" data-name="Layer 2"><g id="Layer_1-2" data-name="Layer 1"><rect class="cls-1" x="17.86" y="6.67" width="1.53" height="2.49" transform="translate(6.11 23.82) rotate(-74.83)"/><polygon class="cls-1" points="20.28 7.06 17.83 5.39 18.51 4 20.75 5.53 20.28 7.06"/><rect class="cls-1" x="21.09" y="2.74" width="1.53" height="2.49" transform="translate(-0.02 7.87) rotate(-20.41)"/><rect class="cls-1" x="23.77" y="1.76" width="1.53" height="2.49" transform="matrix(0.94, -0.35, 0.35, 0.94, 0.49, 8.75)"/><rect class="cls-1" x="17.09" y="9.54" width="1.53" height="2.49" transform="translate(2.77 25.19) rotate(-74.83)"/><path class="cls-2" d="M18.79,13.62h-.1a.37.37,0,0,1-.28-.44v0l2.11-7.77a.37.37,0,0,1,.24-.26l6.88-2.46L26.93.89,18.81,4l-2.34,8.62a.36.36,0,0,1-.46.27h0a.37.37,0,0,1-.28-.44v0l2.39-8.81a.4.4,0,0,1,.23-.26L27,0a.39.39,0,0,1,.49.22l1,2.49a.39.39,0,0,1,0,.3.34.34,0,0,1-.22.2L21.22,5.75l-2.06,7.56A.38.38,0,0,1,18.79,13.62Z"/><path class="cls-3" d="M28,67H9a2.35,2.35,0,0,1-2.35-2.25L3.59,18.11a2.28,2.28,0,0,1,2.19-2.37H31.14A2.28,2.28,0,0,1,33.42,18v.09L30.36,64.77A2.35,2.35,0,0,1,28,67Z"/><path class="cls-4" d="M33.53,18.11l-3,46.65A2.35,2.35,0,0,1,28.09,67h-19a2.36,2.36,0,0,1-1.65-.67C26,55.66,30.73,27.21,31.89,15.83A2.29,2.29,0,0,1,33.53,18.11Z"/><path class="cls-2" d="M5.88,53.53a.48.48,0,0,1-.47-.43l-1-15.59a.47.47,0,0,1,.94-.06L6.35,53a.45.45,0,0,1-.42.5h0Z"/><path class="cls-2" d="M28,67.49H9a2.81,2.81,0,0,1-2.82-2.7l-.4-6.07a.47.47,0,0,1,.44-.5.48.48,0,0,1,.5.44h0l.4,6.08A1.88,1.88,0,0,0,9,66.55H28a1.88,1.88,0,0,0,1.88-1.8L33,18.08a1.81,1.81,0,0,0-.5-1.32,1.84,1.84,0,0,0-1.31-.55H5.87a1.8,1.8,0,0,0-1.81,1.88l.91,14a.47.47,0,0,1-.92.18.49.49,0,0,1,0-.12l-.92-14a2.77,2.77,0,0,1,2.67-2.87H31.14a2.77,2.77,0,0,1,2.75,2.79v.07L30.83,64.8A2.8,2.8,0,0,1,28,67.49Z"/><path class="cls-5" d="M7.44,45.5a.36.36,0,0,1-.36-.34l-.42-6.42a.36.36,0,0,1,.43-.3.37.37,0,0,1,.3.3l.41,6.42a.36.36,0,0,1-.33.39h0Z"/><ellipse class="cls-5" cx="7.61" cy="47.73" rx="0.62" ry="0.84" transform="matrix(1, -0.07, 0.07, 1, -3.09, 0.6)"/><path class="cls-2" d="M8,26.66H7.88a.3.3,0,0,1-.17-.39h0l1.66-3.93a.3.3,0,1,1,.56.24L8.27,26.5A.32.32,0,0,1,8,26.66Z"/><path class="cls-2" d="M10.21,24.76h-.12a.31.31,0,0,1-.17-.4h0l.88-2.1a.32.32,0,0,1,.4-.16.28.28,0,0,1,.17.37v0l-.89,2.1A.29.29,0,0,1,10.21,24.76Z"/><circle class="cls-4" cx="15.59" cy="59.66" r="2.25"/><circle class="cls-4" cx="11.84" cy="60.32" r="0.54"/><circle class="cls-6" cx="12.72" cy="56.62" r="0.7"/><circle class="cls-6" cx="12.96" cy="53.37" r="0.62"/><circle class="cls-7" cx="14.51" cy="50.17" r="0.48"/><path class="cls-4" d="M7.16,18.51h25v2.73H9.89a2.73,2.73,0,0,1-2.73-2.73Z"/><polyline class="cls-8" points="36.63 18.99 35.29 14.98 19.7 14.98 17.31 14.98 1.72 14.98 0.38 18.99"/><path class="cls-2" d="M.38,19.38H.26A.39.39,0,0,1,0,18.89l1.34-4a.39.39,0,0,1,.36-.26h25a.39.39,0,0,1,.32.45.36.36,0,0,1-.32.32H2L.74,19.15A.36.36,0,0,1,.38,19.38Z"/><path class="cls-5" d="M9.16,17.09H2.73a.37.37,0,0,1-.43-.3.39.39,0,0,1,.31-.43H9.16a.37.37,0,0,1,.37.36A.38.38,0,0,1,9.16,17.09Z"/><ellipse class="cls-5" cx="11.77" cy="16.72" rx="0.84" ry="0.62"/><circle class="cls-2" cx="6.01" cy="55.15" r="0.54"/><circle class="cls-2" cx="4.64" cy="34.12" r="0.54"/><path class="cls-2" d="M35.08,19.48H1.93a.38.38,0,0,1-.38-.38.4.4,0,0,1,.38-.39H35.08a.4.4,0,0,1,.38.39A.38.38,0,0,1,35.08,19.48Z"/><path class="cls-2" d="M36.63,19.38a.37.37,0,0,1-.36-.27L35,15.36H29.86a.39.39,0,0,1-.45-.32.4.4,0,0,1,.33-.45h5.55a.39.39,0,0,1,.36.26l1.34,4a.39.39,0,0,1-.24.49Z"/><circle class="cls-4" cx="19.67" cy="55.06" r="1.32"/><circle class="cls-4" cx="16.91" cy="56.13" r="0.63"/><circle class="cls-6" cx="15.76" cy="52.7" r="0.53"/><circle class="cls-9" cx="15.59" cy="54.38" r="0.53"/><path class="cls-5" d="M29.53,31.33l.56-1.83,6.62-2.4s4.23,3.67,3.89,3.73S29.53,31.33,29.53,31.33Z"/><circle class="cls-6" cx="16.24" cy="53.49" r="0.6"/><path class="cls-5" d="M44.53,36.43l-4.3,32.66A2.28,2.28,0,0,1,38,70.93H22.44a2.28,2.28,0,0,1-2.24-1.84L15.91,36.43"/><path class="cls-10" d="M39.53,36.54l-.21,1.2H16.14v1.14H36.9a1.85,1.85,0,0,1,1.85,1.85,1.37,1.37,0,0,1,0,.29L35.47,60H19.28l.59,2.1H32.53c1.37,0,2.4,3.87,2.17,5.22l-.32,1.87A2.27,2.27,0,0,1,32.1,71h5.73a2.28,2.28,0,0,0,2.24-1.84l4.28-32.66Z"/><path class="cls-2" d="M38,71.42H22.44a2.77,2.77,0,0,1-2.72-2.23l-4.29-32.7a.49.49,0,0,1,.42-.55.49.49,0,0,1,.55.42L20.68,69a1.82,1.82,0,0,0,1.76,1.41H38A1.82,1.82,0,0,0,39.75,69L44,36.39a.5.5,0,0,1,.56-.43.5.5,0,0,1,.44.56L40.75,69.18A2.8,2.8,0,0,1,38,71.42Z"/><path class="cls-11" d="M45.81,43.91,43.3,58.46A1.89,1.89,0,0,1,41.45,60H19a1.89,1.89,0,0,1-1.85-1.56L14.59,43.91a1.88,1.88,0,0,1,1.53-2.17,1.73,1.73,0,0,1,.32,0H44a1.9,1.9,0,0,1,1.88,1.91A2.85,2.85,0,0,1,45.81,43.91Z"/><path class="cls-12" d="M35.47,60c2.39-5.29,3.15-18.29,3.15-18.29H44a1.88,1.88,0,0,1,1.88,1.87,1.63,1.63,0,0,1,0,.31L43.29,58.47A1.87,1.87,0,0,1,41.45,60"/><path class="cls-13" d="M43.53,59.19a1.9,1.9,0,0,1-1.44.66H29c5.8-6.77,7.81-13.13,8.13-18.3h2.13L36.14,59.84h6A1.91,1.91,0,0,0,43.53,59.19Z"/><path class="cls-2" d="M45.17,48h-.06a.37.37,0,0,1-.3-.43h0l.64-3.67a1.52,1.52,0,0,0-.34-1.23A1.5,1.5,0,0,0,44,42.08H33.83a.37.37,0,0,1-.43-.3.39.39,0,0,1,.31-.43H44a2.25,2.25,0,0,1,2.24,2.26,2.19,2.19,0,0,1,0,.36l-.64,3.67A.37.37,0,0,1,45.17,48Z"/><path class="cls-2" d="M15.9,51.88a.37.37,0,0,1-.36-.31L14.23,44a2.24,2.24,0,0,1,1.83-2.59,2.34,2.34,0,0,1,.38,0H28a.38.38,0,0,1,.43.31.37.37,0,0,1-.31.42H16.44a1.52,1.52,0,0,0-1.16.54A1.56,1.56,0,0,0,15,43.84l1.32,7.61a.35.35,0,0,1-.29.42H15.9Z"/><path class="cls-2" d="M41.45,60.38H19a2.23,2.23,0,0,1-2.21-1.86l-.45-2.61a.36.36,0,0,1,.29-.42h0a.37.37,0,0,1,.42.29h0l.45,2.6A1.51,1.51,0,0,0,19,59.64h22.5a1.48,1.48,0,0,0,1.48-1.25L44,52.22a.36.36,0,0,1,.41-.3h0a.37.37,0,0,1,.3.43h0l-1.06,6.17A2.24,2.24,0,0,1,41.45,60.38Z"/><path class="cls-2" d="M39.43,46.82h-.08a.21.21,0,0,1-.12-.27h0l1.15-2.71a.21.21,0,0,1,.27-.11h0a.22.22,0,0,1,.11.27l-1.15,2.71A.21.21,0,0,1,39.43,46.82Z"/><path class="cls-2" d="M41,45.51h-.08a.21.21,0,0,1-.12-.26h0l.61-1.45a.21.21,0,0,1,.27-.11h0a.2.2,0,0,1,.11.26h0l-.61,1.45A.21.21,0,0,1,41,45.51Z"/><ellipse class="cls-12" cx="36.23" cy="56.35" rx="1.31" ry="0.76" transform="translate(-26.22 80.58) rotate(-78.47)"/><circle class="cls-12" cx="35.62" cy="54.24" r="0.38"/><circle class="cls-12" cx="34.34" cy="58.59" r="0.51"/><circle class="cls-14" cx="34.13" cy="56.16" r="0.3"/><circle class="cls-12" cx="36.53" cy="52.15" r="1.29"/><circle class="cls-12" cx="34.9" cy="49.7" r="0.32"/><circle class="cls-14" cx="34.19" cy="52.14" r="0.63"/><circle class="cls-14" cx="36" cy="47.72" r="0.63"/><path class="cls-2" d="M40.46,30.77a.43.43,0,0,1-.28-.11L37.42,28a1,1,0,0,0-1-.25.4.4,0,0,1-.5-.24v0a.39.39,0,0,1,.24-.49h0a1.85,1.85,0,0,1,1.81.43l2.77,2.66a.42.42,0,0,1,0,.57A.41.41,0,0,1,40.46,30.77Z"/><path class="cls-2" d="M29.26,30.53a.41.41,0,0,1-.39-.41.43.43,0,0,1,.23-.35l4.71-2a.4.4,0,1,1,.41.69l-.1,0-4.71,2A.4.4,0,0,1,29.26,30.53Z"/><path class="cls-5" d="M19.29,30.12h22a1.52,1.52,0,0,1,1.51,1.51v3.86h-25V31.62A1.52,1.52,0,0,1,19.29,30.12Z"/><path class="cls-5" d="M45.1,37.74H15.3a.76.76,0,0,1-.66-1.16h0a5.93,5.93,0,0,1,5.14-3H40.62a6,6,0,0,1,5.14,3h0a.78.78,0,0,1-.27,1.06A.87.87,0,0,1,45.1,37.74Z"/><path class="cls-10" d="M39.83,37.59c-.07.33-.42-.17-.47.18H31.68a4.42,4.42,0,0,0-2.27-4.14c-1.13-.77-.55-2.58-2-3.38L36,30.12a2.14,2.14,0,0,1,1.82,3.51C37.47,34.1,40.65,34,39.83,37.59Z"/><path class="cls-2" d="M17.79,34.33a.38.38,0,0,1-.38-.38V31.62a1.88,1.88,0,0,1,1.88-1.88h22a1.89,1.89,0,0,1,1.89,1.88.4.4,0,0,1-.32.45.39.39,0,0,1-.45-.32.29.29,0,0,1,0-.13,1.12,1.12,0,0,0-1.12-1.12h-22a1.12,1.12,0,0,0-1.12,1.12h0V34a.38.38,0,0,1-.38.38Z"/><path class="cls-2" d="M45.1,38.12H15.3A1.14,1.14,0,0,1,14.14,37a1.07,1.07,0,0,1,.16-.61,6.39,6.39,0,0,1,5.47-3.13H32a.39.39,0,0,1,.32.45A.36.36,0,0,1,32,34H19.78A5.58,5.58,0,0,0,15,36.77a.39.39,0,0,0,.34.58h29.8a.35.35,0,0,0,.33-.19.39.39,0,0,0,0-.39A5.61,5.61,0,0,0,40.62,34H36.76a.39.39,0,0,1,0-.77h3.86a6.39,6.39,0,0,1,5.47,3.13,1.15,1.15,0,0,1-1,1.74Z"/><path class="cls-5" d="M18.16,53a.33.33,0,0,1-.32-.26L17,48.33A.33.33,0,0,1,17.2,48a.33.33,0,0,1,.38.25l.89,4.36a.31.31,0,0,1-.23.38h-.08Z"/><ellipse class="cls-5" cx="16.89" cy="46.5" rx="0.43" ry="0.58" transform="translate(-8.99 4.34) rotate(-11.58)"/><path class="cls-2" d="M36.44,56.52H43a.34.34,0,1,1,0,.68h-6.6a.34.34,0,1,1,0-.68Z"/><path class="cls-2" d="M33.42,56.52h.93a.34.34,0,1,1,0,.68h-.93a.34.34,0,1,1,0-.68Z"/><circle class="cls-2" cx="16.09" cy="53.4" r="0.56"/><circle class="cls-2" cx="33.78" cy="33.64" r="0.56"/><circle class="cls-2" cx="44.88" cy="50.04" r="0.56"/></g></g></svg>