<svg xmlns="http://www.w3.org/2000/svg" viewBox="0 0 69.74 57.45"><defs><style>.cls-1{fill:#fff;}.cls-10,.cls-2{opacity:0.4;}.cls-10,.cls-11,.cls-3{fill:#c9d2df;}.cls-4{opacity:0.1;}.cls-5{fill:#3e3126;}.cls-6{fill:#4df58c;}.cls-7{fill:#42caf8;}.cls-8{fill:#ff7769;}.cls-9{fill:#ffe56b;}.cls-10,.cls-11{isolation:isolate;}.cls-11{opacity:0.2;}.cls-12{fill:#f78a11;}.cls-13{fill:#ffb320;}.cls-14{fill:#ff9e3e;}</style></defs><g id="Layer_2" data-name="Layer 2"><g id="Layer_1-2" data-name="Layer 1"><path class="cls-1" d="M2.23,33.88a16.35,16.35,0,0,1-1.5-4.57c-1.22-6.74,1.56-16,6.13-21.15L8.94,6.32c.38-.31.77-.61,1.17-.88A30.42,30.42,0,0,1,29,.66,55,55,0,0,1,49.13,6.18a19.69,19.69,0,0,1,5.48,3.41,2.88,2.88,0,0,0,.34.27l5.11,3.29.2.13C65.09,16.91,68,22.72,69,28.67a31,31,0,0,1-4.4,21.83,2.28,2.28,0,0,1-.58.62l-5.4,4.24a7.57,7.57,0,0,1-8,.73A4.62,4.62,0,0,1,48,52.76,9.44,9.44,0,0,1,48.33,50a7,7,0,0,0-.23-3.87,4,4,0,0,0-2.81-2.5,5.49,5.49,0,0,0-3.8,1c-1.88,1.13-3.52,2.61-5.4,3.76a21.14,21.14,0,0,1-15.72,2.12c-5.09-1.2-9-4-13-7.36a2.8,2.8,0,0,1-.66-.9l-3-4.5Z"/><g class="cls-2"><path class="cls-3" d="M64.6,50.53a2.28,2.28,0,0,1-.58.62l-5.4,4.25a7.62,7.62,0,0,1-8,.72A4.62,4.62,0,0,1,48,52.79,9.44,9.44,0,0,1,48.36,50a6.78,6.78,0,0,0-.23-3.86,4,4,0,0,0-2.81-2.51,5.61,5.61,0,0,0-3.8,1c-1.88,1.13-3.52,2.62-5.39,3.77A21.26,21.26,0,0,1,20.4,50.56c-5.09-1.2-9-4-13-7.37a2.76,2.76,0,0,1-.66-.89L4.11,38.44a57.47,57.47,0,0,1,13.56-5.19c6.53-1.46,13.63-1.25,19.6,1.8,1.9,1,3.65,2.17,5.5,3.22A28.76,28.76,0,0,0,60,42a24.6,24.6,0,0,0,9-2.87A30,30,0,0,1,64.6,50.53Z"/></g><g class="cls-4"><path class="cls-3" d="M68.74,39.23a25,25,0,0,1-9,2.85A28.94,28.94,0,0,1,42.47,38.4c-1.85-1-3.59-2.27-5.5-3.23-6-3-13.07-3.26-19.6-1.79A57.75,57.75,0,0,0,3.85,38.56l2.63,3.86a2.8,2.8,0,0,0,.66.9A40.36,40.36,0,0,0,15,48.8a39,39,0,0,1-7.83-5.49,2.64,2.64,0,0,1-.67-.88l-3-4.51L2,34a16,16,0,0,1-1.5-4.57,41.19,41.19,0,0,1,24-10.78,58.75,58.75,0,0,1,9.38,0C46.33,19.53,59.09,23,69,30.38A31.25,31.25,0,0,1,68.74,39.23Z"/></g><path class="cls-5" d="M15.81,49.54a.53.53,0,0,1-.24-.06C5.64,44.36,2,37.05.75,31.81A24.65,24.65,0,0,1,.36,21.55a.54.54,0,0,1,.72-.23.53.53,0,0,1,.28.46C1.36,22-2.27,39.12,16,48.54a.53.53,0,0,1,.23.72A.51.51,0,0,1,15.81,49.54Z"/><path class="cls-5" d="M2.22,16.86a.43.43,0,0,1-.16,0,.53.53,0,0,1-.4-.63s0,0,0-.05S6.89,0,26.58,0h.76a.53.53,0,0,1,.53.53.53.53,0,0,1-.53.53h-.75C7.71,1.06,2.91,15.87,2.71,16.5A.53.53,0,0,1,2.22,16.86Z"/><path class="cls-5" d="M66.33,21.6a.55.55,0,0,1-.46-.26C56.15,5.12,34,1.71,33.77,1.68a.52.52,0,0,1-.44-.59h0a.54.54,0,0,1,.6-.45h0c.22,0,22.86,3.52,32.85,20.17a.52.52,0,0,1-.17.72h0A.5.5,0,0,1,66.33,21.6Z"/><path class="cls-5" d="M55.47,57.18a.53.53,0,0,1-.5-.37.54.54,0,0,1,.35-.66c8.17-2.58,11.34-9.33,12.56-14.54A33.23,33.23,0,0,0,67.94,27a.53.53,0,0,1,.36-.66h0a.52.52,0,0,1,.65.35h0c1.14,4,3.42,25.2-13.32,30.5A.41.41,0,0,1,55.47,57.18Z"/><path class="cls-5" d="M53.14,57.45h0a5.55,5.55,0,0,1-5.28-3.86.57.57,0,0,1,.33-.72.56.56,0,0,1,.72.33v0a4.45,4.45,0,0,0,4.28,3.1.56.56,0,1,1,0,1.12Z"/><circle class="cls-5" cx="18.68" cy="50.1" r="0.61"/><circle class="cls-5" cx="1.6" cy="18.93" r="0.61"/><circle class="cls-5" cx="67.95" cy="24.38" r="0.61"/><circle class="cls-5" cx="30.43" cy="0.89" r="0.61"/><path class="cls-6" d="M31.67,7.86a3.78,3.78,0,0,1,6.6,2.32,3.42,3.42,0,0,1-.13,1.1,4.28,4.28,0,0,1-5.07,3.25,3.7,3.7,0,0,1-2.33-2.06,4.28,4.28,0,0,1,.91-4.6Z"/><path class="cls-7" d="M20.2,6.91a3.77,3.77,0,0,1,6.61,2.32,3.32,3.32,0,0,1-.12,1.09,4.29,4.29,0,0,1-5.08,3.26,3.73,3.73,0,0,1-2.33-2.06A4.28,4.28,0,0,1,20.2,6.91Z"/><path class="cls-8" d="M41.86,11.54a3.77,3.77,0,0,1,6.61,2.31,3.16,3.16,0,0,1-.12,1.1,4.29,4.29,0,0,1-5.08,3.23,3.8,3.8,0,0,1-2.33-2.06,4.26,4.26,0,0,1,.92-4.6Z"/><path class="cls-9" d="M8.39,16.48c3.12-3.82,8.21-2.12,8.13,2.94A5.58,5.58,0,0,1,16.28,21c-1,3.6-4,5.9-6.58,5.15a4.38,4.38,0,0,1-2.78-2.87A7.49,7.49,0,0,1,8.39,16.48Z"/><circle class="cls-5" cx="42.1" cy="11.22" r="0.61"/><path class="cls-5" d="M44.53,19.05a4,4,0,0,1-1.19-.17,4.33,4.33,0,0,1-2.67-2.23,4.93,4.93,0,0,1-.31-3.58.52.52,0,0,1,1,.29h0a3.91,3.91,0,0,0,.24,2.83A3.3,3.3,0,0,0,46,17.69a1.82,1.82,0,0,0,.27-.15A3.78,3.78,0,0,0,48,15.28a3.86,3.86,0,0,0-.25-2.83,3.35,3.35,0,0,0-2-1.72.51.51,0,1,1,.28-1A4.29,4.29,0,0,1,48.71,12a5,5,0,0,1-1.87,6.43A4.34,4.34,0,0,1,44.53,19.05Z"/><path class="cls-5" d="M22.93,14.63a4.32,4.32,0,0,1-1.18-.17,4.63,4.63,0,0,1-3-5.81A4.77,4.77,0,0,1,22.58,5.2a.51.51,0,0,1,.52.5.49.49,0,0,1-.37.5,3.74,3.74,0,0,0-3,2.72,3.47,3.47,0,0,0,6.52,2.38,2.54,2.54,0,0,0,.13-.45,3.77,3.77,0,0,0-.83-3.66.51.51,0,0,1,0-.72.52.52,0,0,1,.72,0l0,0a4.78,4.78,0,0,1,1.08,4.69A4.7,4.7,0,0,1,22.93,14.63Z"/><path class="cls-5" d="M34.19,15.45a4.3,4.3,0,0,1-3.85-2.4A4.89,4.89,0,0,1,30,9.47a.52.52,0,1,1,1,.28,3.91,3.91,0,0,0,.24,2.83,3.37,3.37,0,0,0,2,1.72,3.26,3.26,0,0,0,2.64-.36,3.91,3.91,0,0,0,1.48-5.09,3.26,3.26,0,0,0-2-1.72,3.35,3.35,0,0,0-2.14.11.51.51,0,0,1-.48-.9l.1,0a4.24,4.24,0,0,1,2.81-.12,4.31,4.31,0,0,1,2.67,2.23,5,5,0,0,1-1.86,6.44A4.45,4.45,0,0,1,34.19,15.45Z"/><ellipse class="cls-1" cx="58" cy="41.9" rx="7.34" ry="5.58" transform="translate(1.62 85.95) rotate(-73.85)"/><path class="cls-5" d="M57.07,50.05a4.94,4.94,0,0,1-1.37-.2c-3.25-.94-4.91-5.11-3.7-9.29s4.84-6.82,8.09-5.88S65,39.79,63.79,44a9.13,9.13,0,0,1-3.21,4.82A5.93,5.93,0,0,1,57.07,50.05Zm1.66-14.44c-2.36,0-4.75,2.14-5.65,5.26-1,3.59.27,7.13,2.93,7.9a4.42,4.42,0,0,0,3.9-.87,8,8,0,0,0,2.81-4.24h0c1-3.59-.28-7.13-2.94-7.9A3.7,3.7,0,0,0,58.73,35.61Z"/><ellipse class="cls-10" cx="27.63" cy="32.83" rx="3.23" ry="4.68" transform="translate(-11.59 50.23) rotate(-73.85)"/><circle class="cls-10" cx="37.04" cy="35.16" r="1.46"/><circle class="cls-11" cx="34.24" cy="31.19" r="0.95"/><circle class="cls-10" cx="14.73" cy="35.29" r="2.72"/><circle class="cls-11" cx="20.77" cy="30.12" r="0.89"/><ellipse class="cls-1" cx="21.37" cy="8.06" rx="0.85" ry="0.59" transform="translate(-0.2 15.56) rotate(-39.82)"/><circle class="cls-1" cx="23" cy="7.8" r="0.25"/><ellipse class="cls-1" cx="32.62" cy="8.51" rx="0.85" ry="0.59" transform="translate(2.12 22.86) rotate(-39.82)"/><circle class="cls-1" cx="34.25" cy="8.24" r="0.25"/><ellipse class="cls-1" cx="43.89" cy="11.71" rx="0.85" ry="0.59" transform="translate(2.68 30.83) rotate(-39.82)"/><circle class="cls-1" cx="45.53" cy="11.46" r="0.25"/><path class="cls-12" d="M52.41,18.81A3.77,3.77,0,0,1,59,21.13a3.32,3.32,0,0,1-.12,1.09,4.27,4.27,0,0,1-5.08,3.25,3.76,3.76,0,0,1-2.33-2A4.28,4.28,0,0,1,52.41,18.81Z"/><circle class="cls-5" cx="52.65" cy="18.49" r="0.61"/><path class="cls-5" d="M55.08,26.33a4.39,4.39,0,0,1-1.19-.17,4.62,4.62,0,0,1-3-5.8h0a.52.52,0,0,1,1,.28,3.63,3.63,0,0,0,2.28,4.55,3.34,3.34,0,0,0,2.64-.36,3.85,3.85,0,0,0,1.72-2.27A3.6,3.6,0,0,0,56.25,18a.52.52,0,0,1-.35-.63.51.51,0,0,1,.62-.36h0a4.62,4.62,0,0,1,3,5.8h0a4.83,4.83,0,0,1-2.18,2.85A4.3,4.3,0,0,1,55.08,26.33Z"/><ellipse class="cls-1" cx="54.44" cy="18.99" rx="0.85" ry="0.59" transform="translate(0.46 39.27) rotate(-39.82)"/><circle class="cls-1" cx="56.07" cy="18.73" r="0.25"/><ellipse class="cls-1" cx="10.81" cy="16.18" rx="0.85" ry="0.59" transform="translate(-7.86 10.68) rotate(-39.82)"/><circle class="cls-1" cx="12.45" cy="15.92" r="0.25"/><path class="cls-13" d="M16.36,21.47c-1,3.58-4,5.89-6.59,5.14a4,4,0,0,1-2.23-1.75c0-.1.1-.19.15-.29a8.25,8.25,0,0,1,3-3.36c1.53-.79,3.34-.69,5-.83a6.82,6.82,0,0,0,.79-.1A4.76,4.76,0,0,1,16.36,21.47Z"/><path class="cls-5" d="M11.06,27.18A4,4,0,0,1,9.87,27c-2.84-.82-4.3-4.43-3.25-8a8.13,8.13,0,0,1,1.9-3.37.48.48,0,0,1,.68,0h0a.49.49,0,0,1,0,.69,7.35,7.35,0,0,0-1.67,3c-.89,3.1.27,6.16,2.59,6.84s4.95-1.3,5.84-4.4a6.81,6.81,0,0,0-.11-4.39,3.86,3.86,0,0,0-2.47-2.45.51.51,0,0,1-.34-.6.5.5,0,0,1,.61-.34,4.86,4.86,0,0,1,3.11,3,7.79,7.79,0,0,1,.14,5C16,25.07,13.55,27.18,11.06,27.18Z"/><path class="cls-14" d="M44.94,43.57a.9.9,0,0,1,0,.36,3.81,3.81,0,0,0-1.17-.1h-.36a4.7,4.7,0,0,0-1.68.44,2.17,2.17,0,0,0-.41.19,8.86,8.86,0,0,0-1.88,1.15c-1.17.81-2.27,1.7-3.44,2.49l-.11.08a22,22,0,0,1-7.06,2.7c0-.41-.07-.81-.09-1.21-.21-3.39,1.37-7,4.42-8.53a26.06,26.06,0,0,1,4.13-1.22A25,25,0,0,1,40.5,39a4.94,4.94,0,0,1,2.06.11h0c.33.18.67.34,1,.5l.11.09A4.36,4.36,0,0,1,44.94,43.57Z"/><path class="cls-5" d="M25.34,51.67a16.85,16.85,0,0,1-3.16-.26.54.54,0,0,1-.41-.62.55.55,0,0,1,.63-.42,21.8,21.8,0,0,0,17.12-5,11.08,11.08,0,0,1,2.92-1.82c.89-.35,3.15-1,4.78.23,1.38,1.07,1.87,3.21,1.48,6.36A.53.53,0,1,1,47.65,50c.34-2.72,0-4.59-1.08-5.4s-3-.36-3.74-.07a9.59,9.59,0,0,0-2.63,1.64A23.05,23.05,0,0,1,25.34,51.67Z"/><circle class="cls-14" cx="33.17" cy="41.73" r="2.22"/><circle class="cls-14" cx="41.9" cy="38.85" r="1.11"/><circle class="cls-14" cx="29" cy="47.85" r="1.15"/><circle class="cls-14" cx="25.98" cy="43.77" r="0.71"/><circle class="cls-14" cx="28.64" cy="40.93" r="0.62"/><path class="cls-5" d="M46.94,35.92h-.11a.3.3,0,0,1-.16-.38h0l1.6-3.77a.29.29,0,0,1,.38-.16h0a.31.31,0,0,1,.16.39l-1.6,3.77A.27.27,0,0,1,46.94,35.92Z"/><path class="cls-5" d="M49.07,34.1H49a.3.3,0,0,1-.16-.38h0l.85-2a.29.29,0,0,1,.38-.16h0a.31.31,0,0,1,.16.39l-.86,2A.27.27,0,0,1,49.07,34.1Z"/></g></g></svg>