<svg xmlns="http://www.w3.org/2000/svg" viewBox="0 0 59.25 60.99"><defs><style>.cls-1{fill:#fbd947;}.cls-2{fill:#fbe481;}.cls-3,.cls-5,.cls-7{fill:#f8a547;}.cls-3{opacity:0.5;}.cls-3,.cls-7{isolation:isolate;}.cls-4{fill:#3e3126;}.cls-6{fill:#fff;}.cls-7{opacity:0.4;}.cls-8{fill:#ffefae;}</style></defs><g id="Layer_2" data-name="Layer 2"><g id="Layer_1-2" data-name="Layer 1"><ellipse class="cls-1" cx="29.49" cy="31.5" rx="28.82" ry="28.9"/><path class="cls-2" d="M29.08,2.61C28.91,13,25.82,35.94,2.54,41.73A28.56,28.56,0,0,1,.67,31.5a24.71,24.71,0,0,1,.27-3.84A28.87,28.87,0,0,1,23.57,3.21,28.34,28.34,0,0,1,29.08,2.61Z"/><path class="cls-3" d="M57.8,31.16A28.86,28.86,0,0,1,29,60.06h0a28.41,28.41,0,0,1-10.27-1.9C42.77,49.27,48.32,28.35,47.11,8.7A28.89,28.89,0,0,1,57.8,31.16Z"/><path class="cls-4" d="M11.36,26.05h-.11a.3.3,0,0,1-.17-.39h0l1.63-3.86a.28.28,0,0,1,.37-.16h0a.3.3,0,0,1,.17.38h0l-1.63,3.86A.27.27,0,0,1,11.36,26.05Z"/><path class="cls-4" d="M13.53,24.19h-.11a.3.3,0,0,1-.17-.39h0l.87-2.07a.33.33,0,0,1,.39-.16.3.3,0,0,1,.16.39h0L13.8,24A.29.29,0,0,1,13.53,24.19Z"/><path class="cls-5" d="M29.49,60.47A29,29,0,1,1,58.38,31.36v.11A29,29,0,0,1,29.49,60.47Zm0-55.64A26.67,26.67,0,1,0,56.08,31.58V31.5A26.66,26.66,0,0,0,29.49,4.83Z"/><path class="cls-4" d="M.67,32.08a.58.58,0,0,1-.58-.58h0a29.7,29.7,0,0,1,.6-5.94A.57.57,0,0,1,1.32,25a.59.59,0,0,1,.53.63l0,.12a28.88,28.88,0,0,0-.58,5.71.56.56,0,0,1-.56.58Z"/><path class="cls-4" d="M29.49,61A29.3,29.3,0,0,1,.49,36.5a.56.56,0,0,1,.45-.66H1a.57.57,0,0,1,.66.45v0A28.31,28.31,0,1,0,3.39,20.62a.58.58,0,0,1-1.07-.43v0A29.42,29.42,0,1,1,29.49,61Z"/><circle class="cls-4" cx="0.6" cy="33.89" r="0.6"/><path class="cls-5" d="M29.49,54.89A23.39,23.39,0,1,1,52.82,31.44v.06A23.39,23.39,0,0,1,29.49,54.89Zm0-44.48a21.09,21.09,0,1,0,21,21.18V31.5A21.09,21.09,0,0,0,29.49,10.41Z"/><path class="cls-4" d="M13.37,48.34a.48.48,0,0,1-.32-.13,23.33,23.33,0,0,1-7-16.71,23.6,23.6,0,0,1,15.17-22,.47.47,0,0,1,.6.27.46.46,0,0,1-.27.59h0A22.68,22.68,0,0,0,7,31.48a22.4,22.4,0,0,0,6.69,16.05.46.46,0,0,1,0,.65.47.47,0,0,1-.33.14Z"/><path class="cls-4" d="M29.49,55A23.24,23.24,0,0,1,17.4,51.62a.45.45,0,0,1-.21-.61.46.46,0,0,1,.62-.21l.07,0A22.53,22.53,0,1,0,29.49,9a25.44,25.44,0,0,0-3.6.28.45.45,0,0,1-.57-.3.46.46,0,0,1,.3-.58l.12,0a23.47,23.47,0,0,1,7.72,46.3A23,23,0,0,1,29.49,55Z"/><circle class="cls-4" cx="23.64" cy="9.21" r="0.6"/><circle class="cls-4" cx="15.35" cy="49.77" r="0.6"/><path class="cls-5" d="M29.49,54.89A23.39,23.39,0,1,1,52.82,31.44v.06A23.39,23.39,0,0,1,29.49,54.89Zm0-44.48a21.09,21.09,0,1,0,21,21.18V31.5A21.09,21.09,0,0,0,29.49,10.41Z"/><path class="cls-4" d="M13.37,48.34a.48.48,0,0,1-.32-.13,23.33,23.33,0,0,1-7-16.71,23.6,23.6,0,0,1,15.17-22,.47.47,0,0,1,.6.27.46.46,0,0,1-.27.59h0A22.68,22.68,0,0,0,7,31.48a22.4,22.4,0,0,0,6.69,16.05.46.46,0,0,1,0,.65.47.47,0,0,1-.33.14Z"/><path class="cls-4" d="M29.49,55A23.24,23.24,0,0,1,17.4,51.62a.45.45,0,0,1-.21-.61.46.46,0,0,1,.62-.21l.07,0A22.53,22.53,0,1,0,29.49,9a25.44,25.44,0,0,0-3.6.28.45.45,0,0,1-.57-.3.46.46,0,0,1,.3-.58l.12,0a23.47,23.47,0,0,1,7.72,46.3A23,23,0,0,1,29.49,55Z"/><circle class="cls-4" cx="23.64" cy="9.21" r="0.6"/><circle class="cls-4" cx="15.35" cy="49.77" r="0.6"/><circle class="cls-4" cx="1.95" cy="22.87" r="0.6"/><ellipse class="cls-6" cx="15.74" cy="10.53" rx="1.15" ry="0.7" transform="translate(-3.08 12.67) rotate(-40.25)"/><path class="cls-6" d="M8.54,18.22a.53.53,0,0,1-.3-.09A.56.56,0,0,1,8,17.37l0,0a25.17,25.17,0,0,1,5.21-5.69.57.57,0,0,1,.8.08h0a.58.58,0,0,1-.08.81,24.85,24.85,0,0,0-5,5.39A.57.57,0,0,1,8.54,18.22Z"/><circle class="cls-7" cx="38" cy="43.81" r="0.51"/><circle class="cls-5" cx="38.31" cy="49.86" r="1.77"/><circle class="cls-5" cx="39.49" cy="46.09" r="0.59"/><circle class="cls-5" cx="34.22" cy="50.64" r="0.59"/><circle class="cls-5" cx="42.71" cy="47.97" r="0.73"/><circle class="cls-7" cx="34.69" cy="48.42" r="0.51"/><circle class="cls-7" cx="36.24" cy="46.93" r="0.53"/><circle class="cls-7" cx="36.18" cy="44.74" r="0.2"/><circle class="cls-5" cx="36.89" cy="57.2" r="1.05"/><circle class="cls-5" cx="37.61" cy="55.4" r="0.35"/><circle class="cls-5" cx="34.47" cy="58.11" r="0.35"/><circle class="cls-5" cx="39.53" cy="56.52" r="0.43"/><circle class="cls-7" cx="34.76" cy="56.79" r="0.3"/><circle class="cls-7" cx="35.68" cy="55.9" r="0.32"/><circle class="cls-7" cx="35.64" cy="54.59" r="0.12"/><circle class="cls-5" cx="30.57" cy="52.55" r="0.65"/><ellipse class="cls-8" cx="17.5" cy="17.32" rx="3.31" ry="2.24" transform="translate(-6.71 21.8) rotate(-55.2)"/><path class="cls-6" d="M36.5,34a6,6,0,0,0-1.32-1.88,8.66,8.66,0,0,0-1.81-1.3,15.31,15.31,0,0,0-1.93-.89c-.89-.33-1.71-.67-2.49-1a5.79,5.79,0,0,1-1.89-1.2A2.32,2.32,0,0,1,26.34,26a2.9,2.9,0,0,1,.33-1.41,2.18,2.18,0,0,1,1-.9,4.67,4.67,0,0,1,1.81-.31,3.52,3.52,0,0,1,1.85.47,5,5,0,0,1,1.37,1.25,12.92,12.92,0,0,1,1.06,1.69L36.68,25a8.84,8.84,0,0,0-1.49-2.24,7.6,7.6,0,0,0-2.39-1.77,7,7,0,0,0-1.89-.57V16.84h-3L28,20.35a7.53,7.53,0,0,0-2.23.65,6.42,6.42,0,0,0-2.47,2,4.73,4.73,0,0,0-.9,2.81,5.75,5.75,0,0,0,.57,2.68,6.33,6.33,0,0,0,1.44,1.88,7.88,7.88,0,0,0,1.87,1.26,13.78,13.78,0,0,0,1.82.77c.83.32,1.63.66,2.37,1a6.13,6.13,0,0,1,1.83,1.31,2.89,2.89,0,0,1,.7,2,3.37,3.37,0,0,1-.36,1.62,2.27,2.27,0,0,1-1.1,1,4.45,4.45,0,0,1-1.87.35,4.65,4.65,0,0,1-2.28-.54,5.86,5.86,0,0,1-1.81-1.55A11.69,11.69,0,0,1,24,35.13L21.17,37a9.67,9.67,0,0,0,1.92,3A9,9,0,0,0,26,42.09a7.88,7.88,0,0,0,2,.63l-.06,3.36h3l-.06-3.29a8.3,8.3,0,0,0,2.67-.7A5.63,5.63,0,0,0,36,39.87a6.36,6.36,0,0,0,.89-3.38A6.12,6.12,0,0,0,36.5,34Z"/><ellipse class="cls-1" cx="46.41" cy="12.81" rx="12.57" ry="12.61"/><path class="cls-2" d="M46.24.21c-.08,4.53-1.42,14.54-11.58,17.07a12.54,12.54,0,0,1-.82-4.46A11.87,11.87,0,0,1,34,11.14,12.51,12.51,0,0,1,46.24.21Z"/><path class="cls-3" d="M58.77,12.66A12.59,12.59,0,0,1,46.24,25.27a12.27,12.27,0,0,1-4.48-.83c10.5-3.88,12.92-13,12.39-21.57A12.56,12.56,0,0,1,58.77,12.66Z"/><path class="cls-4" d="M38.51,10.44h0a.12.12,0,0,1-.08-.15v0h0l.71-1.68a.14.14,0,0,1,.17-.07.13.13,0,0,1,.07.17h0l-.71,1.68A.12.12,0,0,1,38.51,10.44Z"/><path class="cls-4" d="M39.46,9.62H39.4a.14.14,0,0,1-.07-.17h0l.38-.9a.12.12,0,0,1,.15-.07h0a.15.15,0,0,1,.07.17l-.38.9A.12.12,0,0,1,39.46,9.62Z"/><path class="cls-5" d="M46.41,25.45A12.64,12.64,0,1,1,59,12.78v0A12.63,12.63,0,0,1,46.41,25.45Zm0-24.27A11.64,11.64,0,1,0,58,12.85v0A11.63,11.63,0,0,0,46.41,1.18Z"/><path class="cls-4" d="M33.84,13.07a.26.26,0,0,1-.25-.26,13.31,13.31,0,0,1,.26-2.59.27.27,0,0,1,.3-.19.24.24,0,0,1,.19.28h0a13.06,13.06,0,0,0-.25,2.49A.26.26,0,0,1,33.84,13.07Z"/><path class="cls-4" d="M46.41,25.67A12.77,12.77,0,0,1,33.77,15,.26.26,0,0,1,34,14.7a.27.27,0,0,1,.29.21A12.34,12.34,0,1,0,35,8.07a.24.24,0,0,1-.33.13h0a.24.24,0,0,1-.14-.32h0A12.84,12.84,0,1,1,46.41,25.68Z"/><circle class="cls-4" cx="33.81" cy="13.86" r="0.26"/><path class="cls-5" d="M46.41,23A10.21,10.21,0,1,1,56.59,12.75v0A10.2,10.2,0,0,1,46.41,23Zm0-19.41a9.2,9.2,0,1,0,9.18,9.22v0a9.2,9.2,0,0,0-9.18-9.17Z"/><path class="cls-4" d="M39.38,20.16a.2.2,0,0,1-.14-.06A10.26,10.26,0,0,1,42.82,3.23a.2.2,0,0,1,.26.11A.2.2,0,0,1,43,3.6h0a9.85,9.85,0,0,0-3.44,16.22.21.21,0,0,1,0,.29A.24.24,0,0,1,39.38,20.16Z"/><path class="cls-4" d="M46.41,23.05a10,10,0,0,1-5.27-1.47.19.19,0,0,1-.07-.26h0a.19.19,0,0,1,.26-.07h0A9.83,9.83,0,0,0,51.5,4.4,9.93,9.93,0,0,0,46.41,3a10.25,10.25,0,0,0-1.56.12A.19.19,0,0,1,44.62,3a.21.21,0,0,1,.16-.24h0a12.64,12.64,0,0,1,1.63-.13,10.24,10.24,0,0,1,0,20.48Z"/><circle class="cls-4" cx="40.25" cy="20.79" r="0.26"/><path class="cls-5" d="M46.41,23A10.21,10.21,0,1,1,56.59,12.75v0A10.2,10.2,0,0,1,46.41,23Zm0-19.41a9.2,9.2,0,1,0,9.18,9.22v0a9.2,9.2,0,0,0-9.18-9.17Z"/><path class="cls-4" d="M39.38,20.16a.2.2,0,0,1-.14-.06A10.26,10.26,0,0,1,42.82,3.23a.2.2,0,0,1,.26.11A.2.2,0,0,1,43,3.6h0a9.85,9.85,0,0,0-3.44,16.22.21.21,0,0,1,0,.29A.24.24,0,0,1,39.38,20.16Z"/><path class="cls-4" d="M46.41,23.05a10,10,0,0,1-5.27-1.47.19.19,0,0,1-.07-.26h0a.19.19,0,0,1,.26-.07h0A9.83,9.83,0,0,0,51.5,4.4,9.93,9.93,0,0,0,46.41,3a10.25,10.25,0,0,0-1.56.12A.19.19,0,0,1,44.62,3a.21.21,0,0,1,.16-.24h0a12.64,12.64,0,0,1,1.63-.13,10.24,10.24,0,0,1,0,20.48Z"/><circle class="cls-4" cx="40.25" cy="20.79" r="0.26"/><circle class="cls-4" cx="34.4" cy="9.05" r="0.26"/><path class="cls-6" d="M37.24,7a.17.17,0,0,1-.14,0A.26.26,0,0,1,37,6.64,11.42,11.42,0,0,1,39.3,4.16a.25.25,0,0,1,.35,0,.24.24,0,0,1,0,.35,11,11,0,0,0-2.16,2.35A.24.24,0,0,1,37.24,7Z"/><circle class="cls-7" cx="50.13" cy="18.19" r="0.22"/><circle class="cls-5" cx="50.26" cy="20.82" r="0.77"/><circle class="cls-5" cx="50.78" cy="19.18" r="0.26"/><circle class="cls-5" cx="48.48" cy="21.17" r="0.26"/><circle class="cls-5" cx="52.19" cy="20" r="0.32"/><circle class="cls-7" cx="48.69" cy="20.2" r="0.22"/><circle class="cls-7" cx="49.36" cy="19.55" r="0.23"/><circle class="cls-7" cx="49.34" cy="18.59" r="0.09"/><circle class="cls-5" cx="49.64" cy="24.03" r="0.46"/><circle class="cls-5" cx="49.96" cy="23.24" r="0.15"/><circle class="cls-5" cx="48.59" cy="24.42" r="0.15"/><circle class="cls-5" cx="50.8" cy="23.73" r="0.19"/><circle class="cls-7" cx="48.71" cy="23.85" r="0.13"/><circle class="cls-7" cx="49.12" cy="23.46" r="0.14"/><circle class="cls-7" cx="49.1" cy="22.89" r="0.05"/><circle class="cls-5" cx="46.89" cy="22" r="0.28"/><ellipse class="cls-8" cx="41.38" cy="6.83" rx="1.45" ry="0.98" transform="translate(12.1 36.85) rotate(-55.09)"/><path class="cls-6" d="M49.48,13.9a2.91,2.91,0,0,0-.58-.82,4.07,4.07,0,0,0-.79-.57,8,8,0,0,0-.84-.38c-.39-.15-.75-.3-1.09-.45a2.54,2.54,0,0,1-.82-.52,1,1,0,0,1-.32-.77,1.2,1.2,0,0,1,.15-.61.9.9,0,0,1,.45-.39,1.94,1.94,0,0,1,.79-.14,1.76,1.76,0,0,1,.81.2,2.25,2.25,0,0,1,.6.55,6.45,6.45,0,0,1,.46.74L49.57,10a3.82,3.82,0,0,0-.65-1,3.61,3.61,0,0,0-1-.77,3.32,3.32,0,0,0-.83-.25V6.39H45.8V7.92a3.48,3.48,0,0,0-1,.29,2.81,2.81,0,0,0-1.08.88,2.09,2.09,0,0,0-.39,1.23,2.59,2.59,0,0,0,.24,1.17,2.77,2.77,0,0,0,.63.81,3.84,3.84,0,0,0,.82.56,6,6,0,0,0,.79.33,9.6,9.6,0,0,1,1,.44,2.8,2.8,0,0,1,.79.57,1.3,1.3,0,0,1,.31.88,1.56,1.56,0,0,1-.15.71,1,1,0,0,1-.49.45,1.88,1.88,0,0,1-.81.15,2,2,0,0,1-1-.24,2.42,2.42,0,0,1-.79-.67A5.38,5.38,0,0,1,44,14.4l-1.25.82a4.78,4.78,0,0,0,.84,1.32,4.14,4.14,0,0,0,1.25.91,3.11,3.11,0,0,0,.88.28V19.2H47V17.76a3.39,3.39,0,0,0,1.16-.31,2.42,2.42,0,0,0,1.1-1A2.7,2.7,0,0,0,49.67,15,2.86,2.86,0,0,0,49.48,13.9Z"/></g></g></svg>