<svg xmlns="http://www.w3.org/2000/svg" viewBox="0 0 580.76 771.61"><defs><style>.cls-1,.cls-9{fill:#b3e8ff;}.cls-1{opacity:0.4;}.cls-2{fill:#c2ced3;opacity:0.5;}.cls-3{fill:#29c6ff;}.cls-4{fill:#22a6ff;}.cls-15,.cls-5{fill:#213346;}.cls-6{fill:#fff;}.cls-7{fill:#dce1ff;}.cls-8{fill:#ffc62a;}.cls-10{fill:#ff28b3;}.cls-11{fill:#ffc826;}.cls-12{fill:#ff9905;}.cls-13{opacity:0.7;}.cls-14{fill:#ede9e4;}.cls-15{font-size:77.52px;font-family:Dosis-Medium, Dosis;font-weight:500;}</style></defs><title>Asset 2</title><g id="Layer_2" data-name="Layer 2"><g id="Layer_1-2" data-name="Layer 1"><circle class="cls-1" cx="290.38" cy="404.96" r="290.38"/><circle class="cls-1" cx="296.93" cy="399.8" r="238.91"/><circle class="cls-1" cx="34.44" cy="155.44" r="21.31"/><circle class="cls-1" cx="37.16" cy="97.96" r="12.02"/><rect class="cls-2" x="113.25" y="93.48" width="349.17" height="678.13" rx="57.14"/><rect class="cls-3" x="114.54" y="75.59" width="345.79" height="671.56" rx="51.18"/><path class="cls-4" d="M408.85,78H164a51.49,51.49,0,0,0-40.62,19.74A51.45,51.45,0,0,1,155,86.94H399.84a51.34,51.34,0,0,1,51.49,51.18V707.33a50.74,50.74,0,0,1-10.87,31.42,51,51,0,0,0,19.87-40.37V129.17A51.33,51.33,0,0,0,408.85,78Z"/><path class="cls-5" d="M409.15,751.15H165.71A55.23,55.23,0,0,1,110.54,696V126.77a55.24,55.24,0,0,1,55.17-55.18H409.15a55.24,55.24,0,0,1,55.18,55.18V255.35h-8V126.77a47.24,47.24,0,0,0-47.18-47.18H165.71a47.23,47.23,0,0,0-47.17,47.18V696a47.22,47.22,0,0,0,47.17,47.17H409.15A47.23,47.23,0,0,0,456.33,696V317.43h8V696A55.24,55.24,0,0,1,409.15,751.15Z"/><rect class="cls-5" x="456.33" y="299.06" width="8" height="8.22"/><rect class="cls-5" x="456.33" y="268.48" width="8" height="23.07"/><rect class="cls-6" x="138.24" y="100.99" width="298.38" height="616.77" rx="24.44"/><path class="cls-7" d="M410.77,102.4H161.27a24.44,24.44,0,0,0-21.62,13,24.32,24.32,0,0,1,11.4-2.82h249.5A24.44,24.44,0,0,1,425,137.06V705a24.32,24.32,0,0,1-2.82,11.4,24.44,24.44,0,0,0,13-21.62V126.84A24.44,24.44,0,0,0,410.77,102.4Z"/><path class="cls-5" d="M412.18,720.76H162.68a27.47,27.47,0,0,1-27.44-27.44V125.43A27.47,27.47,0,0,1,162.68,98h249.5a27.47,27.47,0,0,1,27.44,27.44V693.32A27.47,27.47,0,0,1,412.18,720.76ZM162.68,104a21.47,21.47,0,0,0-21.44,21.44V693.32a21.47,21.47,0,0,0,21.44,21.44h249.5a21.47,21.47,0,0,0,21.44-21.44V125.43A21.47,21.47,0,0,0,412.18,104Z"/><circle class="cls-8" cx="217.9" cy="31.55" r="6.28"/><circle class="cls-9" cx="71.86" cy="78.76" r="15.77"/><circle class="cls-8" cx="115.77" cy="60.75" r="6.28"/><circle class="cls-10" cx="96.11" cy="115.45" r="6.28"/><circle class="cls-9" cx="172.09" cy="40.29" r="15.77"/><circle class="cls-10" cx="187.86" cy="6.28" r="6.28"/><circle class="cls-9" cx="493.34" cy="139.54" r="15.77"/><circle class="cls-10" cx="509.12" cy="105.52" r="6.28"/><path class="cls-6" d="M126.34,238.33a3,3,0,0,1-3-3V171.1a3,3,0,0,1,6,0v64.23A3,3,0,0,1,126.34,238.33Z"/><path class="cls-6" d="M126.34,260.58a3,3,0,0,1-3-3v-6.23a3,3,0,0,1,6,0v6.23A3,3,0,0,1,126.34,260.58Z"/><path class="cls-7" d="M207.88,115.1v8.48a19.74,19.74,0,0,0,19.74,19.74H364a19.74,19.74,0,0,0,19.74-19.74V115.1"/><path class="cls-3" d="M202.43,94.48V104c0,12.28,8.84,22.24,19.74,22.24H358.59c10.9,0,19.74-10,19.74-22.24V94.48"/><path class="cls-5" d="M361.5,129.28H225.08a22.76,22.76,0,0,1-22.74-22.74V98.06h6v8.48a16.76,16.76,0,0,0,16.74,16.74H361.5a16.76,16.76,0,0,0,16.74-16.74V98.06h6v8.48A22.76,22.76,0,0,1,361.5,129.28Z"/><rect class="cls-11" x="172.3" y="343.99" width="230.19" height="118.2" rx="6.06"/><path class="cls-7" d="M178.12,460H402.49a0,0,0,0,1,0,0v2.69A13.48,13.48,0,0,1,389,476.16H191.6a13.48,13.48,0,0,1-13.48-13.48V460A0,0,0,0,1,178.12,460Z"/><path class="cls-12" d="M391.85,344.11H372.28c8.64,0,15.64,10.95,15.64,24.46v69.29c0,13.5-7,24.45-15.64,24.45h19.57c8.64,0,10.64-10.95,10.64-24.45V368.57C402.49,355.06,400.49,344.11,391.85,344.11Z"/><path class="cls-5" d="M395.84,466.31H179a10.66,10.66,0,0,1-10.65-10.64V350.76A10.67,10.67,0,0,1,179,340.11H395.84a10.67,10.67,0,0,1,10.65,10.65V455.67A10.66,10.66,0,0,1,395.84,466.31ZM179,348.11a2.65,2.65,0,0,0-2.65,2.65V455.67a2.65,2.65,0,0,0,2.65,2.64H395.84a2.65,2.65,0,0,0,2.65-2.64V350.76a2.65,2.65,0,0,0-2.65-2.65Z"/><g class="cls-13"><path class="cls-6" d="M193.1,407.09a4,4,0,0,1-4-4V371.86a4,4,0,0,1,8,0v31.23A4,4,0,0,1,193.1,407.09Z"/><path class="cls-6" d="M193.1,430.35a4,4,0,0,1-4-4v-6.24a4,4,0,0,1,8,0v6.24A4,4,0,0,1,193.1,430.35Z"/></g><g class="cls-13"><path class="cls-6" d="M193.1,573.56a4,4,0,0,1-4-4V538.32a4,4,0,0,1,8,0v31.24A4,4,0,0,1,193.1,573.56Z"/><path class="cls-6" d="M193.1,596.81a4,4,0,0,1-4-4v-6.23a4,4,0,0,1,8,0v6.23A4,4,0,0,1,193.1,596.81Z"/></g><path class="cls-5" d="M304.06,109.52H255.82a4,4,0,0,1,0-8h48.24a4,4,0,0,1,0,8Z"/><path class="cls-5" d="M320.77,109.52h-.23a4,4,0,0,1,0-8h.23a4,4,0,0,1,0,8Z"/><path class="cls-5" d="M110.44,182.64a4,4,0,0,1-4-4v-24a4,4,0,0,1,8,0v24A4,4,0,0,1,110.44,182.64Z"/><path class="cls-5" d="M110.55,225.93a4,4,0,0,1-4-4v-24a4,4,0,0,1,8,0v24A4,4,0,0,1,110.55,225.93Z"/><rect class="cls-7" x="175.3" y="235.87" width="255.19" height="16.17"/><rect class="cls-14" x="172.3" y="218.62" width="315.87" height="21.11"/><rect class="cls-6" x="172.3" y="221.09" width="315.87" height="5.12"/><path class="cls-5" d="M491.17,244H169.3V215.62H491.17ZM175.3,238H485.17V221.62H175.3Z"/><rect class="cls-7" x="175.3" y="281.18" width="255.19" height="16.17"/><rect class="cls-14" x="172.3" y="263.93" width="315.87" height="21.11"/><rect class="cls-6" x="172.3" y="266.39" width="315.87" height="5.12"/><path class="cls-5" d="M491.17,289.26H169.3V260.93H491.17Zm-315.87-6H485.17V266.93H175.3Z"/><rect class="cls-7" x="175.3" y="539.5" width="255.19" height="16.17"/><rect class="cls-14" x="172.3" y="522.25" width="315.87" height="21.11"/><rect class="cls-6" x="172.3" y="524.71" width="315.87" height="5.12"/><path class="cls-5" d="M492.17,548.58H168.3V518.25H492.17Zm-315.87-8H484.17V526.25H176.3Z"/><rect class="cls-7" x="175.3" y="584.8" width="255.19" height="16.17"/><rect class="cls-14" x="172.3" y="567.55" width="315.87" height="21.11"/><rect class="cls-6" x="172.3" y="570.02" width="315.87" height="5.12"/><path class="cls-5" d="M492.17,593.89H168.3V563.55H492.17Zm-315.87-8H484.17V571.55H176.3Z"/><text class="cls-15" transform="translate(242.52 430.54)">AD</text></g></g></svg>