<svg xmlns="http://www.w3.org/2000/svg" viewBox="0 0 546.19 771.61"><defs><style>.cls-1,.cls-9{fill:#b3e8ff;}.cls-1{opacity:0.4;}.cls-2{fill:#c2ced3;}.cls-16,.cls-2{opacity:0.5;}.cls-3{fill:#29c6ff;}.cls-4{fill:#22a6ff;}.cls-5{fill:#213346;}.cls-13,.cls-16,.cls-6{fill:#fff;}.cls-7{fill:#dce1ff;}.cls-8{fill:#ffc62a;}.cls-10{fill:#ff28b3;}.cls-11{fill:#ffc826;}.cls-12{fill:#ff9905;}.cls-13{opacity:0.6;}.cls-14{fill:#ede9e4;}.cls-15{fill:#ff2457;}</style></defs><title>Asset 3</title><g id="Layer_2" data-name="Layer 2"><g id="Layer_1-2" data-name="Layer 1"><circle class="cls-1" cx="272.01" cy="402.38" r="272.01"/><circle class="cls-1" cx="278.15" cy="397.55" r="223.81"/><circle class="cls-1" cx="32.26" cy="168.64" r="19.97"/><circle class="cls-1" cx="34.81" cy="114.8" r="11.26"/><rect class="cls-2" x="97.43" y="93.48" width="349.17" height="678.13" rx="57.14"/><rect class="cls-3" x="98.72" y="75.59" width="345.79" height="671.56" rx="51.18"/><path class="cls-4" d="M393,78H148.14a51.5,51.5,0,0,0-40.62,19.74,51.45,51.45,0,0,1,31.61-10.8H384a51.34,51.34,0,0,1,51.49,51.18V707.33a50.74,50.74,0,0,1-10.87,31.42,51,51,0,0,0,19.87-40.37V129.17A51.33,51.33,0,0,0,393,78Z"/><path class="cls-5" d="M393.33,751.15H149.9A55.24,55.24,0,0,1,94.72,696V126.77A55.24,55.24,0,0,1,149.9,71.59H393.33a55.24,55.24,0,0,1,55.18,55.18V255.35h-8V126.77a47.23,47.23,0,0,0-47.18-47.18H149.9a47.23,47.23,0,0,0-47.18,47.18V696a47.23,47.23,0,0,0,47.18,47.17H393.33A47.23,47.23,0,0,0,440.51,696V317.43h8V696A55.24,55.24,0,0,1,393.33,751.15Z"/><rect class="cls-5" x="440.51" y="299.06" width="8" height="8.22"/><rect class="cls-5" x="440.51" y="268.48" width="8" height="23.07"/><rect class="cls-6" x="122.42" y="100.99" width="298.38" height="616.77" rx="24.44"/><path class="cls-7" d="M395,102.4H145.45a24.42,24.42,0,0,0-21.61,13,24.28,24.28,0,0,1,11.39-2.82h249.5a24.44,24.44,0,0,1,24.44,24.44V705a24.32,24.32,0,0,1-2.82,11.4,24.43,24.43,0,0,0,13-21.62V126.84A24.44,24.44,0,0,0,395,102.4Z"/><path class="cls-5" d="M396.36,720.76H146.86a27.47,27.47,0,0,1-27.44-27.44V125.43A27.47,27.47,0,0,1,146.86,98h249.5a27.47,27.47,0,0,1,27.44,27.44V693.32A27.47,27.47,0,0,1,396.36,720.76ZM146.86,104a21.47,21.47,0,0,0-21.44,21.44V693.32a21.47,21.47,0,0,0,21.44,21.44h249.5a21.46,21.46,0,0,0,21.44-21.44V125.43A21.46,21.46,0,0,0,396.36,104Z"/><circle class="cls-8" cx="202.08" cy="31.55" r="6.28"/><circle class="cls-9" cx="417.85" cy="31.55" r="15.77"/><circle class="cls-8" cx="443.12" cy="71.72" r="6.28"/><circle class="cls-10" cx="458.89" cy="15.77" r="6.28"/><circle class="cls-9" cx="156.27" cy="40.29" r="15.77"/><circle class="cls-10" cx="172.05" cy="6.28" r="6.28"/><path class="cls-6" d="M110.52,238.33a3,3,0,0,1-3-3V171.1a3,3,0,0,1,6,0v64.23A3,3,0,0,1,110.52,238.33Z"/><path class="cls-6" d="M110.52,260.58a3,3,0,0,1-3-3v-6.23a3,3,0,0,1,6,0v6.23A3,3,0,0,1,110.52,260.58Z"/><path class="cls-7" d="M190.07,113.42v8.49a19.74,19.74,0,0,0,19.74,19.74H346.22A19.74,19.74,0,0,0,366,121.91v-8.49"/><path class="cls-3" d="M188.61,95.48V105c0,12.28,8.84,22.24,19.74,22.24H344.77c10.9,0,19.74-10,19.74-22.24V95.48"/><path class="cls-5" d="M345.68,129.28H209.26a22.76,22.76,0,0,1-22.74-22.74V98.06h6v8.48a16.76,16.76,0,0,0,16.74,16.74H345.68a16.76,16.76,0,0,0,16.74-16.74V98.06h6v8.48A22.76,22.76,0,0,1,345.68,129.28Z"/><path class="cls-7" d="M185.28,449.33H355a0,0,0,0,1,0,0V452a13.48,13.48,0,0,1-13.48,13.48H198.76A13.48,13.48,0,0,1,185.28,452v-2.69a0,0,0,0,1,0,0Z"/><rect class="cls-11" x="181.92" y="332.31" width="173.08" height="118.83" rx="10.08"/><path class="cls-12" d="M268.62,417.82A23.21,23.21,0,0,1,252.1,411l-56.54-56.54L200,350l56.54,56.54c3.24,3.24,7.54,2,12.12,2s8.88,1.22,12.12-2L337.28,350l4.4,4.4L285.14,411A23.21,23.21,0,0,1,268.62,417.82Z"/><path class="cls-13" d="M194.31,390.13a4,4,0,0,1-4-4V369.84a4,4,0,0,1,8,0v16.29A4,4,0,0,1,194.31,390.13Z"/><path class="cls-13" d="M194.31,404.22a4,4,0,0,1-4-4v-.85a4,4,0,0,1,8,0v.85A4,4,0,0,1,194.31,404.22Z"/><path class="cls-5" d="M268.62,411.6a23.1,23.1,0,0,1-16.44-6.81l-56.54-56.55,4.24-4.24,56.54,56.54a17.24,17.24,0,0,0,24.4,0L337.36,344l4.24,4.24-56.54,56.55A23.1,23.1,0,0,1,268.62,411.6Z"/><rect class="cls-5" x="175.84" y="415.03" width="78.02" height="6" transform="translate(-225.76 254.39) rotate(-42.42)"/><rect class="cls-5" x="321.99" y="379.03" width="6" height="78.02" transform="translate(-202.84 375.95) rotate(-47.58)"/><rect class="cls-7" x="161.23" y="503.62" width="255.19" height="16.17"/><rect class="cls-7" x="161.23" y="545.44" width="255.19" height="16.17"/><rect class="cls-7" x="161.23" y="601.99" width="255.19" height="16.17"/><rect class="cls-14" x="158.23" y="573.13" width="383.96" height="33.04"/><rect class="cls-14" x="158.23" y="529.75" width="339.32" height="21.11"/><rect class="cls-14" x="158.23" y="486.38" width="315.87" height="21.11"/><rect class="cls-6" x="158.23" y="488.84" width="315.87" height="5.12"/><rect class="cls-6" x="154.82" y="533.44" width="342.73" height="3.74"/><rect class="cls-6" x="158.23" y="573.13" width="385.8" height="10.36"/><path class="cls-5" d="M478.09,512.71H154.23V482.38H478.09Zm-315.86-8H470.09V490.38H162.23Z"/><path class="cls-5" d="M501.55,556.08H154.23V525.75H501.55Zm-339.32-8H493.55V533.75H162.23Z"/><path class="cls-5" d="M546.19,612.07h-392V569.13h392Zm-384-8h376V577.13h-376Z"/><rect class="cls-7" x="161.23" y="238.24" width="255.19" height="16.17"/><rect class="cls-14" x="158.23" y="220.99" width="315.87" height="21.11"/><rect class="cls-6" x="158.23" y="223.46" width="315.87" height="5.12"/><path class="cls-5" d="M478.09,247.32H154.23V217H478.09Zm-315.86-8H470.09V225H162.23Z"/><path class="cls-5" d="M299.75,107.85H251.52a4,4,0,0,1,0-8h48.23a4,4,0,0,1,0,8Z"/><path class="cls-5" d="M316.46,107.85h-.23a4,4,0,0,1,0-8h.23a4,4,0,0,1,0,8Z"/><path class="cls-5" d="M341.38,454.13H194.31a16,16,0,0,1-16-16V345.31a16,16,0,0,1,16-16H341.38a16,16,0,0,1,16,16v92.82A16,16,0,0,1,341.38,454.13ZM194.31,335.31a10,10,0,0,0-10,10v92.82a10,10,0,0,0,10,10H341.38a10,10,0,0,0,10-10V345.31a10,10,0,0,0-10-10Z"/><circle class="cls-15" cx="192.07" cy="329.22" r="26.78"/><path class="cls-5" d="M192.07,359a29.78,29.78,0,1,1,29.77-29.77A29.81,29.81,0,0,1,192.07,359Zm0-53.55a23.78,23.78,0,1,0,23.77,23.78A23.8,23.8,0,0,0,192.07,305.44Z"/><path class="cls-6" d="M187.31,322a1.74,1.74,0,0,1,.83-1.55l3.88-3a1.35,1.35,0,0,1,.89-.33,2.33,2.33,0,0,1,1.31.4,1.15,1.15,0,0,1,.6,1v21.39a1.11,1.11,0,0,1-.64,1,3.27,3.27,0,0,1-3,0,1.1,1.1,0,0,1-.62-1V322.35l-1,1.06a1.21,1.21,0,0,1-1.78-.23A2,2,0,0,1,187.31,322Z"/><path class="cls-16" d="M174.22,321.11a1.06,1.06,0,0,1-.42-.09,1,1,0,0,1-.49-1.33,16.87,16.87,0,0,1,12.54-9.83,1,1,0,0,1,.39,2,14.75,14.75,0,0,0-11.11,8.7A1,1,0,0,1,174.22,321.11Z"/><path class="cls-16" d="M172.41,328.2h0a1,1,0,0,1-1-1,19.38,19.38,0,0,1,.73-4.25,1,1,0,0,1,1.93.54,17.93,17.93,0,0,0-.66,3.77A1,1,0,0,1,172.41,328.2Z"/><path class="cls-5" d="M94.73,181a4,4,0,0,1-4-4V153a4,4,0,0,1,8,0v24A4,4,0,0,1,94.73,181Z"/><path class="cls-5" d="M94.84,224.25a4,4,0,0,1-4-4v-24a4,4,0,0,1,8,0v24A4,4,0,0,1,94.84,224.25Z"/></g></g></svg>