<svg xmlns="http://www.w3.org/2000/svg" viewBox="0 0 587.98 717.14"><defs><style>.cls-1,.cls-8{fill:#b3e8ff;}.cls-1{opacity:0.4;}.cls-2{fill:#c2ced3;}.cls-13,.cls-2{opacity:0.5;}.cls-3{fill:#29c6ff;}.cls-4{fill:#22a6ff;}.cls-5{fill:#213346;}.cls-13,.cls-6{fill:#fff;}.cls-7{fill:#dce1ff;}.cls-9{fill:#ffc62a;}.cls-10{fill:#ff28b3;}.cls-11{fill:#ede9e4;}.cls-12{fill:#ff2457;}</style></defs><title>Asset 1</title><g id="Layer_2" data-name="Layer 2"><g id="Layer_1-2" data-name="Layer 1"><circle class="cls-1" cx="293.99" cy="346.88" r="293.99"/><circle class="cls-1" cx="300.62" cy="341.65" r="241.89"/><circle class="cls-1" cx="34.87" cy="94.25" r="21.58"/><circle class="cls-1" cx="37.62" cy="36.06" r="12.17"/><rect class="cls-2" x="122.8" y="39.01" width="349.17" height="678.13" rx="57.14"/><rect class="cls-3" x="124.09" y="21.13" width="345.79" height="671.56" rx="51.18"/><path class="cls-4" d="M418.4,23.53H173.51a51.48,51.48,0,0,0-40.62,19.75,51.4,51.4,0,0,1,31.62-10.81H409.4a51.34,51.34,0,0,1,51.48,51.18V652.86A50.74,50.74,0,0,1,450,684.28a51,51,0,0,0,19.87-40.37V74.7A51.33,51.33,0,0,0,418.4,23.53Z"/><path class="cls-5" d="M418.7,696.68H175.27a55.24,55.24,0,0,1-55.18-55.17V72.3a55.24,55.24,0,0,1,55.18-55.17H418.7A55.24,55.24,0,0,1,473.88,72.3V200.88h-8V72.3A47.23,47.23,0,0,0,418.7,25.13H175.27A47.23,47.23,0,0,0,128.09,72.3V641.51a47.23,47.23,0,0,0,47.18,47.17H418.7a47.23,47.23,0,0,0,47.18-47.17V263h8V641.51A55.24,55.24,0,0,1,418.7,696.68Z"/><rect class="cls-5" x="465.88" y="244.6" width="8" height="8.22"/><rect class="cls-5" x="465.88" y="214.01" width="8" height="23.07"/><rect class="cls-6" x="147.8" y="46.52" width="298.38" height="616.77" rx="24.44"/><path class="cls-7" d="M420.32,47.93H170.82a24.42,24.42,0,0,0-21.61,13,24.4,24.4,0,0,1,11.39-2.82H410.1a24.44,24.44,0,0,1,24.44,24.44V650.48a24.32,24.32,0,0,1-2.82,11.4,24.43,24.43,0,0,0,13-21.62V72.37A24.44,24.44,0,0,0,420.32,47.93Z"/><path class="cls-5" d="M421.73,666.29H172.24a27.47,27.47,0,0,1-27.44-27.44V71a27.47,27.47,0,0,1,27.44-27.44H421.73A27.47,27.47,0,0,1,449.17,71V638.85A27.47,27.47,0,0,1,421.73,666.29ZM172.24,49.52A21.46,21.46,0,0,0,150.8,71V638.85a21.46,21.46,0,0,0,21.44,21.44H421.73a21.46,21.46,0,0,0,21.44-21.44V71a21.46,21.46,0,0,0-21.44-21.44Z"/><circle class="cls-8" cx="81.42" cy="24.29" r="15.77"/><circle class="cls-9" cx="125.32" cy="6.28" r="6.28"/><circle class="cls-10" cx="105.66" cy="60.98" r="6.28"/><circle class="cls-8" cx="502.89" cy="85.07" r="15.77"/><circle class="cls-10" cx="518.67" cy="51.05" r="6.28"/><path class="cls-6" d="M135.89,183.86a3,3,0,0,1-3-3V116.63a3,3,0,0,1,6,0v64.23A3,3,0,0,1,135.89,183.86Z"/><path class="cls-6" d="M135.89,206.11a3,3,0,0,1-3-3v-6.23a3,3,0,0,1,6,0v6.23A3,3,0,0,1,135.89,206.11Z"/><rect class="cls-7" x="182.35" y="484.72" width="255.19" height="16.17"/><rect class="cls-7" x="182.35" y="526.54" width="255.19" height="16.17"/><rect class="cls-7" x="182.35" y="583.09" width="255.19" height="16.17"/><rect class="cls-11" x="179.35" y="554.23" width="383.96" height="33.04"/><rect class="cls-11" x="179.35" y="510.85" width="339.32" height="21.11"/><rect class="cls-11" x="179.35" y="467.47" width="315.87" height="21.11"/><rect class="cls-6" x="179.35" y="469.94" width="315.87" height="5.12"/><rect class="cls-6" x="175.94" y="514.54" width="342.73" height="3.74"/><rect class="cls-6" x="179.35" y="554.23" width="385.8" height="10.36"/><rect class="cls-7" x="187.71" y="416.94" width="246.83" height="16.17"/><rect class="cls-7" x="187.71" y="355.6" width="246.83" height="16.17"/><rect class="cls-7" x="187.71" y="311.38" width="246.83" height="16.17"/><rect class="cls-11" x="179.35" y="382" width="383.96" height="33.04"/><rect class="cls-6" x="175.94" y="386.39" width="383.96" height="5.12"/><path class="cls-5" d="M567.31,420.94h-392V378h392Zm-384-8h376V386h-376Z"/><rect class="cls-11" x="179.35" y="338.62" width="339.32" height="21.11"/><rect class="cls-11" x="179.35" y="295.25" width="315.87" height="21.11"/><rect class="cls-6" x="179.35" y="342.37" width="339.32" height="5.12"/><rect class="cls-6" x="181.64" y="298.63" width="309.48" height="5.12"/><path class="cls-5" d="M522.67,365H175.35V334.62H522.67Zm-339.32-8H514.67V342.62H183.35Z"/><path class="cls-5" d="M499.21,321.58H175.35V291.25H499.21Zm-315.86-8H491.21V299.25H183.35Z"/><path class="cls-5" d="M499.21,493.81H175.35V463.47H499.21Zm-315.86-8H491.21V471.47H183.35Z"/><path class="cls-5" d="M522.67,537.18H175.35V506.85H522.67Zm-339.32-8H514.67V514.85H183.35Z"/><path class="cls-5" d="M567.31,593.17h-392V550.23h392Zm-384-8h376V558.23h-376Z"/><rect class="cls-7" x="182.78" y="136.23" width="255.19" height="16.17"/><rect class="cls-6" x="179.78" y="107.37" width="383.96" height="33.04"/><rect class="cls-6" x="179.78" y="107.37" width="385.8" height="10.36"/><path class="cls-5" d="M567.74,146.32h-392V103.37h392Zm-384-8h376V111.37h-376Z"/><path class="cls-7" d="M215.44,56.84v8.48a19.73,19.73,0,0,0,19.74,19.74H371.59a19.73,19.73,0,0,0,19.74-19.74V56.84"/><path class="cls-3" d="M213,40v9.56c0,12.29,8.84,22.24,19.74,22.24H369.14c10.9,0,19.74-10,19.74-22.24V40"/><path class="cls-5" d="M371.05,74.81H234.63a22.76,22.76,0,0,1-22.74-22.74V43.59h6v8.48a16.76,16.76,0,0,0,16.74,16.74H371.05a16.76,16.76,0,0,0,16.74-16.74V43.59h6v8.48A22.76,22.76,0,0,1,371.05,74.81Z"/><path class="cls-5" d="M317.15,51.26H268.91a4,4,0,0,1,0-8h48.24a4,4,0,0,1,0,8Z"/><path class="cls-5" d="M333.86,51.26h-.24a4,4,0,0,1,0-8h.24a4,4,0,0,1,0,8Z"/><path class="cls-5" d="M120.37,124.37a4,4,0,0,1-4-4v-24a4,4,0,0,1,8,0v24A4,4,0,0,1,120.37,124.37Z"/><path class="cls-5" d="M120.48,167.66a4,4,0,0,1-4-4v-24a4,4,0,0,1,8,0v24A4,4,0,0,1,120.48,167.66Z"/><circle class="cls-7" cx="214.44" cy="226.08" r="33.96"/><circle class="cls-12" cx="215.7" cy="211.06" r="36.35"/><path class="cls-5" d="M215.7,250.4A39.35,39.35,0,1,1,255,211.06,39.39,39.39,0,0,1,215.7,250.4Zm0-72.69A33.35,33.35,0,1,0,249,211.06,33.39,33.39,0,0,0,215.7,177.71Z"/><path class="cls-6" d="M209.25,201.25a2.35,2.35,0,0,1,1.11-2.1l5.27-4a1.84,1.84,0,0,1,1.21-.45,3.17,3.17,0,0,1,1.79.54,1.58,1.58,0,0,1,.8,1.34v29a1.5,1.5,0,0,1-.87,1.34,4.51,4.51,0,0,1-4.09,0,1.52,1.52,0,0,1-.85-1.34V201.74l-1.43,1.43a1.51,1.51,0,0,1-1.07.4,1.61,1.61,0,0,1-1.34-.71A2.59,2.59,0,0,1,209.25,201.25Z"/><path class="cls-13" d="M191.47,199.69a.85.85,0,0,1-.41-.09,1,1,0,0,1-.49-1.32,22.53,22.53,0,0,1,16.76-13.14,1,1,0,0,1,.39,2,20.35,20.35,0,0,0-15.34,12A1,1,0,0,1,191.47,199.69Z"/><path class="cls-13" d="M189,209.32h0a1,1,0,0,1-1-1,26.08,26.08,0,0,1,1-5.68,1,1,0,0,1,1.93.53,24.37,24.37,0,0,0-.9,5.21A1,1,0,0,1,189,209.32Z"/></g></g></svg>