<svg xmlns="http://www.w3.org/2000/svg" viewBox="0 0 58.8 58.86"><defs><style>.cls-1{fill:#fcd9b5;}.cls-2{fill:#7b93ee;}.cls-3{fill:#72def8;}.cls-4{fill:#fff;}.cls-5{fill:#7fccf7;opacity:0.21;isolation:isolate;}.cls-6{fill:#140c10;}.cls-7{fill:#f8e760;}.cls-8{fill:#f9b56d;}.cls-9{fill:#ede6e6;}.cls-10{fill:#f21d1d;}.cls-11{fill:#c90e0e;}</style></defs><g id="Layer_2" data-name="Layer 2"><g id="Layer_1-2" data-name="Layer 1"><path class="cls-1" d="M54.09,24H5.82a24.69,24.69,0,0,1,48.27,0Z"/><path d="M29.41,58.86A29.43,29.43,0,1,1,58.8,29.37v.06A29.5,29.5,0,0,1,45.89,53.81a.75.75,0,0,1-.84-1.24,27.75,27.75,0,1,0-5.86,3,.75.75,0,1,1,.52,1.4A29.42,29.42,0,0,1,29.41,58.86Z"/><path class="cls-2" d="M5.88,37h47a24.69,24.69,0,0,1-47,0Z"/><path class="cls-3" d="M54.1,29.69a14.88,14.88,0,0,1-.73,5.85H5.47a14.72,14.72,0,0,1-.77-5.85,15.07,15.07,0,0,1,.56-4.06H53.54A15.07,15.07,0,0,1,54.1,29.69Z"/><circle class="cls-4" cx="50.69" cy="28.28" r="0.84"/><circle class="cls-3" cx="48.4" cy="39.55" r="0.84"/><circle class="cls-3" cx="9.99" cy="40.97" r="0.84"/><circle class="cls-4" cx="43.71" cy="47.86" r="0.42"/><circle class="cls-4" cx="10.47" cy="28.28" r="0.48"/><circle class="cls-4" cx="22.89" cy="49.89" r="0.48"/><circle class="cls-2" cx="47.56" cy="30.98" r="0.48"/><circle class="cls-4" cx="15.06" cy="42.26" r="0.84"/><rect class="cls-4" x="40.26" y="13.27" width="4.02" height="32.23" rx="1.2"/><rect class="cls-5" x="39.27" y="13.27" width="4.02" height="32.23" rx="1.2"/><path class="cls-6" d="M43.08,46.22H41.46a1.65,1.65,0,0,1-1.66-1.65V14.74a1.66,1.66,0,0,1,1.66-1.66h1.62a1.66,1.66,0,0,1,1.66,1.66V44.57A1.65,1.65,0,0,1,43.08,46.22ZM41.46,14a.74.74,0,0,0-.74.74V44.57a.74.74,0,0,0,.74.74h1.62a.74.74,0,0,0,.74-.74V14.74a.74.74,0,0,0-.74-.74Z"/><path class="cls-4" d="M23.92,47.1H16.81a.73.73,0,0,1-.7-.76V12.54a.73.73,0,0,1,.7-.76H39.24a.73.73,0,0,1,.69.76v33.8a.73.73,0,0,1-.69.76H26.3"/><path class="cls-7" d="M26.06,47.1H19a.74.74,0,0,1-.7-.76V12.54a.74.74,0,0,1,.7-.76H41.38a.73.73,0,0,1,.7.76v33.8a.73.73,0,0,1-.7.76H28.44"/><path class="cls-8" d="M41.74,12.54v33.8a.75.75,0,0,1-.71.76H18.59C36.79,44,41.34,22.52,41,11.79h0a.73.73,0,0,1,.71.75Z"/><path class="cls-6" d="M41.32,47.56h-14a.47.47,0,0,1-.46-.46.46.46,0,0,1,.46-.46h14a.3.3,0,0,0,.3-.3V12.54a.3.3,0,0,0-.3-.3H17.05a.3.3,0,0,0-.3.3V23.9a.46.46,0,1,1-.92,0h0V12.54a1.22,1.22,0,0,1,1.22-1.22H41.32a1.22,1.22,0,0,1,1.22,1.22v33.8A1.22,1.22,0,0,1,41.32,47.56Z"/><path class="cls-6" d="M16.29,37.47a.46.46,0,0,1-.46-.46h0V29.15a.47.47,0,0,1,.46-.46.46.46,0,0,1,.46.46h0V37a.46.46,0,0,1-.46.46Z"/><path class="cls-6" d="M24.74,47.56H17.05a1.22,1.22,0,0,1-1.22-1.22V43.6a.46.46,0,0,1,.92,0h0v2.74a.3.3,0,0,0,.3.3h7.69a.45.45,0,0,1,.46.46.46.46,0,0,1-.46.46Z"/><circle class="cls-6" cx="16.29" cy="40.5" r="0.55"/><circle class="cls-4" cx="18.37" cy="17.75" r="1.09"/><circle class="cls-4" cx="18.37" cy="26.62" r="0.62"/><circle class="cls-4" cx="18.37" cy="22.38" r="0.44"/><circle class="cls-4" cx="19.5" cy="19.44" r="0.44"/><circle class="cls-4" cx="19.29" cy="28.38" r="0.44"/><path class="cls-6" d="M40.26,18.66a.21.21,0,0,1-.17-.08l-1-1.15a.23.23,0,0,1,.34-.3h0l1,1.15a.23.23,0,0,1,0,.33A.25.25,0,0,1,40.26,18.66Z"/><path class="cls-6" d="M39.08,18.87a.23.23,0,0,1-.18-.08L37.45,17a.23.23,0,0,1,0-.32.24.24,0,0,1,.33,0l1.44,1.76a.22.22,0,0,1,0,.32h0A.24.24,0,0,1,39.08,18.87Z"/><path class="cls-4" d="M26.83,28.09c0,1.22,0,3.65.08,4.86a.35.35,0,0,0,.32.37l1,.12a1.22,1.22,0,0,1,1.09,1.32l0,3a1.22,1.22,0,0,1-1,1.35L26.45,39a1.29,1.29,0,0,1-1.17-.92A26.65,26.65,0,0,1,25.06,23a1.3,1.3,0,0,1,1.15-1l1.86.11a1.22,1.22,0,0,1,1.09,1.31l0,3a1.23,1.23,0,0,1-1.05,1.35l-1-.11A.36.36,0,0,0,26.83,28.09Z"/><path class="cls-4" d="M27.42,28.08c0,1.22,0,3.65.07,4.87a.37.37,0,0,0,.33.37l1,.12a1.22,1.22,0,0,1,1.09,1.32l0,3A1.22,1.22,0,0,1,28.9,39.1L27,39a1.3,1.3,0,0,1-1.17-.92A26.69,26.69,0,0,1,25.65,23a1.29,1.29,0,0,1,1.15-.95l1.86.1a1.22,1.22,0,0,1,1.08,1.32l.05,3a1.23,1.23,0,0,1-1.05,1.35l-1-.12A.37.37,0,0,0,27.42,28.08Z"/><path d="M26.81,39.51A2,2,0,0,1,25,38.37,21.89,21.89,0,0,1,24.8,23a2,2,0,0,1,1.78-1.19l1.92,0h0a1.72,1.72,0,0,1,1.72,1.68l0,3a1.72,1.72,0,0,1-1.69,1.74h-.84c0,.45,0,1,0,1.68a.37.37,0,0,1-.37.38h0a.39.39,0,0,1-.38-.38c0-.64,0-1.24,0-1.69a.78.78,0,0,1,.76-.75h.85a1,1,0,0,0,1-1l-.05-3a1,1,0,0,0-1-.94l-1.92,0a1.2,1.2,0,0,0-1.09.73,21.18,21.18,0,0,0,.21,14.76,1.24,1.24,0,0,0,1.12.7l1.92,0a1,1,0,0,0,.94-1l0-3a1,1,0,0,0-1-.94h-.85A.79.79,0,0,1,27,33.1c0-.61-.05-.85-.06-1.68a.37.37,0,0,1,.37-.39h0a.38.38,0,0,1,.38.37c0,.82,0,1.06.06,1.57l0,.48v-.38h.87a1.71,1.71,0,0,1,1.71,1.69l.05,3a1.72,1.72,0,0,1-1.69,1.74l-1.92,0Z"/><path class="cls-9" d="M15.08,15.77h4.4A1.52,1.52,0,0,1,21,17.28h0a1.51,1.51,0,0,1-1.51,1.51h-4.4a1.51,1.51,0,0,1-1.51-1.51h0A1.52,1.52,0,0,1,15.08,15.77Z"/><path class="cls-4" d="M19.48,17.07h-4.4c-.83,0-1.51,1.05-1.51.21h0a1.52,1.52,0,0,1,1.51-1.51h4.4A1.52,1.52,0,0,1,21,17.28h0C21,18.12,20.31,17.07,19.48,17.07Z"/><path d="M19.48,19.07h-4.4a1.79,1.79,0,0,1,0-3.58h4.4a1.79,1.79,0,0,1,0,3.58Zm-4.4-3a1.23,1.23,0,0,0,0,2.46h4.4a1.23,1.23,0,0,0,1.23-1.23,1.24,1.24,0,0,0-1.23-1.23Z"/><path d="M17.06,17.75H15.38a.15.15,0,0,1-.15-.15.15.15,0,0,1,.15-.14h1.68a.15.15,0,0,1,.15.15A.15.15,0,0,1,17.06,17.75Z"/><path class="cls-9" d="M15.08,23.48h4.4A1.51,1.51,0,0,1,21,25h0a1.52,1.52,0,0,1-1.51,1.51h-4.4A1.52,1.52,0,0,1,13.57,25h0A1.51,1.51,0,0,1,15.08,23.48Z"/><path class="cls-4" d="M19.48,24.78h-4.4c-.83,0-1.51,1-1.51.21h0a1.51,1.51,0,0,1,1.51-1.51h4.4A1.51,1.51,0,0,1,21,25h0C21,25.82,20.31,24.78,19.48,24.78Z"/><path d="M19.48,26.78h-4.4a1.79,1.79,0,0,1,0-3.58h4.4a1.79,1.79,0,0,1,0,3.58Zm-4.4-3a1.23,1.23,0,1,0,0,2.46h4.4a1.23,1.23,0,1,0,0-2.46h-4.4Z"/><path d="M17.06,25.46H15.38a.15.15,0,0,1-.15-.15.15.15,0,0,1,.15-.14h1.68a.15.15,0,0,1,.15.15A.16.16,0,0,1,17.06,25.46Z"/><path class="cls-9" d="M15.08,38.89h4.4A1.52,1.52,0,0,1,21,40.4h0a1.51,1.51,0,0,1-1.51,1.51h-4.4a1.51,1.51,0,0,1-1.51-1.51h0A1.52,1.52,0,0,1,15.08,38.89Z"/><path class="cls-4" d="M19.48,40.2h-4.4c-.83,0-1.51,1-1.51.2h0a1.52,1.52,0,0,1,1.51-1.51h4.4A1.52,1.52,0,0,1,21,40.4h0C21,41.24,20.31,40.2,19.48,40.2Z"/><path d="M19.48,42.19h-4.4a1.79,1.79,0,0,1,0-3.58h4.4a1.79,1.79,0,0,1,0,3.58Zm-4.4-3a1.24,1.24,0,0,0,0,2.47h4.4a1.24,1.24,0,0,0,0-2.47h-4.4Z"/><path d="M17.06,40.87H15.38a.14.14,0,0,1-.15-.15.15.15,0,0,1,.15-.14h1.68a.15.15,0,0,1,.15.15A.15.15,0,0,1,17.06,40.87Z"/><path class="cls-9" d="M15.08,31.18h4.4A1.52,1.52,0,0,1,21,32.7h0a1.52,1.52,0,0,1-1.51,1.51h-4.4a1.52,1.52,0,0,1-1.51-1.51h0A1.52,1.52,0,0,1,15.08,31.18Z"/><path class="cls-4" d="M19.48,32.49h-4.4c-.83,0-1.51,1-1.51.21h0a1.52,1.52,0,0,1,1.51-1.52h4.4A1.52,1.52,0,0,1,21,32.7h0C21,33.53,20.31,32.49,19.48,32.49Z"/><path d="M19.48,34.49h-4.4a1.8,1.8,0,0,1,0-3.59h4.4a1.8,1.8,0,0,1,0,3.59Zm-4.4-3a1.24,1.24,0,0,0,0,2.47h4.4a1.24,1.24,0,0,0,0-2.47h-4.4Z"/><path d="M17.06,33.17H15.38a.15.15,0,0,1-.15-.15.15.15,0,0,1,.15-.15h1.68a.15.15,0,0,1,.15.15A.16.16,0,0,1,17.06,33.17Z"/><rect class="cls-10" x="42.08" y="18.43" width="3.15" height="3.72"/><rect class="cls-11" x="42.08" y="18.43" width="1.38" height="3.72"/><path d="M45.23,22.41H42.08a.26.26,0,0,1-.26-.25V18.43a.26.26,0,0,1,.26-.25h3.15a.25.25,0,0,1,.26.25h0v1a.26.26,0,0,1-.26.26.26.26,0,0,1-.25-.26v-.72H42.34V21.9H45V20.51a.25.25,0,0,1,.25-.26.26.26,0,0,1,.26.25h0v1.65A.25.25,0,0,1,45.23,22.41Z"/><path d="M34.55,30.42a.28.28,0,0,1-.28-.28h0a3.22,3.22,0,0,0-1.43-2.69.28.28,0,0,1,.31-.46,3.81,3.81,0,0,1,1.68,3.15.27.27,0,0,1-.28.28Z"/><path d="M36.1,30.42a.27.27,0,0,1-.28-.28h0A4.78,4.78,0,0,0,33.43,26a.28.28,0,0,1,.28-.49h0a5.38,5.38,0,0,1,2.67,4.63.28.28,0,0,1-.28.28Z"/><path d="M37.6,30.42a.27.27,0,0,1-.28-.28h0a6.32,6.32,0,0,0-3.14-5.44.27.27,0,0,1-.1-.38.27.27,0,0,1,.38-.1h0a6.87,6.87,0,0,1,3.42,5.92.28.28,0,0,1-.28.28Z"/><path d="M33,33.35a.29.29,0,0,1-.28-.28.28.28,0,0,1,.12-.23,3.26,3.26,0,0,0,1.43-2.7.28.28,0,0,1,.28-.27h0a.27.27,0,0,1,.28.27h0a3.83,3.83,0,0,1-1.67,3.16A.3.3,0,0,1,33,33.35Z"/><path d="M33.57,34.81a.28.28,0,0,1-.28-.28.29.29,0,0,1,.14-.24,4.8,4.8,0,0,0,2.39-4.15.28.28,0,0,1,.28-.28h0a.29.29,0,0,1,.28.28,5.38,5.38,0,0,1-2.67,4.63A.23.23,0,0,1,33.57,34.81Z"/><path d="M34.32,36.11a.29.29,0,0,1-.28-.28.29.29,0,0,1,.14-.24,6.33,6.33,0,0,0,3.14-5.45.28.28,0,0,1,.27-.28h0a.28.28,0,0,1,.28.28,6.87,6.87,0,0,1-3.41,5.93A.33.33,0,0,1,34.32,36.11Z"/></g></g></svg>