<svg xmlns="http://www.w3.org/2000/svg" viewBox="0 0 58.8 58.86"><defs><style>.cls-1{fill:#f28d33;}.cls-2{fill:#fcd9b5;}.cls-3{fill:#f9b56d;}.cls-4{fill:#fff;}.cls-5{fill:#dcfaff;}.cls-6{fill:#84c7ce;}.cls-7{fill:#c3e9ed;}</style></defs><g id="Layer_2" data-name="Layer 2"><g id="Layer_1-2" data-name="Layer 1"><path d="M29.41,58.86A29.43,29.43,0,1,1,58.8,29.37v.06A29.43,29.43,0,0,1,29.41,58.86Zm0-57.34a27.9,27.9,0,1,0,27.26,22,27.9,27.9,0,0,0-27.26-22Z"/><path class="cls-1" d="M5.88,37h47a24.69,24.69,0,0,1-47,0Z"/><path class="cls-2" d="M53.8,24.11H5.53a24.69,24.69,0,0,1,48.27,0Z"/><path class="cls-3" d="M54.1,29.69a15.06,15.06,0,0,1-1.18,5.85h-47a15.06,15.06,0,0,1-.62-9.91H53.54A15.12,15.12,0,0,1,54.1,29.69Z"/><circle class="cls-4" cx="40.19" cy="13.33" r="0.48"/><circle class="cls-4" cx="10.47" cy="28.28" r="0.48"/><circle class="cls-4" cx="30.62" cy="28.75" r="0.48"/><circle class="cls-4" cx="22.1" cy="48.25" r="0.48"/><circle class="cls-4" cx="15.9" cy="14.46" r="0.48"/><circle class="cls-4" cx="41.03" cy="40.53" r="0.84"/><circle class="cls-4" cx="49.85" cy="26.29" r="0.84"/><circle class="cls-4" cx="15.06" cy="42.26" r="0.84"/><path class="cls-4" d="M35.16,46.42H23.64a4,4,0,0,1-4-4V16a4,4,0,0,1,4-4H35.16a4,4,0,0,1,4,4V42.42A4,4,0,0,1,35.16,46.42Z"/><path class="cls-5" d="M39.16,16.19V42.27H19.64V16.19Z"/><path class="cls-6" d="M20.52,42.28a.6.6,0,0,1-.6-.6V16.79a.6.6,0,0,1,.6-.61h18.3a.6.6,0,0,1,.6.6.59.59,0,0,1-.59.61H21.12V41.68A.6.6,0,0,1,20.52,42.28Z"/><path d="M24,16.71H19.64a.34.34,0,0,1-.34-.35.33.33,0,0,1,.34-.34H24a.35.35,0,0,1,0,.69Z"/><path d="M39.16,16.71H25.63a.35.35,0,0,1-.35-.35.35.35,0,0,1,.35-.34H39.16a.35.35,0,1,1,0,.69Z"/><path d="M23.1,42.79H19.64a.35.35,0,0,1,0-.69H23.1a.35.35,0,1,1,0,.69Z"/><path d="M39.16,42.79H25.26a.35.35,0,0,1,0-.69h13.9a.35.35,0,1,1,0,.69Z"/><path class="cls-7" d="M32.21,45.19H26.48a.5.5,0,0,1-.5-.5.5.5,0,0,1,.5-.5h5.73a.5.5,0,0,1,.5.5A.5.5,0,0,1,32.21,45.19Z"/><path class="cls-4" d="M38.42,39.07a.6.6,0,0,1-.61-.6v-6a.62.62,0,0,1,.6-.61.6.6,0,0,1,.61.6h0v6A.6.6,0,0,1,38.42,39.07Z"/><path class="cls-4" d="M38.42,29a.6.6,0,0,1-.61-.6v-6a.6.6,0,0,1,.6-.61.59.59,0,0,1,.61.6h0v6A.6.6,0,0,1,38.42,29Z"/><path d="M35.16,46.89H23.64a4.47,4.47,0,0,1-4.46-4.47V16a4.46,4.46,0,0,1,4.46-4.46H35.16A4.47,4.47,0,0,1,39.63,16V42.42A4.48,4.48,0,0,1,35.16,46.89ZM23.64,12.51A3.53,3.53,0,0,0,20.11,16V42.42A3.54,3.54,0,0,0,23.64,46H35.16a3.56,3.56,0,0,0,3.54-3.54V16a3.54,3.54,0,0,0-3.54-3.53Z"/><path d="M29.67,15.07a.88.88,0,1,1,.87-.88h0A.88.88,0,0,1,29.67,15.07Zm0-1.34a.47.47,0,1,0,.46.47h0A.47.47,0,0,0,29.67,13.73Z"/><path d="M32.27,44.69H26.54a.37.37,0,0,1,0-.74h5.74a.37.37,0,0,1,.37.37.38.38,0,0,1-.37.37Z"/><circle class="cls-4" cx="29.4" cy="30.62" r="1.84"/><path d="M26.51,28.94a.28.28,0,0,1-.28-.28.27.27,0,0,1,.05-.15,3.77,3.77,0,0,1,3.12-1.67.29.29,0,0,1,.28.28.27.27,0,0,1-.28.28h0a3.2,3.2,0,0,0-2.66,1.42A.29.29,0,0,1,26.51,28.94Z"/><path d="M25.06,28.38a.33.33,0,0,1-.14,0,.28.28,0,0,1-.1-.38h0a5.31,5.31,0,0,1,4.58-2.65.29.29,0,0,1,.28.28.27.27,0,0,1-.28.28h0a4.78,4.78,0,0,0-4.1,2.37A.29.29,0,0,1,25.06,28.38Z"/><path d="M23.78,27.63a.22.22,0,0,1-.14,0,.28.28,0,0,1-.11-.38h0a6.8,6.8,0,0,1,5.86-3.39.29.29,0,0,1,.28.28.28.28,0,0,1-.28.28h0A6.22,6.22,0,0,0,24,27.5.28.28,0,0,1,23.78,27.63Z"/><path d="M32.29,28.94a.31.31,0,0,1-.23-.12,3.18,3.18,0,0,0-2.65-1.42h0a.28.28,0,0,1-.28-.28.29.29,0,0,1,.29-.27,3.78,3.78,0,0,1,3.12,1.65.29.29,0,0,1-.08.39h0A.28.28,0,0,1,32.29,28.94Z"/><path d="M33.74,28.37a.27.27,0,0,1-.24-.14,4.78,4.78,0,0,0-4.09-2.36h0a.28.28,0,1,1,0-.55h0A5.31,5.31,0,0,1,34,28a.29.29,0,0,1-.11.39A.32.32,0,0,1,33.74,28.37Z"/><path d="M35,27.63a.27.27,0,0,1-.24-.14,6.28,6.28,0,0,0-5.38-3.1h0a.28.28,0,0,1,0-.56h0a6.82,6.82,0,0,1,5.86,3.38.27.27,0,0,1-.1.38.23.23,0,0,1-.14,0Z"/><path d="M29.4,32.72a2.12,2.12,0,1,1,2.12-2.12A2.11,2.11,0,0,1,29.4,32.72Zm0-3.67A1.56,1.56,0,1,0,31,30.61h0A1.56,1.56,0,0,0,29.4,29.05Z"/><path d="M19.14,22.28a.51.51,0,0,1-.5-.5V19.29a.5.5,0,1,1,1,0h0v2.49A.5.5,0,0,1,19.14,22.28Z"/><path d="M19.14,25.88a.5.5,0,0,1-.5-.5V23.85a.51.51,0,0,1,.5-.5.49.49,0,0,1,.49.5h0v1.53A.49.49,0,0,1,19.14,25.88Z"/></g></g></svg>