<svg xmlns="http://www.w3.org/2000/svg" viewBox="0 0 58.8 58.84"><defs><style>.cls-1,.cls-2,.cls-3{fill:#f9d606;}.cls-2{opacity:0.2;}.cls-2,.cls-3{isolation:isolate;}.cls-3{opacity:0.52;}.cls-4{fill:#fff;}.cls-5{fill:#ede6e6;}.cls-6{fill:#dae4e5;}.cls-7{fill:#415e6d;}.cls-8{fill:#74ce3a;}.cls-9{fill:#8eaeba;}.cls-10{fill:#2e4751;}</style></defs><g id="Layer_2" data-name="Layer 2"><g id="Layer_1-2" data-name="Layer 1"><path class="cls-1" d="M5.54,37.24h47a24.68,24.68,0,0,1-47,0Z"/><path class="cls-2" d="M53.19,24.46H4.92a24.69,24.69,0,0,1,48.27,0Z"/><path class="cls-3" d="M53.76,30a15.25,15.25,0,0,1-1.19,5.85h-47a14.94,14.94,0,0,1-.62-9.91H53.19A15.48,15.48,0,0,1,53.76,30Z"/><path d="M29.41,58.84A29.42,29.42,0,1,1,58.8,29.45,29.45,29.45,0,0,1,29.41,58.84Zm0-57.34A27.89,27.89,0,1,0,57.3,29.38a28.29,28.29,0,0,0-.62-5.88A28,28,0,0,0,29.41,1.5Z"/><circle class="cls-4" cx="40.19" cy="13.31" r="0.48"/><circle class="cls-4" cx="10.47" cy="28.25" r="0.48"/><circle class="cls-4" cx="30.62" cy="28.73" r="0.48"/><circle class="cls-4" cx="22.1" cy="48.23" r="0.48"/><circle class="cls-4" cx="15.9" cy="14.44" r="0.48"/><circle class="cls-4" cx="43.19" cy="45.27" r="0.84"/><circle class="cls-4" cx="49.85" cy="26.27" r="0.84"/><circle class="cls-4" cx="15.06" cy="42.24" r="0.84"/><path class="cls-4" d="M17.2,36.83a6,6,0,1,1,0-11.93Z"/><path class="cls-4" d="M41.61,36.83a6,6,0,0,0,0-11.93Z"/><path class="cls-5" d="M26.9,42h4.78a1.64,1.64,0,0,1,1.65,1.64h0a1.65,1.65,0,0,1-1.65,1.65H26.9a1.64,1.64,0,0,1-1.64-1.65h0A1.63,1.63,0,0,1,26.9,42Z"/><path d="M38.71,44H33.55a.43.43,0,0,1-.42-.42.42.42,0,0,1,.41-.41h5.17a4.08,4.08,0,0,0,4.07-4.07v-8a.4.4,0,0,1,.41-.41.41.41,0,0,1,.41.41v8A4.91,4.91,0,0,1,38.71,44Z"/><path d="M38.62,42.28h-3.8a.31.31,0,1,1,0-.61h3.81a3,3,0,0,0,3-3V32.74a.3.3,0,0,1,.3-.3.31.31,0,0,1,.31.3v5.93A3.61,3.61,0,0,1,38.62,42.28Z"/><path class="cls-6" d="M17.2,36.83c-2.59,0-4.69-2.67-4.69-6s2.1-6,4.69-6Z"/><path class="cls-6" d="M41.61,36.83c2.59,0,4.68-2.67,4.68-6s-2.09-6-4.68-6Z"/><path d="M41.61,37.3a.47.47,0,0,1-.47-.47h0V33.9a.47.47,0,0,1,.47-.46.46.46,0,0,1,.46.46v2.44a5.5,5.5,0,0,0,0-11V31.5a.46.46,0,0,1-.46.47.47.47,0,0,1-.47-.47V24.9a.47.47,0,0,1,.47-.47h0a6.44,6.44,0,1,1,0,12.87Z"/><path class="cls-7" d="M39.87,23.15c0-5.41-4.69-9.79-10.47-9.79s-10.47,4.38-10.47,9.79l-1.87-.57C17.06,16.21,22.59,11,29.4,11s12.34,5.17,12.34,11.54"/><path class="cls-4" d="M31.68,43.4H26.9c-.91,0-1.64,1.13-1.64.22h0A1.63,1.63,0,0,1,26.9,42h4.78a1.64,1.64,0,0,1,1.65,1.64h0C33.33,44.53,32.59,43.4,31.68,43.4Z"/><path d="M31.68,45.68H26.9a2.06,2.06,0,1,1,0-4.12h4.78a2.06,2.06,0,0,1,0,4.12ZM26.9,42.39a1.24,1.24,0,0,0,0,2.47h4.78a1.24,1.24,0,0,0,1.23-1.24,1.23,1.23,0,0,0-1.23-1.23Z"/><path class="cls-8" d="M11.05,32.26a1.17,1.17,0,0,1,0-2.33"/><path d="M17.2,37.3a6.44,6.44,0,0,1,0-12.87h0a.47.47,0,0,1,.46.47h0V36.83a.47.47,0,0,1-.46.47Zm-.47-11.92a5.5,5.5,0,0,0,0,11Z"/><path d="M11.05,32.49a1.4,1.4,0,1,1,0-2.79.23.23,0,0,1,.23.23.23.23,0,0,1-.23.23.94.94,0,0,0,0,1.87h0a.23.23,0,1,1,0,.46Z"/><path d="M14.72,34a.16.16,0,0,1-.16-.14l-.22-1.53a.15.15,0,0,1,.13-.18.16.16,0,0,1,.18.13l.23,1.53a.16.16,0,0,1-.14.18Z"/><path d="M14,33.68a.16.16,0,0,1-.16-.14L13.57,32a.17.17,0,0,1,.13-.18.16.16,0,0,1,.18.14l.23,1.53a.17.17,0,0,1-.14.18Z"/><path d="M41.74,23.32a.45.45,0,0,1-.45-.45c0-6.12-5.33-11.1-11.89-11.1s-11.89,5-11.89,11.1a.45.45,0,0,1-.9,0c0-6.62,5.74-12,12.79-12s12.79,5.38,12.79,12A.45.45,0,0,1,41.74,23.32Z"/><path d="M39.87,23.81a.38.38,0,0,1-.38-.38C39.49,18.24,35,14,29.4,14s-10.08,4.22-10.08,9.41a.39.39,0,0,1-.77,0c0-5.61,4.87-10.18,10.85-10.18s10.85,4.57,10.85,10.18A.38.38,0,0,1,39.87,23.81Z"/><path class="cls-9" d="M20.71,16.59a.25.25,0,0,1-.25-.25.23.23,0,0,1,0-.14A6.47,6.47,0,0,1,23.14,14a.24.24,0,0,1,.33.13.26.26,0,0,1-.14.33,6.2,6.2,0,0,0-2.42,2A.23.23,0,0,1,20.71,16.59Z"/><path class="cls-9" d="M35.74,14.6a.17.17,0,0,1-.13,0,11.16,11.16,0,0,0-2.25-1.1.25.25,0,0,1,.15-.47,10.85,10.85,0,0,1,2.37,1.16.24.24,0,0,1,.07.34.22.22,0,0,1-.21.11Z"/><path class="cls-7" d="M17.6,22.24h0a1.7,1.7,0,0,1,1.7,1.7V38.27A1.7,1.7,0,0,1,17.6,40h0a1.7,1.7,0,0,1-1.7-1.69V23.94A1.7,1.7,0,0,1,17.6,22.24Z"/><path class="cls-10" d="M19.29,32.74v5.38a1.7,1.7,0,1,1-3.39,0V32.74a1.7,1.7,0,1,0,3.39,0Z"/><path class="cls-7" d="M41,22.24h0a1.7,1.7,0,0,1,1.69,1.7V38.27A1.69,1.69,0,0,1,41,40h0a1.7,1.7,0,0,1-1.7-1.69V23.94A1.7,1.7,0,0,1,41,22.24Z"/><path d="M17.6,40.18a2,2,0,0,1-2-2V23.88a2,2,0,1,1,4,0V38.2A2,2,0,0,1,17.6,40.18Zm0-17.72a1.42,1.42,0,0,0-1.42,1.42V38.2a1.42,1.42,0,0,0,2.83,0h0V23.88A1.41,1.41,0,0,0,17.6,22.46Z"/><path class="cls-10" d="M42.72,32.74v5.38a1.7,1.7,0,1,1-3.39,0h0V32.74a1.7,1.7,0,1,0,3.39,0Z"/><path d="M41,40.18a2,2,0,0,1-2-2V23.88a2,2,0,1,1,4,0V38.2A2,2,0,0,1,41,40.18Zm0-17.72a1.41,1.41,0,0,0-1.42,1.42V38.2a1.42,1.42,0,1,0,2.83,0h0V23.88A1.41,1.41,0,0,0,41,22.46Z"/><path class="cls-9" d="M17.2,29a.25.25,0,0,1-.25-.25V24.9a.25.25,0,0,1,.25-.25.25.25,0,0,1,.25.25v3.83A.25.25,0,0,1,17.2,29Z"/><path class="cls-9" d="M41,33.5a.25.25,0,0,1-.25-.25V29.42a.25.25,0,0,1,.25-.25.25.25,0,0,1,.25.25v3.83A.25.25,0,0,1,41,33.5Z"/><path d="M29.05,44.14H27.22a.16.16,0,0,1-.16-.16.16.16,0,0,1,.16-.16h1.83a.16.16,0,0,1,.16.16A.16.16,0,0,1,29.05,44.14Z"/></g></g></svg>