<svg xmlns="http://www.w3.org/2000/svg" viewBox="0 0 58.8 58.86"><defs><style>.cls-1{fill:#40aaf2;}.cls-2,.cls-3{fill:#7fccf7;}.cls-2{opacity:0.21;}.cls-15,.cls-16,.cls-17,.cls-2,.cls-3,.cls-5,.cls-9{isolation:isolate;}.cls-3{opacity:0.57;}.cls-16,.cls-17,.cls-4,.cls-5{fill:#fff;}.cls-5{opacity:0.55;}.cls-6{fill:#fdc6a2;}.cls-7{fill:#000201;}.cls-8{fill:#e89176;}.cls-10,.cls-9{fill:#ff9976;}.cls-9{opacity:0.25;}.cls-11{fill:#5e5e5e;}.cls-12,.cls-15{fill:#303030;}.cls-13{fill:#f9968f;}.cls-14{fill:#e25959;}.cls-15{opacity:0.29;}.cls-16{opacity:0.6;}.cls-17{opacity:0.35;}.cls-18{fill:#f4a376;}.cls-19{fill:#dcfaff;}.cls-20{fill:#84c7ce;}.cls-21{fill:#c3e9ed;}</style></defs><g id="Layer_2" data-name="Layer 2"><g id="Layer_1-2" data-name="Layer 1"><path d="M29.41,58.86A29.43,29.43,0,1,1,58.8,29.37v.06A29.43,29.43,0,0,1,29.41,58.86Zm0-57.34A27.88,27.88,0,1,0,57.3,29.39,27.84,27.84,0,0,0,29.41,1.52Z"/><path class="cls-1" d="M5.88,37h47a24.69,24.69,0,0,1-47,0Z"/><path class="cls-2" d="M53.54,24.2H5.26a24.7,24.7,0,0,1,48.28,0Z"/><path class="cls-3" d="M54.1,29.51a15.06,15.06,0,0,1-1.18,5.85h-47a15.06,15.06,0,0,1-.62-9.91H53.54A15.07,15.07,0,0,1,54.1,29.51Z"/><circle class="cls-4" cx="40.19" cy="13.34" r="0.48"/><circle class="cls-4" cx="10.47" cy="28.28" r="0.48"/><circle class="cls-4" cx="22.1" cy="48.25" r="0.48"/><circle class="cls-4" cx="49.85" cy="26.29" r="0.84"/><circle class="cls-4" cx="15.06" cy="42.26" r="0.84"/><circle class="cls-5" cx="27" cy="47.63" r="0.18"/><path class="cls-6" d="M18.23,31.91h1.21a2.91,2.91,0,0,1,2.84,3h0a2.87,2.87,0,0,1-2.92,2.83H18.13a2.91,2.91,0,0,1-2.85-2.94h0a2.9,2.9,0,0,1,3-2.85Z"/><path class="cls-7" d="M19.4,38H18.13a3.16,3.16,0,0,1-1.89-.66.26.26,0,0,1,0-.38.27.27,0,0,1,.37,0,2.62,2.62,0,0,0,1.56.55h1.25a2.63,2.63,0,0,0,.05-5.25h-1.2a2.52,2.52,0,0,0-1.88.74,2.6,2.6,0,0,0-.8,1.84,2.47,2.47,0,0,0,.2,1,.27.27,0,0,1-.15.35.26.26,0,0,1-.35-.14h0A3.15,3.15,0,0,1,17,31.88a3.1,3.1,0,0,1,1.2-.24h1.27a3.17,3.17,0,0,1,0,6.33Z"/><path class="cls-8" d="M18.58,33.42h.64A1.5,1.5,0,0,1,20.69,35h0a1.51,1.51,0,0,1-1.54,1.47h-.63A1.51,1.51,0,0,1,17,34.9h0A1.51,1.51,0,0,1,18.58,33.42Z"/><path class="cls-4" d="M16.53,33.85a1.06,1.06,0,0,1,.53-.61c.21-.08.13-.43-.09-.35a1.48,1.48,0,0,0-.76.76c-.09.21.22.39.31.18Z"/><ellipse class="cls-4" cx="16.11" cy="34.48" rx="0.29" ry="0.23" transform="translate(-20.36 45.38) rotate(-81.6)"/><path class="cls-6" d="M39.31,31.91h1.21a2.9,2.9,0,0,1,2.86,2.95h0a2.9,2.9,0,0,1-2.94,2.85H39.23a2.92,2.92,0,0,1-2.85-3h0a2.9,2.9,0,0,1,2.94-2.84h0Z"/><path class="cls-7" d="M40.48,38H39.23a3.17,3.17,0,0,1,0-6.34h1.27a3.18,3.18,0,0,1,3.13,3.23v0A3.18,3.18,0,0,1,40.48,38Zm0-.54h0a2.64,2.64,0,0,0,2.63-2.58v0a2.64,2.64,0,0,0-2.59-2.67H39.28a2.63,2.63,0,0,0-.05,5.26Z"/><path class="cls-8" d="M39.61,33.42h.61A1.5,1.5,0,0,1,41.69,35h0a1.5,1.5,0,0,1-1.53,1.47h-.61a1.51,1.51,0,0,1-1.47-1.54h0A1.5,1.5,0,0,1,39.61,33.42Z"/><path class="cls-6" d="M36.71,18.28l.36.33a10.75,10.75,0,0,1,3.15,7.63V37.35a10.77,10.77,0,1,1-21.54.23V26.24a10.71,10.71,0,0,1,3.5-8C25.76,15,33.14,15,36.71,18.28Z"/><path class="cls-9" d="M40.22,26.33V37.44A10.77,10.77,0,0,1,29.5,48.25h0V15.92a11.1,11.1,0,0,1,7.28,2.43,3.76,3.76,0,0,1,.35.34A10.71,10.71,0,0,1,40.22,26.33Z"/><circle class="cls-5" cx="25.15" cy="46.99" r="0.13"/><ellipse class="cls-4" cx="20.3" cy="39.59" rx="0.53" ry="0.3" transform="translate(-23.67 46.4) rotate(-71.66)"/><circle class="cls-5" cx="21.27" cy="39.89" r="0.17"/><path class="cls-5" d="M20.74,40.06a.14.14,0,0,1,.14.14.13.13,0,0,1-.14.13.13.13,0,0,1-.13-.13h0A.13.13,0,0,1,20.74,40.06Z"/><circle class="cls-5" cx="20.92" cy="38.97" r="0.18"/><path class="cls-10" d="M40.23,26.12V37.24A10.77,10.77,0,0,1,29.5,48.05h-.79c5.6-.43,10.49-5.11,10.49-10.81V26.12c0-2.86-1.62-5.6-3.64-7.62a2.82,2.82,0,0,0-.36-.33,10.6,10.6,0,0,0-6.52-2.43,11.25,11.25,0,0,1,8,2.43,2.73,2.73,0,0,1,.35.33A10.7,10.7,0,0,1,40.23,26.12Z"/><path class="cls-4" d="M29.94,48.15h-.61A10.66,10.66,0,0,1,18.6,37.81V26.71a11,11,0,0,1,3.16-8.09c.11-.11.22-.22.35-.33A11.22,11.22,0,0,1,30,15.86a10.64,10.64,0,0,0-6.67,2.43l-.34.33a10.77,10.77,0,0,0-3.19,7.63V37.36A10.77,10.77,0,0,0,29.94,48.15Z"/><path class="cls-7" d="M21.13,44.58a.3.3,0,0,1-.23-.11,11,11,0,0,1-2.56-6.88V31.42a.31.31,0,0,1,.29-.3.3.3,0,0,1,.3.3h0v6.16a10.43,10.43,0,0,0,2.42,6.52.28.28,0,0,1,0,.41A.26.26,0,0,1,21.13,44.58Z"/><path class="cls-7" d="M29.42,48.43A11.06,11.06,0,0,1,22,45.59a.3.3,0,0,1,0-.42.29.29,0,0,1,.41,0h0a10.5,10.5,0,0,0,7,2.69h0A10.51,10.51,0,0,0,39.91,37.35V26.25a10.54,10.54,0,0,0-3.07-7.43l-.35-.32c-3.54-3.17-10.69-3.17-14.15,0a10.4,10.4,0,0,0-3.41,7.74.29.29,0,0,1-.3.29h0a.29.29,0,0,1-.29-.29h0a11,11,0,0,1,3.6-8.18c3.66-3.34,11.2-3.34,15,0l.36.34a11.11,11.11,0,0,1,3.25,7.85v11.1A11.1,11.1,0,0,1,29.43,48.43Z"/><path class="cls-7" d="M18.63,29.38a.29.29,0,0,1-.29-.3h0V27.87a.3.3,0,0,1,.59,0v1.21a.29.29,0,0,1-.3.3Z"/><path class="cls-4" d="M19.81,34h0a.27.27,0,0,1,.26.27v2.33a.28.28,0,0,1-.26.27h0a.28.28,0,0,1-.27-.27V34.29A.27.27,0,0,1,19.81,34Z"/><path class="cls-10" d="M39,27.92h0a.27.27,0,0,1,.27.27v2.33a.27.27,0,0,1-.27.26h0a.26.26,0,0,1-.26-.26V28.19a.27.27,0,0,1,.26-.27Z"/><path class="cls-7" d="M32,30.63h0a.51.51,0,0,1,.5.51v1.25a.5.5,0,0,1-.5.5h0a.49.49,0,0,1-.5-.5V31.14A.5.5,0,0,1,32,30.63Z"/><circle class="cls-4" cx="31.45" cy="31.55" r="0.32"/><path class="cls-11" d="M27.16,28.48,23,28.24a1.17,1.17,0,0,1-1.1-1.14h0A1.16,1.16,0,0,1,23,26l4.12-.4a1.17,1.17,0,0,1,1.27,1.05h0v.73a1.17,1.17,0,0,1-1.17,1.15Z"/><path class="cls-12" d="M27.16,28.48,23,28.24a1.17,1.17,0,0,1-1.1-1.14h0c0-.61-.17.39.44.33l5.55.34c.67-.06.44-1.78.45-1.11v.65a1.17,1.17,0,0,1-1.14,1.18h-.08Z"/><path class="cls-7" d="M27.22,28.69h-.06L23,28.45a1.37,1.37,0,0,1-1.28-1.35A1.33,1.33,0,0,1,23,25.76l.71-.08a.21.21,0,0,1,.22.17v0a.2.2,0,0,1-.18.22h0l-.7.08a.94.94,0,0,0-.86.93,1,1,0,0,0,.9.94l4.18.24a1,1,0,0,0,.93-1V26.6a1,1,0,0,0-1-.86l-1.63.15a.2.2,0,0,1-.22-.18h0a.2.2,0,0,1,.18-.23l1.63-.15a1.36,1.36,0,0,1,1.49,1.23s0,.07,0,.1v.65a1.36,1.36,0,0,1-1.34,1.38Z"/><circle class="cls-12" cx="26.27" cy="27.6" r="0.31"/><circle class="cls-12" cx="25.46" cy="27.25" r="0.16"/><circle class="cls-12" cx="27.37" cy="27.64" r="0.39"/><path class="cls-11" d="M31.15,28.53l4.13-.25a1.15,1.15,0,0,0,1.09-1.13h0a1.18,1.18,0,0,0-1-1.19l-4.12-.39a1.15,1.15,0,0,0-1.26,1.05s0,.06,0,.08v.64a1.16,1.16,0,0,0,1.13,1.19Z"/><path class="cls-12" d="M31.15,28.53l4.13-.25a1.15,1.15,0,0,0,1.09-1.13h0c0-.61.17.39-.44.33l-5.55.34c-.67-.07-.43-1.78-.45-1.11v.65a1.15,1.15,0,0,0,1.14,1.17h.08Z"/><path class="cls-7" d="M31.07,28.74a1.35,1.35,0,0,1-1.34-1.39v-.74a1.38,1.38,0,0,1,1.49-1.24l1.63.16a.21.21,0,0,1,.19.23h0a.19.19,0,0,1-.21.18h0l-1.63-.16a1,1,0,0,0-1,.87v.71a1,1,0,0,0,.93,1h.07l4.12-.25a1,1,0,0,0,0-1.91l-.7-.07a.21.21,0,0,1-.19-.23h0a.18.18,0,0,1,.19-.18h0l.71.07a1.37,1.37,0,0,1-.05,2.73Z"/><circle class="cls-12" cx="32.04" cy="27.65" r="0.31"/><circle class="cls-12" cx="32.84" cy="27.3" r="0.16"/><circle class="cls-12" cx="30.93" cy="27.68" r="0.39"/><circle class="cls-13" cx="29.42" cy="34.7" r="1.57"/><path class="cls-14" d="M31,34.7a1.57,1.57,0,0,1-3.14.19V34.7c0-.87.66,1,1.52,1S31,33.85,31,34.7Z"/><path class="cls-7" d="M29.42,36.63a1.78,1.78,0,1,1,1.77-1.78A1.78,1.78,0,0,1,29.42,36.63Zm0-3.14a1.37,1.37,0,1,0,1.36,1.36A1.36,1.36,0,0,0,29.42,33.49Z"/><path class="cls-11" d="M18.41,31.89h0a.8.8,0,0,1-.81-.79h0l.79-6.19c0-.44-.43-.66,0-.66h0a.81.81,0,0,1,.81.81h0v6.06A.81.81,0,0,1,18.41,31.89Z"/><path class="cls-12" d="M18.58,26.71h0c-.34,0-.22-.2-.22-.54l.27-4.65c0-.34-.39-.71-.05-.71h0a.6.6,0,0,1,.6.61v4.66a.6.6,0,0,1-.58.63h0Z"/><path class="cls-7" d="M18.4,32.16a1.06,1.06,0,0,1-1.06-1.06l.76-6.65h0a.34.34,0,0,1-.16-.29.35.35,0,0,1,.65-.2l.18-.05a.66.66,0,0,1,.61,0,.51.51,0,0,1,.17.4l-.09,6.8a1.08,1.08,0,0,1-1.05,1Zm.23-7.66-.77,6.62a.55.55,0,0,0,.54.51h0a.54.54,0,0,0,.53-.53L19,24.39l-.09,0-.3.09Z"/><path class="cls-11" d="M40.22,32h0a.76.76,0,0,0,.76-.75h0l-.75-5.69c0-.42.41-.76,0-.76h0a.76.76,0,0,0-.76.76v5.69A.76.76,0,0,0,40.22,32Z"/><path class="cls-7" d="M40.22,32.23h0a1,1,0,0,1-1-1V25.54a1,1,0,0,1,1-1,.45.45,0,0,1,.38.16.55.55,0,0,1,0,.5.88.88,0,0,0-.1.35l.74,5.65a1,1,0,0,1-1,1Zm-.12-7.18a.51.51,0,0,0-.38.49v5.69a.52.52,0,0,0,.5.51.5.5,0,0,0,.51-.5h0L40,25.57a1.19,1.19,0,0,1,.11-.52Z"/><path class="cls-11" d="M39.56,12.93c.76,0-1-1.14-1.7-1.43a7.33,7.33,0,0,0-6.74.67l1.09-1.87a2,2,0,0,0-1.44-1A3.77,3.77,0,0,0,29,9.5a6.65,6.65,0,0,0-4.06,4.11l-1.21-.25a9,9,0,0,0-3.15.27,6.44,6.44,0,0,0-3,1.69,4.62,4.62,0,0,0-1.06,2.42c-.09.54-.05,1.22.45,1.45a1.85,1.85,0,0,0,.81.07.59.59,0,0,1,.22,0c.21.12.14.43,0,.66a7.07,7.07,0,0,0-.48,3.15,1.66,1.66,0,0,0,.25.87,1.55,1.55,0,0,0,1.6.45,3.67,3.67,0,0,0,2.88-3.08l.91-.11a2,2,0,0,0,1.42,0A3.32,3.32,0,0,0,26,19.52l1.11-2.14a8.59,8.59,0,0,0,1.7,3,3.6,3.6,0,0,0,1.93,1.27,1.83,1.83,0,0,0,1.66-.55l.81-.06a5.12,5.12,0,0,0,2.73,2.49,1,1,0,0,1,.25.13.87.87,0,0,1,.17.33,8.82,8.82,0,0,0,3.25,4.4,2.18,2.18,0,0,0,1.68.51,1.81,1.81,0,0,0,1.1-1c.66-1.41.25-3.08-.3-4.54A4.31,4.31,0,0,0,40,20.7l.07-.07a4,4,0,0,0,1.38.18,1.76,1.76,0,0,0,1.21-.56A2.07,2.07,0,0,0,43,18.74a3.85,3.85,0,0,0-1.1-2.36,6.67,6.67,0,0,0-4.21-1.56,8.5,8.5,0,0,0-3.51.25S37.05,12.94,39.56,12.93Z"/><path class="cls-12" d="M42.06,23.28a5.87,5.87,0,0,1,.31,4.54,1.79,1.79,0,0,1-1.1,1.05,2.14,2.14,0,0,1-1.68-.52,8.75,8.75,0,0,1-3.25-4.43.59.59,0,0,0-.17-.32.8.8,0,0,0-.24-.13A5.13,5.13,0,0,1,33.14,21l-.81.05.22-.2a1.82,1.82,0,0,1,.73-.41c.67-.18,1.37.25,2.07.27A1.7,1.7,0,0,0,36.79,20a1.52,1.52,0,0,0,.09-1.58c-.33-.61-1-.89-1.5-1.4a2.18,2.18,0,0,1-.4-2.19,10.13,10.13,0,0,1,2.75-.05A6.77,6.77,0,0,1,42,16.34a3.79,3.79,0,0,1,1.09,2.36,2,2,0,0,1-.37,1.5,1.77,1.77,0,0,1-1.21.57,4,4,0,0,1-1.38-.18l-.07.06A4.33,4.33,0,0,1,42.06,23.28Z"/><path class="cls-15" d="M32.34,21.11a1.82,1.82,0,0,1-1.65.55,3.53,3.53,0,0,1-1.94-1.27,8.2,8.2,0,0,1-.89-1.21,6.2,6.2,0,0,1,1.9-2.54c.54-.41,1.14-.75,1.67-1.21a5,5,0,0,0,1.63-4.16,7.41,7.41,0,0,1,4.81.23c.71.29,2.46,1.43,1.7,1.43-2.51,0-5.34,2.14-5.34,2.14a5.12,5.12,0,0,1,.77-.2A2.16,2.16,0,0,0,35.41,17c.46.51,1.17.8,1.5,1.4A1.52,1.52,0,0,1,36.82,20a1.7,1.7,0,0,1-1.44.71c-.7,0-1.4-.45-2.07-.27a1.82,1.82,0,0,0-.73.41,2,2,0,0,0-.21.2"/><circle class="cls-7" cx="23.9" cy="13.41" r="0.32"/><circle class="cls-7" cx="41.28" cy="15.83" r="0.32"/><circle class="cls-7" cx="36.1" cy="13.81" r="0.32"/><circle class="cls-7" cx="42.11" cy="23.43" r="0.32"/><circle class="cls-12" cx="35.17" cy="20.48" r="0.75"/><circle class="cls-12" cx="35.22" cy="16.57" r="0.65"/><circle class="cls-12" cx="34.01" cy="17.16" r="0.33"/><circle class="cls-12" cx="30.89" cy="20.98" r="0.61"/><path class="cls-7" d="M40.32,15.69a.16.16,0,0,1-.1,0,9.84,9.84,0,0,0-2.51-.52,8.19,8.19,0,0,0-3.41.24.31.31,0,0,1-.38-.21.3.3,0,0,1,.21-.37h0a8.77,8.77,0,0,1,3.64-.26,10,10,0,0,1,2.65.55.3.3,0,0,1,.18.39.29.29,0,0,1-.28.2Z"/><path class="cls-7" d="M41.68,22.78a.29.29,0,0,1-.28-.2,3,3,0,0,0-1.49-1.65.3.3,0,0,1-.14-.4.3.3,0,0,1,.36-.16,3.73,3.73,0,0,0,1.28.17,1.47,1.47,0,0,0,1-.47,1.74,1.74,0,0,0,.31-1.25,3.58,3.58,0,0,0-.87-2,.29.29,0,0,1,0-.42.3.3,0,0,1,.42,0,4.1,4.1,0,0,1,1,2.37,2.38,2.38,0,0,1-.44,1.71,2,2,0,0,1-1.44.68h-.23A3.48,3.48,0,0,1,42,22.38a.31.31,0,0,1-.18.38A.22.22,0,0,1,41.68,22.78Z"/><path class="cls-7" d="M41,29.25a2.41,2.41,0,0,1-1.61-.6A9.11,9.11,0,0,1,36,24.08a.42.42,0,0,0-.11-.22l-.11,0a5.42,5.42,0,0,1-2.94-2.61A.3.3,0,0,1,33,20.8a.31.31,0,0,1,.41.13A4.78,4.78,0,0,0,36,23.25a1.23,1.23,0,0,1,.32.17,1.1,1.1,0,0,1,.29.5,8.45,8.45,0,0,0,3.12,4.25,1.83,1.83,0,0,0,1.47.46,1.53,1.53,0,0,0,.86-.85,4.69,4.69,0,0,0,0-3.24.31.31,0,0,1,.58-.2h0A5.3,5.3,0,0,1,42.63,28a2.11,2.11,0,0,1-1.29,1.22A2.19,2.19,0,0,1,41,29.25Z"/><path class="cls-7" d="M24.92,13.93h-.1a.31.31,0,0,1-.19-.39,6.94,6.94,0,0,1,4.24-4.29,4.1,4.1,0,0,1,2-.22,2.42,2.42,0,0,1,1,.4A1.22,1.22,0,0,1,32.15,11a.3.3,0,0,1-.52-.31h0a.61.61,0,0,0-.16-.82,1.78,1.78,0,0,0-.73-.29,3.36,3.36,0,0,0-1.66.19,6.34,6.34,0,0,0-3.88,3.92A.29.29,0,0,1,24.92,13.93Z"/><path class="cls-7" d="M37.17,13.71a.31.31,0,0,1-.08-.6A16,16,0,0,1,39,12.72a2.61,2.61,0,0,0-1.27-.9,7.08,7.08,0,0,0-6.49.63.3.3,0,0,1-.33-.51,7.64,7.64,0,0,1,7-.69,3.25,3.25,0,0,1,1.86,1.57.3.3,0,0,1-.13.41.2.2,0,0,1-.11,0,15.56,15.56,0,0,0-2.34.44Z"/><path class="cls-4" d="M17.32,16.93a.27.27,0,0,1-.12,0,.3.3,0,0,1-.16-.39,5.49,5.49,0,0,1,4.49-2.84.3.3,0,1,1,.08.6,4.88,4.88,0,0,0-4,2.48A.31.31,0,0,1,17.32,16.93Z"/><circle class="cls-4" cx="22.68" cy="13.84" r="0.34"/><path class="cls-7" d="M16.84,16.72a.3.3,0,0,1-.3-.3.5.5,0,0,1,0-.12,4.31,4.31,0,0,1,.74-1.16,6.77,6.77,0,0,1,3.19-1.77,7.43,7.43,0,0,1,2.34-.32.3.3,0,0,1,.3.31.31.31,0,0,1-.31.29h-.14a7,7,0,0,0-2,.3,6.14,6.14,0,0,0-2.9,1.61,3.46,3.46,0,0,0-.62,1A.29.29,0,0,1,16.84,16.72Z"/><path class="cls-4" d="M18.11,24a.32.32,0,0,1-.3-.23,5.34,5.34,0,0,1,.25-3.35.31.31,0,0,1,.4-.17.3.3,0,0,1,.16.4,4.73,4.73,0,0,0-.22,3,.31.31,0,0,1-.22.37Z"/><path class="cls-7" d="M19,24.87a1.92,1.92,0,0,1-1.4-.62,2,2,0,0,1-.32-1.07,7.48,7.48,0,0,1,.5-3.28.49.49,0,0,0,.06-.29,2,2,0,0,1-.95-.08c-.57-.26-.8-.91-.66-1.78a.3.3,0,0,1,.34-.25h0a.29.29,0,0,1,.25.34c-.07.45,0,1,.28,1.13a1.58,1.58,0,0,0,.65.05.72.72,0,0,1,.38.07c.17.09.47.36.21,1a6.77,6.77,0,0,0-.46,3,1.47,1.47,0,0,0,.2.74,1.27,1.27,0,0,0,1.26.32,3.41,3.41,0,0,0,2.61-2.86.29.29,0,0,1,.34-.26.3.3,0,0,1,.26.33h0a4,4,0,0,1-3.06,3.37A2.08,2.08,0,0,1,19,24.87Z"/><path class="cls-7" d="M31,22a2.43,2.43,0,0,1-.38,0,3.93,3.93,0,0,1-2.12-1.38A9.06,9.06,0,0,1,27,18.16l-.78,1.53a3.57,3.57,0,0,1-1.53,1.81,2.22,2.22,0,0,1-1.68.06.3.3,0,0,1-.18-.39.32.32,0,0,1,.39-.18,1.61,1.61,0,0,0,1.2,0,3,3,0,0,0,1.24-1.52l1.12-2.17a.3.3,0,0,1,.3-.16.3.3,0,0,1,.26.21A8.28,8.28,0,0,0,29,20.24a3.33,3.33,0,0,0,1.78,1.18A1.52,1.52,0,0,0,32.14,21a.3.3,0,0,1,.45.41h0A2.08,2.08,0,0,1,31,22Z"/><circle class="cls-16" cx="17.23" cy="18.5" r="0.25"/><circle class="cls-4" cx="19.85" cy="14.98" r="0.36"/><circle class="cls-16" cx="19.35" cy="15.8" r="0.21"/><circle class="cls-16" cx="20.91" cy="15.15" r="0.25"/><circle class="cls-17" cx="20.14" cy="15.72" r="0.18"/><circle class="cls-16" cx="18.74" cy="21.48" r="0.18"/><circle class="cls-17" cx="18.9" cy="22.36" r="0.18"/><circle class="cls-16" cx="19.06" cy="23.85" r="0.25"/><path class="cls-7" d="M19.89,21.19h-.07a.19.19,0,0,1-.11-.25h0l1.08-2.53a.18.18,0,0,1,.25-.1h0a.19.19,0,0,1,.1.26l-1.06,2.52A.19.19,0,0,1,19.89,21.19Z"/><path class="cls-7" d="M21.32,20a.11.11,0,0,1-.08,0,.19.19,0,0,1-.11-.25h0l.57-1.35a.2.2,0,0,1,.26-.11.19.19,0,0,1,.11.25h0l-.58,1.35A.19.19,0,0,1,21.32,20Z"/><circle class="cls-4" cx="43.96" cy="48.03" r="0.59"/><circle class="cls-6" cx="31.44" cy="46.49" r="4.88"/><circle class="cls-18" cx="31.44" cy="46.49" r="3.07"/><path d="M31.44,51.64a5.15,5.15,0,1,1,5.14-5.15A5.16,5.16,0,0,1,31.44,51.64Zm0-9.76a4.61,4.61,0,1,0,4.61,4.61A4.61,4.61,0,0,0,31.44,41.88Z"/><circle class="cls-4" cx="36.35" cy="39.5" r="0.34"/><path class="cls-4" d="M45.48,48.5l-6.94,4.18a2.8,2.8,0,0,1-3.85-1L25.78,36.91l-.65-1.09a2.8,2.8,0,0,1,1-3.85L33,27.79a2.81,2.81,0,0,1,3.86,1l9.55,15.9A2.8,2.8,0,0,1,45.48,48.5Z"/><path class="cls-19" d="M36.94,28.84l9.44,15.7h0L34.63,51.63v0l-9.44-15.7Z"/><path class="cls-20" d="M34.94,51.37a.42.42,0,0,1-.36-.2l-9-15a.42.42,0,0,1,.15-.58h0l11-6.63a.43.43,0,0,1,.44.73L26.51,36.1,35.3,50.73a.41.41,0,0,1-.14.58A.43.43,0,0,1,34.94,51.37Z"/><path d="M25.25,36.26a.24.24,0,0,1-.13-.45l2.63-1.58a.24.24,0,1,1,.25.41l-2.63,1.58A.19.19,0,0,1,25.25,36.26Z"/><path d="M28.85,34.09a.24.24,0,0,1-.12-.45l8.15-4.9a.24.24,0,0,1,.25.41L29,34.05A.2.2,0,0,1,28.85,34.09Z"/><path d="M34.69,52a.24.24,0,0,1-.24-.24.22.22,0,0,1,.12-.21l2.08-1.25a.24.24,0,0,1,.33.08.23.23,0,0,1-.08.33l-2.08,1.26A.28.28,0,0,1,34.69,52Z"/><path d="M38.08,49.93a.23.23,0,0,1-.24-.24.26.26,0,0,1,.11-.21l8.38-5a.24.24,0,0,1,.33.08.24.24,0,0,1-.08.33h0l-8.38,5A.24.24,0,0,1,38.08,49.93Z"/><path class="cls-21" d="M39.62,51a.35.35,0,0,1-.35-.35.36.36,0,0,1,.17-.3l3.46-2.08a.35.35,0,0,1,.36.61L39.8,50.9A.27.27,0,0,1,39.62,51Z"/><path class="cls-4" d="M44.56,43a.4.4,0,0,1-.36-.2L42,39.12a.42.42,0,0,1,.72-.44h0l2.18,3.63a.41.41,0,0,1-.14.58A.43.43,0,0,1,44.56,43Z"/><path class="cls-4" d="M40.9,36.87a.41.41,0,0,1-.36-.21L38.36,33a.41.41,0,0,1,.14-.58.42.42,0,0,1,.58.14h0l2.18,3.63a.42.42,0,0,1-.14.58A.44.44,0,0,1,40.9,36.87Z"/><path d="M37.1,53.4a3.1,3.1,0,0,1-2.69-1.52L24.85,36a3.13,3.13,0,0,1,1.07-4.3h0l6.94-4.18a3.15,3.15,0,0,1,4.31,1.07l9.55,15.9a3.12,3.12,0,0,1-1.07,4.3h0L38.71,53A3.14,3.14,0,0,1,37.1,53.4ZM34.47,27.72a2.48,2.48,0,0,0-1.27.35l-6.94,4.18a2.47,2.47,0,0,0-.85,3.4L35,51.55a2.47,2.47,0,0,0,3.4.84l6.94-4.17h0a2.48,2.48,0,0,0,.85-3.41h0L36.61,28.92A2.48,2.48,0,0,0,34.47,27.72Z"/><path d="M30.5,31.69l-.15,0a.63.63,0,0,1-.38-.28.56.56,0,0,1-.06-.46.58.58,0,0,1,.27-.38.61.61,0,0,1,.84.21h0a.61.61,0,0,1-.21.84.56.56,0,0,1-.31.09Zm0-.94a.33.33,0,1,0,.33.33.34.34,0,0,0,0-.17h0A.33.33,0,0,0,30.5,30.75Z"/><path d="M39.52,50.62a.26.26,0,0,1-.25-.26.25.25,0,0,1,.12-.22l3.45-2.08a.27.27,0,0,1,.36.09.26.26,0,0,1-.09.35l-3.45,2.08A.23.23,0,0,1,39.52,50.62Z"/><rect class="cls-6" x="36.04" y="34.22" width="6.32" height="2.52" rx="1.26" transform="translate(-12.98 26.98) rotate(-32.9)"/><path d="M37.61,38a1.53,1.53,0,0,1-1.53-1.52,1.87,1.87,0,0,1,0-.32,1.49,1.49,0,0,1,.66-.95L40,33.17a1.52,1.52,0,1,1,1.65,2.55h0l-3.19,2.07A1.51,1.51,0,0,1,37.61,38Zm3.19-4.59a1,1,0,0,0-.54.16l-3.2,2.07a1,1,0,1,0,1.08,1.68h0l3.19-2.07a1,1,0,0,0,.3-1.38,1,1,0,0,0-.84-.46Z"/><path class="cls-6" d="M38.28,37.57l3.2-2.07a1.26,1.26,0,0,1,1.74.37h0a1.26,1.26,0,0,1-.37,1.74l-3.2,2.07a1.26,1.26,0,0,1-1.74-.37h0a1.26,1.26,0,0,1,.37-1.74Z"/><path d="M39,40.14a1.52,1.52,0,0,1-.83-2.79l3.2-2.07A1.52,1.52,0,1,1,43,37.83h0l-3.2,2.07A1.48,1.48,0,0,1,39,40.14Zm3.19-4.58a1,1,0,0,0-.54.16l-3.2,2.06a1,1,0,0,0,1.09,1.68l3.2-2.07h0a1,1,0,0,0-.55-1.83Z"/><rect class="cls-6" x="38.77" y="38.44" width="6.32" height="2.52" rx="1.26" transform="translate(-14.84 29.15) rotate(-32.9)"/><rect class="cls-6" x="40.14" y="40.56" width="6.32" height="2.52" rx="1.26" transform="translate(-15.77 30.23) rotate(-32.9)"/><path d="M40.34,42.25a1.5,1.5,0,0,1-1.52-1.51,1.52,1.52,0,0,1,.69-1.28l3.2-2.07a1.52,1.52,0,1,1,1.65,2.55h0L41.16,42A1.48,1.48,0,0,1,40.34,42.25Zm3.19-4.58a1,1,0,0,0-.54.16l-3.2,2.07a1,1,0,0,0,1.09,1.68l3.2-2.07h0a1,1,0,0,0,.29-1.38,1,1,0,0,0-.84-.46Z"/><path d="M41.71,44.37a1.24,1.24,0,0,1-.33,0,1.51,1.51,0,0,1-1.16-1.8,1.47,1.47,0,0,1,.66-1l3.2-2.07a1.52,1.52,0,0,1,1.64,2.55l-3.19,2.06A1.52,1.52,0,0,1,41.71,44.37Zm3.19-4.59a1,1,0,0,0-.54.16L41.16,42a1,1,0,1,0,1.09,1.68h0l3.19-2.07h0a1,1,0,0,0,.3-1.38,1,1,0,0,0-.63-.44Z"/><path class="cls-6" d="M26.91,41l.83-2.07a2.06,2.06,0,0,1,2.67-1.14h0a2.06,2.06,0,0,1,1.14,2.67l-.83,2.06a2.06,2.06,0,0,1-2.67,1.14h0A2,2,0,0,1,26.91,41Z"/><path d="M28.81,44.07a2.32,2.32,0,0,1-2.31-2.32,2.27,2.27,0,0,1,.17-.86l.83-2.07a2.31,2.31,0,1,1,4.29,1.73L31,42.61A2.31,2.31,0,0,1,28.81,44.07Zm.84-6.17A1.78,1.78,0,0,0,28,39l-.83,2.07a1.78,1.78,0,0,0,3.31,1.32h0l.83-2.06h0a1.79,1.79,0,0,0-1-2.32A1.69,1.69,0,0,0,29.65,37.9Z"/></g></g></svg>