<svg xmlns="http://www.w3.org/2000/svg" viewBox="0 0 58.8 58.86"><defs><style>.cls-1{fill:#fff;}.cls-2{fill:#74ce3a;}.cls-3,.cls-4{fill:#9cef65;}.cls-3{opacity:0.5;isolation:isolate;}.cls-5{fill:#dae4e5;}</style></defs><g id="Layer_2" data-name="Layer 2"><g id="Layer_1-2" data-name="Layer 1"><path d="M29.41,58.86A29.43,29.43,0,1,1,58.8,29.37v.06A29.43,29.43,0,0,1,29.41,58.86Zm0-57.34A27.89,27.89,0,1,0,57.3,29.4a28.29,28.29,0,0,0-.62-5.88A28,28,0,0,0,29.41,1.52Z"/><circle class="cls-1" cx="15.78" cy="28.29" r="0.48"/><path class="cls-2" d="M5.88,37h47a24.69,24.69,0,0,1-47,0Z"/><path class="cls-3" d="M53.54,24.2H5.26a24.7,24.7,0,0,1,48.28,0Z"/><path class="cls-4" d="M54.1,29.74a13.36,13.36,0,0,1-1.18,5.5h-47a13.34,13.34,0,0,1-.62-9.31H53.54A13.31,13.31,0,0,1,54.1,29.74Z"/><path d="M27.56,47.72a3.07,3.07,0,0,1-2.95-2.24l-1.33-4.77A2.39,2.39,0,1,0,18.68,42l.45,1.59a.34.34,0,0,1-.24.42.34.34,0,0,1-.41-.23h0L18,42.18a3.06,3.06,0,1,1,5.9-1.65h0l1.33,4.77A2.4,2.4,0,0,0,28.21,47l1.52-.43a2.38,2.38,0,0,0,1.66-2.94l-1.13-4.07a.34.34,0,0,1,.23-.42.34.34,0,0,1,.42.24h0L32,43.41a3,3,0,0,1-2.12,3.77l-1.53.43A2.91,2.91,0,0,1,27.56,47.72Z"/><path class="cls-1" d="M24.81,22.74c.43,2.12,1.45,6.32,2,8.4a.63.63,0,0,0,.7.52l1.79-.2a2.18,2.18,0,0,1,2.4,1.86L33,38.49a2.17,2.17,0,0,1-1.29,2.75l-3.26.55A2.29,2.29,0,0,1,26,40.66a47.32,47.32,0,0,1-6.3-26,2.28,2.28,0,0,1,1.61-2.1L24.62,12A2.18,2.18,0,0,1,27,13.83L28.27,19A2.17,2.17,0,0,1,27,21.76L25.2,22A.63.63,0,0,0,24.81,22.74Z"/><path class="cls-5" d="M25.83,22.5c.43,2.13,1.45,6.32,2,8.4a.64.64,0,0,0,.71.52l1.78-.2a2.19,2.19,0,0,1,2.41,1.86L34,38.25A2.16,2.16,0,0,1,32.72,41l-3.26.56a2.3,2.3,0,0,1-2.4-1.14,47.26,47.26,0,0,1-6.3-26,2.28,2.28,0,0,1,1.61-2.1l3.27-.56A2.18,2.18,0,0,1,28,13.6l1.25,5.18A2.16,2.16,0,0,1,28,21.52l-1.79.2A.63.63,0,0,0,25.83,22.5Z"/><path d="M28.48,42.41a3.23,3.23,0,0,1-2.6-1.27c-2.42-3.14-4.64-8.72-5.59-12.62s-1.52-9.87-.8-13.77A3.29,3.29,0,0,1,22,12.16l3.31-.81a2.84,2.84,0,0,1,3.43,2.09h0L30,18.62A2.85,2.85,0,0,1,27.85,22l-1.46.35a.24.24,0,0,0-.18.28c.15.76.37,1.79.63,2.89a.46.46,0,0,1-.35.56.47.47,0,0,1-.56-.35c-.26-1.11-.49-2.15-.64-2.92a1.16,1.16,0,0,1,.88-1.36l1.46-.36A1.9,1.9,0,0,0,29,18.84l-1.26-5.18a1.91,1.91,0,0,0-2.3-1.4l-3.31.8a2.39,2.39,0,0,0-1.77,1.86c-.69,3.77-.12,9.59.8,13.39s3.08,9.23,5.42,12.26a2.33,2.33,0,0,0,2.42.84l3.31-.8a1.91,1.91,0,0,0,1.41-2.29L32.5,33.14a1.9,1.9,0,0,0-2.3-1.4h0l-1.46.35a1.16,1.16,0,0,1-1.4-.8c-.3-1-.42-1.42-.78-2.89a.47.47,0,0,1,.35-.56.46.46,0,0,1,.56.34c.35,1.45.47,1.84.74,2.76.06.21.19.28.31.25L30,30.83a2.85,2.85,0,0,1,3.43,2.09l1.25,5.18a2.84,2.84,0,0,1-2.09,3.42l-3.31.8A3.46,3.46,0,0,1,28.48,42.41Z"/><path d="M25.66,14.74a.25.25,0,0,1-.25-.2L24.78,12a.26.26,0,0,1,.2-.32.27.27,0,0,1,.32.2l.62,2.58a.26.26,0,0,1-.19.32Z"/><path d="M33.14,28.2a.25.25,0,0,1-.25-.25.26.26,0,0,1,.19-.25,2.21,2.21,0,1,0-1-4.29h0a.26.26,0,0,1-.31-.18h0a.26.26,0,0,1,.19-.31h0a2.72,2.72,0,0,1,1.28,5.28Z"/><path d="M34.17,29.9a.25.25,0,0,1-.25-.25.26.26,0,0,1,.19-.25,4.1,4.1,0,0,0,1.17-7.49,4.06,4.06,0,0,0-3.1-.49.24.24,0,0,1-.3-.18h0a.25.25,0,0,1,.18-.31h0a4.61,4.61,0,0,1,2.17,9Z"/><path d="M35.7,31.94a.25.25,0,0,1-.06-.5,6.44,6.44,0,1,0-3-12.53h0a.25.25,0,0,1-.12-.49,7,7,0,1,1,3.28,13.51H35.7Z"/><path d="M21.57,23a.25.25,0,0,1-.25-.23,30.52,30.52,0,0,1,.05-7.64.25.25,0,0,1,.28-.21h0a.25.25,0,0,1,.2.29h0a30,30,0,0,0,0,7.51.25.25,0,0,1-.22.27h0Z"/><path d="M22,26.09a.27.27,0,0,1-.25-.21c-.06-.38-.12-.78-.18-1.18a.25.25,0,0,1,.49-.07h0c.06.4.12.79.19,1.17a.25.25,0,0,1-.21.29Z"/><path d="M29.35,42.11a.26.26,0,0,1-.26-.2l-.63-2.59A.27.27,0,1,1,29,39.2h0l.63,2.58a.27.27,0,0,1-.2.32Z"/><path d="M25.66,14.74a.25.25,0,0,1-.25-.2L24.78,12a.26.26,0,0,1,.2-.32.27.27,0,0,1,.32.2l.62,2.58a.26.26,0,0,1-.19.32Z"/><path d="M33.14,28.2a.25.25,0,0,1-.25-.25.26.26,0,0,1,.19-.25,2.21,2.21,0,1,0-1-4.29h0a.26.26,0,0,1-.31-.18h0a.26.26,0,0,1,.19-.31h0a2.72,2.72,0,0,1,1.28,5.28Z"/><path d="M34.17,29.9a.25.25,0,0,1-.25-.25.26.26,0,0,1,.19-.25,4.1,4.1,0,0,0,1.17-7.49,4.06,4.06,0,0,0-3.1-.49.24.24,0,0,1-.3-.18h0a.25.25,0,0,1,.18-.31h0a4.61,4.61,0,0,1,2.17,9Z"/><path d="M35.7,31.94a.25.25,0,0,1-.06-.5,6.44,6.44,0,1,0-3-12.53h0a.25.25,0,0,1-.12-.49,7,7,0,1,1,3.28,13.51H35.7Z"/><circle class="cls-1" cx="37.11" cy="15.54" r="0.42"/><circle class="cls-1" cx="28.72" cy="29.05" r="0.42"/><circle class="cls-1" cx="21.26" cy="46.13" r="0.42"/><circle class="cls-1" cx="15.83" cy="16.53" r="0.42"/><circle class="cls-1" cx="37.84" cy="39.36" r="0.74"/><circle class="cls-1" cx="11.29" cy="21.7" r="1.39"/><circle class="cls-1" cx="45.57" cy="26.89" r="0.74"/><circle class="cls-1" cx="15.09" cy="40.88" r="0.74"/></g></g></svg>