<svg xmlns="http://www.w3.org/2000/svg" viewBox="0 0 58.8 58.84"><defs><style>.cls-1{fill:#f28d33;}.cls-2{fill:#fcd9b5;}.cls-3{fill:#f9b56d;}.cls-4{fill:#fff;}.cls-5{fill:#dcfaff;}.cls-6{fill:#84c7ce;}.cls-7{fill:#c3e9ed;}</style></defs><g id="Layer_2" data-name="Layer 2"><g id="Layer_1-2" data-name="Layer 1"><path d="M29.41,58.84A29.42,29.42,0,1,1,58.14,23.18,29.46,29.46,0,0,1,29.41,58.84Zm0-57.34A27.92,27.92,0,1,0,56,37.93a27.38,27.38,0,0,0,1.33-8.52A27.88,27.88,0,0,0,29.44,1.5Z"/><path class="cls-1" d="M5.88,37h47a24.69,24.69,0,0,1-47,0Z"/><path class="cls-2" d="M53.54,24.18H5.26a24.7,24.7,0,0,1,48.28,0Z"/><path class="cls-3" d="M54.1,29.67a15.06,15.06,0,0,1-1.18,5.85h-47a15.06,15.06,0,0,1-.62-9.91H53.54A15.07,15.07,0,0,1,54.1,29.67Z"/><circle class="cls-4" cx="40.19" cy="13.31" r="0.48"/><circle class="cls-4" cx="10.47" cy="28.25" r="0.48"/><circle class="cls-4" cx="30.62" cy="28.73" r="0.48"/><circle class="cls-4" cx="22.1" cy="48.23" r="0.48"/><circle class="cls-4" cx="15.9" cy="14.44" r="0.48"/><circle class="cls-4" cx="41.03" cy="40.51" r="0.84"/><circle class="cls-4" cx="49.85" cy="26.27" r="0.84"/><circle class="cls-4" cx="15.06" cy="42.24" r="0.84"/><path class="cls-4" d="M35.16,46.4H23.64a4,4,0,0,1-4-4h0V16a4,4,0,0,1,4-4H35.16a4,4,0,0,1,4,4h0V42.4a4,4,0,0,1-4,4Z"/><path class="cls-5" d="M39.16,16.17V42.25H19.64V16.17Z"/><path class="cls-6" d="M20.52,42.26a.6.6,0,0,1-.6-.61V16.76a.6.6,0,0,1,.6-.6h18.3a.61.61,0,0,1,0,1.21H21.12V41.65A.6.6,0,0,1,20.52,42.26Z"/><path d="M24,16.69H19.64a.35.35,0,0,1,0-.7H24a.35.35,0,0,1,0,.7Z"/><path d="M23.1,42.77H19.64a.35.35,0,0,1-.34-.35.33.33,0,0,1,.34-.34H23.1a.35.35,0,0,1,0,.69Z"/><path class="cls-7" d="M32.21,45.16H26.48a.5.5,0,0,1-.5-.5.5.5,0,0,1,.5-.5h5.73a.5.5,0,0,1,.5.5A.5.5,0,0,1,32.21,45.16Z"/><path class="cls-4" d="M38.42,39.05a.61.61,0,0,1-.61-.61v-6a.62.62,0,0,1,.6-.61.6.6,0,0,1,.61.6h0v6A.6.6,0,0,1,38.42,39.05Z"/><path class="cls-4" d="M38.42,28.94a.6.6,0,0,1-.61-.6v-6a.62.62,0,0,1,.6-.61.6.6,0,0,1,.61.6h0v6A.6.6,0,0,1,38.42,28.94Z"/><path d="M35.16,46.87H23.64a4.47,4.47,0,0,1-4.46-4.47V16a4.46,4.46,0,0,1,4.46-4.46H35.16A4.47,4.47,0,0,1,39.63,16V42.4A4.48,4.48,0,0,1,35.16,46.87ZM23.64,12.49A3.53,3.53,0,0,0,20.11,16V42.4a3.53,3.53,0,0,0,3.53,3.53H35.16A3.54,3.54,0,0,0,38.7,42.4V16a3.54,3.54,0,0,0-3.54-3.53Z"/><path d="M32.27,44.66H26.54a.37.37,0,1,1,0-.73h5.73a.37.37,0,1,1,0,.73Z"/><path d="M31,15.31a.87.87,0,1,1,.87-.87h0A.87.87,0,0,1,31,15.31ZM31,14a.47.47,0,1,0,.47.47A.47.47,0,0,0,31,14Z"/><path d="M29.42,14.64H26.37a.2.2,0,1,1,0-.4h3.05a.2.2,0,0,1,0,.4Z"/><polygon class="cls-4" points="29 42.25 27 42.25 29.29 16.55 31.28 16.55 29 42.25"/><polygon class="cls-4" points="31.32 42.27 30.07 42.25 32.36 16.55 33.6 16.57 31.32 42.27"/><path d="M39.16,16.69H25.63a.35.35,0,1,1,0-.7H39.16a.35.35,0,0,1,0,.7Z"/><path d="M39.16,42.77H25.26a.35.35,0,0,1-.34-.35.33.33,0,0,1,.34-.34h13.9a.35.35,0,1,1,0,.69Z"/><path d="M19.18,22.22a.51.51,0,0,1-.5-.5V19.23a.51.51,0,0,1,.5-.5.49.49,0,0,1,.49.5v2.49A.5.5,0,0,1,19.18,22.22Z"/><path d="M19.18,25.82a.5.5,0,0,1-.5-.5V23.79a.51.51,0,0,1,.5-.49.49.49,0,0,1,.49.49v1.53A.49.49,0,0,1,19.18,25.82Z"/></g></g></svg>