<svg xmlns="http://www.w3.org/2000/svg" viewBox="0 0 58.87 58.87"><defs><style>.cls-1,.cls-4{fill:#9cef65;isolation:isolate;}.cls-1{opacity:0.55;}.cls-2{fill:#74ce3a;}.cls-3{fill:#b0cacc;}.cls-4{opacity:0.21;}.cls-5{fill:#fff;}.cls-6{fill:#dae4e5;}.cls-7{fill:#99b9ba;}.cls-8{fill:#8eaeba;}</style></defs><g id="Layer_2" data-name="Layer 2"><g id="Layer_1-2" data-name="Layer 1"><path class="cls-1" d="M54.17,29.76A13.52,13.52,0,0,1,53,35.26H6A13.35,13.35,0,0,1,5.33,26H53.61A13.31,13.31,0,0,1,54.17,29.76Z"/><path class="cls-2" d="M6,37H53A24.69,24.69,0,0,1,6,37Z"/><rect class="cls-3" x="39.6" y="33.04" width="2.97" height="5.81" transform="translate(-3.41 4.32) rotate(-5.78)"/><path d="M39.89,39.24a.25.25,0,0,1-.16-.06.23.23,0,0,1-.1-.17l-.58-5.78a.27.27,0,0,1,.23-.29h0l2.51-.25a.71.71,0,0,1,.78.63h0l.5,4.89a.72.72,0,0,1-.64.78h0l-2.51.25Zm-.29-5.8.53,5.25,2.25-.23a.17.17,0,0,0,.12-.06.17.17,0,0,0,0-.13l-.49-4.89a.19.19,0,0,0-.19-.17h0Z"/><path d="M29.48,58.87a29.42,29.42,0,1,1,28-20.45A29.42,29.42,0,0,1,29.48,58.87Zm0-57.33a27.88,27.88,0,1,0,27.26,22A27.89,27.89,0,0,0,29.48,1.54Z"/><path d="M17.52,32.43a4.42,4.42,0,0,1,0-8.84h0a.34.34,0,0,1,.33.34.34.34,0,0,1-.33.34,3.74,3.74,0,1,0,0,7.48h0a.34.34,0,0,1,.34.34A.35.35,0,0,1,17.52,32.43Z"/><path class="cls-4" d="M53.61,24.21H5.33a24.7,24.7,0,0,1,48.28,0Z"/><rect class="cls-3" x="24.59" y="23.51" width="2.31" height="2.31"/><rect class="cls-3" x="30.82" y="23.51" width="2.31" height="2.31"/><circle class="cls-5" cx="37.18" cy="15.56" r="0.42"/><circle class="cls-5" cx="15.9" cy="16.55" r="0.42"/><circle class="cls-5" cx="37.91" cy="39.38" r="0.74"/><circle class="cls-5" cx="11.36" cy="21.72" r="1.39"/><circle class="cls-5" cx="45.64" cy="26.91" r="0.74"/><circle class="cls-5" cx="15.16" cy="40.9" r="0.74"/><path d="M26.9,26.12H24.59a.29.29,0,0,1-.3-.29V23.51a.29.29,0,0,1,.3-.29H26.9a.29.29,0,0,1,.29.29v2.32A.29.29,0,0,1,26.9,26.12Zm-2-.59H26.6V23.81H24.88Z"/><path d="M33.14,26.12H30.82a.29.29,0,0,1-.29-.29V23.51a.29.29,0,0,1,.29-.29h2.32a.29.29,0,0,1,.29.29v2.32A.29.29,0,0,1,33.14,26.12Zm-2-.59h1.72V23.81H31.12Z"/><path class="cls-6" d="M38.33,45H19.39a2.68,2.68,0,0,1-2.81-2.53v-.24L18,28.07a2.72,2.72,0,0,1,2.81-2.35H36.92a2.72,2.72,0,0,1,2.81,2.35l1.41,14.15A2.67,2.67,0,0,1,38.57,45Z"/><path class="cls-5" d="M34.35,19.23c-2-.05-8.14,0-10.14.09a.59.59,0,0,0-.61.53l-.2,1.65a2,2,0,0,1-2.18,1.79l-4.93.05a2,2,0,0,1-2.21-1.73l.18-3.06a2.11,2.11,0,0,1,1.52-1.93c3.33-1.23,10.92-1.89,14.51-1.93a43.17,43.17,0,0,1,12.43,1.65,2.11,2.11,0,0,1,1.56,1.89l-.18,3.06a2,2,0,0,1-2.17,1.79L37,23.13a2,2,0,0,1-2.21-1.73L35,19.75A.59.59,0,0,0,34.35,19.23Z"/><path class="cls-6" d="M34.35,20.2c-2-.05-8.13,0-10.14.09a.59.59,0,0,0-.61.53l-.2,1.65a2,2,0,0,1-2.18,1.79l-4.93,0a2,2,0,0,1-2.21-1.73l.18-3.07a2.09,2.09,0,0,1,1.52-1.92,39,39,0,0,1,14.51-1.93A57.92,57.92,0,0,1,43.5,17.73c1,.33.77.65.78,1.47l-.18,3.06a2,2,0,0,1-2.17,1.79L37,24.1a2,2,0,0,1-2.21-1.73l.2-1.65A.6.6,0,0,0,34.35,20.2Z"/><path class="cls-3" d="M16.61,24.32a2.21,2.21,0,0,1-1.67-.78,2.78,2.78,0,0,1-.68-1.85.4.4,0,0,1,.39-.41h0a.4.4,0,0,1,.4.4A2,2,0,0,0,15.54,23a1.43,1.43,0,0,0,1.09.51L21,23.47a1.73,1.73,0,0,0,1.54-1.88l0-1.43a1,1,0,0,1,.92-1.08c.89-.06,1.23-.08,2.47-.1h0a.4.4,0,0,1,.4.4.41.41,0,0,1-.39.4c-1.21,0-1.56,0-2.33.09a.26.26,0,0,0-.27.25v0l0,1.43A2.53,2.53,0,0,1,21,24.27l-4.38.05Z"/><path d="M41.89,18.16a.15.15,0,0,1-.09,0A28.06,28.06,0,0,0,35,16.54a.23.23,0,0,1-.2-.26h0a.24.24,0,0,1,.26-.2A28.14,28.14,0,0,1,42,17.72a.22.22,0,0,1,.12.3A.22.22,0,0,1,41.89,18.16Z"/><path d="M33.23,16.36h0l-1.09-.08A.23.23,0,0,1,31.9,16h0a.23.23,0,0,1,.24-.22l1.11.07a.23.23,0,0,1,.21.25A.24.24,0,0,1,33.23,16.36Z"/><circle class="cls-3" cx="29.07" cy="35.3" r="5.06"/><circle class="cls-3" cx="28.86" cy="36.57" r="5.06"/><circle class="cls-5" cx="28.86" cy="35.36" r="1.4"/><path d="M28.86,36.92a1.63,1.63,0,1,1,1.63-1.62A1.63,1.63,0,0,1,28.86,36.92Zm0-2.79A1.17,1.17,0,1,0,30,35.3h0A1.17,1.17,0,0,0,28.86,34.13Z"/><circle cx="28.86" cy="38.48" r="0.34"/><circle cx="28.86" cy="31.99" r="0.34"/><circle cx="25.61" cy="35.36" r="0.34"/><circle cx="32.11" cy="35.36" r="0.34"/><circle cx="39.93" cy="30.6" r="0.34"/><circle cx="32.44" cy="31.65" r="0.34"/><circle cx="26.56" cy="33.06" r="0.34"/><circle cx="31.16" cy="37.65" r="0.34"/><circle cx="31.16" cy="33" r="0.34"/><circle cx="26.56" cy="37.59" r="0.34"/><path d="M28.86,40.74A5.45,5.45,0,1,1,31.4,30.48a.38.38,0,1,1-.35.67A4.68,4.68,0,1,0,33,33.09a.38.38,0,1,1,.67-.35,5.45,5.45,0,0,1-4.81,8Z"/><rect class="cls-7" x="16.58" y="42.69" width="24.56" height="0.5"/><path d="M41.14,42.83H35.59a.23.23,0,0,1-.23-.23.23.23,0,0,1,.23-.23h5.55a.24.24,0,0,1,.24.23.23.23,0,0,1-.23.23Z"/><path d="M34.14,42.83H16.58a.23.23,0,0,1-.23-.23.23.23,0,0,1,.23-.23H34.14a.23.23,0,0,1,.23.23.23.23,0,0,1-.23.23Z"/><rect class="cls-5" x="22" y="25.67" width="11.92" height="1"/><path class="cls-5" d="M19.06,35h0a.38.38,0,0,1-.34-.41h0l.49-5.06a.37.37,0,0,1,.39-.34h0a.38.38,0,0,1,.34.41h0l-.49,5.07A.37.37,0,0,1,19.06,35Z"/><circle class="cls-5" cx="18.89" cy="36.13" r="0.52"/><path d="M16.27,24.88a2.57,2.57,0,0,1-2.57-2.55l0-3.16a3,3,0,0,1,1.74-2.75C18.89,14.82,25.25,14,28.65,14c3.7,0,10.63.68,14,2.13a3,3,0,0,1,1.8,2.72l0,3.16a2.58,2.58,0,0,1-2.54,2.61L37,24.67a2.65,2.65,0,0,1-1.83-.73,2.54,2.54,0,0,1-.77-1.82l0-1.39a.26.26,0,0,0-.26-.27c-.72,0-1.7,0-2.75,0h0a.38.38,0,0,1,0-.76c1.06,0,2.05,0,2.78,0a1,1,0,0,1,1,1l0,1.39a1.82,1.82,0,0,0,.54,1.29,1.73,1.73,0,0,0,1.29.51l4.94-.05A1.82,1.82,0,0,0,43.72,22l0-3.16a2.25,2.25,0,0,0-1.34-2c-3.27-1.41-10.06-2.1-13.69-2.07-3.34,0-9.56.79-12.95,2.35a2.24,2.24,0,0,0-1.29,2.05l0,3.16a1.81,1.81,0,0,0,1.81,1.8h0l4.93-.05A1.82,1.82,0,0,0,23,22.23h0v-1.4a1,1,0,0,1,1-1h.11c.88-.05,1.27-.07,2.65-.09h0a.38.38,0,0,1,0,.76c-1.36,0-1.75,0-2.62.09H24a.26.26,0,0,0-.25.27v1.4a2.59,2.59,0,0,1-2.55,2.61l-4.93.05Z"/><path d="M37.37,29.73a.15.15,0,0,1-.15-.14L37,28.07a.18.18,0,0,1,.14-.19.17.17,0,0,1,.18.14h0l.22,1.53a.17.17,0,0,1-.13.18Z"/><path d="M36.61,29.37a.15.15,0,0,1-.16-.13l-.23-1.53a.16.16,0,0,1,.14-.18.17.17,0,0,1,.18.13l.22,1.53a.15.15,0,0,1-.13.18Z"/><path class="cls-8" d="M40.27,39.41a.5.5,0,0,1-.5-.46l-.34-3.89a.51.51,0,0,1,.46-.54.5.5,0,0,1,.54.46l.34,3.89a.51.51,0,0,1-.46.54h0Z"/><path d="M38.33,45.37H19.39a3.32,3.32,0,0,1-2.45-1,2.79,2.79,0,0,1-.74-2.13L17.61,28a3.13,3.13,0,0,1,3.19-2.69H36.92A3.12,3.12,0,0,1,40.11,28l.09.91a.38.38,0,0,1-.34.42.37.37,0,0,1-.41-.32v0l-.1-.92a2.35,2.35,0,0,0-2.43-2H20.8a2.36,2.36,0,0,0-2.43,2L17,42.26a2,2,0,0,0,.54,1.55,2.55,2.55,0,0,0,1.89.8H38.33a2.55,2.55,0,0,0,1.89-.8,2,2,0,0,0,.54-1.55L39.74,32a.39.39,0,0,1,.34-.42.37.37,0,0,1,.42.3v0l1,10.23a2.76,2.76,0,0,1-.74,2.14A3.29,3.29,0,0,1,38.33,45.37Z"/></g></g></svg>