<svg xmlns="http://www.w3.org/2000/svg" viewBox="0 0 58.8 58.85"><defs><style>.cls-1{fill:#40aaf2;}.cls-2,.cls-3{fill:#7fccf7;}.cls-2{opacity:0.21;isolation:isolate;}.cls-4{fill:#fff;}.cls-5{fill:#fdc6a2;}.cls-6{fill:#f4a376;}.cls-7{fill:#dcfaff;}.cls-8{fill:#84c7ce;}.cls-9{fill:#c3e9ed;}</style></defs><g id="Layer_2" data-name="Layer 2"><g id="Layer_1-2" data-name="Layer 1"><path d="M29.41,58.85A29.43,29.43,0,1,1,58.8,29.38v0A29.43,29.43,0,0,1,29.41,58.85Zm0-57.34A27.89,27.89,0,1,0,57.3,29.39a28.29,28.29,0,0,0-.62-5.88,28,28,0,0,0-27.27-22Z"/><path class="cls-1" d="M5.72,36.76h47a24.69,24.69,0,0,1-47,0Z"/><path class="cls-2" d="M53.37,24H5.1a24.69,24.69,0,0,1,48.27,0Z"/><path class="cls-3" d="M53.94,29.47a15.25,15.25,0,0,1-1.19,5.85h-47a14.93,14.93,0,0,1-.62-9.91H53.37A15.48,15.48,0,0,1,53.94,29.47Z"/><circle class="cls-4" cx="40.03" cy="13.11" r="0.48"/><circle class="cls-4" cx="10.3" cy="28.06" r="0.48"/><circle class="cls-4" cx="21.93" cy="48.03" r="0.48"/><circle class="cls-4" cx="15.73" cy="14.24" r="0.48"/><circle class="cls-4" cx="40.87" cy="40.31" r="0.84"/><circle class="cls-4" cx="49.69" cy="26.07" r="0.84"/><circle class="cls-4" cx="14.89" cy="42.04" r="0.84"/><circle class="cls-5" cx="23.05" cy="38.13" r="6.94"/><circle class="cls-6" cx="23.05" cy="38.13" r="4.37"/><path d="M23.05,45.44a7.32,7.32,0,1,1,7.32-7.32h0A7.32,7.32,0,0,1,23.05,45.44Zm0-13.87a6.56,6.56,0,1,0,6.56,6.56h0A6.56,6.56,0,0,0,23.05,31.57Z"/><circle class="cls-4" cx="30.03" cy="28.18" r="0.48"/><path class="cls-4" d="M43,41l-9.88,5.94a4,4,0,0,1-5.48-1.37h0L15,24.49l-.93-1.55a4,4,0,0,1,1.37-5.48h0l9.87-5.94a4,4,0,0,1,5.49,1.37h0L44.4,35.5A4,4,0,0,1,43,41Z"/><path class="cls-7" d="M30.88,13,44.31,35.34v0L27.59,45.43v0L14.15,23.07Z"/><path class="cls-8" d="M28,45.07a.61.61,0,0,1-.51-.3L14.69,23.44a.61.61,0,0,1,.21-.83l15.68-9.42a.6.6,0,0,1,.83.2.61.61,0,0,1-.21.83L16,23.34,28.55,44.15a.6.6,0,0,1-.21.83.56.56,0,0,1-.31.09Z"/><path d="M14.24,23.56a.35.35,0,0,1-.35-.34.38.38,0,0,1,.17-.3l3.74-2.25a.35.35,0,0,1,.36.6l-3.74,2.25A.39.39,0,0,1,14.24,23.56Z"/><path d="M27.68,45.92a.35.35,0,0,1-.35-.35.34.34,0,0,1,.17-.29l3-1.79a.34.34,0,0,1,.47.12.34.34,0,0,1-.12.47l-3,1.79A.41.41,0,0,1,27.68,45.92Z"/><path class="cls-9" d="M34.69,44.47a.5.5,0,0,1-.5-.5.51.51,0,0,1,.24-.43l4.92-2.95a.5.5,0,1,1,.51.86L35,44.4A.48.48,0,0,1,34.69,44.47Z"/><path class="cls-4" d="M41.72,33.09a.61.61,0,0,1-.52-.29l-3.1-5.16a.61.61,0,0,1,.2-.83.6.6,0,0,1,.83.2h0l3.11,5.17A.61.61,0,0,1,42,33a.65.65,0,0,1-.31.08Z"/><path class="cls-4" d="M36.51,24.43a.61.61,0,0,1-.52-.29L32.89,19a.6.6,0,0,1,.2-.82.59.59,0,0,1,.83.2h0L37,23.51a.6.6,0,0,1-.21.83.56.56,0,0,1-.31.09Z"/><path d="M31.1,48a4.46,4.46,0,0,1-3.83-2.17L13.67,23.18a4.47,4.47,0,0,1,1.53-6.12l9.87-5.94a4.47,4.47,0,0,1,6.13,1.53L44.8,35.26a4.47,4.47,0,0,1-1.53,6.12h0l-9.88,5.94A4.4,4.4,0,0,1,31.1,48ZM27.37,11.42a3.44,3.44,0,0,0-1.82.5l-9.87,5.94a3.53,3.53,0,0,0-1.21,4.84l13.6,22.61a3.53,3.53,0,0,0,4.84,1.21l9.88-5.94A3.53,3.53,0,0,0,44,35.74L30.4,13.13A3.5,3.5,0,0,0,27.37,11.42Z"/><path d="M21.71,17.07a.76.76,0,0,1-.21,0,.87.87,0,0,1,.42-1.69.87.87,0,0,1-.21,1.72Zm0-1.34a.45.45,0,0,0-.46.47.46.46,0,0,0,.35.45.47.47,0,1,0,.23-.91Z"/><path d="M34.55,44a.35.35,0,0,1-.36-.36.37.37,0,0,1,.17-.32l4.92-3a.36.36,0,0,1,.5.12.37.37,0,0,1-.12.51l-4.92,2.95A.32.32,0,0,1,34.55,44Z"/><path class="cls-5" d="M30.85,22.42l4.54-2.94a1.79,1.79,0,0,1,2.48.53h0a1.79,1.79,0,0,1-.53,2.48l-4.55,2.94a1.79,1.79,0,0,1-2.48-.53h0A1.8,1.8,0,0,1,30.85,22.42Z"/><path d="M31.82,26.08a2.16,2.16,0,0,1-1.17-4l4.54-2.94a2.16,2.16,0,0,1,2.35,3.63h0L33,25.74A2.19,2.19,0,0,1,31.82,26.08Zm4.54-6.52a1.42,1.42,0,0,0-.77.23l-4.54,2.94a1.42,1.42,0,0,0,1.54,2.39l4.55-2.94a1.43,1.43,0,0,0-.48-2.59A1.45,1.45,0,0,0,36.36,19.56Z"/><path class="cls-5" d="M32.79,25.43l4.55-2.95a1.79,1.79,0,0,1,2.47.53h0a1.79,1.79,0,0,1-.53,2.48l-4.55,2.94a1.78,1.78,0,0,1-2.47-.53h0A1.78,1.78,0,0,1,32.79,25.43Z"/><path d="M33.77,29.09a2.31,2.31,0,0,1-.46-.05,2.16,2.16,0,0,1-.72-3.92l4.55-2.95a2.16,2.16,0,0,1,2.34,3.63h0l-4.55,2.94A2.08,2.08,0,0,1,33.77,29.09Zm4.54-6.53a1.39,1.39,0,0,0-.77.23L33,25.74a1.41,1.41,0,0,0-.42,2,1.41,1.41,0,0,0,2,.42l4.55-2.94a1.42,1.42,0,0,0-.77-2.62Z"/><path class="cls-5" d="M34.73,28.43l4.55-2.94a1.79,1.79,0,0,1,2.48.53h0a1.8,1.8,0,0,1-.53,2.48l-4.55,2.94a1.79,1.79,0,0,1-2.48-.53h0A1.8,1.8,0,0,1,34.73,28.43Z"/><path class="cls-5" d="M36.68,31.44l4.55-2.94A1.78,1.78,0,0,1,43.7,29h0a1.78,1.78,0,0,1-.53,2.47h0l-4.55,3a1.79,1.79,0,0,1-2.47-.53h0a1.79,1.79,0,0,1,.53-2.48Z"/><path d="M35.71,32.1a2.4,2.4,0,0,1-.46-.05,2.17,2.17,0,0,1-.72-3.93l4.55-2.94a2.16,2.16,0,1,1,2.35,3.63h0l-4.55,2.94A2.2,2.2,0,0,1,35.71,32.1Zm4.54-6.53a1.42,1.42,0,0,0-.77.23l-4.55,2.94a1.42,1.42,0,0,0,1.54,2.39h0L41,28.19a1.43,1.43,0,0,0-.48-2.59,1.53,1.53,0,0,0-.3,0Z"/><path d="M37.66,35.1a1.75,1.75,0,0,1-.46-.05,2.16,2.16,0,0,1-.72-3.92L41,28.19a2.16,2.16,0,0,1,2.34,3.62h0l-4.55,2.95A2.15,2.15,0,0,1,37.66,35.1Zm4.54-6.52a1.39,1.39,0,0,0-.77.23l-4.55,2.94a1.42,1.42,0,0,0,1.54,2.39L43,31.19a1.41,1.41,0,0,0,.42-2,1.39,1.39,0,0,0-.89-.62,1.53,1.53,0,0,0-.3,0Z"/><rect class="cls-5" x="15.41" y="26.99" width="9" height="5.83" rx="2.91" transform="translate(-15.26 37.24) rotate(-68.13)"/><path d="M19.31,34.67A3.29,3.29,0,0,1,16,31.37a3.2,3.2,0,0,1,.24-1.22l1.18-2.94a3.29,3.29,0,1,1,6.11,2.45L22.37,32.6A3.29,3.29,0,0,1,19.31,34.67ZM20.5,25.9a2.55,2.55,0,0,0-2.36,1.59L17,30.43a2.54,2.54,0,0,0,4.71,1.89l1.18-2.94A2.53,2.53,0,0,0,20.5,25.9Z"/><polygon class="cls-4" points="36.03 40.26 34.37 41.36 22.09 18.67 23.75 17.57 36.03 40.26"/><polygon class="cls-4" points="37.97 38.99 36.93 39.66 24.65 16.97 25.69 16.3 37.97 38.99"/><path d="M32.5,43a.34.34,0,0,1-.35-.35.32.32,0,0,1,.17-.29l11.91-7.16a.34.34,0,0,1,.35.59L32.67,43A.34.34,0,0,1,32.5,43Z"/><path d="M19.37,20.48a.35.35,0,0,1-.34-.35.34.34,0,0,1,.16-.29l11.6-7a.35.35,0,0,1,.47.13.34.34,0,0,1-.12.47l-11.59,7A.37.37,0,0,1,19.37,20.48Z"/></g></g></svg>