<svg xmlns="http://www.w3.org/2000/svg" viewBox="0 0 58.8 58.86"><defs><style>.cls-1,.cls-2,.cls-3{fill:#f9d606;}.cls-2{opacity:0.2;}.cls-10,.cls-2,.cls-3{isolation:isolate;}.cls-3{opacity:0.52;}.cls-4{fill:#fff;}.cls-5{fill:#21363d;}.cls-6{fill:#2a444f;}.cls-7{fill:#140c10;}.cls-8{fill:#415e6d;}.cls-9{fill:#5f7c87;}.cls-10,.cls-12{fill:#7fccf7;}.cls-10,.cls-11{opacity:0.21;}.cls-13{fill:#23ef06;}</style></defs><g id="Layer_2" data-name="Layer 2"><g id="Layer_1-2" data-name="Layer 1"><path class="cls-1" d="M5.88,37h47a24.69,24.69,0,0,1-47,0Z"/><path class="cls-2" d="M53.54,24.2H5.26a24.7,24.7,0,0,1,48.28,0Z"/><path class="cls-3" d="M54.1,29.69a15.06,15.06,0,0,1-1.18,5.85h-47a15.06,15.06,0,0,1-.62-9.91H53.54A15.07,15.07,0,0,1,54.1,29.69Z"/><path d="M29.41,58.86A29.43,29.43,0,1,1,58.8,29.37v.06A29.43,29.43,0,0,1,29.41,58.86Zm0-57.34a27.9,27.9,0,1,0,27.26,22A27.9,27.9,0,0,0,29.41,1.52Z"/><circle class="cls-4" cx="29.4" cy="29.44" r="0.48"/><circle class="cls-4" cx="29.4" cy="29.44" r="0.48"/><circle class="cls-4" cx="29.4" cy="29.44" r="0.84"/><circle class="cls-4" cx="29.4" cy="29.44" r="0.84"/><circle class="cls-4" cx="8.29" cy="31.95" r="0.84"/><circle class="cls-4" cx="14" cy="14.97" r="1.06"/><circle class="cls-4" cx="49.58" cy="39.22" r="0.6"/><circle class="cls-4" cx="31.64" cy="50.15" r="0.49"/><circle class="cls-4" cx="37.11" cy="47.07" r="0.61"/><circle class="cls-4" cx="36.7" cy="9.63" r="0.25"/><path class="cls-5" d="M27,27.2V46.33a1,1,0,0,1-.95,1H17.64a1,1,0,0,1-.95-1h0V14.49a.94.94,0,0,1,.95-1H26a1,1,0,0,1,.95,1h0v9.26"/><path d="M26,47.71H17.64a1.38,1.38,0,0,1-1.39-1.38V14.49a1.39,1.39,0,0,1,1.39-1.39H26a1.38,1.38,0,0,1,1.38,1.39v9.26a.44.44,0,1,1-.87,0h0V14.49A.51.51,0,0,0,26,14H17.64a.52.52,0,0,0-.52.52V46.33a.51.51,0,0,0,.52.51H26a.51.51,0,0,0,.51-.51V27.2a.44.44,0,0,1,.44-.43.43.43,0,0,1,.43.43h0V46.33A1.38,1.38,0,0,1,26,47.71Z"/><path class="cls-6" d="M33.68,43.71H15a1,1,0,0,1-1-1h0V16.25a1,1,0,0,1,1-1H33.68V43.71Z"/><path class="cls-7" d="M33.68,44.08H15a1.38,1.38,0,0,1-1.37-1.36V16.25A1.37,1.37,0,0,1,15,14.89H33.68a.38.38,0,0,1,.38.37V43.71A.37.37,0,0,1,33.68,44.08ZM15,15.64a.61.61,0,0,0-.62.61V42.72a.62.62,0,0,0,.62.61H33.31V15.64Z"/><path class="cls-8" d="M33.68,41.72H15a1,1,0,0,1-1-1h0V14.26a1,1,0,0,1,1-1H33.68V41.72Z"/><path class="cls-7" d="M33.68,42.09H15a1.38,1.38,0,0,1-1.37-1.36V14.26A1.38,1.38,0,0,1,15,12.9H33.68a.37.37,0,0,1,.38.37V41.72A.38.38,0,0,1,33.68,42.09ZM15,13.65a.62.62,0,0,0-.62.61V40.73a.62.62,0,0,0,.62.61H33.31V13.65Z"/><path class="cls-9" d="M44.83,14.26v1.6a1,1,0,0,0-1-1H25.12V13.27H43.84a1,1,0,0,1,1,1Z"/><path class="cls-6" d="M25.12,15.26H43.85a1,1,0,0,1,1,1h0V42.72a1,1,0,0,1-1,1H25.12V15.26Z"/><path class="cls-7" d="M43.85,44.08H25.12a.36.36,0,0,1-.37-.37V15.26a.37.37,0,0,1,.37-.37H43.85a1.36,1.36,0,0,1,1.36,1.36V42.72A1.36,1.36,0,0,1,43.85,44.08ZM25.5,43.33H43.85a.61.61,0,0,0,.61-.61V16.25a.61.61,0,0,0-.61-.61H25.5Z"/><path class="cls-8" d="M25.12,13.27H43.85a1,1,0,0,1,1,1h0V40.73a1,1,0,0,1-1,1H25.12V13.27Z"/><path class="cls-7" d="M43.85,42.09H25.12a.37.37,0,0,1-.37-.37V13.27a.36.36,0,0,1,.37-.37H43.85a1.36,1.36,0,0,1,1.36,1.36V40.73A1.36,1.36,0,0,1,43.85,42.09ZM25.5,41.34H43.85a.61.61,0,0,0,.61-.61V14.26a.61.61,0,0,0-.61-.61H25.5Z"/><rect class="cls-8" x="16.69" y="11.6" width="10.29" height="33.74" rx="0.95"/><rect class="cls-6" x="16.69" y="37.04" width="10.29" height="8.3" rx="0.95"/><path d="M18,47.71a4.23,4.23,0,0,1-4.22-4.22v-1a2.87,2.87,0,0,1,2.87-2.86.44.44,0,0,1,.43.44.43.43,0,0,1-.43.43,2,2,0,0,0-2,2v1a3.36,3.36,0,0,0,6.71,0v-.72a.44.44,0,1,1,.87,0h0v.72A4.23,4.23,0,0,1,18,47.71Z"/><rect class="cls-10" x="29.27" y="16.6" width="13.17" height="5.08"/><rect class="cls-8" x="29.27" y="20.28" width="13.17" height="1.39"/><path d="M42.44,22.05H29.27a.37.37,0,0,1-.37-.37h0V16.6a.36.36,0,0,1,.37-.37H42.44a.37.37,0,0,1,.37.37h0v5.08a.38.38,0,0,1-.37.37Zm-12.8-.74H42.07V17H29.64Z"/><g class="cls-11"><rect class="cls-12" x="29.27" y="23.55" width="3.69" height="1.72"/><rect class="cls-12" x="34.01" y="23.55" width="3.69" height="1.72"/><rect class="cls-12" x="38.75" y="23.55" width="3.69" height="1.72"/><rect class="cls-12" x="29.27" y="26.24" width="3.69" height="1.72"/><rect class="cls-12" x="34.01" y="26.24" width="3.69" height="1.72"/><rect class="cls-12" x="38.75" y="26.24" width="3.69" height="1.72"/><rect class="cls-12" x="29.27" y="28.94" width="3.69" height="1.72"/><rect class="cls-12" x="34.01" y="28.94" width="3.69" height="1.72"/><rect class="cls-12" x="38.75" y="28.94" width="3.69" height="1.72"/></g><rect class="cls-13" x="30.56" y="18.42" width="1.98" height="1.43"/><rect class="cls-13" x="33.17" y="18.42" width="0.99" height="1.43"/><rect class="cls-13" x="34.86" y="18.42" width="0.99" height="1.43"/><rect class="cls-13" x="36.65" y="18.42" width="0.49" height="1.43"/><path class="cls-9" d="M18,30.16a.36.36,0,0,1-.36-.36h0V28.15a.36.36,0,0,1,.37-.37.37.37,0,0,1,.36.37V29.8a.36.36,0,0,1-.36.36Z"/><path class="cls-9" d="M18,26.61a.36.36,0,0,1-.36-.37h0V18.17a.37.37,0,1,1,.73,0v8.07a.36.36,0,0,1-.36.37Z"/><path d="M24.69,15.65a.16.16,0,0,1-.16-.14L24.31,14a.16.16,0,0,1,.14-.18.16.16,0,0,1,.17.13l.22,1.5a.17.17,0,0,1-.13.18Z"/><path d="M23.94,15.3a.16.16,0,0,1-.16-.14l-.22-1.49a.16.16,0,1,1,.31-.05l.22,1.5a.17.17,0,0,1-.13.18Z"/><path d="M42.92,39.92a.16.16,0,0,1-.15-.14l-.22-1.49a.16.16,0,0,1,.13-.18.17.17,0,0,1,.18.13l.22,1.5a.17.17,0,0,1-.13.18Z"/><path d="M42.17,39.57a.15.15,0,0,1-.15-.14l-.22-1.49a.15.15,0,0,1,.13-.18.17.17,0,0,1,.18.13l.22,1.5a.17.17,0,0,1-.14.18Z"/><path d="M33,25.5H29.27a.23.23,0,0,1-.23-.23h0V23.55a.23.23,0,0,1,.23-.23H33a.23.23,0,0,1,.23.23h0v1.72a.23.23,0,0,1-.23.23ZM29.5,25h3.22V23.78H29.5Z"/><path d="M37.7,25.5H34a.23.23,0,0,1-.23-.23h0V23.55a.23.23,0,0,1,.23-.23H37.7a.23.23,0,0,1,.23.23h0v1.72a.23.23,0,0,1-.23.23ZM34.24,25h3.23V23.78H34.24Z"/><path d="M42.44,25.5H38.75a.23.23,0,0,1-.23-.23h0V23.55a.23.23,0,0,1,.23-.23h3.69a.23.23,0,0,1,.23.23h0v1.72a.23.23,0,0,1-.23.23ZM39,25h3.23V23.78H39Z"/><path d="M33,28.19H29.27A.23.23,0,0,1,29,28h0V26.24a.23.23,0,0,1,.23-.23H33a.23.23,0,0,1,.23.23h0V28a.23.23,0,0,1-.23.23Zm-3.45-.46h3.22V26.47H29.5Z"/><path d="M37.7,28.19H34a.23.23,0,0,1-.23-.23h0V26.24A.23.23,0,0,1,34,26H37.7a.24.24,0,0,1,.23.23h0V28a.23.23,0,0,1-.23.23Zm-3.46-.46h3.23V26.47H34.24Z"/><path d="M42.44,28.19H38.75a.23.23,0,0,1-.23-.23h0V26.24a.23.23,0,0,1,.23-.23h3.69a.24.24,0,0,1,.23.23h0V28a.23.23,0,0,1-.23.23ZM39,27.73h3.23V26.47H39Z"/><path d="M33,30.89H29.27a.23.23,0,0,1-.23-.23h0V28.94a.23.23,0,0,1,.23-.23H33a.23.23,0,0,1,.23.23h0v1.72a.23.23,0,0,1-.23.23Zm-3.45-.46h3.22V29.17H29.5Z"/><path d="M37.7,30.89H34a.23.23,0,0,1-.23-.23h0V28.94a.23.23,0,0,1,.23-.23H37.7a.23.23,0,0,1,.23.23h0v1.72a.24.24,0,0,1-.23.23Zm-3.46-.46h3.23V29.17H34.24Z"/><path d="M42.44,30.89H38.75a.24.24,0,0,1-.23-.23h0V28.94a.23.23,0,0,1,.23-.23h3.69a.23.23,0,0,1,.23.23h0v1.72a.24.24,0,0,1-.23.23ZM39,30.43h3.23V29.17H39Z"/><path class="cls-6" d="M27.52,38a.49.49,0,0,1-.49-.49h0V17.44a.49.49,0,0,1,1,0v20.1a.49.49,0,0,1-.49.49Z"/><path d="M26,45.78H17.64a1.39,1.39,0,0,1-1.39-1.39V12.55a1.38,1.38,0,0,1,1.39-1.38H26a1.38,1.38,0,0,1,1.38,1.38v9.27a.43.43,0,0,1-.43.43.44.44,0,0,1-.44-.43h0V12.55A.51.51,0,0,0,26,12H17.64a.51.51,0,0,0-.52.51V44.39a.52.52,0,0,0,.52.52H26a.51.51,0,0,0,.51-.52V25.27a.44.44,0,0,1,.44-.44.43.43,0,0,1,.43.43h0V44.39A1.38,1.38,0,0,1,26,45.78Z"/><circle cx="26.98" cy="23.55" r="0.4"/><path class="cls-7" d="M24.38,37.42H19a.37.37,0,0,1-.37-.38.36.36,0,0,1,.37-.37h5.37a.37.37,0,0,1,.37.37A.38.38,0,0,1,24.38,37.42Z"/></g></g></svg>