<svg xmlns="http://www.w3.org/2000/svg" viewBox="0 0 569.37 442.77"><defs><style>.cls-1{fill:#000201;}.cls-2{fill:#cacad8;}.cls-3{fill:#8080ba;}.cls-4{fill:#6f6372;}.cls-5{fill:#63456b;}.cls-6{fill:#f74f8b;}.cls-7{fill:#ffa6ca;}.cls-8{fill:#a091a3;}.cls-9{fill:#d3c9d6;}.cls-10{fill:#dcf0ff;}.cls-11,.cls-34{fill:#5ccde9;}.cls-12,.cls-13,.cls-25,.cls-29,.cls-30{fill:#fff;}.cls-13{opacity:0.38;}.cls-14{fill:#e0e3e8;}.cls-15{fill:#abbcd3;}.cls-16{fill:#1b3c47;opacity:0.15;}.cls-16,.cls-29,.cls-30{isolation:isolate;}.cls-17{fill:#b5e4f9;}.cls-18{fill:#a1a1c4;}.cls-19{fill:#e28c37;}.cls-20{fill:#f4ad5e;}.cls-21{fill:#ffb3b3;opacity:0.2;}.cls-22{fill:#cc7323;}.cls-23{fill:#ffc68d;}.cls-24{fill:#ffdcc0;}.cls-25{opacity:0.73;}.cls-26{fill:#e4e4ef;}.cls-27{fill:#8bd2fc;}.cls-28{fill:#cfabf4;}.cls-29{opacity:0.6;}.cls-30{opacity:0.8;}.cls-31{fill:#503459;}.cls-32{fill:#3e2547;}.cls-33{opacity:0.28;}.cls-34{opacity:0.58;}.cls-35{opacity:0.43;}.cls-36{font-size:15.39px;font-family:Jost-ExtraBold, Jost;font-weight:800;}.cls-36,.cls-37{fill:#ef0c52;}</style></defs><g id="Layer_2" data-name="Layer 2"><g id="Layer_2-2" data-name="Layer 2"><path class="cls-1" d="M55.56,257a1.82,1.82,0,0,1-1.82-1.83V205.74a1.83,1.83,0,1,1,3.65,0v49.42A1.83,1.83,0,0,1,55.56,257Z"/><path class="cls-2" d="M29.13,262.26a4.7,4.7,0,0,1-4.48-6.17l16.93-51.81a4.71,4.71,0,1,1,9,2.93L33.61,259A4.72,4.72,0,0,1,29.13,262.26Z"/><path class="cls-3" d="M29.13,262.26c-1.9,0,.56.31-.72-2.54l18.35-56.14c5.42-3.21,5.06-.28,3.78,3.63L33.61,259A4.72,4.72,0,0,1,29.13,262.26Z"/><path class="cls-1" d="M29.13,263.19a5.72,5.72,0,0,1-1.75-.28,5.64,5.64,0,0,1-3.61-7.11L40.7,204a5.64,5.64,0,0,1,7.11-3.6,5.63,5.63,0,0,1,3.6,7.1L34.48,259.3A5.63,5.63,0,0,1,29.13,263.19ZM46.06,202a3.8,3.8,0,0,0-3.6,2.61L25.52,256.37a3.8,3.8,0,0,0,.23,2.9,3.75,3.75,0,0,0,2.2,1.88,3.64,3.64,0,0,0,1.18.19,3.78,3.78,0,0,0,3.6-2.61l16.93-51.81a3.79,3.79,0,0,0-3.6-5Z"/><path class="cls-2" d="M82.12,262.26a4.64,4.64,0,0,0,1.46-.23,4.71,4.71,0,0,0,3-5.94L69.67,204.28a4.71,4.71,0,1,0-9,2.93L77.64,259A4.72,4.72,0,0,0,82.12,262.26Z"/><path class="cls-3" d="M82.12,262.26c1.9,0-.56.31.71-2.54L64.48,203.58c-5.42-3.21-5.05-.28-3.77,3.63L77.64,259A4.72,4.72,0,0,0,82.12,262.26Z"/><path class="cls-1" d="M82.12,263.19a5.62,5.62,0,0,1-5.35-3.89L59.83,207.49a5.64,5.64,0,0,1,.33-4.3,5.64,5.64,0,0,1,10.38.8L87.48,255.8a5.66,5.66,0,0,1-3.61,7.11A5.82,5.82,0,0,1,82.12,263.19ZM65.18,202a3.67,3.67,0,0,0-1.17.19,3.81,3.81,0,0,0-2.43,4.78l16.94,51.81a3.78,3.78,0,0,0,3.6,2.61,3.64,3.64,0,0,0,1.18-.19,3.78,3.78,0,0,0,2.42-4.78L68.79,204.56A3.8,3.8,0,0,0,65.18,202Z"/><path class="cls-4" d="M77.83,121.84h1.63a3.37,3.37,0,0,1,3.37,3.37v10.32a0,0,0,0,1,0,0H74.46a0,0,0,0,1,0,0V125.21A3.37,3.37,0,0,1,77.83,121.84Z"/><path class="cls-5" d="M77.83,129.12h1.63a3.37,3.37,0,0,1,3.37,3.37v10.32a0,0,0,0,1,0,0H74.46a0,0,0,0,1,0,0V132.49A3.37,3.37,0,0,1,77.83,129.12Z"/><path class="cls-1" d="M82.82,136.45H74.46a.93.93,0,0,1-.92-.93V125.21a4.29,4.29,0,0,1,4.29-4.29h1.63a4.29,4.29,0,0,1,4.28,4.29v10.31A.93.93,0,0,1,82.82,136.45Zm-7.44-1.85H81.9v-9.39a2.45,2.45,0,0,0-2.44-2.45H77.83a2.45,2.45,0,0,0-2.45,2.45Z"/><path class="cls-4" d="M33.75,133.52h0c0-5.16,6-9.34,13.49-9.34H57c7.46,0,13.5,4.18,13.5,9.34h0"/><path class="cls-1" d="M70.46,134.44a.92.92,0,0,1-.92-.92c0-4.64-5.64-8.42-12.58-8.42H50.27a.92.92,0,1,1,0-1.84H57c7.95,0,14.42,4.6,14.42,10.26A.92.92,0,0,1,70.46,134.44Z"/><path class="cls-1" d="M33.75,134.44a.92.92,0,0,1-.92-.92c0-4.84,4.82-9.07,11.46-10.05a.92.92,0,1,1,.27,1.83c-5.73.84-9.89,4.3-9.89,8.22A.92.92,0,0,1,33.75,134.44Z"/><path class="cls-5" d="M65.86,133.08H39.12a1.35,1.35,0,0,1,0-2.69H65.86a1.35,1.35,0,1,1,0,2.69Z"/><path class="cls-4" d="M39.31,192.74H71.88a0,0,0,0,1,0,0v9.74a2.59,2.59,0,0,1-2.59,2.59H41.9a2.59,2.59,0,0,1-2.59-2.59v-9.74A0,0,0,0,1,39.31,192.74Z"/><path class="cls-5" d="M39.31,190.08H71.88a0,0,0,0,1,0,0v9.74a2.59,2.59,0,0,1-2.59,2.59H41.9a2.59,2.59,0,0,1-2.59-2.59v-9.74A0,0,0,0,1,39.31,190.08Z"/><path class="cls-1" d="M69.29,206H41.9a3.51,3.51,0,0,1-3.51-3.51v-9.73a.93.93,0,0,1,.92-.93H71.88a.93.93,0,0,1,.92.93v9.73A3.51,3.51,0,0,1,69.29,206ZM40.23,193.66v8.81a1.67,1.67,0,0,0,1.67,1.67H69.29A1.66,1.66,0,0,0,71,202.47v-8.81Z"/><path class="cls-4" d="M38,186.72H73.17a0,0,0,0,1,0,0v10.51A2.79,2.79,0,0,1,70.38,200H40.8A2.79,2.79,0,0,1,38,197.23V186.72A0,0,0,0,1,38,186.72Z"/><path class="cls-5" d="M38,184.18H73.17a0,0,0,0,1,0,0v10.51a2.79,2.79,0,0,1-2.79,2.79H40.8A2.79,2.79,0,0,1,38,194.69V184.18A0,0,0,0,1,38,184.18Z"/><path class="cls-1" d="M70.38,201H40.8a3.72,3.72,0,0,1-3.71-3.72V186.72a.92.92,0,0,1,.92-.92H73.17a.93.93,0,0,1,.93.92v10.51A3.73,3.73,0,0,1,70.38,201ZM38.93,187.64v9.59a1.87,1.87,0,0,0,1.87,1.87H70.38a1.87,1.87,0,0,0,1.87-1.87v-9.59Z"/><rect class="cls-4" x="7.3" y="134.27" width="92.17" height="60.07" rx="11.98"/><path class="cls-5" d="M99.46,174v8a12,12,0,0,1-12,12H19.27a12,12,0,0,1-12-12v-8a12,12,0,0,0,12,12H87.49A12,12,0,0,0,99.46,174Z"/><circle class="cls-6" cx="86.39" cy="148.91" r="5.89"/><circle class="cls-7" cx="86.39" cy="148.91" r="2.46"/><path class="cls-1" d="M86.39,156.15a7.24,7.24,0,1,1,7.24-7.24A7.25,7.25,0,0,1,86.39,156.15Zm0-11.79a4.55,4.55,0,1,0,4.54,4.55A4.55,4.55,0,0,0,86.39,144.36Z"/><path class="cls-1" d="M18.17,194.62a1,1,0,0,1-1.05-1V152.65a1,1,0,1,1,2.09,0v40.93A1,1,0,0,1,18.17,194.62Z"/><path class="cls-1" d="M18.17,148.24a1,1,0,0,1-1.05-1V134.78a1,1,0,1,1,2.09,0V147.2A1,1,0,0,1,18.17,148.24Z"/><path class="cls-8" d="M82.54,138.48H78.86a2,2,0,0,1,0-4h3.68a2,2,0,0,1,0,4Z"/><path class="cls-8" d="M73.27,138.57H44.86a2,2,0,1,1,0-4H73.27a2,2,0,0,1,0,4Z"/><path class="cls-9" d="M64.91,138.57H56.64a2,2,0,0,1,0-4h8.27a2,2,0,1,1,0,4Z"/><path class="cls-1" d="M87.68,195.71H19.46A13.36,13.36,0,0,1,6.12,182.36V146.24A13.36,13.36,0,0,1,19.46,132.9H87.68A13.36,13.36,0,0,1,101,146.24v36.12A13.37,13.37,0,0,1,87.68,195.71ZM19.46,135.64a10.61,10.61,0,0,0-10.6,10.6v36.12A10.61,10.61,0,0,0,19.46,193H87.68a10.62,10.62,0,0,0,10.61-10.61V146.24a10.62,10.62,0,0,0-10.61-10.6Z"/><circle class="cls-5" cx="55.75" cy="168.9" r="18.82"/><circle class="cls-10" cx="56.17" cy="163.16" r="18.09"/><path class="cls-11" d="M56.17,182.08a18.92,18.92,0,1,1,18.91-18.92A18.93,18.93,0,0,1,56.17,182.08Zm0-32.05A13.14,13.14,0,1,0,69.3,163.16,13.15,13.15,0,0,0,56.17,150Z"/><polygon class="cls-12" points="51.04 179.44 46.96 179.44 56.39 145.53 60.47 145.53 51.04 179.44"/><polygon class="cls-13" points="55.58 180.07 52.86 180.07 62.29 146.16 65.01 146.16 55.58 180.07"/><path class="cls-1" d="M56.17,182.6a19.46,19.46,0,0,1-19.44-19.44,19.22,19.22,0,0,1,4.08-11.91,1.35,1.35,0,1,1,2.13,1.65,16.58,16.58,0,0,0-3.52,10.26,16.75,16.75,0,1,0,16.75-16.74,16.54,16.54,0,0,0-10.07,3.37,1.36,1.36,0,0,1-1.89-.27,1.33,1.33,0,0,1,.27-1.88,19.24,19.24,0,0,1,11.69-3.91,19.44,19.44,0,0,1,0,38.87Z"/><line class="cls-14" x1="213.96" y1="247.61" x2="205.35" y2="247.61"/><line class="cls-14" x1="226.49" y1="247.61" x2="217.89" y2="247.61"/><line class="cls-14" x1="239.03" y1="247.61" x2="230.43" y2="247.61"/><line class="cls-14" x1="251.57" y1="247.61" x2="242.97" y2="247.61"/><line class="cls-14" x1="264.11" y1="247.61" x2="255.5" y2="247.61"/><line class="cls-14" x1="276.64" y1="247.61" x2="268.04" y2="247.61"/><line class="cls-14" x1="289.18" y1="247.61" x2="280.58" y2="247.61"/><line class="cls-14" x1="301.72" y1="247.61" x2="293.11" y2="247.61"/><line class="cls-14" x1="314.25" y1="247.61" x2="305.65" y2="247.61"/><line class="cls-14" x1="326.79" y1="247.61" x2="318.19" y2="247.61"/><line class="cls-14" x1="339.33" y1="247.61" x2="330.73" y2="247.61"/><line class="cls-14" x1="351.87" y1="247.61" x2="343.26" y2="247.61"/><line class="cls-14" x1="364.4" y1="247.61" x2="355.8" y2="247.61"/><line class="cls-14" x1="376.94" y1="247.61" x2="368.34" y2="247.61"/><line class="cls-14" x1="389.48" y1="247.61" x2="380.88" y2="247.61"/><line class="cls-14" x1="402.02" y1="247.61" x2="393.41" y2="247.61"/><path class="cls-1" d="M214,248.26h-8.61a.65.65,0,1,1,0-1.3H214a.65.65,0,1,1,0,1.3Z"/><path class="cls-1" d="M226.49,248.26h-8.6a.65.65,0,1,1,0-1.3h8.6a.65.65,0,1,1,0,1.3Z"/><path class="cls-1" d="M239,248.26h-8.6a.65.65,0,1,1,0-1.3H239a.65.65,0,0,1,0,1.3Z"/><path class="cls-1" d="M251.57,248.26H243a.65.65,0,1,1,0-1.3h8.6a.65.65,0,1,1,0,1.3Z"/><path class="cls-1" d="M264.11,248.26H255.5a.65.65,0,1,1,0-1.3h8.61a.65.65,0,1,1,0,1.3Z"/><path class="cls-1" d="M276.64,248.26H268a.65.65,0,1,1,0-1.3h8.6a.65.65,0,1,1,0,1.3Z"/><path class="cls-1" d="M289.18,248.26h-8.6a.65.65,0,1,1,0-1.3h8.6a.65.65,0,0,1,0,1.3Z"/><path class="cls-1" d="M301.72,248.26h-8.61a.65.65,0,1,1,0-1.3h8.61a.65.65,0,0,1,0,1.3Z"/><path class="cls-1" d="M314.25,248.26h-8.6a.65.65,0,1,1,0-1.3h8.6a.65.65,0,1,1,0,1.3Z"/><path class="cls-1" d="M326.79,248.26h-8.6a.65.65,0,1,1,0-1.3h8.6a.65.65,0,0,1,0,1.3Z"/><path class="cls-1" d="M339.33,248.26h-8.6a.65.65,0,1,1,0-1.3h8.6a.65.65,0,1,1,0,1.3Z"/><path class="cls-1" d="M351.87,248.26h-8.61a.65.65,0,1,1,0-1.3h8.61a.65.65,0,0,1,0,1.3Z"/><path class="cls-1" d="M364.4,248.26h-8.6a.65.65,0,1,1,0-1.3h8.6a.65.65,0,1,1,0,1.3Z"/><path class="cls-1" d="M376.94,248.26h-8.6a.65.65,0,1,1,0-1.3h8.6a.65.65,0,0,1,0,1.3Z"/><path class="cls-1" d="M389.48,248.26h-8.6a.65.65,0,1,1,0-1.3h8.6a.65.65,0,0,1,0,1.3Z"/><path class="cls-1" d="M402,248.26h-8.61a.65.65,0,1,1,0-1.3H402a.65.65,0,1,1,0,1.3Z"/><path class="cls-14" d="M417.57,256.07H189.44a12.67,12.67,0,0,1,12.67-12.67H404.9a12.68,12.68,0,0,1,12.67,12.67Z"/><path class="cls-15" d="M192.08,249.74a9,9,0,0,1,9.63-6.35H404.46a10.78,10.78,0,0,1,11.15,6.14Z"/><path class="cls-1" d="M417.93,257.69H189.8a1.1,1.1,0,0,1-1.1-1.1,13.79,13.79,0,0,1,13.77-13.77H405.26A13.79,13.79,0,0,1,419,256.59,1.1,1.1,0,0,1,417.93,257.69Zm-227-2.2H416.78A11.59,11.59,0,0,0,405.26,245H202.47A11.59,11.59,0,0,0,191,255.49Z"/><line class="cls-14" x1="202.76" y1="247.61" x2="194.16" y2="247.61"/><line class="cls-14" x1="215.3" y1="247.61" x2="206.7" y2="247.61"/><line class="cls-14" x1="227.84" y1="247.61" x2="219.24" y2="247.61"/><line class="cls-14" x1="240.38" y1="247.61" x2="231.77" y2="247.61"/><line class="cls-14" x1="252.91" y1="247.61" x2="244.31" y2="247.61"/><line class="cls-14" x1="265.45" y1="247.61" x2="256.85" y2="247.61"/><line class="cls-14" x1="277.99" y1="247.61" x2="269.38" y2="247.61"/><line class="cls-14" x1="290.52" y1="247.61" x2="281.92" y2="247.61"/><line class="cls-14" x1="303.06" y1="247.61" x2="294.46" y2="247.61"/><line class="cls-14" x1="315.6" y1="247.61" x2="307" y2="247.61"/><line class="cls-14" x1="328.14" y1="247.61" x2="319.53" y2="247.61"/><line class="cls-14" x1="340.67" y1="247.61" x2="332.07" y2="247.61"/><line class="cls-14" x1="353.21" y1="247.61" x2="344.61" y2="247.61"/><line class="cls-14" x1="365.75" y1="247.61" x2="357.15" y2="247.61"/><line class="cls-14" x1="378.29" y1="247.61" x2="369.68" y2="247.61"/><line class="cls-14" x1="390.82" y1="247.61" x2="382.22" y2="247.61"/><path class="cls-1" d="M202.76,248.26h-8.6a.65.65,0,1,1,0-1.3h8.6a.65.65,0,1,1,0,1.3Z"/><path class="cls-1" d="M215.3,248.26h-8.6a.65.65,0,1,1,0-1.3h8.6a.65.65,0,1,1,0,1.3Z"/><path class="cls-1" d="M227.84,248.26h-8.6a.65.65,0,1,1,0-1.3h8.6a.65.65,0,1,1,0,1.3Z"/><path class="cls-1" d="M240.38,248.26h-8.61a.65.65,0,1,1,0-1.3h8.61a.65.65,0,0,1,0,1.3Z"/><path class="cls-1" d="M252.91,248.26h-8.6a.65.65,0,1,1,0-1.3h8.6a.65.65,0,1,1,0,1.3Z"/><path class="cls-1" d="M265.45,248.26h-8.6a.65.65,0,1,1,0-1.3h8.6a.65.65,0,1,1,0,1.3Z"/><path class="cls-1" d="M278,248.26h-8.61a.65.65,0,1,1,0-1.3H278a.65.65,0,0,1,0,1.3Z"/><path class="cls-1" d="M290.52,248.26h-8.6a.65.65,0,1,1,0-1.3h8.6a.65.65,0,1,1,0,1.3Z"/><path class="cls-1" d="M303.06,248.26h-8.6a.65.65,0,1,1,0-1.3h8.6a.65.65,0,0,1,0,1.3Z"/><path class="cls-1" d="M315.6,248.26H307a.65.65,0,1,1,0-1.3h8.6a.65.65,0,0,1,0,1.3Z"/><path class="cls-1" d="M328.14,248.26h-8.61a.65.65,0,1,1,0-1.3h8.61a.65.65,0,1,1,0,1.3Z"/><path class="cls-1" d="M340.67,248.26h-8.6a.65.65,0,1,1,0-1.3h8.6a.65.65,0,0,1,0,1.3Z"/><path class="cls-1" d="M353.21,248.26h-8.6a.65.65,0,1,1,0-1.3h8.6a.65.65,0,1,1,0,1.3Z"/><path class="cls-1" d="M365.75,248.26h-8.6a.65.65,0,1,1,0-1.3h8.6a.65.65,0,0,1,0,1.3Z"/><path class="cls-1" d="M378.29,248.26h-8.61a.65.65,0,1,1,0-1.3h8.61a.65.65,0,0,1,0,1.3Z"/><path class="cls-1" d="M390.82,248.26h-8.6a.65.65,0,1,1,0-1.3h8.6a.65.65,0,1,1,0,1.3Z"/><path class="cls-14" d="M406.37,256.07H178.25a12.67,12.67,0,0,1,12.67-12.67H393.7a12.67,12.67,0,0,1,12.67,12.67Z"/><path class="cls-15" d="M180.88,249.74a9,9,0,0,1,9.63-6.35H393.27a10.77,10.77,0,0,1,11.14,6.14Z"/><path class="cls-1" d="M406.74,257.69H178.61a1.1,1.1,0,0,1-1.1-1.1,13.79,13.79,0,0,1,13.77-13.77H394.06a13.79,13.79,0,0,1,13.78,13.77A1.1,1.1,0,0,1,406.74,257.69Zm-227-2.2H405.58A11.58,11.58,0,0,0,394.06,245H191.28A11.59,11.59,0,0,0,179.76,255.49Z"/><polygon class="cls-16" points="94.01 80.73 63.93 80.73 63.93 78.99 92.27 78.99 92.27 57.99 130.16 57.99 130.16 59.73 94.01 59.73 94.01 80.73"/><polygon class="cls-16" points="125.59 101.39 78.13 101.39 78.13 80.86 79.88 80.86 79.88 99.65 125.59 99.65 125.59 101.39"/><rect class="cls-16" x="97.04" y="78.99" width="19.23" height="1.74"/><path class="cls-16" d="M75.88,122.39H28.25V99.65H75.88ZM30,120.65H74.13V101.39H30Z"/><polygon class="cls-16" points="478.57 308.33 448.49 308.33 448.49 306.59 476.83 306.59 476.83 285.6 514.72 285.6 514.72 287.34 478.57 287.34 478.57 308.33"/><polygon class="cls-16" points="510.16 329 462.7 329 462.7 308.46 464.44 308.46 464.44 327.25 510.16 327.25 510.16 329"/><rect class="cls-16" x="481.61" y="306.59" width="19.23" height="1.74"/><path class="cls-16" d="M460.44,350H412.81V327.25h47.63Zm-45.88-1.74H458.7V329H414.56Z"/><polygon class="cls-16" points="514.53 35.58 484.45 35.58 484.45 33.84 512.79 33.84 512.79 12.84 550.68 12.84 550.68 14.58 514.53 14.58 514.53 35.58"/><polygon class="cls-16" points="546.12 56.24 498.66 56.24 498.66 35.71 500.4 35.71 500.4 54.5 546.12 54.5 546.12 56.24"/><rect class="cls-16" x="517.57" y="33.84" width="19.23" height="1.74"/><path class="cls-16" d="M496.4,77.24H448.78V54.5H496.4ZM450.52,75.5h44.14V56.24H450.52Z"/><polygon class="cls-16" points="221.1 316.9 191.02 316.9 191.02 315.16 219.35 315.16 219.35 294.17 257.25 294.17 257.25 295.91 221.1 295.91 221.1 316.9"/><polygon class="cls-16" points="252.68 337.57 205.22 337.57 205.22 317.03 206.97 317.03 206.97 335.82 252.68 335.82 252.68 337.57"/><rect class="cls-16" x="224.13" y="315.16" width="19.23" height="1.74"/><path class="cls-16" d="M203,358.56H155.34V335.83H203Zm-45.89-1.74h44.14V337.57H157.08Z"/><rect class="cls-2" x="109.53" y="1.37" width="371.58" height="221.36"/><rect class="cls-2" x="124" y="14.57" width="342.64" height="194.96"/><rect class="cls-17" x="124.75" y="14.01" width="341.89" height="195.52"/><rect class="cls-11" x="124.75" y="201.17" width="341.89" height="8.36"/><rect class="cls-11" x="124.75" y="15.94" width="341.89" height="8.36"/><rect class="cls-11" x="136.56" y="15.94" width="9.56" height="193.59"/><rect class="cls-18" x="124" y="15.66" width="12.04" height="192.98"/><rect class="cls-19" x="516.46" y="277.9" width="18.39" height="163.5"/><path class="cls-1" d="M534.84,442.77H516.46a1.37,1.37,0,0,1-1.37-1.37V277.9a1.36,1.36,0,0,1,1.37-1.36h18.38a1.36,1.36,0,0,1,1.37,1.36V441.4A1.37,1.37,0,0,1,534.84,442.77Zm-17-2.74h15.66V279.27H517.82Z"/><rect class="cls-20" x="509.43" y="277.9" width="18.39" height="163.5"/><rect class="cls-19" x="509.43" y="277.9" width="18.39" height="8.86"/><path class="cls-1" d="M527.82,442.76H509.43a1.36,1.36,0,0,1-1.36-1.36V277.9a1.36,1.36,0,0,1,1.36-1.36h18.39a1.36,1.36,0,0,1,1.36,1.36V441.4A1.36,1.36,0,0,1,527.82,442.76Zm-17-2.72h15.67V279.26H510.79Z"/><rect class="cls-19" x="37.46" y="277.9" width="18.39" height="163.5"/><path class="cls-1" d="M55.85,442.77H37.46a1.37,1.37,0,0,1-1.37-1.37V277.9a1.37,1.37,0,0,1,1.37-1.36H55.85a1.36,1.36,0,0,1,1.37,1.36V441.4A1.37,1.37,0,0,1,55.85,442.77Zm-17-2.74H54.48V279.27H38.83Z"/><rect class="cls-20" x="30.44" y="277.9" width="18.39" height="163.5"/><rect class="cls-19" x="30.44" y="277.9" width="18.39" height="8.86"/><path class="cls-1" d="M48.83,442.77H30.44a1.37,1.37,0,0,1-1.37-1.37V277.9a1.36,1.36,0,0,1,1.37-1.36H48.83a1.36,1.36,0,0,1,1.36,1.36V441.4A1.36,1.36,0,0,1,48.83,442.77Zm-17-2.74H47.46V279.27H31.81Z"/><path class="cls-21" d="M49,441.53H30.31V277.78H49Zm-18.39-.25H48.7V278H30.56Z"/><polyline class="cls-22" points="39.3 256.02 566.69 256.02 566.69 278.68 18.75 278.68 18.75 256.02 25.49 256.02"/><rect class="cls-20" x="1.5" y="256.03" width="554.03" height="22.65"/><rect class="cls-23" x="1.5" y="256.03" width="554.03" height="5.43"/><rect class="cls-19" x="1.5" y="273.02" width="554.03" height="5.43"/><path class="cls-1" d="M31.53,274.07H1.11a.76.76,0,0,1-.76-.76.75.75,0,0,1,.76-.75H31.53a.74.74,0,0,1,.75.75A.75.75,0,0,1,31.53,274.07Z"/><path class="cls-1" d="M35.9,302.17a.75.75,0,0,1-.21,0,.77.77,0,0,1-.52-.94l2.45-8.53a.74.74,0,0,1,.93-.52.75.75,0,0,1,.52.93l-2.44,8.54A.76.76,0,0,1,35.9,302.17Z"/><path class="cls-1" d="M37.67,307.29l-.21,0a.74.74,0,0,1-.51-.93l4.85-16.94a.76.76,0,1,1,1.46.42L38.4,306.75A.75.75,0,0,1,37.67,307.29Z"/><path class="cls-1" d="M423.83,57.83a.76.76,0,0,1-.73-1l2.45-8.54a.77.77,0,0,1,.94-.52.76.76,0,0,1,.51.94l-2.44,8.53A.76.76,0,0,1,423.83,57.83Z"/><path class="cls-1" d="M425.61,63l-.21,0a.76.76,0,0,1-.52-.94l4.85-16.93a.76.76,0,0,1,1.46.41L426.33,62.4A.75.75,0,0,1,425.61,63Z"/><path class="cls-1" d="M515.31,322.21l-.21,0a.77.77,0,0,1-.52-.94l2.45-8.53a.75.75,0,0,1,.93-.52.74.74,0,0,1,.52.93L516,321.66A.77.77,0,0,1,515.31,322.21Z"/><path class="cls-1" d="M517.08,327.32l-.2,0a.74.74,0,0,1-.52-.93l4.85-16.94a.76.76,0,0,1,1.46.42l-4.86,16.94A.75.75,0,0,1,517.08,327.32Z"/><path class="cls-24" d="M555,270.84c-39.44-.38-84.41-2.16-127.89-3.88-42.75-1.7-83.14-3.29-112.63-3.29-32.12,0-57.43,1.7-84.22,3.5-15.32,1-31.15,2.09-49.19,2.91-36.34,1-144.54-.66-179.37-4.91l.17-1.42c34.78,4.25,142.86,5.92,179.15,4.91,18-.82,33.84-1.88,49.14-2.91,26.82-1.81,52.15-3.51,84.32-3.51,29.52,0,69.92,1.6,112.69,3.29,43.47,1.72,88.42,3.51,127.84,3.88Z"/><path class="cls-24" d="M313.54,272.41a632.85,632.85,0,0,1-64.77-3.94C189.49,263,58.15,263.9,2.23,270.08l-.16-1.42c56-6.18,187.48-7,246.84-1.61A630.65,630.65,0,0,0,313.54,271c29.5,0,69.89-1.6,112.65-3.3,43.47-1.72,88.43-3.5,127.87-3.88v1.43c-39.41.38-84.36,2.16-127.83,3.88C383.47,270.81,343.07,272.41,313.54,272.41Z"/><path class="cls-1" d="M555.4,280.25H1.37A1.37,1.37,0,0,1,0,278.88V256.23a1.37,1.37,0,0,1,1.37-1.37H8.21a1.37,1.37,0,1,1,0,2.73H2.74v19.93H554V257.59H18.23a1.37,1.37,0,1,1,0-2.73H555.4a1.36,1.36,0,0,1,1.36,1.37v22.65A1.36,1.36,0,0,1,555.4,280.25Z"/><path class="cls-1" d="M568,280.24H548.42a1.36,1.36,0,1,1,0-2.71h18.23V257.58H548.42a1.36,1.36,0,1,1,0-2.71H568a1.36,1.36,0,0,1,1.36,1.36v22.65A1.36,1.36,0,0,1,568,280.24Z"/><path class="cls-1" d="M136,209.86a1.22,1.22,0,0,1-1.22-1.22V15.07a1.22,1.22,0,1,1,2.44,0V208.64A1.22,1.22,0,0,1,136,209.86Z"/><path class="cls-11" d="M213.12,70.45a2,2,0,0,1-2-2V45.2a2,2,0,1,1,4,0V68.45A2,2,0,0,1,213.12,70.45Z"/><path class="cls-25" d="M213.12,59.45a2,2,0,0,1-2-2V52.2a2,2,0,1,1,4,0v5.25A2,2,0,0,1,213.12,59.45Z"/><path class="cls-11" d="M213.12,38a2,2,0,0,1-2-2V31.54a2,2,0,1,1,4,0V36A2,2,0,0,1,213.12,38Z"/><polygon class="cls-12" points="225.22 209.53 215.22 209.53 251.22 14.57 261.22 14.57 225.22 209.53"/><polygon class="cls-12" points="282.44 209.53 240.44 209.53 276.44 14.57 318.44 14.57 282.44 209.53"/><path class="cls-3" d="M126.25,197.07a2,2,0,0,1-2-2V146.45a2,2,0,0,1,4,0v48.62A2,2,0,0,1,126.25,197.07Z"/><path class="cls-3" d="M126.25,79.33a2,2,0,0,1-2-2V28.71a2,2,0,0,1,4,0V77.33A2,2,0,0,1,126.25,79.33Z"/><path class="cls-3" d="M126.25,122a2,2,0,0,1-2-2V100.52a2,2,0,1,1,4,0V120A2,2,0,0,1,126.25,122Z"/><path class="cls-3" d="M121.55,151a2,2,0,0,1-2-2V137.51a2,2,0,0,1,4,0V149A2,2,0,0,1,121.55,151Z"/><path class="cls-3" d="M121.55,46.49a2,2,0,0,1-2-2V33a2,2,0,0,1,4,0V44.49A2,2,0,0,1,121.55,46.49Z"/><path class="cls-3" d="M191,13.55H179.56a2,2,0,0,1,0-4H191a2,2,0,0,1,0,4Z"/><path class="cls-26" d="M152.23,7.15H132.78a2.5,2.5,0,1,1,0-5h19.45a2.5,2.5,0,0,1,0,5Z"/><path class="cls-26" d="M221.88,7.15H202.43a2.5,2.5,0,1,1,0-5h19.45a2.5,2.5,0,0,1,0,5Z"/><path class="cls-26" d="M289.16,7.15H269.72a2.5,2.5,0,0,1,0-5h19.44a2.5,2.5,0,0,1,0,5Z"/><path class="cls-3" d="M121.55,193.12a2,2,0,0,1-2-2V171.67a2,2,0,0,1,4,0v19.45A2,2,0,0,1,121.55,193.12Z"/><path class="cls-1" d="M210.2,210.44a1.37,1.37,0,0,1-1.37-1.37V178a1.37,1.37,0,0,1,2.74,0v31.06A1.37,1.37,0,0,1,210.2,210.44Z"/><path class="cls-1" d="M210.2,169.22a1.37,1.37,0,0,1-1.37-1.37v-55.7a1.37,1.37,0,0,1,2.74,0v55.7A1.37,1.37,0,0,1,210.2,169.22Z"/><path class="cls-1" d="M210.2,101.89a1.37,1.37,0,0,1-1.37-1.37V15.94a1.37,1.37,0,0,1,2.74,0v84.58A1.37,1.37,0,0,1,210.2,101.89Z"/><path class="cls-1" d="M295.66,210.44a1.37,1.37,0,0,1-1.37-1.37V47.85a1.37,1.37,0,0,1,2.74,0V209.07A1.37,1.37,0,0,1,295.66,210.44Z"/><path class="cls-1" d="M295.66,40.13a1.37,1.37,0,0,1-1.37-1.37V15.94a1.37,1.37,0,0,1,2.74,0V38.76A1.37,1.37,0,0,1,295.66,40.13Z"/><path class="cls-1" d="M381.11,210.44a1.36,1.36,0,0,1-1.36-1.37V54.82a1.37,1.37,0,0,1,2.73,0V209.07A1.37,1.37,0,0,1,381.11,210.44Z"/><path class="cls-1" d="M381.11,46.56a1.36,1.36,0,0,1-1.36-1.36V15.94a1.37,1.37,0,0,1,2.73,0V45.2A1.36,1.36,0,0,1,381.11,46.56Z"/><path class="cls-1" d="M109.53,146.27a1.36,1.36,0,0,1-1.36-1.37V38.76a1.37,1.37,0,1,1,2.73,0V144.9A1.37,1.37,0,0,1,109.53,146.27Z"/><path class="cls-1" d="M481.11,224.1H109.53a1.36,1.36,0,0,1-1.36-1.37V155.3a1.37,1.37,0,1,1,2.73,0v66.06H479.74V2.74H254.25a1.37,1.37,0,0,1,0-2.74H481.11a1.37,1.37,0,0,1,1.37,1.37V222.73A1.37,1.37,0,0,1,481.11,224.1Z"/><path class="cls-1" d="M109.53,28.61a1.37,1.37,0,0,1-1.36-1.37V1.37A1.36,1.36,0,0,1,109.53,0H240.44a1.37,1.37,0,1,1,0,2.74H110.9v24.5A1.37,1.37,0,0,1,109.53,28.61Z"/><path class="cls-1" d="M466.64,210.9H124a1.36,1.36,0,0,1-1.36-1.37v-195A1.36,1.36,0,0,1,124,13.2H466.64A1.37,1.37,0,0,1,468,14.57v195A1.37,1.37,0,0,1,466.64,210.9Zm-341.27-2.74h339.9V15.94H125.37Z"/><path class="cls-1" d="M465.7,81.23H354a1.37,1.37,0,0,1,0-2.74H465.7a1.37,1.37,0,0,1,0,2.74Z"/><path class="cls-1" d="M341.88,81.23H125.31a1.37,1.37,0,0,1,0-2.74H341.88a1.37,1.37,0,0,1,0,2.74Z"/><path class="cls-1" d="M465.7,146.27H349.22a1.37,1.37,0,0,1,0-2.74H465.7a1.37,1.37,0,0,1,0,2.74Z"/><path class="cls-1" d="M337.36,146.27h-212a1.37,1.37,0,0,1,0-2.74H337.36a1.37,1.37,0,0,1,0,2.74Z"/><path class="cls-5" d="M392.6,73.8h24.86a6.38,6.38,0,0,1,6.37,6.38v156a6.38,6.38,0,0,1-6.37,6.38h-239a6.38,6.38,0,0,1-6.37-6.38V211.81"/><path class="cls-1" d="M173.1,175a1.34,1.34,0,0,1-1.33-1.33V80.17a1.33,1.33,0,0,1,2.66,0V173.7A1.33,1.33,0,0,1,173.1,175Z"/><rect class="cls-4" x="163.83" y="73.44" width="251.7" height="168.76" rx="6.37"/><path class="cls-5" d="M415.56,231.43v6.92c0,2.12-2.83,3.91-6.46,3.91H170.26c-3.63,0-6.46-1.79-6.46-3.91v-6.92c0,2.2,2.83,3.91,6.46,3.91H409.1C412.73,235.34,415.56,233.63,415.56,231.43Z"/><path class="cls-1" d="M416.07,111.09a1.37,1.37,0,0,1-1.37-1.37V80.17a5,5,0,0,0-5-5H227.22a1.37,1.37,0,0,1,0-2.74H409.7a7.76,7.76,0,0,1,7.74,7.74v29.55A1.37,1.37,0,0,1,416.07,111.09Z"/><path class="cls-1" d="M164.37,200.84a1.37,1.37,0,0,1-1.37-1.37v-14.7a1.37,1.37,0,1,1,2.74,0v14.7A1.37,1.37,0,0,1,164.37,200.84Z"/><rect class="cls-10" x="177.51" y="86.54" width="227.18" height="144.89"/><rect class="cls-27" x="177.51" y="86.54" width="227.18" height="4.39"/><rect class="cls-28" x="178.4" y="230.19" width="225.81" height="0.91"/><path class="cls-1" d="M218.2,75H198.76a1.37,1.37,0,0,1,0-2.74H218.2a1.37,1.37,0,0,1,0,2.74Z"/><polygon class="cls-29" points="276.1 230.6 270.52 230.6 306.04 85.14 311.62 85.14 276.1 230.6"/><polygon class="cls-30" points="300.75 230.6 283.33 230.6 318.86 85.14 336.28 85.14 300.75 230.6"/><polygon class="cls-29" points="253.52 230.6 247.95 230.6 283.47 85.14 289.05 85.14 253.52 230.6"/><path class="cls-1" d="M416.07,123.05a.92.92,0,0,1-.92-.92v-6.71a.92.92,0,1,1,1.84,0v6.71A.92.92,0,0,1,416.07,123.05Z"/><path class="cls-31" d="M175.56,217.85a1.5,1.5,0,0,1-1.5-1.5V196.9a1.5,1.5,0,0,1,3,0v19.45A1.5,1.5,0,0,1,175.56,217.85Z"/><path class="cls-31" d="M175.56,186.05a1.5,1.5,0,0,1-1.5-1.5V175.1a1.5,1.5,0,1,1,3,0v9.45A1.5,1.5,0,0,1,175.56,186.05Z"/><path class="cls-31" d="M414.15,217.85a1.5,1.5,0,0,1-1.5-1.5V196.9a1.5,1.5,0,1,1,3,0v19.45A1.5,1.5,0,0,1,414.15,217.85Z"/><path class="cls-31" d="M414.15,186.05a1.5,1.5,0,0,1-1.5-1.5V175.1a1.5,1.5,0,0,1,3,0v9.45A1.5,1.5,0,0,1,414.15,186.05Z"/><path class="cls-32" d="M421.77,217.85a1.5,1.5,0,0,1-1.5-1.5V196.9a1.5,1.5,0,1,1,3,0v19.45A1.5,1.5,0,0,1,421.77,217.85Z"/><path class="cls-32" d="M421.77,186.05a1.5,1.5,0,0,1-1.5-1.5V175.1a1.5,1.5,0,0,1,3,0v9.45A1.5,1.5,0,0,1,421.77,186.05Z"/><path class="cls-31" d="M175.56,115.92a1.5,1.5,0,0,1-1.5-1.5V95a1.5,1.5,0,1,1,3,0v19.45A1.5,1.5,0,0,1,175.56,115.92Z"/><path class="cls-8" d="M165.9,128.44a1.5,1.5,0,0,1-1.5-1.5V107.49a1.5,1.5,0,1,1,3,0v19.45A1.5,1.5,0,0,1,165.9,128.44Z"/><path class="cls-8" d="M165.9,169.41a1.5,1.5,0,0,1-1.5-1.5V148.46a1.5,1.5,0,0,1,3,0v19.45A1.5,1.5,0,0,1,165.9,169.41Z"/><path class="cls-27" d="M179.33,153.85a1.5,1.5,0,0,1-1.5-1.5V137.91a1.5,1.5,0,0,1,3,0v14.44A1.5,1.5,0,0,1,179.33,153.85Z"/><path class="cls-27" d="M179.33,221.5a1.5,1.5,0,0,1-1.5-1.5V205.55a1.5,1.5,0,0,1,3,0V220A1.5,1.5,0,0,1,179.33,221.5Z"/><path class="cls-27" d="M179.33,190.33a1.5,1.5,0,0,1-1.5-1.5V177.39a1.5,1.5,0,0,1,3,0v11.44A1.5,1.5,0,0,1,179.33,190.33Z"/><path class="cls-27" d="M179.33,110.79a1.5,1.5,0,0,1-1.5-1.5V97.85a1.5,1.5,0,0,1,3,0v11.44A1.5,1.5,0,0,1,179.33,110.79Z"/><path class="cls-1" d="M404.52,232.4H177.35A1.37,1.37,0,0,1,176,231v-65.3a1.37,1.37,0,1,1,2.73,0v63.93H403.16V86.71H178.72v38a1.37,1.37,0,1,1-2.73,0V85.34A1.36,1.36,0,0,1,177.35,84H404.52a1.36,1.36,0,0,1,1.37,1.36V231A1.37,1.37,0,0,1,404.52,232.4Z"/><path class="cls-1" d="M177.35,156.46a.92.92,0,0,1-.92-.92V133.27a.92.92,0,1,1,1.84,0v22.27A.92.92,0,0,1,177.35,156.46Z"/><path class="cls-1" d="M164.37,175.07A1.37,1.37,0,0,1,163,173.7V80.17a7.75,7.75,0,0,1,7.74-7.74h19.51a1.37,1.37,0,1,1,0,2.74H170.74a5,5,0,0,0-5,5V173.7A1.38,1.38,0,0,1,164.37,175.07Z"/><path class="cls-1" d="M409.7,243.93h-239a7.75,7.75,0,0,1-7.74-7.74V211.81a1.37,1.37,0,0,1,2.74,0v24.38a5,5,0,0,0,5,5h239a5,5,0,0,0,5-5V128.67a1.37,1.37,0,0,1,2.74,0V236.19A7.75,7.75,0,0,1,409.7,243.93Z"/><path class="cls-1" d="M417.46,243.93a1.37,1.37,0,1,1,0-2.73,5,5,0,0,0,5-5v-156a5,5,0,0,0-5-5H389.77a1.37,1.37,0,0,1,0-2.74h27.69a7.75,7.75,0,0,1,7.74,7.74v156A7.75,7.75,0,0,1,417.46,243.93Z"/><rect class="cls-4" x="447.75" y="97.26" width="93.63" height="157.96" rx="9.91"/><path class="cls-5" d="M541.38,238.44v8.64c0,4.19-4.43,7.58-9.91,7.58H457.66c-5.47,0-9.91-3.39-9.91-7.58v-8.64c0,4.18,4.44,7.57,9.91,7.57h73.81C537,246,541.38,242.62,541.38,238.44Z"/><rect class="cls-10" x="462.2" y="128.12" width="65.9" height="101.47" rx="6.74"/><g class="cls-33"><path class="cls-1" d="M518.73,183.65H471.09a1.58,1.58,0,0,1-1.58-1.58V169.44a1.58,1.58,0,0,1,1.58-1.58h47.64a1.58,1.58,0,0,1,1.58,1.58v12.63A1.58,1.58,0,0,1,518.73,183.65Zm-47-2.24h46.32V170.1H471.75Z"/><path class="cls-1" d="M512.7,176.31H476.27a1.12,1.12,0,0,1,0-2.24H512.7a1.12,1.12,0,0,1,0,2.24Z"/><path class="cls-1" d="M518.73,206.52H471.09a1.58,1.58,0,0,1-1.58-1.58V192.31a1.58,1.58,0,0,1,1.58-1.58h47.64a1.58,1.58,0,0,1,1.58,1.58v12.63A1.58,1.58,0,0,1,518.73,206.52Zm-47-2.24h46.32V193H471.75Z"/><path class="cls-1" d="M512.7,199.74H476.27a1.12,1.12,0,0,1,0-2.23H512.7a1.12,1.12,0,1,1,0,2.23Z"/></g><path class="cls-27" d="M527.54,217.05v5.52a6.75,6.75,0,0,1-6.74,6.75H468.38a6.75,6.75,0,0,1-6.74-6.75v-5.52a6.75,6.75,0,0,0,6.74,6.75H520.8A6.75,6.75,0,0,0,527.54,217.05Z"/><path class="cls-27" d="M461.64,140.37v-5.52a6.75,6.75,0,0,1,6.74-6.75H520.8a6.75,6.75,0,0,1,6.74,6.75v5.52a6.75,6.75,0,0,0-6.74-6.75H468.38A6.75,6.75,0,0,0,461.64,140.37Z"/><polygon class="cls-29" points="480.14 228.84 474.56 228.84 483.93 128.63 489.5 128.63 480.14 228.84"/><polygon class="cls-30" points="504.79 228.84 487.37 228.84 496.74 128.63 514.16 128.63 504.79 228.84"/><circle class="cls-6" cx="467.1" cy="111.52" r="4.38"/><circle class="cls-7" cx="467.1" cy="111.52" r="1.83"/><path class="cls-1" d="M467.1,116.9a5.38,5.38,0,1,1,5.37-5.38A5.38,5.38,0,0,1,467.1,116.9Zm0-8.76a3.38,3.38,0,1,0,3.37,3.38A3.39,3.39,0,0,0,467.1,108.14Z"/><path class="cls-8" d="M505.31,100.13H476a1.5,1.5,0,1,1,0-3h29.36a1.5,1.5,0,1,1,0,3Z"/><path class="cls-8" d="M526.11,100.13H513.4a1.5,1.5,0,0,1,0-3h12.71a1.5,1.5,0,0,1,0,3Z"/><path class="cls-1" d="M531.47,256.59H457.66a11.28,11.28,0,0,1-11.27-11.27V107.17a11.28,11.28,0,0,1,11.27-11.28h38.66a1.37,1.37,0,1,1,0,2.74H457.66a8.55,8.55,0,0,0-8.54,8.54V245.32a8.55,8.55,0,0,0,8.54,8.54h73.81a8.55,8.55,0,0,0,8.54-8.54V107.17a8.55,8.55,0,0,0-8.54-8.54h-27a1.37,1.37,0,0,1,0-2.74h27a11.29,11.29,0,0,1,11.28,11.28V245.32A11.28,11.28,0,0,1,531.47,256.59Z"/><path class="cls-12" d="M219.31,230.3h5.36a0,0,0,0,1,0,0v23A2.68,2.68,0,0,1,222,256h0a2.68,2.68,0,0,1-2.68-2.68v-23A0,0,0,0,1,219.31,230.3Z"/><rect class="cls-34" x="219.31" y="211.57" width="5.36" height="25.69"/><rect class="cls-12" x="209.42" y="225.85" width="25.72" height="7.52" rx="3.4"/><path class="cls-1" d="M222,257.05a3.73,3.73,0,0,1-3.73-3.74v-23a1,1,0,0,1,1.05-1.05h5.37a1,1,0,0,1,1,1.05v23A3.73,3.73,0,0,1,222,257.05Zm-1.62-25.69v21.95a1.63,1.63,0,1,0,3.25,0V231.36Z"/><rect class="cls-12" x="209.42" y="225.85" width="25.72" height="7.52" rx="3.4"/><rect class="cls-34" x="209.42" y="223.5" width="25.72" height="7.52" rx="3.4"/><path class="cls-1" d="M231.74,234.43H212.82a4.46,4.46,0,0,1-4.45-4.46v-.72a4.46,4.46,0,0,1,4.45-4.45h18.92a4.46,4.46,0,0,1,4.46,4.45V230A4.46,4.46,0,0,1,231.74,234.43Zm-18.92-7.52a2.34,2.34,0,0,0-2.34,2.34V230a2.34,2.34,0,0,0,2.34,2.34h18.92a2.35,2.35,0,0,0,2.35-2.34v-.72a2.35,2.35,0,0,0-2.35-2.34Z"/><rect class="cls-4" x="206.26" y="136.11" width="32.02" height="50.44" rx="4.43"/><path class="cls-5" d="M237.24,140.54v41.58a4.42,4.42,0,0,1-4.42,4.43H227a4.43,4.43,0,0,0,4.43-4.43V140.54a4.43,4.43,0,0,0-4.43-4.43h5.84A4.42,4.42,0,0,1,237.24,140.54Z"/><path class="cls-1" d="M233.62,187.91H210.45a5.8,5.8,0,0,1-5.79-5.79V140.53a5.79,5.79,0,0,1,5.79-5.78h23.17a5.79,5.79,0,0,1,5.78,5.78v41.59A5.8,5.8,0,0,1,233.62,187.91Zm-23.17-50.45a3.07,3.07,0,0,0-3.07,3.07v41.59a3.07,3.07,0,0,0,3.07,3.07h23.17a3.08,3.08,0,0,0,3.07-3.07V140.53a3.08,3.08,0,0,0-3.07-3.07Z"/><g class="cls-35"><path class="cls-1" d="M237.53,166.55H206.62a.5.5,0,0,1-.5-.5.5.5,0,0,1,.5-.5h30.91a.5.5,0,0,1,.5.5A.5.5,0,0,1,237.53,166.55Z"/><path class="cls-1" d="M237.53,163H206.62a.5.5,0,0,1,0-1h30.91a.5.5,0,0,1,0,1Z"/><path class="cls-1" d="M237.53,155.86H206.62a.5.5,0,0,1-.5-.5.5.5,0,0,1,.5-.5h30.91a.5.5,0,0,1,.5.5A.5.5,0,0,1,237.53,155.86Z"/><path class="cls-1" d="M237.53,152.3H206.62a.5.5,0,0,1,0-1h30.91a.5.5,0,1,1,0,1Z"/><path class="cls-1" d="M237.53,145.17H206.62a.5.5,0,0,1-.5-.5.5.5,0,0,1,.5-.5h30.91a.5.5,0,0,1,.5.5A.5.5,0,0,1,237.53,145.17Z"/><path class="cls-1" d="M237.53,141.61H206.62a.5.5,0,0,1-.5-.5.5.5,0,0,1,.5-.5h30.91a.5.5,0,0,1,.5.5A.5.5,0,0,1,237.53,141.61Z"/><path class="cls-1" d="M237.53,148.74H206.62a.5.5,0,0,1-.5-.5.5.5,0,0,1,.5-.5h30.91a.5.5,0,0,1,.5.5A.5.5,0,0,1,237.53,148.74Z"/><path class="cls-1" d="M237.53,159.43H206.62a.5.5,0,0,1-.5-.5.5.5,0,0,1,.5-.5h30.91a.5.5,0,0,1,.5.5A.5.5,0,0,1,237.53,159.43Z"/></g><g class="cls-35"><path class="cls-1" d="M209.56,171.05a.5.5,0,0,1-.5-.5V136.88a.5.5,0,0,1,1,0v33.67A.5.5,0,0,1,209.56,171.05Z"/><path class="cls-1" d="M213.12,171.05a.51.51,0,0,1-.5-.5V136.88a.5.5,0,0,1,.5-.5.5.5,0,0,1,.5.5v33.67A.5.5,0,0,1,213.12,171.05Z"/><path class="cls-1" d="M220.25,171.05a.5.5,0,0,1-.5-.5V136.88a.5.5,0,0,1,1,0v33.67A.5.5,0,0,1,220.25,171.05Z"/><path class="cls-1" d="M223.81,171.05a.51.51,0,0,1-.5-.5V136.88a.5.5,0,0,1,.5-.5.5.5,0,0,1,.5.5v33.67A.5.5,0,0,1,223.81,171.05Z"/><path class="cls-1" d="M230.94,171.05a.5.5,0,0,1-.5-.5V136.88a.5.5,0,0,1,.5-.5.5.5,0,0,1,.5.5v33.67A.51.51,0,0,1,230.94,171.05Z"/><path class="cls-1" d="M234.5,171.05a.51.51,0,0,1-.5-.5V136.88a.5.5,0,0,1,.5-.5.5.5,0,0,1,.5.5v33.67A.5.5,0,0,1,234.5,171.05Z"/><path class="cls-1" d="M227.38,171.05a.5.5,0,0,1-.5-.5V136.88a.5.5,0,0,1,.5-.5.5.5,0,0,1,.5.5v33.67A.51.51,0,0,1,227.38,171.05Z"/><path class="cls-1" d="M216.69,171.05a.5.5,0,0,1-.5-.5V136.88a.5.5,0,0,1,.5-.5.5.5,0,0,1,.5.5v33.67A.51.51,0,0,1,216.69,171.05Z"/></g><path class="cls-12" d="M211.89,171.83h20.78a7.67,7.67,0,0,1,7.67,7.67v41.31a7.63,7.63,0,0,1-7.63,7.63H211.85a7.63,7.63,0,0,1-7.63-7.63V179.5A7.67,7.67,0,0,1,211.89,171.83Z"/><path class="cls-34" d="M232.25,171.85a7.34,7.34,0,0,1,.18,1.63v3.68H205.11v2.4h20.36a7,7,0,0,1,7,7V214.8a7.63,7.63,0,0,1-7.63,7.63H204a1.62,1.62,0,0,1-.31,0,7.63,7.63,0,0,0,7.46,6H232a7.63,7.63,0,0,0,7.63-7.63V179.51A7.66,7.66,0,0,0,232.25,171.85Z"/><circle class="cls-6" cx="221.91" cy="213.3" r="4.38"/><path class="cls-1" d="M221.91,218.68a5.38,5.38,0,1,1,5.38-5.38A5.39,5.39,0,0,1,221.91,218.68Zm0-8.76a3.38,3.38,0,1,0,3.38,3.38A3.39,3.39,0,0,0,221.91,209.92Z"/><path class="cls-1" d="M232.71,229.8H211.85a9,9,0,0,1-9-9V179.5a9,9,0,0,1,9-9h20.78a9,9,0,0,1,9,9v41.31A9,9,0,0,1,232.71,229.8Zm-20.82-56.61a6.32,6.32,0,0,0-6.31,6.31v41.31a6.29,6.29,0,0,0,6.27,6.28h20.86a6.28,6.28,0,0,0,6.27-6.28V179.5a6.32,6.32,0,0,0-6.31-6.31Z"/><rect class="cls-12" x="200.63" y="171.36" width="43.3" height="5.32" rx="2.53"/><path class="cls-1" d="M241.4,177.84H203.17a3.71,3.71,0,0,1-3.71-3.7v-.25a3.71,3.71,0,0,1,3.71-3.7H241.4a3.7,3.7,0,0,1,3.7,3.7v.25A3.7,3.7,0,0,1,241.4,177.84Zm-38.23-5.31a1.36,1.36,0,0,0-1.37,1.36v.25a1.37,1.37,0,0,0,1.37,1.37H241.4a1.37,1.37,0,0,0,1.37-1.37v-.25a1.37,1.37,0,0,0-1.37-1.36Z"/><rect class="cls-12" x="198.91" y="186.97" width="18.21" height="3.19" rx="1.6" transform="translate(-46.48 70) rotate(-17.21)"/><path class="cls-1" d="M200.84,193.13a2.35,2.35,0,0,1-2.24-1.65,2.37,2.37,0,0,1,.17-1.79,2.3,2.3,0,0,1,1.38-1.14l14.35-4.45a2.34,2.34,0,0,1,1.78.17,2.34,2.34,0,0,1,1,3.16,2.34,2.34,0,0,1-1.38,1.15h0L201.54,193A2.42,2.42,0,0,1,200.84,193.13Zm14.35-7.63a.73.73,0,0,0-.25,0L200.59,190A.85.85,0,0,0,200,191a.84.84,0,0,0,1.05.55l14.35-4.44a.85.85,0,0,0,.5-.41.86.86,0,0,0,.06-.65.88.88,0,0,0-.41-.5A.93.93,0,0,0,215.19,185.5Zm.47,2.37h0Z"/><rect class="cls-12" x="198.91" y="193.62" width="18.21" height="3.19" rx="1.6" transform="translate(-48.45 70.3) rotate(-17.21)"/><path class="cls-1" d="M200.84,199.78a2.35,2.35,0,0,1-2.24-1.65,2.37,2.37,0,0,1,.17-1.79,2.3,2.3,0,0,1,1.38-1.14l14.35-4.45a2.35,2.35,0,0,1,2.93,1.55,2.35,2.35,0,0,1-1.54,2.93h0l-14.35,4.45A2.42,2.42,0,0,1,200.84,199.78Zm14.35-7.63a.73.73,0,0,0-.25,0l-14.35,4.44a.83.83,0,0,0-.49.41.82.82,0,0,0-.06.65.84.84,0,0,0,1.05.55l14.35-4.44a.84.84,0,0,0,.56-1.06.83.83,0,0,0-.41-.49A.82.82,0,0,0,215.19,192.15Zm.47,2.37h0Z"/><rect class="cls-12" x="198.91" y="200.27" width="18.21" height="3.19" rx="1.6" transform="translate(-50.42 70.6) rotate(-17.21)"/><path class="cls-1" d="M200.84,206.43a2.33,2.33,0,0,1-2.07-3.43,2.29,2.29,0,0,1,1.38-1.15l14.35-4.45a2.34,2.34,0,0,1,1.78.17,2.29,2.29,0,0,1,1.15,1.38,2.34,2.34,0,0,1-1.54,2.93h0l-14.35,4.45A2.42,2.42,0,0,1,200.84,206.43Zm14.35-7.63a.73.73,0,0,0-.25,0l-14.35,4.44a.85.85,0,0,0-.14,1.56.89.89,0,0,0,.64.06l14.35-4.45a.84.84,0,0,0,.56-1.06.83.83,0,0,0-.41-.49A.82.82,0,0,0,215.19,198.8Zm.47,2.37h0Z"/><rect class="cls-12" x="198.91" y="206.92" width="18.21" height="3.19" rx="1.6" transform="translate(-52.39 70.9) rotate(-17.21)"/><path class="cls-1" d="M200.85,213.08a2.33,2.33,0,0,1-2.08-3.43,2.29,2.29,0,0,1,1.38-1.15l14.35-4.45a2.35,2.35,0,0,1,1.39,4.49h0L201.54,213A2.35,2.35,0,0,1,200.85,213.08Zm14.34-7.63a.73.73,0,0,0-.25,0l-14.35,4.44A.85.85,0,0,0,200,211a.84.84,0,0,0,1.05.56l14.35-4.45a.84.84,0,0,0-.25-1.65Zm.47,2.37h0Z"/><rect class="cls-12" x="226.87" y="186.97" width="18.21" height="3.19" rx="1.6" transform="translate(405.57 438.51) rotate(-162.79)"/><path class="cls-1" d="M243.15,193.13a2.37,2.37,0,0,1-.7-.1l-14.35-4.45h0a2.35,2.35,0,0,1-.4-4.31,2.37,2.37,0,0,1,1.79-.17l14.35,4.45a2.34,2.34,0,0,1,1.54,2.93,2.3,2.3,0,0,1-1.14,1.38A2.34,2.34,0,0,1,243.15,193.13Zm-14.6-6,14.34,4.44a.82.82,0,0,0,.65-.06A.83.83,0,0,0,244,191a.84.84,0,0,0-.56-1.06l-14.34-4.44a.86.86,0,0,0-.65.05.88.88,0,0,0-.41.5.84.84,0,0,0,.56,1.06Z"/><rect class="cls-12" x="226.87" y="193.62" width="18.21" height="3.19" rx="1.6" transform="matrix(-0.96, -0.3, 0.3, -0.96, 403.6, 451.52)"/><path class="cls-1" d="M243.15,199.78a2.37,2.37,0,0,1-.7-.1l-14.35-4.45h0a2.34,2.34,0,0,1-1.54-2.93,2.3,2.3,0,0,1,1.14-1.38,2.33,2.33,0,0,1,1.79-.17l14.35,4.45a2.35,2.35,0,0,1,.4,4.31A2.34,2.34,0,0,1,243.15,199.78Zm-14.6-6,14.34,4.44a.82.82,0,0,0,.65-.06.83.83,0,0,0,.41-.49.84.84,0,0,0-.56-1.06l-14.34-4.44a.82.82,0,0,0-.65.06.83.83,0,0,0-.41.49.84.84,0,0,0,.56,1.06Z"/><rect class="cls-12" x="226.87" y="200.27" width="18.21" height="3.19" rx="1.6" transform="translate(401.64 464.52) rotate(-162.79)"/><path class="cls-1" d="M243.15,206.43a2.37,2.37,0,0,1-.7-.1l-14.35-4.45h0a2.34,2.34,0,0,1-1.54-2.93,2.3,2.3,0,0,1,1.14-1.38,2.37,2.37,0,0,1,1.79-.17l14.35,4.45a2.35,2.35,0,0,1,.4,4.31A2.34,2.34,0,0,1,243.15,206.43Zm-14.6-6,14.34,4.45a.91.91,0,0,0,.65-.06.88.88,0,0,0,.41-.5.84.84,0,0,0-.56-1.06l-14.34-4.44a.82.82,0,0,0-.65.06.83.83,0,0,0-.41.49.84.84,0,0,0,.56,1.06Z"/><rect class="cls-12" x="226.87" y="206.92" width="18.21" height="3.19" rx="1.6" transform="translate(399.67 477.52) rotate(-162.79)"/><path class="cls-1" d="M243.14,213.08a2.35,2.35,0,0,1-.69-.1l-14.35-4.44h0a2.35,2.35,0,0,1,1.39-4.49l14.35,4.45a2.34,2.34,0,0,1-.7,4.58Zm-14.59-6,14.34,4.45a.85.85,0,0,0,.5-1.62l-14.34-4.44a.84.84,0,1,0-.5,1.61Z"/><path class="cls-1" d="M223.7,223.06H205.25a.51.51,0,0,1-.5-.5.5.5,0,0,1,.5-.5H223.7a.5.5,0,0,1,.5.5A.5.5,0,0,1,223.7,223.06Z"/><path class="cls-1" d="M231.23,223.06h-4.45a.5.5,0,0,1-.5-.5.5.5,0,0,1,.5-.5h4.45a.5.5,0,0,1,.5.5A.51.51,0,0,1,231.23,223.06Z"/><path class="cls-31" d="M495.76,233.46H473.88a1.5,1.5,0,0,1,0-3h21.88a1.5,1.5,0,0,1,0,3Z"/><path class="cls-31" d="M516.79,233.46h-9.17a1.5,1.5,0,0,1,0-3h9.17a1.5,1.5,0,0,1,0,3Z"/><path class="cls-1" d="M521.36,231H469a8.12,8.12,0,0,1-8.12-8.11v-88a8.13,8.13,0,0,1,8.12-8.12h4.62a1.37,1.37,0,1,1,0,2.74H469a5.38,5.38,0,0,0-5.38,5.38v88a5.39,5.39,0,0,0,5.38,5.38h52.41a5.39,5.39,0,0,0,5.38-5.38v-88a5.38,5.38,0,0,0-5.38-5.38H481.65a1.37,1.37,0,0,1,0-2.74h39.71a8.13,8.13,0,0,1,8.12,8.12v88A8.12,8.12,0,0,1,521.36,231Z"/><text class="cls-36" transform="translate(360.79 111.44)">REC</text><circle class="cls-37" cx="355.15" cy="106.3" r="2.44"/></g></g></svg>