<svg xmlns="http://www.w3.org/2000/svg" viewBox="0 0 316.45 267.75"><defs><style>.cls-1{fill:#67f4aa;}.cls-2{fill:#29b260;}.cls-3{fill:#000201;}.cls-20,.cls-4{fill:#fff;}.cls-5{fill:#eceff6;}.cls-6{opacity:0.2;}.cls-7{fill:#c8d3d9;}.cls-8{fill:#f9a948;}.cls-9{fill:#ffd297;}.cls-10{fill:#d9e1e4;}.cls-11{fill:#b4bec1;}.cls-12,.cls-13{fill:#94b5bf;}.cls-12{opacity:0.4;}.cls-12,.cls-20{isolation:isolate;}.cls-14{fill:#ffede1;}.cls-15{fill:#d6393a;}.cls-16{fill:#ba2028;}.cls-17{fill:#f29530;}.cls-18{fill:#def6ff;}.cls-19{fill:#99cddd;}.cls-20{opacity:0.5;}.cls-21{fill:#a01d29;}</style></defs><g id="Layer_2" data-name="Layer 2"><g id="Layer_2-2" data-name="Layer 2"><path class="cls-1" d="M290.3,216.1a26.48,26.48,0,0,0-51.5,8.6v29.5l16.9.5h40.1a19.5,19.5,0,1,0-19.5-19.4h0"/><path class="cls-2" d="M273.65,236.25h0a1.46,1.46,0,0,1-1.44-1.47h0a22.16,22.16,0,0,1,15.32-20.56,1.58,1.58,0,0,1,1.92.95,1.49,1.49,0,0,1-.95,1.92,19.13,19.13,0,0,0-13.48,18A1.19,1.19,0,0,1,273.65,236.25Z"/><path class="cls-2" d="M315,235.6a19.46,19.46,0,0,1-19.5,19.5h-2.9a20.82,20.82,0,0,0,9.9-27.8,20.49,20.49,0,0,0-11.6-10.6,19.45,19.45,0,0,1,23.5,14.4A16.31,16.31,0,0,1,315,235.6Z"/><circle class="cls-2" cx="302.8" cy="229.3" r="3"/><circle class="cls-2" cx="300.6" cy="234.8" r="1.4"/><ellipse class="cls-2" cx="298.5" cy="231.4" rx="0.6" ry="0.9"/><path class="cls-3" d="M289.5,216.8a.75.75,0,0,1-.7-.5,25.94,25.94,0,0,0-7.3-10.8.78.78,0,0,1,0-1.1h0a.78.78,0,0,1,1.1,0h0a28.39,28.39,0,0,1,7.8,11.5.83.83,0,0,1-.5,1Z"/><path class="cls-3" d="M295.8,255.85H255.7l-16.93-.5a1.15,1.15,0,0,1-1.12-1.15V224.7a27.63,27.63,0,0,1,53.5-9.62,20.4,20.4,0,0,1,4.65-.53,20.65,20.65,0,0,1,0,41.3ZM240,253.08l15.78.47H295.8a18.35,18.35,0,1,0-18.35-18.25,1.15,1.15,0,0,1-2.3,0,20.78,20.78,0,0,1,13.78-19.57,25.51,25.51,0,0,0-32.05-14.84A25.26,25.26,0,0,0,240,224.7Z"/><path class="cls-2" d="M263.2,257.4l-1.9-2.2a10.48,10.48,0,0,0,.7-14.9,10.64,10.64,0,0,0-14.3-1.3h0l-1.9-2.2a13.49,13.49,0,0,1,19,1.7,13.35,13.35,0,0,1-1.6,18.9Z"/><path class="cls-3" d="M280.1,203.5h-.4a10.59,10.59,0,0,0-2-1.2.86.86,0,0,1-.4-1h0a.84.84,0,0,1,1.1-.4h0a25.29,25.29,0,0,1,2.2,1.3.73.73,0,0,1,.2,1.1h0A1.85,1.85,0,0,1,280.1,203.5Z"/><path class="cls-3" d="M275.3,201H275a26.66,26.66,0,0,0-12.2-1.7,1,1,0,0,1-.9-.7.78.78,0,0,1,.6-.9h2.9a26.66,26.66,0,0,1,10.1,1.9.88.88,0,0,1,.5,1,.58.58,0,0,1-.6.6Z"/><path class="cls-3" d="M261.1,257.4a.71.71,0,0,1-.6-.3.78.78,0,0,1,0-1.1,10.65,10.65,0,0,0-13.7-16.3.78.78,0,0,1-1.1-1.1h0a12.26,12.26,0,0,1,15.7,18.8Z"/><path class="cls-4" d="M257.9,205.1a1,1,0,0,1-1-1,1,1,0,0,1,.6-.9,22.71,22.71,0,0,1,10.6-1.6,1,1,0,0,1,.9,1h0a.9.9,0,0,1-.9.9H268a21.87,21.87,0,0,0-9.8,1.4Z"/><path class="cls-4" d="M252,209.5a1.42,1.42,0,0,1-.6-.2,1,1,0,0,1,0-1.4,25,25,0,0,1,2.3-2.3.93.93,0,0,1,1.3.1h0a.85.85,0,0,1,0,1.3h0a18.88,18.88,0,0,0-2,2A.88.88,0,0,1,252,209.5Z"/><path class="cls-1" d="M87.3,216.1a26.48,26.48,0,0,1,51.5,8.6v29.5l-16.9.5H81.8a19.5,19.5,0,1,1,19.5-19.5h0"/><path class="cls-2" d="M104.3,235.7h0a1.45,1.45,0,0,0,1.4-1.5h0A22.15,22.15,0,0,0,89.9,214a1.52,1.52,0,1,0-.9,2.9h0a19.13,19.13,0,0,1,13.9,17.7A1.24,1.24,0,0,0,104.3,235.7Z"/><path class="cls-2" d="M115.2,257.4l1.8-2.2A10.58,10.58,0,1,1,130.6,239h0l1.8-2.2a13.42,13.42,0,1,0-17.2,20.6Z"/><path class="cls-2" d="M62.6,235.6a19.46,19.46,0,0,0,19.5,19.5H85a20.82,20.82,0,0,1-9.9-27.8,20.49,20.49,0,0,1,11.6-10.6,19.45,19.45,0,0,0-23.5,14.4h0A16.31,16.31,0,0,0,62.6,235.6Z"/><circle class="cls-2" cx="74.7" cy="229.3" r="3"/><circle class="cls-2" cx="77" cy="234.8" r="1.4"/><ellipse class="cls-2" cx="79.1" cy="231.4" rx="0.6" ry="0.9"/><path class="cls-3" d="M88.1,216.8a.75.75,0,0,0,.7-.5,25.94,25.94,0,0,1,7.3-10.8.78.78,0,0,0,0-1.1h0a.78.78,0,0,0-1.1,0h0a26.54,26.54,0,0,0-7.8,11.5.69.69,0,0,0,.5,1Z"/><path class="cls-3" d="M98.4,203.5h.4a10.59,10.59,0,0,1,2-1.2.83.83,0,0,0-.7-1.5h0a25.29,25.29,0,0,0-2.2,1.3.71.71,0,0,0-.2,1.1h0A1.33,1.33,0,0,0,98.4,203.5Z"/><path class="cls-3" d="M103.3,201h.3a26.66,26.66,0,0,1,12.2-1.7.81.81,0,1,0,.2-1.6h-2.9a26.66,26.66,0,0,0-10.1,1.9.88.88,0,0,0-.5,1,.75.75,0,0,0,.7.5Z"/><path class="cls-3" d="M82.6,255.6h40.1a.79.79,0,0,0,.8-.8h0a.79.79,0,0,0-.8-.8H82.6a18.7,18.7,0,1,1,18.7-18.7h0a.76.76,0,1,0,1.5.3v-.3a20.2,20.2,0,1,0-20.2,20.2Z"/><path class="cls-3" d="M117.5,257.4a.71.71,0,0,0,.6-.3.78.78,0,0,0,0-1.1h0a10.65,10.65,0,0,1,13.7-16.3.78.78,0,0,0,1.1-1.1h0a12.26,12.26,0,0,0-15.7,18.8Z"/><path class="cls-4" d="M120.7,205.1a1,1,0,0,0,1-1,1,1,0,0,0-.6-.9,22.93,22.93,0,0,0-10.7-1.6,1,1,0,0,0-.9,1h0a.9.9,0,0,0,.9.9h.1a21.87,21.87,0,0,1,9.8,1.4C120.4,205.1,120.5,205.1,120.7,205.1Z"/><path class="cls-4" d="M126.6,209.5a1.42,1.42,0,0,0,.6-.2.85.85,0,0,0,0-1.3h0a25,25,0,0,0-2.3-2.3,1,1,0,0,0-1.3,1.5,18.88,18.88,0,0,1,2,2A1.69,1.69,0,0,0,126.6,209.5Z"/><path class="cls-5" d="M305.4,57.9a28.46,28.46,0,0,0-56.2-6.5,18.59,18.59,0,1,0-17.3,32.9,19.56,19.56,0,0,0,7.6,2.1h40.3A28.32,28.32,0,0,0,305.4,57.9Z"/><g class="cls-6"><path class="cls-7" d="M60.5,113.2A12.19,12.19,0,0,1,49,125.4H22.2a18.8,18.8,0,1,1,20.2-23.1,12.22,12.22,0,0,1,16.6,5h0a12,12,0,0,1,1.5,5.9Z"/><path class="cls-7" d="M24,125.5h0Z"/></g><g class="cls-6"><path class="cls-7" d="M113.8,160.5a12.19,12.19,0,0,1-11.5,12.2H75.7a18.84,18.84,0,1,1,20.2-23.1,12.33,12.33,0,0,1,16.6,4.9,12,12,0,0,1,1.5,5.9Z"/><path class="cls-7" d="M77.4,172.9h0Z"/></g><path class="cls-3" d="M74.9,108.1c-13.6,0-24.4-4.4-32-13.2-5-5.8-11.3-16.5-13-35.3A104.87,104.87,0,0,1,30,39.4c.1-.4.4-.7.8-.6s.7.4.6.8h0c0,.3-4.4,35.2,12.5,54.4,7.4,8.3,17.8,12.5,30.9,12.5a.68.68,0,0,1,.7.7c0,.4-.2.9-.6.9Z"/><path class="cls-3" d="M82.5,108.1c-13.6,0-24.4-4.4-32-13.2-5-5.8-11.3-16.5-13-35.3a97.41,97.41,0,0,1,0-20.2c.1-.4.4-.7.8-.6a.6.6,0,0,1,.6.7v.1c0,.3-4.4,35.2,12.5,54.4,7.4,8.4,17.8,12.7,30.9,12.7a.7.7,0,0,1,0,1.4Z"/><rect class="cls-8" x="15.2" y="32.6" width="85.7" height="7.2"/><rect class="cls-9" x="14.9" y="32.3" width="85.7" height="2.9"/><path class="cls-3" d="M100.8,40.3H15.2a.82.82,0,0,1-.8-.9V32.2a.9.9,0,0,1,.9-.9h85.6a.9.9,0,0,1,.9.9h0v7.2a.92.92,0,0,1-1,.9ZM16.1,38.5H100V33.1H16.1Z"/><rect class="cls-10" x="46.8" y="9.7" width="9" height="58.8"/><rect class="cls-11" x="50.4" y="9.7" width="3.9" height="58.8"/><rect class="cls-4" x="46.1" y="9.7" width="2.2" height="58.8"/><path class="cls-3" d="M54.7,69.2H45.9a.9.9,0,0,1-.9-.9V9.5a.9.9,0,0,1,.9-.9h8.8a.9.9,0,0,1,.9.9V68.3A.9.9,0,0,1,54.7,69.2Zm-8-1.8h7.2v-57H46.8Z"/><rect class="cls-9" x="54.7" y="0.7" width="8.2" height="254.5"/><rect class="cls-8" x="57.9" y="0.7" width="4.3" height="254.5"/><path class="cls-3" d="M54.5,133.9a.9.9,0,0,1-.9-.9h0v-4.8a.9.9,0,0,1,1.8,0V133a.9.9,0,0,1-.9.9Z"/><path class="cls-3" d="M54.5,141.9a.9.9,0,0,1-.9-.9h0v-2.7a.9.9,0,1,1,1.8,0v2.9A1,1,0,0,1,54.5,141.9Z"/><path class="cls-3" d="M62.7,256.5H54.5a.9.9,0,0,1-.9-.9v-110a.9.9,0,1,1,1.8,0v109h6.5V1.9H55.4V122.2a.9.9,0,1,1-1.8,0h0V.9a.9.9,0,0,1,.9-.9h8.2a.9.9,0,0,1,.9.9h0V255.5a.89.89,0,0,1-.8,1Z"/><path class="cls-3" d="M59.9,79.6a.47.47,0,0,1-.5-.5h0V73a.5.5,0,0,1,1,0v6.1A.54.54,0,0,1,59.9,79.6Z"/><path class="cls-3" d="M59.9,167.8a.54.54,0,0,1-.5-.5h0v-6.1a.5.5,0,0,1,1,0v6a.54.54,0,0,1-.5.5Z"/><path class="cls-3" d="M59.9,158.8a.54.54,0,0,1-.5-.5v-3.6a.5.5,0,0,1,1,0v3.6A.47.47,0,0,1,59.9,158.8Z"/><path class="cls-3" d="M21.9,36.9H15.8a.47.47,0,0,1-.5-.5h0a.47.47,0,0,1,.5-.5h6.1a.5.5,0,0,1,0,1Z"/><path class="cls-3" d="M29.8,36.9H25.1a.47.47,0,0,1-.5-.5.54.54,0,0,1,.5-.5h4.7a.5.5,0,1,1,0,1Z"/><path class="cls-3" d="M58.4,229.8a.47.47,0,0,1-.5-.5h0v-6.1a.5.5,0,0,1,1,0v6.1c.1.3-.2.5-.5.5Z"/><path class="cls-3" d="M.7,74a.68.68,0,0,1-.7-.7.75.75,0,0,1,.5-.7c18.6-4.8,19.2-32.5,19.2-32.8a.7.7,0,0,1,1.4,0,55.76,55.76,0,0,1-2.7,15.1C15,65.3,8.9,72,.7,74Z"/><path class="cls-3" d="M5.7,76.5a.68.68,0,0,1-.7-.7.75.75,0,0,1,.5-.7c18.6-4.8,19.2-35,19.2-35.3a.7.7,0,1,1,1.4,0,64.62,64.62,0,0,1-2.7,16.3C20,67.3,13.9,74.3,5.7,76.5Z"/><polyline class="cls-10" points="276.3 113 276.3 256.3 97.4 256.3 97.4 242.3 97.4 111.7"/><polyline class="cls-12" points="276.3 113 276.3 256.3 203.9 256.3 203.9 242.3 203.9 111.7"/><path class="cls-13" d="M276.9,129v12.9a13.08,13.08,0,0,1-2.9-8,12.8,12.8,0,0,1-25.6,0,12.81,12.81,0,0,1-25.6,0,12.81,12.81,0,0,1-25.6,0,12.81,12.81,0,0,1-25.6,0,12.81,12.81,0,0,1-25.6,0,12.8,12.8,0,0,1-25.6,0A12.78,12.78,0,0,1,97.8,142V129.1a12.82,12.82,0,0,0,18,1.7,13.17,13.17,0,0,0,4.7-9.8,12.8,12.8,0,1,0,25.6,0,12.81,12.81,0,0,0,25.6,0,12.81,12.81,0,0,0,25.6,0,12.81,12.81,0,0,0,25.6,0,12.81,12.81,0,0,0,25.6,0,12.8,12.8,0,0,0,25.6,0A12.4,12.4,0,0,0,276.9,129Z"/><path class="cls-13" d="M98.6,150.8h9.2A8.24,8.24,0,0,1,116,159h0v65.2a6.42,6.42,0,0,1-6.4,6.3H98.7V150.8Z"/><polygon class="cls-4" points="111 229.9 82.7 227.9 82.7 146.9 111 146.9 111 229.9"/><path class="cls-14" d="M111,146.4v83H82.6v-5.9h8.1a14.4,14.4,0,0,0,14.4-14.4h0V146.4Z"/><path class="cls-3" d="M111,230.85H82.7a1.14,1.14,0,0,1-1.15-1.15V197.3a1.15,1.15,0,1,1,2.3,0v31.25h26v-80.7h-26V165.7a1.15,1.15,0,0,1-2.3,0v-19a1.14,1.14,0,0,1,1.15-1.15H111a1.14,1.14,0,0,1,1.15,1.15v83A1.14,1.14,0,0,1,111,230.85Z"/><circle class="cls-15" cx="96.5" cy="165.9" r="6.8"/><circle class="cls-16" cx="98.6" cy="190.3" r="3.2"/><circle class="cls-15" cx="96.5" cy="188.4" r="6.8"/><circle class="cls-15" cx="96.5" cy="209.1" r="6.8"/><circle class="cls-14" cx="88.7" cy="223.2" r="2.4"/><circle class="cls-14" cx="93.3" cy="219.5" r="1.2"/><circle class="cls-14" cx="106.1" cy="197.9" r="2.2"/><path class="cls-3" d="M82.7,180a1.14,1.14,0,0,1-1.15-1.15v-5.6a1.15,1.15,0,0,1,2.3,0v5.6A1.14,1.14,0,0,1,82.7,180Z"/><path class="cls-3" d="M82.7,191.35a1.14,1.14,0,0,1-1.15-1.15v-4.8a1.15,1.15,0,1,1,2.3,0v4.8A1.14,1.14,0,0,1,82.7,191.35Z"/><circle class="cls-3" cx="97.4" cy="236" r="1.6"/><circle class="cls-7" cx="112.9" cy="117.6" r="4.9"/><circle class="cls-7" cx="213.1" cy="112" r="1"/><polyline class="cls-9" points="184.3 257 184.3 156.2 126.1 156.2 126.1 257"/><polyline class="cls-17" points="184.3 221.6 184.3 210.4 126.1 210.4 126.1 221.6"/><rect class="cls-18" x="197.2" y="154.9" width="66.5" height="53.6"/><path class="cls-3" d="M97.4,142.55a1.14,1.14,0,0,1-1.15-1.15v-9.8a1.15,1.15,0,1,1,2.3,0v9.8A1.14,1.14,0,0,1,97.4,142.55Z"/><path class="cls-19" d="M264.08,210H196.82V154.82h67.26Zm-62.5-4.76h57.74V159.58H201.58Z"/><polygon class="cls-20" points="156.2 156.2 151.4 156.2 125.2 194.1 125.3 201.2 156.2 156.2"/><polygon class="cls-4" points="172.6 156.2 166.8 156.2 134.4 203.3 134.4 210.4 172.6 156.2"/><polygon class="cls-4" points="183.7 156.2 175.6 156.2 143.2 203.3 145.6 210.4 183.7 156.2"/><path class="cls-3" d="M184.3,257.45a1.14,1.14,0,0,1-1.15-1.15V156.65h-55.9V256.3a1.15,1.15,0,1,1-2.3,0V155.5a1.14,1.14,0,0,1,1.15-1.15h58.2a1.14,1.14,0,0,1,1.15,1.15V256.3A1.14,1.14,0,0,1,184.3,257.45Z"/><path class="cls-3" d="M178.7,256.59a.79.79,0,0,1-.79-.79V162H132.19V255.8a.79.79,0,0,1-1.58,0V161.2a.79.79,0,0,1,.79-.79h47.3a.79.79,0,0,1,.79.79v94.6A.79.79,0,0,1,178.7,256.59Z"/><rect class="cls-9" x="120.5" y="199.7" width="69.1" height="17.6"/><rect class="cls-8" x="120.5" y="210.4" width="69.1" height="6.9"/><path class="cls-3" d="M189.6,218.45H120.5a1.14,1.14,0,0,1-1.15-1.15V199.7a1.14,1.14,0,0,1,1.15-1.15h69.1a1.14,1.14,0,0,1,1.15,1.15v17.6A1.14,1.14,0,0,1,189.6,218.45Zm-67.95-2.3h66.8v-15.3h-66.8Z"/><circle class="cls-4" cx="178.7" cy="208.5" r="4.3"/><path class="cls-3" d="M178.7,213.33a4.83,4.83,0,1,1,4.83-4.83A4.83,4.83,0,0,1,178.7,213.33Zm0-8.6a3.77,3.77,0,1,0,3.77,3.77A3.77,3.77,0,0,0,178.7,204.73Z"/><path class="cls-13" d="M197.2,209.1h68a2.42,2.42,0,0,1,2.4,2.3h0a2.35,2.35,0,0,1-2.4,2.3h-68a2.42,2.42,0,0,1-2.4-2.3h0A2.42,2.42,0,0,1,197.2,209.1Z"/><path class="cls-3" d="M136.3,205.45H120.5a.55.55,0,0,1,0-1.1h15.8a.55.55,0,1,1,0,1.1Z"/><path class="cls-3" d="M129.1,208.25h-8.6a.55.55,0,1,1,0-1.1h8.6a.55.55,0,0,1,0,1.1Z"/><path class="cls-3" d="M152.6,173.75a3.25,3.25,0,1,1,3.25-3.25A3.26,3.26,0,0,1,152.6,173.75Zm0-5.4a2.15,2.15,0,1,0,2.15,2.15A2.15,2.15,0,0,0,152.6,168.35Z"/><path class="cls-3" d="M145.3,193.05l-.15,0a.56.56,0,0,1-.38-.68l5.8-19.7a.55.55,0,0,1,.68-.38.56.56,0,0,1,.38.68l-5.8,19.7A.56.56,0,0,1,145.3,193.05Z"/><path class="cls-3" d="M159,193.05a.56.56,0,0,1-.53-.4l-5.5-19.4A.55.55,0,1,1,154,173l5.5,19.4a.56.56,0,0,1-.38.68Z"/><rect class="cls-4" x="134.2" y="192.5" width="39.1" height="12.5"/><path class="cls-3" d="M173.3,206.15H134.2a1.14,1.14,0,0,1-1.15-1.15V192.5a1.14,1.14,0,0,1,1.15-1.15h39.1a1.14,1.14,0,0,1,1.15,1.15V205A1.14,1.14,0,0,1,173.3,206.15Zm-38-2.3h36.8v-10.2h-36.8Z"/><rect class="cls-19" x="242.1" y="188.4" width="19" height="19"/><rect class="cls-19" x="225.3" y="195.7" width="11.7" height="11.7"/><path class="cls-3" d="M247.8,200.2a.47.47,0,0,1-.5-.5h0a.55.55,0,0,1,.3-.5l9.9-3.5a.54.54,0,0,1,.4,1l-10.1,3.5Z"/><path class="cls-3" d="M249.4,202.6a.47.47,0,0,1-.5-.5h0a.55.55,0,0,1,.3-.5l5.4-1.8a.44.44,0,0,1,.6.4.76.76,0,0,1-.2.5h0l-5.4,1.8Z"/><polygon class="cls-4" points="218.8 209.1 212 209.1 228.6 155.5 235.4 155.5 218.8 209.1"/><polygon class="cls-4" points="229.7 209.1 223 209.1 239.6 155.5 246.4 155.5 229.7 209.1"/><path class="cls-3" d="M263.7,210.22H197.2a1.12,1.12,0,0,1-1.12-1.12V155.5a1.12,1.12,0,0,1,1.12-1.12h66.5a1.12,1.12,0,0,1,1.12,1.12v53.6A1.12,1.12,0,0,1,263.7,210.22ZM198.32,208h64.26V156.62H198.32Z"/><circle class="cls-13" cx="259.2" cy="240.4" r="5.9"/><circle class="cls-13" cx="258.5" cy="227.5" r="1.8"/><circle class="cls-13" cx="244.2" cy="233.5" r="2.2"/><circle class="cls-13" cx="235.1" cy="245.5" r="1.1"/><circle class="cls-13" cx="239.5" cy="248.8" r="2.5"/><circle class="cls-13" cx="246.7" cy="244.1" r="2.5"/><rect class="cls-13" x="227.2" y="247.6" width="48.9" height="6.2"/><path class="cls-3" d="M276.3,257.45H97.4a1.14,1.14,0,0,1-1.15-1.15v-14a1.15,1.15,0,1,1,2.3,0v12.85h176.6V136.8a1.15,1.15,0,1,1,2.3,0V256.3A1.14,1.14,0,0,1,276.3,257.45Z"/><rect class="cls-10" x="39.3" y="253.8" width="259.1" height="12"/><rect class="cls-4" x="39.3" y="253.8" width="259.1" height="5.8"/><path class="cls-3" d="M298.4,267.75H39.3a1.14,1.14,0,0,1-1.15-1.15v-12a1.14,1.14,0,0,1,1.15-1.15H298.4a1.14,1.14,0,0,1,1.15,1.15v12A1.14,1.14,0,0,1,298.4,267.75Zm-257.95-2.3h256.8v-9.7H40.45Z"/><path class="cls-15" d="M291.21,122.74,251.05,75.52H121.91L84.59,119.41a35.65,35.65,0,0,0-3,3.17,5.42,5.42,0,0,0-.78,1.93h-.09v.57a7.13,7.13,0,0,0,0,1.6v2.45a11.73,11.73,0,0,0,23.45-.27h0v-1.7h0v2a11.73,11.73,0,0,0,23.45-.27h0v-1.42h0v1.69a11.73,11.73,0,0,0,23.45-.27h0v-1.13h0v1.4a11.73,11.73,0,0,0,23.45-.27h0V128h0v1.11a11.73,11.73,0,0,0,23.45-.27v-.55h0v.82a11.73,11.73,0,0,0,23.45-.27v-.26h0v.53a11.73,11.73,0,0,0,23.45-.24h0v.24a11.73,11.73,0,0,0,23.45-.27v-4.37h0v4.63a11.73,11.73,0,1,0,23.45-.27v-4.36ZM135.54,76H135l.11-.16Z"/><path class="cls-21" d="M220,75.71l21.3,48.8s3.46,9.93-5.66,15.89l4.13-1.5s8.72-6.31,2.89-20.15-19.35-42.43-19.35-42.43Z"/><path class="cls-4" d="M192.1,76l5.47,45.62.32,6.1s-1.68,9.91,6.55,11.86l3.4,1.31s8.36.64,11.57-5.78,1.61-10.6,1.61-10.6L207.84,76.32Z"/><path class="cls-7" d="M219.08,135.11c-2.4,3.95-7.19,6.51-11.72,5.62,1.93.38,4.71-1.09,6.2-2.19a11.59,11.59,0,0,0,4-5.82c2.08-5.87-.46-12.12-2-17.93L211,97.92l-5.75-21.6-13.5-.27v0l15.74.32,6.7,24.49,4.24,15.51c1.66,6.07,4.17,12.36.84,18.38Z"/><path class="cls-21" d="M248.32,76l39.83,49.47s5.3,12.49-8.27,15.24c0,0,12.13,1.47,11.81-14.92l-1-3.21L250.57,76Z"/><path class="cls-4" d="M135.09,75.52l-31.16,47.22v4.82s-1.93,12.53,10.28,13.49,13.37-10.57,13.37-10.57l-.2-5.49.64-3.53L148.9,75.84Z"/><path class="cls-4" d="M163.51,75.68,151,122.58l-.65,4.5s.2,11.6,8.77,13.35,12.24-2.86,13.14-4.41,1.87-9.26,1.87-9.26l5.14-51.4Z"/><path class="cls-4" d="M222.3,76.32l21.84,45.94.65,8.6s.67,10.35,10.13,10,13-9.38,13-9.38l0-6L236.76,76Z"/><path class="cls-7" d="M234.22,76.46l28.55,44.65a16.85,16.85,0,0,1,2.34,12.82c-.56,2.49-1.73,4.81-4,5.83,0,0,8.72-2.42,6.93-14.14-.63-4.08-6-10.64-10.73-18.15C248,92.7,236.59,75.58,236.59,75.58Z"/><path class="cls-21" d="M190.36,75.36,195,124.19s1.82,15.56-10.17,16.29c0,0,13.72,2.35,13.23-15.48s-6-49.32-6-49.32Z"/><path class="cls-7" d="M176.36,76l-5.78,46.26a16.56,16.56,0,0,1-6.1,18.31l6.1-2.57,3.21-7.07s5.47-54.61,4.82-54.93A5.1,5.1,0,0,0,176.36,76Z"/><path class="cls-21" d="M160.94,75.68l-13.17,48.51s3.54,10.92-6.15,16.72c0,0,11.29-3.55,8.89-15.65,0,0,14.29-48.94,13.65-49.26A13.44,13.44,0,0,0,160.94,75.68Z"/><path class="cls-7" d="M146.49,76,124,123.87s5.73,10.54-6.77,17.15c0,0,11.59-2.38,10-15.87l22.16-49.47-3-.22Z"/><path class="cls-21" d="M131.87,75.59l-31.32,47.63s1.61,15.1-9.31,18c0,0,14.45-1.28,12.53-16.06L134.6,76Z"/><path class="cls-3" d="M185.93,141.85a12.52,12.52,0,0,1-12.53-12.38v-4.64a.81.81,0,0,1,1.61,0v4.63a10.92,10.92,0,0,0,21.84-.26h0v-4.37a.81.81,0,0,1,1.61,0v4.36a12.53,12.53,0,0,1-12.38,12.66Z"/><path class="cls-3" d="M209.38,141.85a12.52,12.52,0,0,1-12.53-12.38v-4.64a.81.81,0,0,1,1.61,0v4.63a10.92,10.92,0,0,0,21.84-.26h0v-4.37a.81.81,0,0,1,1.61,0v4.36a12.53,12.53,0,0,1-12.38,12.66Z"/><path class="cls-3" d="M232.83,141.85a12.52,12.52,0,0,1-12.53-12.38v-4.64a.81.81,0,0,1,1.61,0v4.63a10.92,10.92,0,0,0,21.84-.26h0v-4.37a.81.81,0,0,1,1.61,0v4.36A12.53,12.53,0,0,1,233,141.85Z"/><path class="cls-3" d="M256.28,141.85a12.52,12.52,0,0,1-12.53-12.38v-4.64a.81.81,0,0,1,1.61,0v4.63a10.92,10.92,0,0,0,21.84-.26h0v-4.37a.81.81,0,0,1,1.61,0v4.36a12.53,12.53,0,0,1-12.38,12.66Z"/><path class="cls-3" d="M279.73,141.85a12.52,12.52,0,0,1-12.53-12.38v-4.64a.81.81,0,0,1,1.61,0v4.63a10.92,10.92,0,0,0,21.84-.26h0v-4.37a.81.81,0,0,1,1.61,0v4.36a12.53,12.53,0,0,1-12.38,12.66Z"/><path class="cls-3" d="M162.48,141.85A12.52,12.52,0,0,1,150,129.47v-4.64a.81.81,0,0,1,1.61,0v4.63a10.92,10.92,0,0,0,21.84-.26h0v-4.37a.81.81,0,0,1,1.61,0v4.36a12.53,12.53,0,0,1-12.38,12.66Z"/><path class="cls-3" d="M139,141.85a12.52,12.52,0,0,1-12.53-12.38v-4.64a.81.81,0,0,1,1.61,0v4.63A10.92,10.92,0,0,0,150,129.2h0v-4.37a.81.81,0,0,1,1.61,0v4.36a12.53,12.53,0,0,1-12.38,12.66Z"/><path class="cls-3" d="M115.58,141.85a12.52,12.52,0,0,1-12.53-12.38v-4.64a.81.81,0,0,1,1.61,0v4.63a10.92,10.92,0,0,0,21.84-.26h0v-4.37a.81.81,0,0,1,1.61,0v4.36a12.53,12.53,0,0,1-12.38,12.66Z"/><path class="cls-3" d="M92.13,141.85A12.52,12.52,0,0,1,79.6,129.47v-4.64a.81.81,0,0,1,1.61,0v4.63a10.92,10.92,0,0,0,21.84-.26h0v-4.37a.81.81,0,0,1,1.61,0v4.36a12.53,12.53,0,0,1-12.38,12.66Z"/><path class="cls-3" d="M174.28,123.22h-.09a.79.79,0,0,1-.71-.88l4.81-46.58a.82.82,0,0,1,.89-.72.81.81,0,0,1,.72.89l-4.82,46.58A.79.79,0,0,1,174.28,123.22Z"/><path class="cls-3" d="M194.51,95.12a.83.83,0,0,1-.8-.72l-1.92-18.48a.8.8,0,1,1,1.6-.16l1.93,18.47a.81.81,0,0,1-.72.88Z"/><path class="cls-3" d="M195.54,105.2a.82.82,0,0,1-.8-.72l-.55-5.27a.81.81,0,0,1,1.61-.16l.54,5.26a.79.79,0,0,1-.71.88h-.09Z"/><path class="cls-3" d="M197.4,123.22a.81.81,0,0,1-.8-.72l-1.09-10.65a.8.8,0,1,1,1.6-.16l1.1,10.65a.8.8,0,0,1-.71.88Z"/><path class="cls-3" d="M220.53,123.87a.8.8,0,0,1-.77-.6L207.23,76.05a.8.8,0,1,1,1.55-.41l12.53,47.22a.8.8,0,0,1-.57,1A.76.76,0,0,1,220.53,123.87Z"/><path class="cls-3" d="M244.3,123.87a.8.8,0,0,1-.72-.47L222.05,76.18a.81.81,0,0,1,.4-1.07.8.8,0,0,1,1.06.4L245,122.73a.82.82,0,0,1-.74,1.14Z"/><path class="cls-3" d="M127.7,123.87a.89.89,0,0,1-.32-.08.8.8,0,0,1-.4-1.06h0L148.5,75.51a.8.8,0,1,1,1.46.67L128.44,123.4A.8.8,0,0,1,127.7,123.87Z"/><path class="cls-3" d="M124.83,92.22a.79.79,0,0,1-.8-.79.9.9,0,0,1,.13-.45l9.93-15.25a.8.8,0,0,1,1.1-.29.81.81,0,0,1,.29,1.1l0,.06-9.93,15.26A.8.8,0,0,1,124.83,92.22Z"/><path class="cls-3" d="M118.1,102.56a.79.79,0,0,1-.8-.79.9.9,0,0,1,.13-.45l4.18-6.42a.79.79,0,0,1,1.11-.23.81.81,0,0,1,.24,1.11l-4.18,6.42A.77.77,0,0,1,118.1,102.56Z"/><path class="cls-3" d="M104.25,123.87a.82.82,0,0,1-.81-.8.77.77,0,0,1,.14-.44l11.33-17.43a.81.81,0,0,1,1.35.88L104.92,123.5A.8.8,0,0,1,104.25,123.87Z"/><path class="cls-3" d="M267.43,123.87a.8.8,0,0,1-.67-.37L236.25,76.6a.8.8,0,1,1,1.3-.93l0,.06,30.52,46.9a.81.81,0,0,1-.24,1.11A.84.84,0,0,1,267.43,123.87Z"/><path class="cls-3" d="M290.88,123.87a.83.83,0,0,1-.61-.29L250.12,76.36a.8.8,0,0,1,1.17-1.1l.05.06,40.15,47.22a.8.8,0,0,1-.09,1.13A.77.77,0,0,1,290.88,123.87Z"/><path class="cls-3" d="M81.44,123.87a.82.82,0,0,1-.8-.81.83.83,0,0,1,.19-.52L121,75.32a.81.81,0,0,1,1.14,0,.79.79,0,0,1,.08,1.07L82.05,123.58A.81.81,0,0,1,81.44,123.87Z"/><path class="cls-3" d="M156.2,104.82a.75.75,0,0,1-.21,0,.81.81,0,0,1-.57-1h0l7.48-28.17a.8.8,0,1,1,1.55.41L157,104.23A.79.79,0,0,1,156.2,104.82Z"/><path class="cls-3" d="M151.15,123.87a.76.76,0,0,1-.21,0,.8.8,0,0,1-.57-1l3.45-13a.8.8,0,1,1,1.57.35s0,0,0,.06l-3.45,13A.8.8,0,0,1,151.15,123.87Z"/><path class="cls-3" d="M250.73,76.64H121.59a.8.8,0,0,1,0-1.6H250.73a.8.8,0,1,1,0,1.6Z"/><path class="cls-3" d="M157.84,98.47a.5.5,0,0,1-.49-.48.47.47,0,0,1,.33-.46l9.1-3.17a.49.49,0,0,1,.62.3.48.48,0,0,1-.29.61L158,98.44A.51.51,0,0,1,157.84,98.47Z"/><path class="cls-3" d="M159.38,100.69a.49.49,0,0,1-.15-1l5-1.66a.48.48,0,0,1,.62.26.49.49,0,0,1-.26.63l-.06,0-5,1.67A.76.76,0,0,1,159.38,100.69Z"/><path class="cls-3" d="M158.93,130.2a.46.46,0,0,1-.23-.06l-7.25-3.8a.47.47,0,0,1-.2-.65.48.48,0,0,1,.65-.2h0l7.25,3.8a.48.48,0,0,1,.2.64A.46.46,0,0,1,158.93,130.2Z"/><path class="cls-3" d="M154.66,130.27a.46.46,0,0,1-.23-.06l-3.21-1.69a.49.49,0,0,1-.2-.65.47.47,0,0,1,.65-.2l3.2,1.69a.48.48,0,0,1,.19.65.47.47,0,0,1-.42.26Z"/><path class="cls-3" d="M242,117.74a.48.48,0,0,1-.48-.48.49.49,0,0,1,.32-.46l9.11-3.16a.48.48,0,0,1,.61.29.49.49,0,0,1-.29.62l-9.1,3.16A.47.47,0,0,1,242,117.74Z"/><path class="cls-3" d="M243.87,120.28a.5.5,0,0,1-.48-.49.5.5,0,0,1,.32-.45l5-1.67a.48.48,0,0,1,.36.9h0l-5,1.67Z"/><circle class="cls-21" cx="193.71" cy="120.97" r="2.57"/><circle class="cls-7" cx="216.84" cy="125.79" r="2.57"/><circle class="cls-7" cx="206.08" cy="95.44" r="2.73"/><circle class="cls-7" cx="205.44" cy="90.62" r="0.8"/><circle class="cls-7" cx="121.11" cy="126.11" r="4.5"/><circle class="cls-21" cx="286.55" cy="126.11" r="2.57"/><circle class="cls-21" cx="282.85" cy="122.74" r="0.8"/><circle class="cls-7" cx="212.98" cy="120.97" r="0.96"/><circle class="cls-21" cx="190.5" cy="117.44" r="0.96"/><circle class="cls-7" cx="117.26" cy="119.05" r="1.61"/><path class="cls-3" d="M291.21,124.67H81a.81.81,0,1,1,0-1.61H291.21a.81.81,0,0,1,0,1.61Z"/><path class="cls-7" d="M209.61,90.62h0a3,3,0,0,0-2.92,3.74L210,107.61a3,3,0,0,0,2.92,2.28h1.82Z"/></g></g></svg>